<svg width="521" height="455" viewBox="0 0 521 455" fill="none" xmlns="http://www.w3.org/2000/svg">
<path d="M363.063 427.238H352.357V427.546H363.063V427.238Z" fill="#2D2D2D"/>
<path d="M246.996 348.999H9.10943C5.22863 348.999 2.07471 345.84 2.07471 341.953V7.04537C2.07471 3.15869 5.22863 0 9.10943 0H247.009C250.889 0 254.043 3.15869 254.043 7.04537V341.953C254.031 345.84 250.877 348.999 246.996 348.999ZM9.10943 0.308466C5.40111 0.308466 2.38271 3.33144 2.38271 7.04537V341.953C2.38271 345.667 5.40111 348.69 9.10943 348.69H247.009C250.717 348.69 253.735 345.667 253.735 341.953V7.04537C253.735 3.33144 250.717 0.308466 247.009 0.308466H9.10943Z" fill="url(#paint0_radial_6311_584)"/>
<path d="M513.478 348.999H275.579C271.698 348.999 268.544 345.84 268.544 341.953V7.04537C268.544 3.15869 271.698 0 275.579 0H513.478C517.359 0 520.513 3.15869 520.513 7.04537V341.953C520.513 345.84 517.359 348.999 513.478 348.999ZM275.579 0.308466C271.87 0.308466 268.852 3.33144 268.852 7.04537V341.953C268.852 345.667 271.87 348.69 275.579 348.69H513.478C517.186 348.69 520.205 345.667 520.205 341.953V7.04537C520.205 3.33144 517.186 0.308466 513.478 0.308466H275.579Z" fill="url(#paint1_radial_6311_584)"/>
<path d="M503.25 404.029H0V404.337H503.25V404.029Z" fill="#2D2D2D"/>
<path d="M468.436 49.0093H314.695V212.978H468.436V49.0093Z" fill="#F5F5F5"/>
<path d="M459.196 58.2632H323.935V203.723H459.196V58.2632Z" fill="#F5F5F5"/>
<path d="M377.021 203.723H417.677L455.845 58.2632H415.189L377.021 203.723Z" fill="#EFEFEF"/>
<path d="M396.302 58.2632L358.135 203.723H367.991L406.158 58.2632H396.302Z" fill="#EFEFEF"/>
<path d="M470.382 56.7211H312.748L309.422 48.9478H473.709L470.382 56.7211Z" fill="#F5F5F5"/>
<path d="M470.382 61.2245H312.748L309.422 53.4512H473.709L470.382 61.2245Z" fill="#F5F5F5"/>
<path d="M470.382 65.7279H312.748L309.422 57.9546H473.709L470.382 65.7279Z" fill="#F5F5F5"/>
<path d="M470.382 70.2318H312.748L309.422 62.4585H473.709L470.382 70.2318Z" fill="#EFEFEF"/>
<path d="M479.438 39.2124H303.693V49.5769H479.438V39.2124Z" fill="#EFEFEF"/>
<path d="M305.492 143.548C304.506 143.548 303.705 142.746 303.705 141.759V81.2994C303.705 80.3123 304.506 79.5103 305.492 79.5103C306.477 79.5103 307.278 80.3123 307.278 81.2994V141.746C307.278 142.746 306.477 143.548 305.492 143.548Z" fill="#EFEFEF"/>
<path d="M306.132 47.4917H304.839V83.3972H306.132V47.4917Z" fill="#EFEFEF"/>
<path d="M66.5207 45.8257H64.3031V219.023H66.5207V45.8257Z" fill="#F5F5F5"/>
<path d="M204.566 45.8257H202.349V219.023H204.566V45.8257Z" fill="#F5F5F5"/>
<path d="M213.252 56.7211H55.6174L52.291 48.9478H216.578L213.252 56.7211Z" fill="#F5F5F5"/>
<path d="M213.252 67.394H55.6174L52.291 59.6206H216.578L213.252 67.394Z" fill="#F5F5F5"/>
<path d="M213.252 78.0668H55.6174L52.291 70.2935H216.578L213.252 78.0668Z" fill="#F5F5F5"/>
<path d="M213.252 88.7397H55.6174L52.291 80.9663H216.578L213.252 88.7397Z" fill="#F5F5F5"/>
<path d="M213.252 99.4125H55.6174L52.291 91.6392H216.578L213.252 99.4125Z" fill="#F5F5F5"/>
<path d="M213.252 110.085H55.6174L52.291 102.312H216.578L213.252 110.085Z" fill="#F5F5F5"/>
<path d="M213.252 120.759H55.6174L52.291 112.985H216.578L213.252 120.759Z" fill="#F5F5F5"/>
<path d="M213.252 131.419H55.6174L52.291 123.646H216.578L213.252 131.419Z" fill="#F5F5F5"/>
<path d="M213.252 142.092H55.6174L52.291 134.319H216.578L213.252 142.092Z" fill="#F5F5F5"/>
<path d="M213.252 152.765H55.6174L52.291 144.992H216.578L213.252 152.765Z" fill="#F5F5F5"/>
<path d="M213.252 163.438H55.6174L52.291 155.665H216.578L213.252 163.438Z" fill="#F5F5F5"/>
<path d="M213.252 174.111H55.6174L52.291 166.337H216.578L213.252 174.111Z" fill="#F5F5F5"/>
<path d="M213.252 184.784H55.6174L52.291 177.01H216.578L213.252 184.784Z" fill="#F5F5F5"/>
<path d="M213.252 195.457H55.6174L52.291 187.684H216.578L213.252 195.457Z" fill="#F5F5F5"/>
<path d="M213.252 206.13H55.6174L52.291 198.356H216.578L213.252 206.13Z" fill="#F5F5F5"/>
<path d="M213.252 216.803H55.6174L52.291 209.029H216.578L213.252 216.803Z" fill="#F5F5F5"/>
<path d="M216.578 216.803H52.291V221.245H216.578V216.803Z" fill="#F5F5F5"/>
<path d="M222.307 39.2124H46.5623V49.5769H222.307V39.2124Z" fill="#F5F5F5"/>
<path d="M48.3733 143.548C47.3877 143.548 46.5869 142.746 46.5869 141.759V81.2994C46.5869 80.3123 47.3877 79.5103 48.3733 79.5103C49.3589 79.5103 50.1597 80.3123 50.1597 81.2994V141.746C50.1597 142.746 49.3589 143.548 48.3733 143.548Z" fill="#F5F5F5"/>
<path d="M49.0139 47.4917H47.7203V83.3972H49.0139V47.4917Z" fill="#F5F5F5"/>
<path d="M65.0422 329.96C64.8944 330.133 65.7198 331.292 62.3442 330.774C54.0282 329.528 39.5522 326.147 35.5235 317.584C29.7701 305.357 47.6094 309.823 46.9934 303.568C46.3774 297.312 26.0741 298.41 23.9181 289.23C21.7621 280.062 35.5358 284.43 35.7206 279.951C35.9054 275.485 20.0373 278.261 16.8834 268.365C13.7294 258.47 25.7291 265.75 24.3493 261.641C22.9694 257.532 9.55297 238.913 16.8464 236.754C24.1522 234.595 36.4598 253.695 41.203 256.397C45.9462 259.099 50.172 243.515 55.8269 250.092C61.4818 256.668 52.5128 279.692 59.7323 284.159C65.1038 287.49 63.5885 278.323 70.6848 280.025C80.3314 282.382 77.0912 316.461 65.0422 329.96Z" fill="#2D2D2D"/>
<path d="M39.3797 280.013C42.6445 280.284 45.0592 280.951 46.5622 281.494C43.6301 277.2 41.5233 274.991 41.4494 274.917C41.2153 274.67 41.2153 274.288 41.4617 274.041C41.7081 273.807 42.0901 273.807 42.3365 274.053C42.3981 274.115 47.2521 279.125 52.5744 288.934C55.1862 273.153 48.595 259.37 48.5211 259.222C48.4102 258.988 48.5088 258.716 48.7305 258.605C48.9523 258.494 49.2357 258.593 49.3465 258.815C49.4205 258.963 56.4675 273.683 53.2643 290.242C54.1144 291.87 54.9645 293.598 55.8145 295.473C58.2539 300.865 60.8165 307.775 62.8369 316.091C64.2414 313.549 67.4569 306.751 67.7403 297.262C67.7526 297.003 67.9621 296.806 68.2208 296.818C68.4795 296.831 68.6766 297.04 68.6643 297.299C68.3317 308.281 64.1305 315.795 63.1573 317.399C65.8307 328.948 67.4323 343.162 66.2865 359.918C66.2619 360.264 65.9662 360.51 65.6336 360.486C65.6089 360.486 65.5843 360.486 65.5597 360.473C65.264 360.412 65.0422 360.14 65.0669 359.832C66.5945 337.659 63.2805 319.83 58.6974 306.331C57.5393 304.986 54.1021 301.532 48.8661 300.717C48.632 300.656 48.4472 300.446 48.4841 300.187C48.5211 299.94 48.7552 299.767 49.0139 299.804C53.1534 300.458 56.1841 302.605 57.9828 304.271C54.6072 294.893 50.6648 287.762 47.4739 282.888C46.4513 282.419 43.6424 281.333 39.3057 280.963C39.0593 280.926 38.8622 280.716 38.8868 280.457C38.8992 280.186 39.1209 280.001 39.3797 280.013Z" fill="#2A2A2A"/>
<path d="M75.6867 334.686C82.5982 334.821 94.4008 328.393 99.0331 322.137C103.739 315.795 90.5076 319.731 91.8628 314.746C93.218 309.761 109.53 313.451 112.536 306.307C115.542 299.175 103.776 300.816 104.244 297.164C104.713 293.511 116.897 294.252 120.815 286.676C124.733 279.088 114.002 283.344 115.69 280.198C117.378 277.052 130.806 263.825 125.188 261.073C119.571 258.309 106.967 272.092 102.754 273.634C98.528 275.176 97.5424 265.651 92.06 270.204C86.5652 274.757 90.6801 294.647 84.2121 297.275C79.395 299.224 81.4401 290.118 75.9084 292.426C66.2003 296.448 72.89 334.636 75.6867 334.686Z" fill="#2A2A2A"/>
<g opacity="0.3">
<path d="M75.6867 334.686C82.5982 334.821 94.4008 328.393 99.0331 322.137C103.739 315.795 90.5076 319.731 91.8628 314.746C93.218 309.761 109.53 313.451 112.536 306.307C115.542 299.175 103.776 300.816 104.244 297.164C104.713 293.511 116.897 294.252 120.815 286.676C124.733 279.088 114.002 283.344 115.69 280.198C117.378 277.052 130.806 263.825 125.188 261.073C119.571 258.309 106.967 272.092 102.754 273.634C98.528 275.176 97.5424 265.651 92.06 270.204C86.5652 274.757 90.6801 294.647 84.2121 297.275C79.395 299.224 81.4401 290.118 75.9084 292.426C66.2003 296.448 72.89 334.636 75.6867 334.686Z" fill="#2A2A2A"/>
</g>
<path d="M77.9782 326.382C77.8797 326.345 77.7934 326.283 77.7318 326.184C77.5717 325.876 73.7894 318.534 74.6272 307.639C74.6518 307.38 74.8613 307.195 75.12 307.22C75.3787 307.244 75.5635 307.466 75.5389 307.713C74.8243 316.918 77.5717 323.655 78.3355 325.345C81.4278 316.93 85.1361 309.453 88.8568 303.049C87.6371 288.193 95.2385 276.028 95.3125 275.904C95.448 275.694 95.7313 275.62 95.9531 275.756C96.1625 275.892 96.2365 276.176 96.1009 276.398C96.027 276.509 89.0416 287.7 89.6945 301.618C98.5526 286.762 107.189 278.137 107.361 277.965C107.608 277.73 107.99 277.73 108.236 277.977C108.47 278.224 108.47 278.606 108.224 278.853C108.076 279.001 101.928 285.146 94.7457 295.93C98.9592 294.363 103.53 293.548 107.805 293.622C108.064 293.622 108.261 293.832 108.261 294.091C108.261 294.338 108.051 294.548 107.793 294.548C107.793 294.548 107.793 294.548 107.78 294.548C103.21 294.462 98.2816 295.424 93.8464 297.262C91.3701 301.063 88.8075 305.406 86.3312 310.206C88.7089 308.602 93.3166 306.368 99.2179 307.935C99.4643 307.997 99.6121 308.256 99.5505 308.503C99.4889 308.75 99.2302 308.898 98.9838 308.836C91.4933 306.862 86.2203 311.341 85.3579 312.13C78.5819 325.789 72.7422 343.063 71.9661 362.855C71.9537 363.188 71.6827 363.447 71.3501 363.447C71.3377 363.447 71.3377 363.447 71.3254 363.447C70.9805 363.435 70.7217 363.151 70.7341 362.805C71.2761 349.406 74.1097 337.166 77.9782 326.382Z" fill="#2A2A2A"/>
<path d="M56.258 402.277C49.6668 389.852 45.3302 371.911 45.3302 364.052C45.3302 357.401 48.4472 351.442 53.3875 347.259H87.1566C92.0969 351.442 95.2139 357.401 95.2139 364.052C95.2139 371.911 90.8772 389.864 84.286 402.277H56.258Z" fill="#2D2D2D"/>
<path d="M257.062 455C388.987 455 495.934 448.747 495.934 441.033C495.934 433.319 388.987 427.065 257.062 427.065C125.136 427.065 18.1892 433.319 18.1892 441.033C18.1892 448.747 125.136 455 257.062 455Z" fill="#D9D9D9" fill-opacity="0.26"/>
<path d="M315.545 79.8188H286.002C284.067 79.8188 282.306 81.2625 281.899 83.1873L281.702 84.1127C280.692 88.8137 276.392 92.3302 271.673 92.3302H243.584C238.853 92.3302 235.182 88.8137 234.984 84.1127L234.947 83.1873C234.874 81.2625 233.358 79.8188 231.424 79.8188H201.881C192.025 79.8188 183.339 87.8143 182.477 97.6852L158.711 369.802C157.849 379.673 165.142 387.668 174.998 387.668H288.675C298.531 387.668 307.217 379.673 308.079 369.802L331.844 97.6852C332.694 87.8143 325.401 79.8188 315.545 79.8188Z" fill="#D83B01"/>
<path opacity="0.7" d="M315.545 79.8188H286.002C284.067 79.8188 282.306 81.2625 281.899 83.1873L281.702 84.1127C280.692 88.8137 276.392 92.3302 271.673 92.3302H243.584C238.853 92.3302 235.182 88.8137 234.984 84.1127L234.947 83.1873C234.874 81.2625 233.358 79.8188 231.424 79.8188H201.881C192.025 79.8188 183.339 87.8143 182.477 97.6852L158.711 369.802C157.849 379.673 165.142 387.668 174.998 387.668H288.675C298.531 387.668 307.217 379.673 308.079 369.802L331.844 97.6852C332.694 87.8143 325.401 79.8188 315.545 79.8188Z" fill="white" fill-opacity="0.3"/>
<path d="M304.026 204.97H243.67C241.477 204.97 239.863 203.193 240.048 200.997L244.594 148.94C244.791 146.744 246.713 144.967 248.906 144.967H309.262C311.455 144.967 313.068 146.744 312.884 148.94L308.338 200.997C308.14 203.193 306.219 204.97 304.026 204.97Z" fill="white" fill-opacity="0.3"/>
<path d="M283.919 367.741H182.92C177.487 367.741 173.458 363.324 173.939 357.882C174.419 352.441 179.212 348.024 184.645 348.024H285.657C291.09 348.024 295.118 352.441 294.638 357.882C294.157 363.324 289.365 367.741 283.919 367.741Z" fill="white" fill-opacity="0.3"/>
<path d="M291.989 130.667H199.306C196.25 130.667 193.996 128.186 194.267 125.126L195.018 116.477C195.289 113.417 197.975 110.937 201.03 110.937H293.714C296.769 110.937 299.024 113.417 298.753 116.477L298.001 125.126C297.742 128.186 295.044 130.667 291.989 130.667Z" fill="white" fill-opacity="0.3"/>
<path d="M310.839 116.193C310.765 117.045 310.013 117.736 309.163 117.736C308.313 117.736 307.685 117.045 307.759 116.193C307.833 115.342 308.584 114.651 309.434 114.651C310.284 114.651 310.913 115.342 310.839 116.193Z" fill="white" fill-opacity="0.3"/>
<path d="M310.432 120.808C310.358 121.659 309.607 122.35 308.757 122.35C307.907 122.35 307.278 121.659 307.352 120.808C307.426 119.957 308.178 119.266 309.028 119.266C309.878 119.266 310.506 119.957 310.432 120.808Z" fill="white" fill-opacity="0.3"/>
<path d="M310.038 125.41C309.964 126.261 309.212 126.952 308.362 126.952C307.512 126.952 306.884 126.261 306.958 125.41C307.032 124.559 307.783 123.868 308.633 123.868C309.483 123.868 310.112 124.559 310.038 125.41Z" fill="white" fill-opacity="0.3"/>
<path d="M296.523 290.859H183.758C181.565 290.859 179.951 289.082 180.136 286.886L185.322 227.475C185.52 225.279 187.441 223.502 189.634 223.502H302.399C304.592 223.502 306.206 225.279 306.022 227.475L300.835 286.886C300.638 289.082 298.716 290.859 296.523 290.859Z" fill="white" fill-opacity="0.3"/>
<path d="M214.78 303.272H179.668C179.138 303.272 178.731 302.84 178.781 302.297C178.83 301.766 179.298 301.322 179.828 301.322H214.952C215.482 301.322 215.889 301.754 215.839 302.297C215.79 302.84 215.309 303.272 214.78 303.272Z" fill="white" fill-opacity="0.3"/>
<path d="M258.663 303.272H220.977C220.447 303.272 220.04 302.84 220.089 302.297C220.139 301.766 220.607 301.322 221.137 301.322H258.824C259.353 301.322 259.76 301.754 259.711 302.297C259.661 302.84 259.193 303.272 258.663 303.272Z" fill="white" fill-opacity="0.3"/>
<path d="M202.669 311.835H178.916C178.386 311.835 177.98 311.403 178.029 310.86C178.078 310.329 178.547 309.885 179.076 309.885H202.829C203.359 309.885 203.766 310.317 203.716 310.86C203.679 311.403 203.211 311.835 202.669 311.835Z" fill="white" fill-opacity="0.3"/>
<path d="M247.773 311.835H208.866C208.336 311.835 207.93 311.403 207.979 310.86C208.028 310.329 208.497 309.885 209.026 309.885H247.933C248.463 309.885 248.869 310.317 248.82 310.86C248.771 311.403 248.303 311.835 247.773 311.835Z" fill="white" fill-opacity="0.3"/>
<path d="M241.489 320.41H178.177C177.647 320.41 177.241 319.978 177.29 319.435C177.339 318.905 177.807 318.46 178.337 318.46H241.65C242.179 318.46 242.586 318.892 242.537 319.435C242.5 319.978 242.019 320.41 241.489 320.41Z" fill="white" fill-opacity="0.3"/>
<path d="M251.863 320.41H247.687C247.157 320.41 246.75 319.978 246.799 319.435C246.849 318.905 247.317 318.46 247.847 318.46H252.023C252.553 318.46 252.959 318.892 252.91 319.435C252.873 319.978 252.393 320.41 251.863 320.41Z" fill="white" fill-opacity="0.3"/>
<path d="M206.981 328.973H177.425C176.896 328.973 176.489 328.541 176.538 327.998C176.588 327.468 177.056 327.023 177.586 327.023H207.141C207.671 327.023 208.078 327.455 208.028 327.998C207.991 328.541 207.523 328.973 206.981 328.973Z" fill="white" fill-opacity="0.3"/>
<path d="M249.978 328.973H213.178C212.648 328.973 212.242 328.541 212.291 327.998C212.34 327.468 212.809 327.023 213.351 327.023H250.151C250.68 327.023 251.087 327.455 251.038 327.998C250.988 328.541 250.52 328.973 249.978 328.973Z" fill="white" fill-opacity="0.3"/>
<path d="M213.08 337.549H176.686C176.156 337.549 175.75 337.117 175.799 336.574C175.848 336.043 176.317 335.599 176.846 335.599H213.24C213.769 335.599 214.176 336.031 214.127 336.574C214.077 337.117 213.609 337.549 213.08 337.549Z" fill="white" fill-opacity="0.3"/>
<path d="M248.586 337.549H219.264C218.734 337.549 218.328 337.117 218.377 336.574C218.426 336.043 218.895 335.599 219.437 335.599H248.758C249.288 335.599 249.695 336.031 249.645 336.574C249.596 337.117 249.128 337.549 248.586 337.549Z" fill="white" fill-opacity="0.3"/>
<path d="M302.597 200.046C302.104 200.552 301.315 200.602 300.847 200.157L250.421 151.963C249.953 151.506 249.966 150.729 250.458 150.223C250.951 149.717 251.74 149.668 252.208 150.112L302.634 198.307C303.102 198.751 303.089 199.528 302.597 200.046Z" fill="#D83B01"/>
<path d="M245.962 200.022C245.555 199.516 245.678 198.726 246.22 198.282L271.945 177.22C272.499 176.763 273.263 176.813 273.669 177.331C274.076 177.837 273.953 178.626 273.411 179.071L247.686 200.133C247.144 200.589 246.368 200.54 245.962 200.022Z" fill="#D83B01"/>
<path d="M279.201 172.803C278.794 172.297 278.918 171.507 279.46 171.063L305.233 149.964C305.787 149.507 306.551 149.557 306.958 150.075C307.364 150.581 307.241 151.37 306.699 151.815L280.926 172.914C280.384 173.37 279.607 173.321 279.201 172.803Z" fill="#D83B01"/>
<g opacity="0.7">
<path d="M302.597 200.046C302.104 200.552 301.315 200.602 300.847 200.157L250.421 151.963C249.953 151.506 249.966 150.729 250.458 150.223C250.951 149.717 251.74 149.668 252.208 150.112L302.634 198.307C303.102 198.751 303.089 199.528 302.597 200.046Z" fill="white" fill-opacity="0.3"/>
</g>
<g opacity="0.7">
<path d="M245.962 200.022C245.555 199.516 245.678 198.726 246.22 198.282L271.945 177.22C272.499 176.763 273.263 176.813 273.669 177.331C274.076 177.837 273.953 178.626 273.411 179.071L247.686 200.133C247.144 200.589 246.368 200.54 245.962 200.022Z" fill="white" fill-opacity="0.3"/>
</g>
<g opacity="0.7">
<path d="M279.201 172.803C278.794 172.297 278.918 171.507 279.46 171.063L305.233 149.964C305.787 149.507 306.551 149.557 306.958 150.075C307.364 150.581 307.241 151.37 306.699 151.815L280.926 172.914C280.384 173.37 279.607 173.321 279.201 172.803Z" fill="white" fill-opacity="0.3"/>
</g>
<path d="M159.192 73.896H143.237C139.997 73.896 137.373 76.5241 137.373 79.7692V95.7477C137.373 98.9928 139.997 101.621 143.237 101.621H159.192C162.432 101.621 165.056 98.9928 165.056 95.7477V79.7692C165.056 76.5241 162.432 73.896 159.192 73.896ZM151.221 79.5718C153.623 79.5718 154.929 81.5213 154.929 83.9397C154.929 86.3457 153.635 88.3075 151.221 88.3075C148.818 88.3075 147.512 86.358 147.512 83.9397C147.512 81.5213 148.806 79.5718 151.221 79.5718ZM160.843 95.9452H141.574C141.414 95.9452 141.266 95.8835 141.167 95.7724L142.399 92.3916C143.188 90.22 145.258 88.7764 147.574 88.7764H154.843C157.159 88.7764 159.216 90.22 160.017 92.3916L161.249 95.7724C161.151 95.8835 161.015 95.9452 160.843 95.9452Z" fill="#D83B01"/>
<path opacity="0.7" d="M159.192 73.896H143.237C139.997 73.896 137.373 76.5241 137.373 79.7692V95.7477C137.373 98.9928 139.997 101.621 143.237 101.621H159.192C162.432 101.621 165.056 98.9928 165.056 95.7477V79.7692C165.056 76.5241 162.432 73.896 159.192 73.896ZM151.221 79.5718C153.623 79.5718 154.929 81.5213 154.929 83.9397C154.929 86.3457 153.635 88.3075 151.221 88.3075C148.818 88.3075 147.512 86.358 147.512 83.9397C147.512 81.5213 148.806 79.5718 151.221 79.5718ZM160.843 95.9452H141.574C141.414 95.9452 141.266 95.8835 141.167 95.7724L142.399 92.3916C143.188 90.22 145.258 88.7764 147.574 88.7764H154.843C157.159 88.7764 159.216 90.22 160.017 92.3916L161.249 95.7724C161.151 95.8835 161.015 95.9452 160.843 95.9452Z" fill="#F5F5F5"/>
<path d="M102.421 139.624H90.2982C85.937 139.624 82.4011 143.165 82.4011 147.533V159.674C82.4011 164.042 85.937 167.583 90.2982 167.583H102.421C106.782 167.583 110.318 164.042 110.318 159.674V147.533C110.306 143.165 106.782 139.624 102.421 139.624ZM96.3597 160.23C96.3597 160.23 91.3824 154.801 91.3824 152.049C91.3824 149.298 93.6123 147.064 96.3597 147.064C99.107 147.064 101.337 149.298 101.337 152.049C101.337 154.801 96.3597 160.23 96.3597 160.23Z" fill="#D83B01"/>
<path d="M96.3596 149.779C95.103 149.779 94.0928 150.803 94.0928 152.061C94.0928 153.32 95.1153 154.344 96.3596 154.344C97.6163 154.344 98.6388 153.32 98.6388 152.061C98.6265 150.791 97.6163 149.779 96.3596 149.779Z" fill="#D83B01"/>
<g opacity="0.7">
<path d="M102.421 139.624H90.2982C85.937 139.624 82.4011 143.165 82.4011 147.533V159.674C82.4011 164.042 85.937 167.583 90.2982 167.583H102.421C106.782 167.583 110.318 164.042 110.318 159.674V147.533C110.306 143.165 106.782 139.624 102.421 139.624ZM96.3597 160.23C96.3597 160.23 91.3824 154.801 91.3824 152.049C91.3824 149.298 93.6123 147.064 96.3597 147.064C99.107 147.064 101.337 149.298 101.337 152.049C101.337 154.801 96.3597 160.23 96.3597 160.23Z" fill="#F5F5F5"/>
<path d="M96.3596 149.779C95.103 149.779 94.0928 150.803 94.0928 152.061C94.0928 153.32 95.1153 154.344 96.3596 154.344C97.6163 154.344 98.6388 153.32 98.6388 152.061C98.6265 150.791 97.6163 149.779 96.3596 149.779Z" fill="#F5F5F5"/>
</g>
<path d="M368.583 105.224L376.701 99.955L368.583 94.6987V105.224Z" fill="#D83B01"/>
<path d="M379.042 85.6177H363.568C359.922 85.6177 356.977 88.5789 356.977 92.2189V107.716C356.977 111.368 359.934 114.317 363.568 114.317H379.042C382.689 114.317 385.633 111.356 385.633 107.716V92.2189C385.633 88.5666 382.689 85.6177 379.042 85.6177ZM371.305 110.283C365.613 110.283 361.006 105.656 361.006 99.9675C361.006 94.2671 365.613 89.6524 371.305 89.6524C376.997 89.6524 381.605 94.2794 381.605 99.9675C381.617 105.656 376.997 110.283 371.305 110.283Z" fill="#D83B01"/>
<g opacity="0.7">
<path d="M368.583 105.224L376.701 99.955L368.583 94.6987V105.224Z" fill="#F5F5F5"/>
<path d="M379.042 85.6177H363.568C359.922 85.6177 356.977 88.5789 356.977 92.2189V107.716C356.977 111.368 359.934 114.317 363.568 114.317H379.042C382.689 114.317 385.633 111.356 385.633 107.716V92.2189C385.633 88.5666 382.689 85.6177 379.042 85.6177ZM371.305 110.283C365.613 110.283 361.006 105.656 361.006 99.9675C361.006 94.2671 365.613 89.6524 371.305 89.6524C376.997 89.6524 381.605 94.2794 381.605 99.9675C381.617 105.656 376.997 110.283 371.305 110.283Z" fill="#F5F5F5"/>
</g>
<path d="M394.233 145.053C394.233 144.732 394.22 144.412 394.183 144.103L396.044 143.067C395.908 142.166 395.674 141.302 395.354 140.488L393.235 140.525C392.964 139.945 392.643 139.402 392.286 138.884L393.383 137.058C392.816 136.367 392.188 135.725 391.498 135.17L389.674 136.268C389.157 135.91 388.615 135.59 388.036 135.318L388.073 133.196C387.247 132.875 386.385 132.641 385.498 132.505L384.463 134.368C384.155 134.343 383.835 134.319 383.514 134.319C383.194 134.319 382.874 134.331 382.566 134.368L381.531 132.505C380.631 132.641 379.769 132.875 378.956 133.196L378.993 135.318C378.414 135.59 377.872 135.91 377.354 136.268L375.531 135.17C374.841 135.738 374.2 136.367 373.646 137.058L374.742 138.884C374.385 139.402 374.065 139.945 373.794 140.525L371.675 140.488C371.354 141.315 371.12 142.178 370.985 143.067L372.845 144.103C372.821 144.412 372.796 144.732 372.796 145.053C372.796 145.374 372.808 145.695 372.845 146.003L370.985 147.04C371.12 147.941 371.354 148.804 371.675 149.619L373.794 149.582C374.065 150.161 374.385 150.704 374.742 151.223L373.646 153.049C374.213 153.74 374.841 154.381 375.531 154.937L377.354 153.838C377.872 154.196 378.414 154.517 378.993 154.788L378.956 156.911C379.781 157.232 380.644 157.466 381.531 157.602L382.566 155.739C382.874 155.763 383.194 155.788 383.514 155.788C383.835 155.788 384.155 155.776 384.463 155.739L385.498 157.602C386.397 157.466 387.26 157.232 388.073 156.911L388.036 154.788C388.615 154.517 389.157 154.196 389.674 153.838L391.498 154.937C392.188 154.369 392.828 153.74 393.383 153.049L392.286 151.223C392.643 150.704 392.964 150.161 393.235 149.582L395.354 149.619C395.674 148.792 395.908 147.928 396.044 147.04L394.183 146.003C394.208 145.683 394.233 145.374 394.233 145.053ZM383.49 152.345C379.461 152.345 376.196 149.076 376.196 145.041C376.196 141.006 379.461 137.736 383.49 137.736C387.518 137.736 390.783 141.006 390.783 145.041C390.783 149.088 387.518 152.345 383.49 152.345Z" fill="#D83B01"/>
<path opacity="0.7" d="M394.233 145.053C394.233 144.732 394.22 144.412 394.183 144.103L396.044 143.067C395.908 142.166 395.674 141.302 395.354 140.488L393.235 140.525C392.964 139.945 392.643 139.402 392.286 138.884L393.383 137.058C392.816 136.367 392.188 135.725 391.498 135.17L389.674 136.268C389.157 135.91 388.615 135.59 388.036 135.318L388.073 133.196C387.247 132.875 386.385 132.641 385.498 132.505L384.463 134.368C384.155 134.343 383.835 134.319 383.514 134.319C383.194 134.319 382.874 134.331 382.566 134.368L381.531 132.505C380.631 132.641 379.769 132.875 378.956 133.196L378.993 135.318C378.414 135.59 377.872 135.91 377.354 136.268L375.531 135.17C374.841 135.738 374.2 136.367 373.646 137.058L374.742 138.884C374.385 139.402 374.065 139.945 373.794 140.525L371.675 140.488C371.354 141.315 371.12 142.178 370.985 143.067L372.845 144.103C372.821 144.412 372.796 144.732 372.796 145.053C372.796 145.374 372.808 145.695 372.845 146.003L370.985 147.04C371.12 147.941 371.354 148.804 371.675 149.619L373.794 149.582C374.065 150.161 374.385 150.704 374.742 151.223L373.646 153.049C374.213 153.74 374.841 154.381 375.531 154.937L377.354 153.838C377.872 154.196 378.414 154.517 378.993 154.788L378.956 156.911C379.781 157.232 380.644 157.466 381.531 157.602L382.566 155.739C382.874 155.763 383.194 155.788 383.514 155.788C383.835 155.788 384.155 155.776 384.463 155.739L385.498 157.602C386.397 157.466 387.26 157.232 388.073 156.911L388.036 154.788C388.615 154.517 389.157 154.196 389.674 153.838L391.498 154.937C392.188 154.369 392.828 153.74 393.383 153.049L392.286 151.223C392.643 150.704 392.964 150.161 393.235 149.582L395.354 149.619C395.674 148.792 395.908 147.928 396.044 147.04L394.183 146.003C394.208 145.683 394.233 145.374 394.233 145.053ZM383.49 152.345C379.461 152.345 376.196 149.076 376.196 145.041C376.196 141.006 379.461 137.736 383.49 137.736C387.518 137.736 390.783 141.006 390.783 145.041C390.783 149.088 387.518 152.345 383.49 152.345Z" fill="#F5F5F5"/>
<path d="M366.155 181.736C366.155 181.255 366.131 180.786 366.094 180.317L368.878 178.775C368.669 177.43 368.311 176.147 367.843 174.913L364.665 174.962C364.258 174.098 363.79 173.272 363.248 172.507L364.886 169.78C364.049 168.743 363.1 167.793 362.065 166.954L359.342 168.595C358.566 168.052 357.753 167.571 356.891 167.176L356.94 163.993C355.708 163.524 354.414 163.166 353.084 162.957L351.544 165.745C351.076 165.708 350.607 165.683 350.127 165.683C349.647 165.683 349.178 165.708 348.71 165.745L347.17 162.957C345.827 163.166 344.546 163.524 343.314 163.993L343.363 167.176C342.501 167.584 341.675 168.052 340.912 168.595L338.189 166.954C337.154 167.793 336.205 168.743 335.368 169.78L337.006 172.507C336.464 173.284 335.984 174.098 335.589 174.962L332.411 174.913C331.943 176.147 331.585 177.43 331.376 178.775L334.16 180.317C334.123 180.786 334.099 181.255 334.099 181.736C334.099 182.217 334.123 182.686 334.16 183.155L331.376 184.697C331.585 186.042 331.943 187.325 332.411 188.559L335.589 188.51C335.996 189.374 336.464 190.2 337.006 190.965L335.368 193.692C336.205 194.729 337.154 195.679 338.189 196.518L340.912 194.877C341.688 195.42 342.501 195.901 343.363 196.296L343.314 199.479C344.546 199.948 345.827 200.306 347.17 200.515L348.71 197.727C349.178 197.764 349.647 197.789 350.127 197.789C350.607 197.789 351.076 197.764 351.544 197.727L353.084 200.515C354.427 200.306 355.708 199.948 356.94 199.479L356.891 196.296C357.753 195.888 358.579 195.42 359.342 194.877L362.065 196.518C363.1 195.679 364.049 194.729 364.886 193.692L363.248 190.965C363.79 190.188 364.27 189.374 364.665 188.51L367.843 188.559C368.311 187.325 368.669 186.042 368.878 184.697L366.094 183.155C366.131 182.686 366.155 182.217 366.155 181.736ZM350.102 188.078C346.604 188.078 343.77 185.24 343.77 181.736C343.77 178.232 346.604 175.394 350.102 175.394C353.601 175.394 356.435 178.232 356.435 181.736C356.435 185.24 353.601 188.078 350.102 188.078Z" fill="#D83B01"/>
<path opacity="0.7" d="M366.155 181.736C366.155 181.255 366.131 180.786 366.094 180.317L368.878 178.775C368.669 177.43 368.311 176.147 367.843 174.913L364.665 174.962C364.258 174.098 363.79 173.272 363.248 172.507L364.886 169.78C364.049 168.743 363.1 167.793 362.065 166.954L359.342 168.595C358.566 168.052 357.753 167.571 356.891 167.176L356.94 163.993C355.708 163.524 354.414 163.166 353.084 162.957L351.544 165.745C351.076 165.708 350.607 165.683 350.127 165.683C349.647 165.683 349.178 165.708 348.71 165.745L347.17 162.957C345.827 163.166 344.546 163.524 343.314 163.993L343.363 167.176C342.501 167.584 341.675 168.052 340.912 168.595L338.189 166.954C337.154 167.793 336.205 168.743 335.368 169.78L337.006 172.507C336.464 173.284 335.984 174.098 335.589 174.962L332.411 174.913C331.943 176.147 331.585 177.43 331.376 178.775L334.16 180.317C334.123 180.786 334.099 181.255 334.099 181.736C334.099 182.217 334.123 182.686 334.16 183.155L331.376 184.697C331.585 186.042 331.943 187.325 332.411 188.559L335.589 188.51C335.996 189.374 336.464 190.2 337.006 190.965L335.368 193.692C336.205 194.729 337.154 195.679 338.189 196.518L340.912 194.877C341.688 195.42 342.501 195.901 343.363 196.296L343.314 199.479C344.546 199.948 345.827 200.306 347.17 200.515L348.71 197.727C349.178 197.764 349.647 197.789 350.127 197.789C350.607 197.789 351.076 197.764 351.544 197.727L353.084 200.515C354.427 200.306 355.708 199.948 356.94 199.479L356.891 196.296C357.753 195.888 358.579 195.42 359.342 194.877L362.065 196.518C363.1 195.679 364.049 194.729 364.886 193.692L363.248 190.965C363.79 190.188 364.27 189.374 364.665 188.51L367.843 188.559C368.311 187.325 368.669 186.042 368.878 184.697L366.094 183.155C366.131 182.686 366.155 182.217 366.155 181.736ZM350.102 188.078C346.604 188.078 343.77 185.24 343.77 181.736C343.77 178.232 346.604 175.394 350.102 175.394C353.601 175.394 356.435 178.232 356.435 181.736C356.435 185.24 353.601 188.078 350.102 188.078Z" fill="#F5F5F5"/>
<path d="M320.867 110.196V116.662L314.719 119.907C313.66 120.474 313.66 121.992 314.719 122.56L320.867 125.805V132.27C320.867 133.714 322.038 134.886 323.479 134.886H345.519C346.961 134.886 348.131 133.714 348.131 132.27V110.196C348.131 108.753 346.961 107.581 345.519 107.581H323.479C322.025 107.581 320.867 108.753 320.867 110.196Z" fill="#D83B01"/>
<g opacity="0.9">
<path d="M328.444 116.921C328.949 116.921 340.456 116.921 340.961 116.921C341.811 116.921 342.501 116.23 342.501 115.379C342.501 114.527 341.811 113.836 340.961 113.836C340.333 113.836 329.06 113.836 328.444 113.836C327.594 113.836 326.904 114.527 326.904 115.379C326.916 116.242 327.594 116.921 328.444 116.921Z" fill="#F5F5F5"/>
<path d="M340.973 119.685C340.407 119.685 329.023 119.685 328.456 119.685C327.606 119.685 326.916 120.376 326.916 121.227C326.916 122.079 327.606 122.77 328.456 122.77C329.023 122.77 340.407 122.77 340.973 122.77C341.823 122.77 342.513 122.079 342.513 121.227C342.513 120.376 341.823 119.685 340.973 119.685Z" fill="#F5F5F5"/>
<path d="M340.973 125.534C340.32 125.534 329.109 125.534 328.456 125.534C327.606 125.534 326.916 126.225 326.916 127.076C326.916 127.927 327.606 128.618 328.456 128.618C328.924 128.618 340.505 128.618 340.973 128.618C341.823 128.618 342.513 127.927 342.513 127.076C342.513 126.225 341.823 125.534 340.973 125.534Z" fill="#F5F5F5"/>
</g>
<path d="M196.349 100.042H201.609L204.32 105.187C205.108 106.68 207.24 106.68 208.016 105.187L210.726 100.042H215.987C218.081 100.042 219.781 98.3392 219.781 96.2417V76.5615C219.781 74.464 218.081 72.7612 215.987 72.7612H196.349C194.254 72.7612 192.554 74.464 192.554 76.5615V96.2417C192.554 98.3392 194.242 100.042 196.349 100.042Z" fill="#D83B01"/>
<path opacity="0.9" d="M206.18 78.6343L200.119 82.2002V92.5893H204.628V85.6056H207.745V92.5893H212.254V82.2002L206.18 78.6343Z" fill="#F5F5F5"/>
<path d="M255.362 382.301H250.618L247.588 376.551C246.935 375.317 245.161 375.317 244.508 376.551L241.477 382.301H236.734C234.344 382.301 232.409 384.238 232.409 386.632V405.263C232.409 407.657 234.344 409.594 236.734 409.594H255.337C257.727 409.594 259.661 407.657 259.661 405.263V386.632C259.686 384.238 257.752 382.301 255.362 382.301Z" fill="#D83B01"/>
<path opacity="0.9" d="M248.696 389.408C246.072 386.779 241.797 386.779 239.185 389.408C236.561 392.036 236.561 396.305 239.185 398.933C241.514 401.265 245.136 401.524 247.748 399.723C247.797 400.019 247.933 400.315 248.167 400.549L252.343 404.732C252.935 405.324 253.883 405.324 254.475 404.732C255.066 404.14 255.066 403.19 254.475 402.598L250.298 398.415C250.064 398.18 249.781 398.045 249.473 397.995C251.271 395.367 251.013 391.74 248.696 389.408ZM247.267 397.514C245.432 399.353 242.438 399.353 240.602 397.514C238.767 395.676 238.767 392.677 240.602 390.827C242.438 388.988 245.432 388.988 247.28 390.827C249.103 392.677 249.103 395.676 247.267 397.514Z" fill="#F5F5F5"/>
<path d="M454.317 258.223C454.317 258.223 444.276 283.147 434.445 285.85C424.614 288.552 409.793 286.355 409.793 286.355L405.21 287.614L400.713 286.948C400.664 286.935 400.614 286.935 400.553 286.935L395.477 286.824C394.615 286.8 394.134 285.961 394.615 285.294L396.438 282.777C396.586 282.58 396.795 282.432 397.042 282.345L401.871 280.791C402.056 280.729 402.265 280.717 402.462 280.741L409.842 281.914C409.842 281.914 430.355 278.545 432.449 276.645C434.531 274.745 440.716 254.818 440.716 254.818L454.317 258.223Z" fill="#EEC1BB"/>
<path opacity="0.1" d="M410.31 281.815C410.002 281.864 409.842 281.889 409.842 281.889L402.462 280.717C402.265 280.692 402.068 280.704 401.871 280.766L397.042 282.321C396.795 282.395 396.586 282.555 396.438 282.752L394.615 285.269C394.134 285.936 394.615 286.775 395.477 286.799L400.553 286.911C400.602 286.911 400.651 286.911 400.713 286.923L403.731 287.367C405.974 286.405 408.203 284.369 410.31 281.815Z" fill="black"/>
<path d="M460.379 233.533C453.085 231.14 442.823 236.63 438.893 259.63L454.034 264.059C454.034 264.059 470.801 236.964 460.379 233.533Z" fill="#D83B01"/>
<path d="M417.949 203.477C417.961 204.23 418.355 204.846 418.848 204.834C419.341 204.834 419.772 204.18 419.735 203.452C419.711 202.724 419.329 202.083 418.836 202.095C418.343 202.107 417.949 202.724 417.949 203.477Z" fill="#494948"/>
<path d="M420.93 204.229L417.345 210.164C417.345 210.164 418.589 211.571 421.275 210.535L420.93 204.229Z" fill="#D4827D"/>
<path d="M421.608 198.739C421.521 198.837 421.386 198.887 421.25 198.874C420.265 198.702 419.267 199.023 418.552 199.714C418.404 199.874 418.158 199.899 417.998 199.751C417.838 199.602 417.825 199.356 417.961 199.195C418.848 198.282 420.117 197.875 421.361 198.085C421.583 198.109 421.731 198.319 421.694 198.529C421.694 198.615 421.657 198.689 421.608 198.739Z" fill="#494948"/>
<path d="M446.938 198.097C447.504 208.128 447.948 212.373 443.537 218.073C436.478 224.181 424.441 225.156 420.905 215.495C417.715 206.796 417.333 191.891 426.61 186.721C433.213 183.044 441.554 185.425 445.237 192.039C446.248 193.89 446.839 195.975 446.938 198.097Z" fill="#EEC1BB"/>
<path d="M432.979 220.047L435.517 234.903L447.886 232.041L443.562 216.876L432.979 220.047Z" fill="#EEC1BB"/>
<path d="M424.072 198.837C424.7 192.322 422.47 199.849 419.452 191.249C416.433 182.649 430.65 175.665 432.93 177.269C435.197 178.873 433.903 181.341 441.418 182.723C448.933 184.105 448.613 191.422 448.613 191.422C448.613 191.422 452.937 193.433 451.397 202.736C449.857 212.04 443.993 219.073 443.993 219.073C443.993 219.073 441.147 216.136 436.65 218.851C436.65 218.851 434.433 217.604 432.252 214.347C430.219 211.312 429.603 208.437 426.819 208.178C420.992 207.647 423.862 200.972 424.072 198.837Z" fill="#494948"/>
<path d="M447.788 192.557C447.788 192.557 453.923 188.781 451.213 184.821C448.502 180.86 449.808 189.164 447.788 192.557Z" fill="#494948"/>
<path d="M425.833 202.625C424.466 204.155 423.764 206.167 423.874 208.215C424.047 210.929 426.708 211.411 428.802 209.93C430.7 208.585 432.88 205.562 431.673 203.181C430.466 200.787 427.533 200.775 425.833 202.625Z" fill="#FFC3BD"/>
<path opacity="0.1" d="M433.213 221.454L434.223 227.352C434.162 221.96 437.008 219.295 437.008 219.295C434.112 219.714 433.213 221.454 433.213 221.454Z" fill="black"/>
<path d="M346.246 259.803H342.71V280.692H346.246V259.803Z" fill="#D83B01"/>
<path opacity="0.7" d="M346.246 259.803H342.71V280.692H346.246V259.803Z" fill="#F5F5F5"/>
<path d="M321.951 218.32H313.142C309.841 218.32 307.167 220.997 307.167 224.304V265.17C307.167 268.476 309.841 271.154 313.142 271.154H321.951V218.32Z" fill="#D83B01"/>
<path d="M375.814 271.154H316.223C312.921 271.154 310.247 268.476 310.247 265.17V224.304C310.247 220.997 312.921 218.32 316.223 218.32H375.814C379.116 218.32 381.79 220.997 381.79 224.304V265.17C381.79 268.476 379.116 271.154 375.814 271.154Z" fill="#D83B01"/>
<path opacity="0.5" d="M375.814 271.154H316.223C312.921 271.154 310.247 268.476 310.247 265.17V224.304C310.247 220.997 312.921 218.32 316.223 218.32H375.814C379.116 218.32 381.79 220.997 381.79 224.304V265.17C381.79 268.476 379.116 271.154 375.814 271.154Z" fill="#F5F5F5"/>
<path d="M316.222 220.788C314.288 220.788 312.711 222.367 312.711 224.304V265.17C312.711 267.107 314.288 268.686 316.222 268.686H375.814C377.748 268.686 379.325 267.107 379.325 265.17V224.304C379.325 222.367 377.748 220.788 375.814 220.788H316.222Z" fill="#494948"/>
<path d="M331.61 289.452C331.61 282.333 337.376 276.571 344.472 276.571C351.581 276.571 357.334 282.345 357.334 289.452H331.61Z" fill="#D83B01"/>
<path d="M361.979 285.047H336.255V289.242H387.715V287.515L361.979 285.047Z" fill="#D83B01"/>
<path opacity="0.8" d="M361.979 285.047H336.255V289.242H387.715V287.515L361.979 285.047Z" fill="#F5F5F5"/>
<path d="M361.979 289.242H336.255V285.047L361.979 287.515V289.242Z" fill="#D83B01"/>
<path opacity="0.6" d="M361.979 289.242H336.255V285.047L361.979 287.515V289.242Z" fill="#F5F5F5"/>
<path d="M418.725 433.247H365.626C361.166 433.247 357.556 429.632 357.556 425.165V302.926C357.556 298.459 361.166 294.844 365.626 294.844H418.725C419.92 294.844 420.881 295.807 420.881 297.004C420.881 298.2 419.92 299.163 418.725 299.163H365.626C363.556 299.163 361.868 300.841 361.868 302.926V425.165C361.868 427.238 363.544 428.928 365.626 428.928H418.725C419.92 428.928 420.881 429.891 420.881 431.088C420.881 432.284 419.92 433.247 418.725 433.247Z" fill="#F5F5F5"/>
<g opacity="0.5">
<path d="M418.725 433.247H365.626C361.166 433.247 357.556 429.632 357.556 425.165V302.926C357.556 298.459 361.166 294.844 365.626 294.844H418.725C419.92 294.844 420.881 295.807 420.881 297.004C420.881 298.2 419.92 299.163 418.725 299.163H365.626C363.556 299.163 361.868 300.841 361.868 302.926V425.165C361.868 427.238 363.544 428.928 365.626 428.928H418.725C419.92 428.928 420.881 429.891 420.881 431.088C420.881 432.284 419.92 433.247 418.725 433.247Z" fill="#F5F5F5"/>
</g>
<path d="M365.429 289.243H290.042V295.572H365.429V289.243Z" fill="#D83B01"/>
<path opacity="0.2" d="M365.429 289.243H290.042V295.572H365.429V289.243Z" fill="#F5F5F5"/>
<path d="M426.277 289.243H361.979V295.572H426.277V289.243Z" fill="#D83B01"/>
<path opacity="0.5" d="M426.277 289.243H361.979V295.572H426.277V289.243Z" fill="#F5F5F5"/>
<path d="M403.731 388.396L407.292 424.437H398.766L390.229 389.334L403.731 388.396Z" fill="#EEC1BB"/>
<path d="M397.966 422.093L408.844 422.278C409.251 422.29 409.608 422.574 409.682 422.981L411.493 431.877C411.665 432.667 411.16 433.444 410.372 433.605C410.273 433.63 410.162 433.642 410.064 433.642C406.146 433.506 402.659 433.235 397.781 433.161C392.015 433.062 393.469 433.778 386.693 433.765C382.615 433.753 381.937 429.089 383.674 428.891C391.608 428.028 392.471 425.646 395.575 422.858C396.265 422.303 397.103 422.043 397.966 422.093Z" fill="#494948"/>
<path opacity="0.1" d="M406.368 415.035L403.731 388.396L390.229 389.334L396.475 415.035H406.368Z" fill="black"/>
<path d="M462.104 305.271L427.127 306.529C427.127 306.529 380.077 323.001 378.746 335.722C377.391 348.777 393.21 408.742 393.21 408.742H407.267C407.267 408.742 403.386 364.73 401.908 351.257C400.417 337.783 450.929 342.249 459.701 330.75C467.783 320.163 462.104 305.271 462.104 305.271Z" fill="#494948"/>
<path opacity="0.2" d="M462.104 305.271L427.127 306.529C427.127 306.529 380.077 323.001 378.746 335.722C377.391 348.777 393.21 408.742 393.21 408.742H407.267C407.267 408.742 403.386 364.73 401.908 351.257C400.417 337.783 450.929 342.249 459.701 330.75C467.783 320.163 462.104 305.271 462.104 305.271Z" fill="black"/>
<path d="M409.67 406.731L409.978 411.704H392.606L390.906 406.731H409.67Z" fill="#D83B01"/>
<path d="M371.194 390.111L372.13 424.437H363.753L358.788 390.111H371.194Z" fill="#EEC1BB"/>
<path d="M362.595 422.093L373.473 422.278C373.88 422.291 374.237 422.575 374.311 422.982L376.122 431.878C376.295 432.668 375.789 433.445 375.001 433.605C374.902 433.63 374.792 433.642 374.693 433.642C370.775 433.507 367.289 433.235 362.41 433.161C356.644 433.062 358.098 433.778 351.322 433.766C347.244 433.753 346.566 429.089 348.304 428.892C356.238 428.028 357.1 425.647 360.205 422.858C360.882 422.303 361.732 422.044 362.595 422.093Z" fill="#494948"/>
<path opacity="0.1" d="M371.872 415.011L371.194 390.111H358.788L362.398 415.035C365.096 415.035 368.804 415.023 371.872 415.011Z" fill="black"/>
<path d="M446.9 308.17C446.9 308.17 449.808 334.785 422.753 336.031C395.699 337.277 374.607 340.386 373.991 350.011C373.375 359.647 373.991 408.743 373.991 408.743H359.293C359.293 408.743 353.576 377.711 351.347 358.45C349.178 339.757 345.224 326.197 364.381 319.867C384.746 313.13 420.942 306.912 420.942 306.912L447.011 305.258L446.9 308.17Z" fill="#494948"/>
<path d="M376.159 406.731L375.235 411.704H359.096L357.396 406.731H376.159Z" fill="#D83B01"/>
<path d="M452.777 231.782C452.777 231.782 452.777 225.773 440.667 226.464C427.817 227.204 430.232 232.954 430.232 232.954L452.777 231.782Z" fill="#D83B01"/>
<path opacity="0.3" d="M452.777 231.782C452.777 231.782 452.777 225.773 440.667 226.464C427.817 227.204 430.232 232.954 430.232 232.954L452.777 231.782Z" fill="black"/>
<path d="M464.013 258.68C463.2 270.537 463.483 306.208 463.483 306.208C463.483 306.208 437.648 307.911 417.308 307.244L414.955 238.629C414.955 236.186 416.47 233.965 418.823 233.04C424.564 230.807 438.043 228.277 459.122 231.041C466.391 232.003 464.974 244.663 464.013 258.68Z" fill="#D83B01"/>
<path d="M419.107 258.223C419.107 258.223 409.066 283.147 399.235 285.85C389.403 288.552 374.582 286.355 374.582 286.355L369.999 287.614L365.502 286.948C365.453 286.935 365.404 286.935 365.342 286.935L360.266 286.824C359.404 286.8 358.924 285.961 359.404 285.294L361.227 282.777C361.375 282.58 361.585 282.432 361.831 282.345L366.661 280.791C366.845 280.729 367.055 280.717 367.252 280.741L374.632 281.914C374.632 281.914 395.144 278.545 397.239 276.645C399.321 274.745 405.506 254.818 405.506 254.818L419.107 258.223Z" fill="#EEC1BB"/>
<path opacity="0.1" d="M418.848 246.625C418.848 246.625 417.296 248.476 415.386 251.178L416.064 271.043C423.616 267.712 426.609 248.229 426.609 248.229L421.706 244.75L418.848 246.625Z" fill="black"/>
<path d="M425.168 233.533C417.875 231.14 407.612 236.63 403.682 259.63L418.823 264.059C418.823 264.059 435.591 236.964 425.168 233.533Z" fill="#D83B01"/>
<path d="M434.815 348.961H423.419V382.411H434.815V348.961Z" fill="#F5F5F5"/>
<path opacity="0.6" d="M434.815 348.961H423.419V382.411H434.815V348.961Z" fill="#F5F5F5"/>
<path d="M436.576 412.715V370.208H421.644V412.715L387.654 417.441V422.167L429.11 418.625L470.567 422.167V417.441L436.576 412.715Z" fill="#F5F5F5"/>
<path d="M387.161 433.753C389.644 433.753 391.658 431.737 391.658 429.249C391.658 426.762 389.644 424.746 387.161 424.746C384.677 424.746 382.664 426.762 382.664 429.249C382.664 431.737 384.677 433.753 387.161 433.753Z" fill="#D83B01"/>
<path d="M470.567 433.753C473.051 433.753 475.064 431.737 475.064 429.249C475.064 426.762 473.051 424.746 470.567 424.746C468.084 424.746 466.07 426.762 466.07 429.249C466.07 431.737 468.084 433.753 470.567 433.753Z" fill="#D83B01"/>
<path d="M429.111 433.753C431.594 433.753 433.607 431.737 433.607 429.249C433.607 426.762 431.594 424.746 429.111 424.746C426.627 424.746 424.614 426.762 424.614 429.249C424.614 431.737 426.627 433.753 429.111 433.753Z" fill="#D83B01"/>
<path opacity="0.3" d="M434.815 348.961H423.419V357.228H434.815V348.961Z" fill="black"/>
<path d="M474.165 273.141H437.032C430.983 273.141 425.932 277.755 425.365 283.777L422.236 317.387C421.521 325.037 415.3 331.009 407.637 331.404L371.798 333.218C367.437 333.44 364.024 337.043 364.024 341.41V342.163C364.024 345.914 367.067 348.962 370.812 348.962H419.291H429.11H479.955L485.832 285.973C486.472 279.088 481.064 273.141 474.165 273.141Z" fill="#D83B01"/>
<path opacity="0.3" d="M474.165 273.141H437.032C430.983 273.141 425.932 277.755 425.365 283.777L422.236 317.387C421.521 325.037 415.3 331.009 407.637 331.404L371.798 333.218C367.437 333.44 364.024 337.043 364.024 341.41V342.163C364.024 345.914 367.067 348.962 370.812 348.962H419.291H429.11H479.955L485.832 285.973C486.472 279.088 481.064 273.141 474.165 273.141Z" fill="#F5F5F5"/>
<path d="M482.518 348.961H427.928L434.014 283.789C434.581 277.755 439.632 273.153 445.681 273.153H482.813C489.713 273.153 495.121 279.1 494.48 285.973L489.17 342.903C488.838 346.333 485.967 348.961 482.518 348.961Z" fill="#D83B01"/>
<path opacity="0.5" d="M482.518 348.961H427.928L434.014 283.789C434.581 277.755 439.632 273.153 445.681 273.153H482.813C489.713 273.153 495.121 279.1 494.48 285.973L489.17 342.903C488.838 346.333 485.967 348.961 482.518 348.961Z" fill="#F5F5F5"/>
<path d="M345.375 433.247H301.894C297.434 433.247 293.825 429.651 293.825 425.208V303.612C293.825 299.168 297.434 295.572 301.894 295.572H354.994C356.189 295.572 357.15 296.53 357.15 297.72C357.15 298.911 356.189 299.868 354.994 299.868H301.894C299.825 299.868 298.137 301.537 298.137 303.612V425.208C298.137 427.27 299.812 428.951 301.894 428.951H345.375C346.57 428.951 347.531 429.908 347.531 431.099C347.531 432.29 346.57 433.247 345.375 433.247Z" fill="#F5F5F5"/>
<path d="M319.906 230.523L316.173 228.043C315.779 227.771 315.779 227.191 316.173 226.92L319.906 224.44C320.189 224.255 320.559 224.329 320.744 224.613C320.929 224.896 320.855 225.267 320.571 225.452L317.516 227.488L320.571 229.523C320.855 229.709 320.929 230.091 320.744 230.362C320.571 230.634 320.189 230.708 319.906 230.523Z" fill="#F5F5F5"/>
<path d="M328.086 230.362C327.902 230.079 327.976 229.709 328.259 229.523L331.314 227.488L328.259 225.452C327.976 225.267 327.902 224.884 328.086 224.613C328.271 224.329 328.653 224.255 328.924 224.44L332.657 226.92C333.064 227.191 333.064 227.771 332.657 228.043L328.924 230.523C328.641 230.708 328.271 230.634 328.086 230.362Z" fill="#F5F5F5"/>
<path d="M323.023 231.979C322.703 231.88 322.53 231.535 322.629 231.214L325.179 223.144C325.278 222.823 325.623 222.651 325.943 222.749C326.263 222.848 326.436 223.194 326.337 223.514L323.787 231.584C323.688 231.892 323.343 232.077 323.023 231.979Z" fill="#F5F5F5"/>
<path d="M343.943 238.198H316.506C316.149 238.198 315.865 237.914 315.865 237.556C315.865 237.198 316.149 236.915 316.506 236.915H343.943C344.3 236.915 344.583 237.198 344.583 237.556C344.583 237.914 344.3 238.198 343.943 238.198Z" fill="#F5F5F5"/>
<path d="M375.457 238.198H348.02C347.663 238.198 347.38 237.914 347.38 237.556C347.38 237.198 347.663 236.915 348.02 236.915H375.457C375.814 236.915 376.098 237.198 376.098 237.556C376.098 237.914 375.814 238.198 375.457 238.198Z" fill="#F5F5F5"/>
<path d="M332.189 243.849H316.518C316.161 243.849 315.877 243.565 315.877 243.207C315.877 242.849 316.161 242.565 316.518 242.565H332.189C332.546 242.565 332.83 242.849 332.83 243.207C332.83 243.565 332.534 243.849 332.189 243.849Z" fill="#F5F5F5"/>
<path d="M361.954 243.849H336.28C335.922 243.849 335.639 243.565 335.639 243.207C335.639 242.849 335.922 242.565 336.28 242.565H361.954C362.312 242.565 362.595 242.849 362.595 243.207C362.583 243.565 362.299 243.849 361.954 243.849Z" fill="#F5F5F5"/>
<path d="M358.295 249.5H316.506C316.149 249.5 315.865 249.216 315.865 248.858C315.865 248.501 316.149 248.217 316.506 248.217H358.295C358.653 248.217 358.936 248.501 358.936 248.858C358.936 249.216 358.653 249.5 358.295 249.5Z" fill="#F5F5F5"/>
<path d="M371.108 249.5H362.386C362.028 249.5 361.745 249.216 361.745 248.858C361.745 248.501 362.028 248.217 362.386 248.217H371.108C371.465 248.217 371.749 248.501 371.749 248.858C371.749 249.216 371.465 249.5 371.108 249.5Z" fill="#F5F5F5"/>
<path d="M336.021 255.164H316.506C316.149 255.164 315.865 254.88 315.865 254.522C315.865 254.164 316.149 253.88 316.506 253.88H336.021C336.378 253.88 336.661 254.164 336.661 254.522C336.661 254.88 336.378 255.164 336.021 255.164Z" fill="#F5F5F5"/>
<path d="M364.394 255.164H340.099C339.741 255.164 339.458 254.88 339.458 254.522C339.458 254.164 339.741 253.88 340.099 253.88H364.394C364.751 253.88 365.034 254.164 365.034 254.522C365.034 254.88 364.751 255.164 364.394 255.164Z" fill="#F5F5F5"/>
<path d="M343.943 260.814H316.506C316.149 260.814 315.865 260.531 315.865 260.173C315.865 259.815 316.149 259.531 316.506 259.531H343.943C344.3 259.531 344.583 259.815 344.583 260.173C344.583 260.531 344.3 260.814 343.943 260.814Z" fill="#F5F5F5"/>
<path d="M367.387 260.814H348.033C347.675 260.814 347.392 260.531 347.392 260.173C347.392 259.815 347.675 259.531 348.033 259.531H367.387C367.745 259.531 368.028 259.815 368.028 260.173C368.016 260.531 367.732 260.814 367.387 260.814Z" fill="#F5F5F5"/>
<path d="M129.291 150.371C129.784 156.183 128.539 166.707 124.154 170.076C131.299 172.655 138.851 177.097 143.693 182.957C148.486 175.974 143.028 171.988 143.028 171.988C136.855 169.792 137.533 165.116 139.11 160.81L129.291 150.371Z" fill="#B97964"/>
<path d="M152.613 145.362C152.539 146.09 152.884 146.719 153.364 146.768C153.845 146.818 154.288 146.25 154.35 145.522C154.424 144.794 154.079 144.152 153.598 144.115C153.13 144.066 152.699 144.621 152.613 145.362Z" fill="#494948"/>
<path d="M153.414 144.128L155.212 143.782C155.2 143.782 154.177 145.115 153.414 144.128Z" fill="#494948"/>
<path d="M152.859 146.139C153.364 147.867 154.091 149.52 155.04 151.062C154.239 151.531 153.266 151.63 152.391 151.309L152.859 146.139Z" fill="#A24E3F"/>
<path d="M154.682 141.512C154.793 141.5 154.904 141.45 154.978 141.364C155.126 141.179 155.114 140.907 154.929 140.747C153.906 139.809 152.49 139.427 151.122 139.735C150.913 139.859 150.851 140.13 150.974 140.327C151.048 140.463 151.196 140.537 151.344 140.537C152.428 140.327 153.537 140.636 154.35 141.389C154.448 141.475 154.559 141.524 154.682 141.512Z" fill="#494948"/>
<path d="M128.675 140.723C128.392 149.754 128.084 153.592 132.1 158.614C138.149 166.177 149.102 164.524 152.021 155.739C154.658 147.83 154.682 134.368 146.403 129.988C138.112 125.62 128.971 131.678 128.675 140.723Z" fill="#B97964"/>
<path d="M129.106 157.762C120.248 156.244 122.786 150.655 122.786 150.655C114.063 148.891 120.802 144.621 120.802 144.621C113.546 141.487 120.802 138.687 120.802 138.687C113.805 132.875 123.833 130.901 123.833 130.901C121.357 121.832 129.956 125.558 129.956 125.558C134.65 117.773 138.679 125.213 138.679 125.213C146.884 114.046 148.892 123.473 148.892 123.473C157.27 121.264 154.054 130.099 154.054 130.099C160.953 131.95 155.545 135.454 155.545 135.454C158.206 138.822 148.584 139.402 148.584 139.402C148.584 139.402 153.167 146.756 148.547 148.841L136.892 157.787C136.88 157.762 131.521 155.529 129.106 157.762Z" fill="#494948"/>
<path d="M137.816 150.482C137.816 150.482 143.915 135.713 139.159 123.041L143.225 121.647C143.225 121.635 148.535 140.019 137.816 150.482Z" fill="#D83B01"/>
<path d="M143.964 148.853C144.987 150.976 145.369 151.889 146.822 152.604C148.104 153.32 149.718 152.863 150.432 151.593C150.765 151.013 150.851 150.322 150.703 149.668C150.321 147.545 148.683 144.424 146.44 144.35C144.174 144.288 142.905 146.756 143.964 148.853Z" fill="#B97964"/>
<path d="M137.595 179.676C137.595 179.676 145.935 185.808 149.323 188.276L173.458 176.875C173.397 174.136 175.011 171.631 177.536 170.558L179.249 169.83L182.883 168.213C184.263 167.596 185.864 167.769 187.084 168.657C188.526 169.706 189.154 171.557 188.649 173.272C187.614 176.801 184.805 179.528 181.257 180.453L177.746 181.379C177.746 181.379 157.048 197.11 149.681 197.517C142.313 197.925 131.459 190.62 131.459 190.62L137.595 179.676Z" fill="#B97964"/>
<path d="M117.538 169.275C123.907 169.25 131.028 173.248 142.239 180.527C142.239 180.527 140.12 188.51 133.603 194.199C133.603 194.199 127.455 192.545 119.275 184.821C109.357 175.493 113.632 169.287 117.538 169.275Z" fill="#494948"/>
<path d="M238.52 187.757H178.165C175.972 187.757 174.358 185.98 174.542 183.784L179.089 131.727C179.286 129.531 181.208 127.754 183.401 127.754H243.756C245.949 127.754 247.563 129.531 247.378 131.727L242.832 183.784C242.647 185.98 240.713 187.757 238.52 187.757Z" fill="#D83B01"/>
<path opacity="0.4" d="M238.52 187.757H178.165C175.972 187.757 174.358 185.98 174.542 183.784L179.089 131.727C179.286 129.531 181.208 127.754 183.401 127.754H243.756C245.949 127.754 247.563 129.531 247.378 131.727L242.832 183.784C242.647 185.98 240.713 187.757 238.52 187.757Z" fill="#F5F5F5"/>
<path opacity="0.7" d="M238.742 185.29C239.567 185.29 240.307 184.611 240.38 183.784L244.927 131.727C245 130.901 244.384 130.222 243.559 130.222H183.203C182.378 130.222 181.639 130.901 181.565 131.727L177.019 183.784C176.945 184.611 177.561 185.29 178.386 185.29H238.742Z" fill="#F5F5F5"/>
<path d="M196.792 154.677L177.056 183.266L177.007 183.784C176.933 184.611 177.549 185.289 178.374 185.289H212.574L196.792 154.677Z" fill="#D83B01"/>
<path opacity="0.3" d="M196.792 154.677L177.056 183.266L177.007 183.784C176.933 184.611 177.549 185.289 178.374 185.289H212.574L196.792 154.677Z" fill="#F5F5F5"/>
<path d="M240.541 181.785L224.02 150.359L199.552 185.29H238.742C239.567 185.29 240.307 184.611 240.38 183.784L240.541 181.785Z" fill="#D83B01"/>
<path d="M217.638 144.806C217.367 147.879 214.669 150.359 211.601 150.359C208.533 150.359 206.267 147.866 206.538 144.806C206.809 141.734 209.507 139.254 212.574 139.254C215.642 139.254 217.909 141.746 217.638 144.806Z" fill="#D83B01"/>
<path opacity="0.4" d="M217.638 144.806C217.367 147.879 214.669 150.359 211.601 150.359C208.533 150.359 206.267 147.866 206.538 144.806C206.809 141.734 209.507 139.254 212.574 139.254C215.642 139.254 217.909 141.746 217.638 144.806Z" fill="#F5F5F5"/>
<path d="M66.9888 397.823L60.8534 416.035L70.2536 419.872L77.6086 403.067L66.9888 397.823Z" fill="#B97964"/>
<path d="M73.6293 419.415C73.5307 419.366 73.4814 419.255 73.4814 419.144C73.4938 419.033 73.58 418.934 73.6909 418.909C73.888 418.86 78.3232 417.873 79.9741 418.934C80.2821 419.131 80.5039 419.427 80.5901 419.785C80.7256 420.192 80.6024 420.637 80.2698 420.908C79.6414 421.352 78.1754 421.167 76.8325 420.748C75.736 420.402 74.6642 419.958 73.6293 419.415ZM74.5656 419.329C76.4999 420.205 79.2349 421.031 79.9494 420.476C80.048 420.414 80.1589 420.279 80.0726 419.896C80.0234 419.674 79.8878 419.489 79.6784 419.378C79.5306 419.279 79.3704 419.205 79.2102 419.168C77.6702 418.934 76.0933 418.983 74.5656 419.329Z" fill="#D83B01"/>
<path d="M73.4938 419.366C73.4322 419.292 73.4199 419.193 73.4445 419.095C73.5061 418.959 74.6888 416.133 76.4136 415.418C76.9188 415.208 77.4732 415.208 77.9783 415.418C78.6682 415.701 78.7668 416.133 78.7052 416.429C78.5573 417.725 75.2309 419.267 73.7648 419.44C73.7279 419.452 73.6909 419.44 73.654 419.415C73.6047 419.428 73.5431 419.403 73.4938 419.366ZM77.6703 415.862C77.35 415.763 76.9927 415.775 76.6847 415.911C75.5882 416.59 74.7258 417.602 74.2207 418.786C75.81 418.404 78.0768 417.096 78.237 416.343C78.237 416.269 78.2616 416.072 77.8181 415.899L77.6703 415.862Z" fill="#D83B01"/>
<path d="M72.9886 417.564L61.1861 413.912C60.7426 413.776 60.2621 413.962 60.028 414.369L54.9275 423.327C54.4717 424.116 54.7427 425.128 55.5312 425.585C55.6298 425.646 55.7406 425.696 55.8515 425.733C60.1266 426.979 63.9827 427.917 69.2803 429.558C75.5389 431.495 73.7155 431.754 81.0336 434.135C85.4442 435.567 87.8096 430.767 86.0109 429.94C77.7442 426.202 77.6579 423.327 75.2925 419.218C74.7504 418.404 73.9373 417.811 72.9886 417.564Z" fill="#494948"/>
<path opacity="0.2" d="M64.0443 406.559L73.9003 411.543L77.6086 403.067L66.9888 397.823L64.0443 406.559Z" fill="#494948"/>
<path d="M108.655 229.375C108.655 229.375 95.411 239.506 98.2446 271.241C98.5033 274.177 99.452 277.249 99.4643 280.606C99.4766 282.839 98.8483 284.406 98.1214 289.415C97.0619 296.732 95.1153 323.964 93.0579 327.505C91.0251 331.009 90.1627 330.429 84.3846 340.189C78.163 350.701 70.2166 369.135 64.032 400.389C64.032 400.389 69.4158 404.597 77.8673 406.188C77.8673 406.188 111.71 352.737 118.905 332.835C125.349 315.03 133.012 258.211 133.012 258.211L133.628 233.571L108.655 229.375Z" fill="#D83B01"/>
<path opacity="0.1" d="M123.143 271.241H113.546C113.546 271.241 110.392 301.446 120.815 326.641C121.899 322.594 123.008 317.745 124.08 312.501L128.219 285.899C127.628 281.408 127.172 277.978 127.098 277.756C126.901 277.052 123.143 271.241 123.143 271.241Z" fill="black"/>
<path d="M121.566 405.152L121.628 424.511L132.531 423.771L134.207 405.152H121.566Z" fill="#B97964"/>
<path d="M133.788 423.45C133.677 423.425 133.591 423.351 133.566 423.24C133.541 423.129 133.591 423.018 133.689 422.957C133.862 422.846 137.73 420.452 139.628 420.908C139.985 420.982 140.293 421.205 140.49 421.501C140.761 421.834 140.786 422.303 140.552 422.673C140.108 423.29 138.667 423.611 137.262 423.66C136.104 423.685 134.934 423.623 133.788 423.45ZM134.65 423.055C136.769 423.24 139.615 423.117 140.12 422.364C140.194 422.266 140.256 422.105 140.046 421.784C139.936 421.587 139.726 421.464 139.504 421.427C139.332 421.39 139.159 421.365 138.987 421.377C137.447 421.661 135.969 422.229 134.65 423.055Z" fill="#D83B01"/>
<path d="M133.652 423.438C133.566 423.388 133.517 423.302 133.529 423.203C133.541 423.055 133.726 419.995 135.131 418.761C135.537 418.391 136.067 418.206 136.609 418.255C137.348 418.305 137.595 418.663 137.632 418.971C137.915 420.242 135.291 422.796 133.96 423.438C133.923 423.45 133.886 423.462 133.849 423.45C133.775 423.462 133.702 423.462 133.652 423.438ZM136.437 418.761C136.092 418.774 135.771 418.897 135.525 419.131C134.712 420.143 134.231 421.365 134.145 422.66C135.513 421.784 137.237 419.798 137.139 419.033C137.114 418.959 137.077 418.774 136.597 418.749L136.437 418.761Z" fill="#D83B01"/>
<path d="M132.58 421.908L120.236 422.352C119.768 422.364 119.373 422.71 119.287 423.166L117.415 433.308C117.242 434.209 117.833 435.073 118.72 435.246C118.831 435.27 118.955 435.283 119.065 435.27C123.513 435.036 127.468 434.653 133.012 434.456C139.554 434.222 137.915 435.073 145.615 434.9C150.247 434.801 150.913 429.496 148.941 429.298C139.911 428.484 138.876 425.807 135.291 422.697C134.515 422.117 133.554 421.834 132.58 421.908Z" fill="#494948"/>
<path opacity="0.2" d="M121.603 415.159L133.332 414.912L134.207 405.152H121.566L121.603 415.159Z" fill="#494948"/>
<path d="M116.035 225.822C116.035 225.822 102.815 243.355 112.61 277.682L123.661 327.752C123.661 327.752 113.14 350.529 118.696 410.618C118.696 410.618 127.049 411.963 135.02 410.248C135.02 410.248 147.328 346.79 149.2 325.346C151.258 301.742 150.026 230.548 150.026 230.548L116.035 225.822Z" fill="#D83B01"/>
<path d="M124.018 169.027C124.018 169.027 121.973 160.267 135.094 164.092C148.227 167.929 147.13 175.419 147.13 175.419L124.018 169.027Z" fill="#494948"/>
<path opacity="0.4" d="M124.018 169.027C124.018 169.027 121.973 160.267 135.094 164.092C148.227 167.929 147.13 175.419 147.13 175.419L124.018 169.027Z" fill="black"/>
<path d="M156.592 190.941C156.592 194.013 155.299 198.455 154.14 203.428C153.574 205.784 153.056 208.24 152.711 210.732C150.851 224.317 150.247 238.605 150.247 238.605C150.247 238.605 128.786 244.639 107.94 230.203C107.94 230.203 113.103 225.822 112.043 195.482C111.563 181.81 106.635 165.56 129.192 168.114C148.239 170.274 154.646 176.196 156.186 185.463C156.198 185.574 156.223 185.697 156.247 185.82C156.284 186.104 156.321 186.388 156.358 186.684C156.518 188.029 156.592 189.46 156.592 190.941Z" fill="#494948"/>
<path opacity="0.4" d="M156.592 190.941C156.592 194.013 155.299 198.455 154.14 203.427C148.991 197.221 143.829 185.598 143.829 185.598L148.079 179.33L155.57 182.822C155.828 183.673 156.025 184.549 156.186 185.462C156.198 185.573 156.223 185.697 156.247 185.82C156.284 186.104 156.321 186.388 156.358 186.684C156.518 188.029 156.592 189.46 156.592 190.941Z" fill="black"/>
<path d="M164.378 185.573C164.378 185.573 171.709 192.878 174.69 195.827L200.242 188.152C200.587 185.425 202.558 183.192 205.207 182.513L207.018 182.057L210.862 180.996C212.315 180.588 213.88 180.996 214.952 182.057C216.221 183.315 216.566 185.228 215.814 186.856C214.262 190.188 211.083 192.471 207.437 192.865L203.815 193.26C203.815 193.26 180.998 205.735 173.655 205.044C166.313 204.353 156.666 195.506 156.666 195.506L164.378 185.573Z" fill="#B97964"/>
<path d="M146.083 172.297C152.391 173.222 158.834 178.244 168.838 187.103C168.838 187.103 165.561 194.679 158.268 199.343C158.268 199.343 152.428 196.789 145.492 187.942C137.077 177.22 142.215 171.729 146.083 172.297Z" fill="#494948"/>
<defs>
<radialGradient id="paint0_radial_6311_584" cx="0" cy="0" r="1" gradientUnits="userSpaceOnUse" gradientTransform="translate(128.059 174.499) rotate(90) scale(174.499 125.984)">
<stop stop-color="#494948" stop-opacity="0.44"/>
<stop offset="1" stop-color="#494948" stop-opacity="0.13"/>
</radialGradient>
<radialGradient id="paint1_radial_6311_584" cx="0" cy="0" r="1" gradientUnits="userSpaceOnUse" gradientTransform="translate(394.528 174.499) rotate(90) scale(174.499 125.984)">
<stop stop-color="#494948" stop-opacity="0.44"/>
<stop offset="1" stop-color="#494948" stop-opacity="0.13"/>
</radialGradient>
</defs>
</svg>
