<svg width="616" height="455" viewBox="0 0 616 455" fill="none" xmlns="http://www.w3.org/2000/svg">
<g clip-path="url(#clip0_5699_1314)">
<path d="M554.277 423.882H513.473V424.19H554.277V423.882Z" fill="#2D2D2D"/>
<path d="M408.063 427.238H397.357V427.546H408.063V427.238Z" fill="#2D2D2D"/>
<path d="M512.241 412.432H488.599V412.74H512.241V412.432Z" fill="#2D2D2D"/>
<path d="M117.841 414.504H64.6307V414.813H117.841V414.504Z" fill="#2D2D2D"/>
<path d="M136.616 414.504H128.818V414.813H136.616V414.504Z" fill="#2D2D2D"/>
<path d="M277.385 419.711H161.971V420.02H277.385V419.711Z" fill="#2D2D2D"/>
<path d="M291.996 348.999H54.1094C50.2286 348.999 47.0747 345.84 47.0747 341.953V7.04537C47.0747 3.15869 50.2286 0 54.1094 0H292.009C295.889 0 299.043 3.15869 299.043 7.04537V341.953C299.031 345.84 295.877 348.999 291.996 348.999ZM54.1094 0.308466C50.4011 0.308466 47.3827 3.33144 47.3827 7.04537V341.953C47.3827 345.667 50.4011 348.69 54.1094 348.69H292.009C295.717 348.69 298.735 345.667 298.735 341.953V7.04537C298.735 3.33144 295.717 0.308466 292.009 0.308466H54.1094Z" fill="#2D2D2D"/>
<path d="M558.478 348.999H320.579C316.698 348.999 313.544 345.84 313.544 341.953V7.04537C313.544 3.15869 316.698 0 320.579 0H558.478C562.359 0 565.513 3.15869 565.513 7.04537V341.953C565.513 345.84 562.359 348.999 558.478 348.999ZM320.579 0.308466C316.87 0.308466 313.852 3.33144 313.852 7.04537V341.953C313.852 345.667 316.87 348.69 320.579 348.69H558.478C562.186 348.69 565.205 345.667 565.205 341.953V7.04537C565.205 3.33144 562.186 0.308466 558.478 0.308466H320.579Z" fill="#2D2D2D"/>
<path d="M616 404.029H0V404.337H616V404.029Z" fill="#2D2D2D"/>
<path d="M513.436 49.0093H359.695V212.978H513.436V49.0093Z" fill="black"/>
<path d="M504.196 58.2632H368.935V203.723H504.196V58.2632Z" fill="black"/>
<path d="M422.022 203.723H462.678L500.845 58.2632H460.189L422.022 203.723Z" fill="#080808"/>
<path d="M441.302 58.2632L403.135 203.723H412.991L451.158 58.2632H441.302Z" fill="#080808"/>
<path d="M515.383 56.7211H357.748L354.422 48.9478H518.709L515.383 56.7211Z" fill="black"/>
<path d="M515.383 61.2245H357.748L354.422 53.4512H518.709L515.383 61.2245Z" fill="black"/>
<path d="M515.383 65.7279H357.748L354.422 57.9546H518.709L515.383 65.7279Z" fill="black"/>
<path d="M515.383 70.2318H357.748L354.422 62.4585H518.709L515.383 70.2318Z" fill="#080808"/>
<path d="M524.438 39.2124H348.693V49.5769H524.438V39.2124Z" fill="#080808"/>
<path d="M350.492 143.548C349.506 143.548 348.705 142.746 348.705 141.759V81.2994C348.705 80.3123 349.506 79.5103 350.492 79.5103C351.477 79.5103 352.278 80.3123 352.278 81.2994V141.746C352.278 142.746 351.477 143.548 350.492 143.548Z" fill="#080808"/>
<path d="M351.132 47.4917H349.839V83.3972H351.132V47.4917Z" fill="#080808"/>
<path d="M111.521 45.8257H109.303V219.023H111.521V45.8257Z" fill="#0D0D0D"/>
<path d="M249.566 45.8257H247.349V219.023H249.566V45.8257Z" fill="#0D0D0D"/>
<path d="M258.252 56.7211H100.617L97.291 48.9478H261.578L258.252 56.7211Z" fill="black"/>
<path d="M258.252 67.394H100.617L97.291 59.6206H261.578L258.252 67.394Z" fill="black"/>
<path d="M258.252 78.0668H100.617L97.291 70.2935H261.578L258.252 78.0668Z" fill="black"/>
<path d="M258.252 88.7397H100.617L97.291 80.9663H261.578L258.252 88.7397Z" fill="black"/>
<path d="M258.252 99.4125H100.617L97.291 91.6392H261.578L258.252 99.4125Z" fill="black"/>
<path d="M258.252 110.085H100.617L97.291 102.312H261.578L258.252 110.085Z" fill="black"/>
<path d="M258.252 120.759H100.617L97.291 112.985H261.578L258.252 120.759Z" fill="black"/>
<path d="M258.252 131.419H100.617L97.291 123.646H261.578L258.252 131.419Z" fill="black"/>
<path d="M258.252 142.092H100.617L97.291 134.319H261.578L258.252 142.092Z" fill="black"/>
<path d="M258.252 152.765H100.617L97.291 144.992H261.578L258.252 152.765Z" fill="black"/>
<path d="M258.252 163.438H100.617L97.291 155.665H261.578L258.252 163.438Z" fill="black"/>
<path d="M258.252 174.111H100.617L97.291 166.337H261.578L258.252 174.111Z" fill="black"/>
<path d="M258.252 184.784H100.617L97.291 177.01H261.578L258.252 184.784Z" fill="black"/>
<path d="M258.252 195.457H100.617L97.291 187.684H261.578L258.252 195.457Z" fill="black"/>
<path d="M258.252 206.13H100.617L97.291 198.356H261.578L258.252 206.13Z" fill="black"/>
<path d="M258.252 216.803H100.617L97.291 209.029H261.578L258.252 216.803Z" fill="black"/>
<path d="M261.578 216.803H97.291V221.245H261.578V216.803Z" fill="#0D0D0D"/>
<path d="M267.307 39.2124H91.5622V49.5769H267.307V39.2124Z" fill="#0D0D0D"/>
<path d="M93.3733 143.548C92.3877 143.548 91.5869 142.746 91.5869 141.759V81.2994C91.5869 80.3123 92.3877 79.5103 93.3733 79.5103C94.3589 79.5103 95.1597 80.3123 95.1597 81.2994V141.746C95.1597 142.746 94.3589 143.548 93.3733 143.548Z" fill="#0D0D0D"/>
<path d="M94.0139 47.4917H92.7203V83.3972H94.0139V47.4917Z" fill="#0D0D0D"/>
<path d="M110.042 329.96C109.894 330.133 110.72 331.292 107.344 330.774C99.0282 329.528 84.5522 326.147 80.5235 317.584C74.7701 305.357 92.6094 309.823 91.9934 303.568C91.3774 297.312 71.0741 298.41 68.9181 289.23C66.7621 280.062 80.5358 284.43 80.7206 279.951C80.9054 275.485 65.0373 278.261 61.8834 268.365C58.7294 258.47 70.7291 265.75 69.3493 261.641C67.9694 257.532 54.553 238.913 61.8464 236.754C69.1522 234.595 81.4598 253.695 86.203 256.397C90.9462 259.099 95.172 243.515 100.827 250.092C106.482 256.668 97.5128 279.692 104.732 284.159C110.104 287.49 108.588 278.323 115.685 280.025C125.331 282.382 122.091 316.461 110.042 329.96Z" fill="#2D2D2D"/>
<path d="M84.3797 280.013C87.6445 280.284 90.0592 280.951 91.5622 281.494C88.6301 277.2 86.5234 274.991 86.4494 274.917C86.2154 274.67 86.2154 274.288 86.4618 274.041C86.7082 273.807 87.0901 273.807 87.3365 274.053C87.3981 274.115 92.2522 279.125 97.5744 288.934C100.186 273.153 93.595 259.37 93.5211 259.222C93.4102 258.988 93.5088 258.716 93.7306 258.605C93.9523 258.494 94.2357 258.593 94.3466 258.815C94.4205 258.963 101.468 273.683 98.2643 290.242C99.1144 291.87 99.9645 293.598 100.815 295.473C103.254 300.865 105.816 307.775 107.837 316.091C109.241 313.549 112.457 306.751 112.74 297.262C112.753 297.003 112.962 296.806 113.221 296.818C113.48 296.831 113.677 297.04 113.664 297.299C113.332 308.281 109.131 315.795 108.157 317.399C110.831 328.948 112.432 343.162 111.287 359.918C111.262 360.264 110.966 360.51 110.634 360.486C110.609 360.486 110.584 360.486 110.56 360.473C110.264 360.412 110.042 360.14 110.067 359.832C111.595 337.659 108.28 319.83 103.697 306.331C102.539 304.986 99.1021 301.532 93.8661 300.717C93.632 300.656 93.4472 300.446 93.4842 300.187C93.5211 299.94 93.7552 299.767 94.0139 299.804C98.1534 300.458 101.184 302.605 102.983 304.271C99.6072 294.893 95.6648 287.762 92.4739 282.888C91.4514 282.419 88.6424 281.333 84.3058 280.963C84.0594 280.926 83.8622 280.716 83.8869 280.457C83.8992 280.186 84.121 280.001 84.3797 280.013Z" fill="#2A2A2A"/>
<path d="M120.687 334.686C127.598 334.821 139.401 328.393 144.033 322.137C148.739 315.795 135.508 319.731 136.863 314.746C138.218 309.761 154.53 313.451 157.536 306.307C160.542 299.175 148.776 300.816 149.244 297.164C149.713 293.511 161.897 294.252 165.815 286.676C169.733 279.088 159.002 283.344 160.69 280.198C162.378 277.052 175.806 263.825 170.188 261.073C164.571 258.309 151.967 272.092 147.754 273.634C143.528 275.176 142.542 265.651 137.06 270.204C131.565 274.757 135.68 294.647 129.212 297.275C124.395 299.224 126.44 290.118 120.908 292.426C111.2 296.448 117.89 334.636 120.687 334.686Z" fill="#2A2A2A"/>
<g opacity="0.3">
<path d="M120.687 334.686C127.598 334.821 139.401 328.393 144.033 322.137C148.739 315.795 135.508 319.731 136.863 314.746C138.218 309.761 154.53 313.451 157.536 306.307C160.542 299.175 148.776 300.816 149.244 297.164C149.713 293.511 161.897 294.252 165.815 286.676C169.733 279.088 159.002 283.344 160.69 280.198C162.378 277.052 175.806 263.825 170.188 261.073C164.571 258.309 151.967 272.092 147.754 273.634C143.528 275.176 142.542 265.651 137.06 270.204C131.565 274.757 135.68 294.647 129.212 297.275C124.395 299.224 126.44 290.118 120.908 292.426C111.2 296.448 117.89 334.636 120.687 334.686Z" fill="#2A2A2A"/>
</g>
<path d="M122.978 326.382C122.88 326.345 122.793 326.283 122.732 326.184C122.572 325.876 118.789 318.534 119.627 307.639C119.652 307.38 119.861 307.195 120.12 307.22C120.379 307.244 120.564 307.466 120.539 307.713C119.824 316.918 122.572 323.655 123.336 325.345C126.428 316.93 130.136 309.453 133.857 303.049C132.637 288.193 140.239 276.028 140.312 275.904C140.448 275.694 140.731 275.62 140.953 275.756C141.163 275.892 141.236 276.176 141.101 276.398C141.027 276.509 134.042 287.7 134.695 301.618C143.553 286.762 152.189 278.137 152.361 277.965C152.608 277.73 152.99 277.73 153.236 277.977C153.47 278.224 153.47 278.606 153.224 278.853C153.076 279.001 146.928 285.146 139.746 295.93C143.959 294.363 148.53 293.548 152.805 293.622C153.064 293.622 153.261 293.832 153.261 294.091C153.261 294.338 153.051 294.548 152.793 294.548C152.793 294.548 152.793 294.548 152.78 294.548C148.21 294.462 143.282 295.424 138.846 297.262C136.37 301.063 133.808 305.406 131.331 310.206C133.709 308.602 138.317 306.368 144.218 307.935C144.464 307.997 144.612 308.256 144.551 308.503C144.489 308.75 144.23 308.898 143.984 308.836C136.493 306.862 131.22 311.341 130.358 312.13C123.582 325.789 117.742 343.063 116.966 362.855C116.954 363.188 116.683 363.447 116.35 363.447C116.338 363.447 116.338 363.447 116.325 363.447C115.98 363.435 115.722 363.151 115.734 362.805C116.276 349.406 119.11 337.166 122.978 326.382Z" fill="#2A2A2A"/>
<path d="M101.258 402.277C94.6669 389.852 90.3302 371.911 90.3302 364.052C90.3302 357.401 93.4472 351.442 98.3875 347.259H132.157C137.097 351.442 140.214 357.401 140.214 364.052C140.214 371.911 135.877 389.864 129.286 402.277H101.258Z" fill="#2D2D2D"/>
<path d="M302.062 455C433.987 455 540.934 448.747 540.934 441.033C540.934 433.319 433.987 427.065 302.062 427.065C170.136 427.065 63.1893 433.319 63.1893 441.033C63.1893 448.747 170.136 455 302.062 455Z" fill="#131212"/>
<path d="M360.545 79.8188H331.001C329.067 79.8188 327.305 81.2625 326.899 83.1873L326.702 84.1127C325.692 88.8137 321.392 92.3302 316.673 92.3302H288.584C283.853 92.3302 280.181 88.8137 279.984 84.1127L279.947 83.1873C279.873 81.2625 278.358 79.8188 276.424 79.8188H246.88C237.024 79.8188 228.339 87.8143 227.476 97.6852L203.711 369.802C202.849 379.673 210.142 387.668 219.998 387.668H333.675C343.531 387.668 352.216 379.673 353.079 369.802L376.844 97.6852C377.694 87.8143 370.401 79.8188 360.545 79.8188Z" fill="#D83B01"/>
<path opacity="0.7" d="M360.545 79.8188H331.001C329.067 79.8188 327.305 81.2625 326.899 83.1873L326.702 84.1127C325.692 88.8137 321.392 92.3302 316.673 92.3302H288.584C283.853 92.3302 280.181 88.8137 279.984 84.1127L279.947 83.1873C279.873 81.2625 278.358 79.8188 276.424 79.8188H246.88C237.024 79.8188 228.339 87.8143 227.476 97.6852L203.711 369.802C202.849 379.673 210.142 387.668 219.998 387.668H333.675C343.531 387.668 352.216 379.673 353.079 369.802L376.844 97.6852C377.694 87.8143 370.401 79.8188 360.545 79.8188Z" fill="#1A1A1A"/>
<path d="M349.026 204.97H288.67C286.477 204.97 284.863 203.193 285.048 200.997L289.594 148.94C289.791 146.744 291.713 144.967 293.906 144.967H354.262C356.454 144.967 358.068 146.744 357.884 148.94L353.338 200.997C353.14 203.193 351.218 204.97 349.026 204.97Z" fill="#1A1A1A"/>
<path d="M328.919 367.741H227.92C222.487 367.741 218.458 363.324 218.939 357.882C219.419 352.441 224.212 348.024 229.645 348.024H330.656C336.09 348.024 340.118 352.441 339.638 357.882C339.157 363.324 334.365 367.741 328.919 367.741Z" fill="#1A1A1A"/>
<path d="M336.989 130.667H244.306C241.25 130.667 238.996 128.186 239.267 125.126L240.018 116.477C240.289 113.417 242.975 110.937 246.03 110.937H338.714C341.769 110.937 344.024 113.417 343.753 116.477L343.001 125.126C342.742 128.186 340.044 130.667 336.989 130.667Z" fill="#1A1A1A"/>
<path d="M355.839 116.193C355.765 117.045 355.013 117.736 354.163 117.736C353.313 117.736 352.685 117.045 352.759 116.193C352.832 115.342 353.584 114.651 354.434 114.651C355.284 114.651 355.912 115.342 355.839 116.193Z" fill="#1A1A1A"/>
<path d="M355.432 120.808C355.358 121.659 354.607 122.35 353.757 122.35C352.906 122.35 352.278 121.659 352.352 120.808C352.426 119.957 353.177 119.266 354.028 119.266C354.878 119.266 355.506 119.957 355.432 120.808Z" fill="#1A1A1A"/>
<path d="M355.038 125.41C354.964 126.261 354.212 126.952 353.362 126.952C352.512 126.952 351.884 126.261 351.958 125.41C352.032 124.559 352.783 123.868 353.633 123.868C354.483 123.868 355.112 124.559 355.038 125.41Z" fill="#1A1A1A"/>
<path d="M341.523 290.859H228.758C226.565 290.859 224.951 289.082 225.136 286.886L230.322 227.475C230.519 225.279 232.441 223.502 234.634 223.502H347.399C349.592 223.502 351.206 225.279 351.021 227.475L345.835 286.886C345.638 289.082 343.716 290.859 341.523 290.859Z" fill="#1A1A1A"/>
<path d="M259.78 303.272H224.668C224.138 303.272 223.731 302.84 223.78 302.297C223.83 301.766 224.298 301.322 224.828 301.322H259.952C260.482 301.322 260.888 301.754 260.839 302.297C260.79 302.84 260.309 303.272 259.78 303.272Z" fill="#1A1A1A"/>
<path d="M303.663 303.272H265.976C265.447 303.272 265.04 302.84 265.089 302.297C265.139 301.766 265.607 301.322 266.137 301.322H303.824C304.353 301.322 304.76 301.754 304.711 302.297C304.661 302.84 304.193 303.272 303.663 303.272Z" fill="#1A1A1A"/>
<path d="M247.669 311.835H223.916C223.386 311.835 222.98 311.403 223.029 310.86C223.078 310.329 223.546 309.885 224.076 309.885H247.829C248.359 309.885 248.765 310.317 248.716 310.86C248.679 311.403 248.211 311.835 247.669 311.835Z" fill="#1A1A1A"/>
<path d="M292.772 311.835H253.866C253.336 311.835 252.93 311.403 252.979 310.86C253.028 310.329 253.496 309.885 254.026 309.885H292.933C293.462 309.885 293.869 310.317 293.82 310.86C293.77 311.403 293.302 311.835 292.772 311.835Z" fill="#1A1A1A"/>
<path d="M286.489 320.41H223.177C222.647 320.41 222.24 319.978 222.29 319.435C222.339 318.905 222.807 318.46 223.337 318.46H286.649C287.179 318.46 287.586 318.892 287.536 319.435C287.5 319.978 287.019 320.41 286.489 320.41Z" fill="#1A1A1A"/>
<path d="M296.863 320.41H292.686C292.156 320.41 291.75 319.978 291.799 319.435C291.848 318.905 292.317 318.46 292.846 318.46H297.023C297.553 318.46 297.959 318.892 297.91 319.435C297.873 319.978 297.392 320.41 296.863 320.41Z" fill="#1A1A1A"/>
<path d="M251.981 328.973H222.425C221.895 328.973 221.489 328.541 221.538 327.998C221.588 327.468 222.056 327.023 222.585 327.023H252.141C252.671 327.023 253.077 327.455 253.028 327.998C252.991 328.541 252.523 328.973 251.981 328.973Z" fill="#1A1A1A"/>
<path d="M294.978 328.973H258.178C257.648 328.973 257.242 328.541 257.291 327.998C257.34 327.468 257.808 327.023 258.35 327.023H295.15C295.68 327.023 296.087 327.455 296.037 327.998C295.988 328.541 295.52 328.973 294.978 328.973Z" fill="#1A1A1A"/>
<path d="M258.079 337.549H221.686C221.156 337.549 220.75 337.117 220.799 336.574C220.848 336.043 221.316 335.599 221.846 335.599H258.24C258.769 335.599 259.176 336.031 259.127 336.574C259.077 337.117 258.609 337.549 258.079 337.549Z" fill="#1A1A1A"/>
<path d="M293.586 337.549H264.264C263.734 337.549 263.328 337.117 263.377 336.574C263.426 336.043 263.894 335.599 264.436 335.599H293.758C294.288 335.599 294.694 336.031 294.645 336.574C294.596 337.117 294.128 337.549 293.586 337.549Z" fill="#1A1A1A"/>
<path d="M347.597 200.046C347.104 200.552 346.315 200.602 345.847 200.157L295.421 151.963C294.953 151.506 294.965 150.729 295.458 150.223C295.951 149.717 296.74 149.668 297.208 150.112L347.633 198.307C348.102 198.751 348.089 199.528 347.597 200.046Z" fill="#D83B01"/>
<path d="M290.961 200.022C290.555 199.516 290.678 198.726 291.22 198.282L316.944 177.22C317.499 176.763 318.263 176.813 318.669 177.331C319.076 177.837 318.952 178.626 318.41 179.071L292.686 200.133C292.144 200.589 291.368 200.54 290.961 200.022Z" fill="#D83B01"/>
<path d="M324.201 172.803C323.794 172.297 323.917 171.507 324.459 171.063L350.233 149.964C350.787 149.507 351.551 149.557 351.958 150.075C352.364 150.581 352.241 151.37 351.699 151.815L325.926 172.914C325.383 173.37 324.607 173.321 324.201 172.803Z" fill="#D83B01"/>
<g opacity="0.7">
<path d="M347.597 200.046C347.104 200.552 346.315 200.602 345.847 200.157L295.421 151.963C294.953 151.506 294.965 150.729 295.458 150.223C295.951 149.717 296.74 149.668 297.208 150.112L347.633 198.307C348.102 198.751 348.089 199.528 347.597 200.046Z" fill="#1A1A1A"/>
</g>
<g opacity="0.7">
<path d="M290.961 200.022C290.555 199.516 290.678 198.726 291.22 198.282L316.944 177.22C317.499 176.763 318.263 176.813 318.669 177.331C319.076 177.837 318.952 178.626 318.41 179.071L292.686 200.133C292.144 200.589 291.368 200.54 290.961 200.022Z" fill="#1A1A1A"/>
</g>
<g opacity="0.7">
<path d="M324.201 172.803C323.794 172.297 323.917 171.507 324.459 171.063L350.233 149.964C350.787 149.507 351.551 149.557 351.958 150.075C352.364 150.581 352.241 151.37 351.699 151.815L325.926 172.914C325.383 173.37 324.607 173.321 324.201 172.803Z" fill="#1A1A1A"/>
</g>
<path d="M204.192 73.896H188.237C184.997 73.896 182.373 76.5241 182.373 79.7692V95.7477C182.373 98.9928 184.997 101.621 188.237 101.621H204.192C207.432 101.621 210.056 98.9928 210.056 95.7477V79.7692C210.056 76.5241 207.432 73.896 204.192 73.896ZM196.221 79.5718C198.623 79.5718 199.929 81.5213 199.929 83.9397C199.929 86.3457 198.635 88.3075 196.221 88.3075C193.818 88.3075 192.512 86.358 192.512 83.9397C192.512 81.5213 193.806 79.5718 196.221 79.5718ZM205.843 95.9452H186.574C186.414 95.9452 186.266 95.8835 186.168 95.7724L187.4 92.3916C188.188 90.22 190.258 88.7764 192.574 88.7764H199.843C202.159 88.7764 204.216 90.22 205.017 92.3916L206.249 95.7724C206.151 95.8835 206.015 95.9452 205.843 95.9452Z" fill="#D83B01"/>
<path opacity="0.7" d="M204.192 73.896H188.237C184.997 73.896 182.373 76.5241 182.373 79.7692V95.7477C182.373 98.9928 184.997 101.621 188.237 101.621H204.192C207.432 101.621 210.056 98.9928 210.056 95.7477V79.7692C210.056 76.5241 207.432 73.896 204.192 73.896ZM196.221 79.5718C198.623 79.5718 199.929 81.5213 199.929 83.9397C199.929 86.3457 198.635 88.3075 196.221 88.3075C193.818 88.3075 192.512 86.358 192.512 83.9397C192.512 81.5213 193.806 79.5718 196.221 79.5718ZM205.843 95.9452H186.574C186.414 95.9452 186.266 95.8835 186.168 95.7724L187.4 92.3916C188.188 90.22 190.258 88.7764 192.574 88.7764H199.843C202.159 88.7764 204.216 90.22 205.017 92.3916L206.249 95.7724C206.151 95.8835 206.015 95.9452 205.843 95.9452Z" fill="#040404"/>
<path d="M147.421 139.624H135.298C130.937 139.624 127.401 143.165 127.401 147.533V159.674C127.401 164.042 130.937 167.583 135.298 167.583H147.421C151.782 167.583 155.318 164.042 155.318 159.674V147.533C155.306 143.165 151.782 139.624 147.421 139.624ZM141.36 160.23C141.36 160.23 136.382 154.801 136.382 152.049C136.382 149.298 138.612 147.064 141.36 147.064C144.107 147.064 146.337 149.298 146.337 152.049C146.337 154.801 141.36 160.23 141.36 160.23Z" fill="#D83B01"/>
<path d="M141.36 149.779C140.103 149.779 139.093 150.803 139.093 152.061C139.093 153.32 140.115 154.344 141.36 154.344C142.616 154.344 143.639 153.32 143.639 152.061C143.627 150.791 142.616 149.779 141.36 149.779Z" fill="#D83B01"/>
<g opacity="0.7">
<path d="M147.421 139.624H135.298C130.937 139.624 127.401 143.165 127.401 147.533V159.674C127.401 164.042 130.937 167.583 135.298 167.583H147.421C151.782 167.583 155.318 164.042 155.318 159.674V147.533C155.306 143.165 151.782 139.624 147.421 139.624ZM141.36 160.23C141.36 160.23 136.382 154.801 136.382 152.049C136.382 149.298 138.612 147.064 141.36 147.064C144.107 147.064 146.337 149.298 146.337 152.049C146.337 154.801 141.36 160.23 141.36 160.23Z" fill="#040404"/>
<path d="M141.36 149.779C140.103 149.779 139.093 150.803 139.093 152.061C139.093 153.32 140.115 154.344 141.36 154.344C142.616 154.344 143.639 153.32 143.639 152.061C143.627 150.791 142.616 149.779 141.36 149.779Z" fill="#040404"/>
</g>
<path d="M413.582 105.224L421.701 99.955L413.582 94.6987V105.224Z" fill="#D83B01"/>
<path d="M424.042 85.6177H408.568C404.921 85.6177 401.977 88.5789 401.977 92.2189V107.716C401.977 111.368 404.934 114.317 408.568 114.317H424.042C427.689 114.317 430.633 111.356 430.633 107.716V92.2189C430.633 88.5666 427.689 85.6177 424.042 85.6177ZM416.305 110.283C410.613 110.283 406.006 105.656 406.006 99.9675C406.006 94.2671 410.613 89.6524 416.305 89.6524C421.997 89.6524 426.605 94.2794 426.605 99.9675C426.617 105.656 421.997 110.283 416.305 110.283Z" fill="#D83B01"/>
<g opacity="0.7">
<path d="M413.582 105.224L421.701 99.955L413.582 94.6987V105.224Z" fill="#040404"/>
<path d="M424.042 85.6177H408.568C404.921 85.6177 401.977 88.5789 401.977 92.2189V107.716C401.977 111.368 404.934 114.317 408.568 114.317H424.042C427.689 114.317 430.633 111.356 430.633 107.716V92.2189C430.633 88.5666 427.689 85.6177 424.042 85.6177ZM416.305 110.283C410.613 110.283 406.006 105.656 406.006 99.9675C406.006 94.2671 410.613 89.6524 416.305 89.6524C421.997 89.6524 426.605 94.2794 426.605 99.9675C426.617 105.656 421.997 110.283 416.305 110.283Z" fill="#040404"/>
</g>
<path d="M439.233 145.053C439.233 144.732 439.22 144.412 439.183 144.103L441.044 143.067C440.908 142.166 440.674 141.302 440.354 140.488L438.235 140.525C437.964 139.945 437.643 139.402 437.286 138.884L438.383 137.058C437.816 136.367 437.188 135.725 436.498 135.17L434.674 136.268C434.157 135.91 433.615 135.59 433.036 135.318L433.073 133.196C432.247 132.875 431.385 132.641 430.498 132.505L429.463 134.368C429.155 134.343 428.835 134.319 428.514 134.319C428.194 134.319 427.874 134.331 427.566 134.368L426.531 132.505C425.631 132.641 424.769 132.875 423.956 133.196L423.993 135.318C423.414 135.59 422.872 135.91 422.354 136.268L420.531 135.17C419.841 135.738 419.2 136.367 418.646 137.058L419.742 138.884C419.385 139.402 419.065 139.945 418.794 140.525L416.675 140.488C416.354 141.315 416.12 142.178 415.985 143.067L417.845 144.103C417.82 144.412 417.796 144.732 417.796 145.053C417.796 145.374 417.808 145.695 417.845 146.003L415.985 147.04C416.12 147.941 416.354 148.804 416.675 149.619L418.794 149.582C419.065 150.161 419.385 150.704 419.742 151.223L418.646 153.049C419.213 153.74 419.841 154.381 420.531 154.937L422.354 153.838C422.872 154.196 423.414 154.517 423.993 154.788L423.956 156.911C424.781 157.232 425.644 157.466 426.531 157.602L427.566 155.739C427.874 155.763 428.194 155.788 428.514 155.788C428.835 155.788 429.155 155.776 429.463 155.739L430.498 157.602C431.397 157.466 432.26 157.232 433.073 156.911L433.036 154.788C433.615 154.517 434.157 154.196 434.674 153.838L436.498 154.937C437.188 154.369 437.828 153.74 438.383 153.049L437.286 151.223C437.643 150.704 437.964 150.161 438.235 149.582L440.354 149.619C440.674 148.792 440.908 147.928 441.044 147.04L439.183 146.003C439.208 145.683 439.233 145.374 439.233 145.053ZM428.49 152.345C424.461 152.345 421.196 149.076 421.196 145.041C421.196 141.006 424.461 137.736 428.49 137.736C432.518 137.736 435.783 141.006 435.783 145.041C435.783 149.088 432.518 152.345 428.49 152.345Z" fill="#D83B01"/>
<path opacity="0.7" d="M439.233 145.053C439.233 144.732 439.22 144.412 439.183 144.103L441.044 143.067C440.908 142.166 440.674 141.302 440.354 140.488L438.235 140.525C437.964 139.945 437.643 139.402 437.286 138.884L438.383 137.058C437.816 136.367 437.188 135.725 436.498 135.17L434.674 136.268C434.157 135.91 433.615 135.59 433.036 135.318L433.073 133.196C432.247 132.875 431.385 132.641 430.498 132.505L429.463 134.368C429.155 134.343 428.835 134.319 428.514 134.319C428.194 134.319 427.874 134.331 427.566 134.368L426.531 132.505C425.631 132.641 424.769 132.875 423.956 133.196L423.993 135.318C423.414 135.59 422.872 135.91 422.354 136.268L420.531 135.17C419.841 135.738 419.2 136.367 418.646 137.058L419.742 138.884C419.385 139.402 419.065 139.945 418.794 140.525L416.675 140.488C416.354 141.315 416.12 142.178 415.985 143.067L417.845 144.103C417.82 144.412 417.796 144.732 417.796 145.053C417.796 145.374 417.808 145.695 417.845 146.003L415.985 147.04C416.12 147.941 416.354 148.804 416.675 149.619L418.794 149.582C419.065 150.161 419.385 150.704 419.742 151.223L418.646 153.049C419.213 153.74 419.841 154.381 420.531 154.937L422.354 153.838C422.872 154.196 423.414 154.517 423.993 154.788L423.956 156.911C424.781 157.232 425.644 157.466 426.531 157.602L427.566 155.739C427.874 155.763 428.194 155.788 428.514 155.788C428.835 155.788 429.155 155.776 429.463 155.739L430.498 157.602C431.397 157.466 432.26 157.232 433.073 156.911L433.036 154.788C433.615 154.517 434.157 154.196 434.674 153.838L436.498 154.937C437.188 154.369 437.828 153.74 438.383 153.049L437.286 151.223C437.643 150.704 437.964 150.161 438.235 149.582L440.354 149.619C440.674 148.792 440.908 147.928 441.044 147.04L439.183 146.003C439.208 145.683 439.233 145.374 439.233 145.053ZM428.49 152.345C424.461 152.345 421.196 149.076 421.196 145.041C421.196 141.006 424.461 137.736 428.49 137.736C432.518 137.736 435.783 141.006 435.783 145.041C435.783 149.088 432.518 152.345 428.49 152.345Z" fill="#040404"/>
<path d="M411.155 181.736C411.155 181.255 411.131 180.786 411.094 180.317L413.878 178.775C413.669 177.43 413.311 176.147 412.843 174.913L409.665 174.962C409.258 174.098 408.79 173.272 408.248 172.507L409.886 169.78C409.049 168.743 408.1 167.793 407.065 166.954L404.342 168.595C403.566 168.052 402.753 167.571 401.891 167.176L401.94 163.993C400.708 163.524 399.414 163.166 398.084 162.957L396.544 165.745C396.076 165.708 395.607 165.683 395.127 165.683C394.647 165.683 394.178 165.708 393.71 165.745L392.17 162.957C390.827 163.166 389.546 163.524 388.314 163.993L388.363 167.176C387.501 167.584 386.675 168.052 385.912 168.595L383.189 166.954C382.154 167.793 381.205 168.743 380.368 169.78L382.006 172.507C381.464 173.284 380.984 174.098 380.589 174.962L377.411 174.913C376.943 176.147 376.585 177.43 376.376 178.775L379.16 180.317C379.123 180.786 379.099 181.255 379.099 181.736C379.099 182.217 379.123 182.686 379.16 183.155L376.376 184.697C376.585 186.042 376.943 187.325 377.411 188.559L380.589 188.51C380.996 189.374 381.464 190.2 382.006 190.965L380.368 193.692C381.205 194.729 382.154 195.679 383.189 196.518L385.912 194.877C386.688 195.42 387.501 195.901 388.363 196.296L388.314 199.479C389.546 199.948 390.827 200.306 392.17 200.515L393.71 197.727C394.178 197.764 394.647 197.789 395.127 197.789C395.607 197.789 396.076 197.764 396.544 197.727L398.084 200.515C399.427 200.306 400.708 199.948 401.94 199.479L401.891 196.296C402.753 195.888 403.579 195.42 404.342 194.877L407.065 196.518C408.1 195.679 409.049 194.729 409.886 193.692L408.248 190.965C408.79 190.188 409.27 189.374 409.665 188.51L412.843 188.559C413.311 187.325 413.669 186.042 413.878 184.697L411.094 183.155C411.131 182.686 411.155 182.217 411.155 181.736ZM395.102 188.078C391.604 188.078 388.77 185.24 388.77 181.736C388.77 178.232 391.604 175.394 395.102 175.394C398.601 175.394 401.435 178.232 401.435 181.736C401.435 185.24 398.601 188.078 395.102 188.078Z" fill="#D83B01"/>
<path opacity="0.7" d="M411.155 181.736C411.155 181.255 411.131 180.786 411.094 180.317L413.878 178.775C413.669 177.43 413.311 176.147 412.843 174.913L409.665 174.962C409.258 174.098 408.79 173.272 408.248 172.507L409.886 169.78C409.049 168.743 408.1 167.793 407.065 166.954L404.342 168.595C403.566 168.052 402.753 167.571 401.891 167.176L401.94 163.993C400.708 163.524 399.414 163.166 398.084 162.957L396.544 165.745C396.076 165.708 395.607 165.683 395.127 165.683C394.647 165.683 394.178 165.708 393.71 165.745L392.17 162.957C390.827 163.166 389.546 163.524 388.314 163.993L388.363 167.176C387.501 167.584 386.675 168.052 385.912 168.595L383.189 166.954C382.154 167.793 381.205 168.743 380.368 169.78L382.006 172.507C381.464 173.284 380.984 174.098 380.589 174.962L377.411 174.913C376.943 176.147 376.585 177.43 376.376 178.775L379.16 180.317C379.123 180.786 379.099 181.255 379.099 181.736C379.099 182.217 379.123 182.686 379.16 183.155L376.376 184.697C376.585 186.042 376.943 187.325 377.411 188.559L380.589 188.51C380.996 189.374 381.464 190.2 382.006 190.965L380.368 193.692C381.205 194.729 382.154 195.679 383.189 196.518L385.912 194.877C386.688 195.42 387.501 195.901 388.363 196.296L388.314 199.479C389.546 199.948 390.827 200.306 392.17 200.515L393.71 197.727C394.178 197.764 394.647 197.789 395.127 197.789C395.607 197.789 396.076 197.764 396.544 197.727L398.084 200.515C399.427 200.306 400.708 199.948 401.94 199.479L401.891 196.296C402.753 195.888 403.579 195.42 404.342 194.877L407.065 196.518C408.1 195.679 409.049 194.729 409.886 193.692L408.248 190.965C408.79 190.188 409.27 189.374 409.665 188.51L412.843 188.559C413.311 187.325 413.669 186.042 413.878 184.697L411.094 183.155C411.131 182.686 411.155 182.217 411.155 181.736ZM395.102 188.078C391.604 188.078 388.77 185.24 388.77 181.736C388.77 178.232 391.604 175.394 395.102 175.394C398.601 175.394 401.435 178.232 401.435 181.736C401.435 185.24 398.601 188.078 395.102 188.078Z" fill="#040404"/>
<path d="M365.867 110.196V116.662L359.719 119.907C358.66 120.474 358.66 121.992 359.719 122.56L365.867 125.805V132.27C365.867 133.714 367.037 134.886 368.479 134.886H390.519C391.961 134.886 393.131 133.714 393.131 132.27V110.196C393.131 108.753 391.961 107.581 390.519 107.581H368.479C367.025 107.581 365.867 108.753 365.867 110.196Z" fill="#D83B01"/>
<g opacity="0.9">
<path d="M373.444 116.921C373.949 116.921 385.456 116.921 385.961 116.921C386.811 116.921 387.501 116.23 387.501 115.379C387.501 114.527 386.811 113.836 385.961 113.836C385.333 113.836 374.06 113.836 373.444 113.836C372.594 113.836 371.904 114.527 371.904 115.379C371.916 116.242 372.594 116.921 373.444 116.921Z" fill="#040404"/>
<path d="M385.973 119.685C385.407 119.685 374.023 119.685 373.456 119.685C372.606 119.685 371.916 120.376 371.916 121.227C371.916 122.079 372.606 122.77 373.456 122.77C374.023 122.77 385.407 122.77 385.973 122.77C386.823 122.77 387.513 122.079 387.513 121.227C387.513 120.376 386.823 119.685 385.973 119.685Z" fill="#040404"/>
<path d="M385.973 125.534C385.32 125.534 374.109 125.534 373.456 125.534C372.606 125.534 371.916 126.225 371.916 127.076C371.916 127.927 372.606 128.618 373.456 128.618C373.924 128.618 385.505 128.618 385.973 128.618C386.823 128.618 387.513 127.927 387.513 127.076C387.513 126.225 386.823 125.534 385.973 125.534Z" fill="#040404"/>
</g>
<path d="M241.349 100.042H246.609L249.32 105.187C250.108 106.68 252.24 106.68 253.016 105.187L255.726 100.042H260.987C263.081 100.042 264.781 98.3392 264.781 96.2417V76.5615C264.781 74.464 263.081 72.7612 260.987 72.7612H241.349C239.254 72.7612 237.554 74.464 237.554 76.5615V96.2417C237.554 98.3392 239.242 100.042 241.349 100.042Z" fill="#D83B01"/>
<path opacity="0.9" d="M251.18 78.6343L245.119 82.2002V92.5893H249.628V85.6056H252.745V92.5893H257.254V82.2002L251.18 78.6343Z" fill="#040404"/>
<path d="M300.362 382.301H295.618L292.588 376.551C291.935 375.317 290.161 375.317 289.508 376.551L286.477 382.301H281.734C279.344 382.301 277.409 384.238 277.409 386.632V405.263C277.409 407.657 279.344 409.594 281.734 409.594H300.337C302.727 409.594 304.661 407.657 304.661 405.263V386.632C304.686 384.238 302.752 382.301 300.362 382.301Z" fill="#D83B01"/>
<path opacity="0.9" d="M293.696 389.408C291.072 386.779 286.797 386.779 284.185 389.408C281.561 392.036 281.561 396.305 284.185 398.933C286.514 401.265 290.136 401.524 292.748 399.723C292.797 400.019 292.933 400.315 293.167 400.549L297.343 404.732C297.935 405.324 298.883 405.324 299.475 404.732C300.066 404.14 300.066 403.19 299.475 402.598L295.298 398.415C295.064 398.18 294.781 398.045 294.473 397.995C296.271 395.367 296.013 391.74 293.696 389.408ZM292.267 397.514C290.432 399.353 287.438 399.353 285.602 397.514C283.767 395.676 283.767 392.677 285.602 390.827C287.438 388.988 290.432 388.988 292.28 390.827C294.103 392.677 294.103 395.676 292.267 397.514Z" fill="#040404"/>
<path d="M499.317 258.223C499.317 258.223 489.276 283.147 479.445 285.85C469.614 288.552 454.793 286.355 454.793 286.355L450.21 287.614L445.713 286.948C445.664 286.935 445.614 286.935 445.553 286.935L440.477 286.824C439.615 286.8 439.134 285.961 439.615 285.294L441.438 282.777C441.586 282.58 441.795 282.432 442.042 282.345L446.871 280.791C447.056 280.729 447.265 280.717 447.462 280.741L454.842 281.914C454.842 281.914 475.355 278.545 477.449 276.645C479.531 274.745 485.716 254.818 485.716 254.818L499.317 258.223Z" fill="#EEC1BB"/>
<path opacity="0.1" d="M455.31 281.815C455.002 281.864 454.842 281.889 454.842 281.889L447.462 280.717C447.265 280.692 447.068 280.704 446.871 280.766L442.042 282.321C441.795 282.395 441.586 282.555 441.438 282.752L439.615 285.269C439.134 285.936 439.615 286.775 440.477 286.799L445.553 286.911C445.602 286.911 445.651 286.911 445.713 286.923L448.731 287.367C450.974 286.405 453.203 284.369 455.31 281.815Z" fill="black"/>
<path d="M505.379 233.533C498.085 231.14 487.823 236.63 483.893 259.63L499.034 264.059C499.034 264.059 515.801 236.964 505.379 233.533Z" fill="#D83B01"/>
<path d="M462.949 203.477C462.961 204.23 463.355 204.846 463.848 204.834C464.341 204.834 464.772 204.18 464.735 203.452C464.71 202.724 464.328 202.083 463.836 202.095C463.343 202.107 462.949 202.724 462.949 203.477Z" fill="#263238"/>
<path d="M465.93 204.229L462.345 210.164C462.345 210.164 463.589 211.571 466.275 210.535L465.93 204.229Z" fill="#D4827D"/>
<path d="M466.608 198.739C466.521 198.837 466.386 198.887 466.25 198.874C465.265 198.702 464.267 199.023 463.552 199.714C463.405 199.874 463.158 199.899 462.998 199.751C462.838 199.602 462.825 199.356 462.961 199.195C463.848 198.282 465.117 197.875 466.361 198.085C466.583 198.109 466.731 198.319 466.694 198.529C466.694 198.615 466.657 198.689 466.608 198.739Z" fill="#263238"/>
<path d="M491.938 198.097C492.504 208.128 492.948 212.373 488.537 218.073C481.478 224.181 469.441 225.156 465.905 215.495C462.715 206.796 462.333 191.891 471.61 186.721C478.213 183.044 486.554 185.425 490.237 192.039C491.248 193.89 491.839 195.975 491.938 198.097Z" fill="#EEC1BB"/>
<path d="M477.979 220.047L480.517 234.903L492.886 232.041L488.562 216.876L477.979 220.047Z" fill="#EEC1BB"/>
<path d="M469.072 198.837C469.7 192.322 467.47 199.849 464.452 191.249C461.433 182.649 475.651 175.665 477.93 177.269C480.197 178.873 478.903 181.341 486.418 182.723C493.933 184.105 493.613 191.422 493.613 191.422C493.613 191.422 497.937 193.433 496.397 202.736C494.857 212.04 488.993 219.073 488.993 219.073C488.993 219.073 486.147 216.136 481.65 218.851C481.65 218.851 479.433 217.604 477.252 214.347C475.219 211.312 474.603 208.437 471.819 208.178C465.992 207.647 468.862 200.972 469.072 198.837Z" fill="#263238"/>
<path d="M492.788 192.557C492.788 192.557 498.923 188.781 496.213 184.821C493.502 180.86 494.808 189.164 492.788 192.557Z" fill="#263238"/>
<path d="M470.833 202.625C469.466 204.155 468.764 206.167 468.875 208.215C469.047 210.929 471.708 211.411 473.803 209.93C475.7 208.585 477.88 205.562 476.673 203.181C475.466 200.787 472.534 200.775 470.833 202.625Z" fill="#FFC3BD"/>
<path opacity="0.1" d="M478.213 221.454L479.223 227.352C479.162 221.96 482.008 219.295 482.008 219.295C479.112 219.714 478.213 221.454 478.213 221.454Z" fill="black"/>
<path d="M391.246 259.803H387.71V280.692H391.246V259.803Z" fill="#D83B01"/>
<path opacity="0.7" d="M391.246 259.803H387.71V280.692H391.246V259.803Z" fill="#040404"/>
<path d="M366.951 218.32H358.142C354.841 218.32 352.167 220.997 352.167 224.304V265.17C352.167 268.476 354.841 271.154 358.142 271.154H366.951V218.32Z" fill="#D83B01"/>
<path d="M420.814 271.154H361.222C357.921 271.154 355.247 268.476 355.247 265.17V224.304C355.247 220.997 357.921 218.32 361.222 218.32H420.814C424.116 218.32 426.789 220.997 426.789 224.304V265.17C426.789 268.476 424.116 271.154 420.814 271.154Z" fill="#D83B01"/>
<path opacity="0.5" d="M420.814 271.154H361.222C357.921 271.154 355.247 268.476 355.247 265.17V224.304C355.247 220.997 357.921 218.32 361.222 218.32H420.814C424.116 218.32 426.789 220.997 426.789 224.304V265.17C426.789 268.476 424.116 271.154 420.814 271.154Z" fill="#040404"/>
<path d="M361.222 220.788C359.288 220.788 357.711 222.367 357.711 224.304V265.17C357.711 267.107 359.288 268.686 361.222 268.686H420.814C422.748 268.686 424.325 267.107 424.325 265.17V224.304C424.325 222.367 422.748 220.788 420.814 220.788H361.222Z" fill="#263238"/>
<path d="M376.61 289.452C376.61 282.333 382.376 276.571 389.472 276.571C396.581 276.571 402.334 282.345 402.334 289.452H376.61Z" fill="#D83B01"/>
<path d="M406.979 285.047H381.255V289.242H432.715V287.515L406.979 285.047Z" fill="#D83B01"/>
<path opacity="0.8" d="M406.979 285.047H381.255V289.242H432.715V287.515L406.979 285.047Z" fill="#040404"/>
<path d="M406.979 289.242H381.255V285.047L406.979 287.515V289.242Z" fill="#D83B01"/>
<path opacity="0.6" d="M406.979 289.242H381.255V285.047L406.979 287.515V289.242Z" fill="#040404"/>
<path d="M463.725 433.247H410.626C406.166 433.247 402.556 429.632 402.556 425.165V302.926C402.556 298.459 406.166 294.844 410.626 294.844H463.725C464.92 294.844 465.881 295.807 465.881 297.004C465.881 298.2 464.92 299.163 463.725 299.163H410.626C408.556 299.163 406.868 300.841 406.868 302.926V425.165C406.868 427.238 408.544 428.928 410.626 428.928H463.725C464.92 428.928 465.881 429.891 465.881 431.088C465.881 432.284 464.92 433.247 463.725 433.247Z" fill="#263238"/>
<g opacity="0.5">
<path d="M463.725 433.247H410.626C406.166 433.247 402.556 429.632 402.556 425.165V302.926C402.556 298.459 406.166 294.844 410.626 294.844H463.725C464.92 294.844 465.881 295.807 465.881 297.004C465.881 298.2 464.92 299.163 463.725 299.163H410.626C408.556 299.163 406.868 300.841 406.868 302.926V425.165C406.868 427.238 408.544 428.928 410.626 428.928H463.725C464.92 428.928 465.881 429.891 465.881 431.088C465.881 432.284 464.92 433.247 463.725 433.247Z" fill="#040404"/>
</g>
<path d="M410.429 289.243H335.042V295.572H410.429V289.243Z" fill="#D83B01"/>
<path opacity="0.2" d="M410.429 289.243H335.042V295.572H410.429V289.243Z" fill="#040404"/>
<path d="M471.277 289.243H406.979V295.572H471.277V289.243Z" fill="#D83B01"/>
<path opacity="0.5" d="M471.277 289.243H406.979V295.572H471.277V289.243Z" fill="#040404"/>
<path d="M448.731 388.396L452.292 424.437H443.766L435.229 389.334L448.731 388.396Z" fill="#EEC1BB"/>
<path d="M442.966 422.093L453.844 422.278C454.251 422.29 454.608 422.574 454.682 422.981L456.493 431.877C456.665 432.667 456.16 433.444 455.372 433.605C455.273 433.63 455.162 433.642 455.064 433.642C451.146 433.506 447.659 433.235 442.781 433.161C437.015 433.062 438.469 433.778 431.693 433.765C427.615 433.753 426.937 429.089 428.674 428.891C436.608 428.028 437.471 425.646 440.575 422.858C441.265 422.303 442.103 422.043 442.966 422.093Z" fill="#263238"/>
<path opacity="0.1" d="M451.368 415.035L448.731 388.396L435.229 389.334L441.475 415.035H451.368Z" fill="black"/>
<path d="M507.104 305.271L472.127 306.529C472.127 306.529 425.077 323.001 423.746 335.722C422.391 348.777 438.21 408.742 438.21 408.742H452.267C452.267 408.742 448.386 364.73 446.908 351.257C445.417 337.783 495.929 342.249 504.701 330.75C512.783 320.163 507.104 305.271 507.104 305.271Z" fill="#263238"/>
<path opacity="0.2" d="M507.104 305.271L472.127 306.529C472.127 306.529 425.077 323.001 423.746 335.722C422.391 348.777 438.21 408.742 438.21 408.742H452.267C452.267 408.742 448.386 364.73 446.908 351.257C445.417 337.783 495.929 342.249 504.701 330.75C512.783 320.163 507.104 305.271 507.104 305.271Z" fill="black"/>
<path d="M454.67 406.731L454.978 411.704H437.606L435.906 406.731H454.67Z" fill="#D83B01"/>
<path d="M416.194 390.111L417.131 424.437H408.753L403.788 390.111H416.194Z" fill="#EEC1BB"/>
<path d="M407.595 422.093L418.473 422.278C418.88 422.291 419.237 422.575 419.311 422.982L421.122 431.878C421.295 432.668 420.79 433.445 420.001 433.605C419.903 433.63 419.792 433.642 419.693 433.642C415.775 433.507 412.289 433.235 407.41 433.161C401.644 433.062 403.098 433.778 396.322 433.766C392.244 433.753 391.567 429.089 393.304 428.892C401.238 428.028 402.1 425.647 405.205 422.858C405.882 422.303 406.732 422.044 407.595 422.093Z" fill="#263238"/>
<path opacity="0.1" d="M416.872 415.011L416.194 390.111H403.788L407.398 415.035C410.096 415.035 413.804 415.023 416.872 415.011Z" fill="black"/>
<path d="M491.901 308.17C491.901 308.17 494.808 334.785 467.753 336.031C440.699 337.277 419.607 340.386 418.991 350.011C418.375 359.647 418.991 408.743 418.991 408.743H404.293C404.293 408.743 398.577 377.711 396.347 358.45C394.178 339.757 390.224 326.197 409.381 319.867C429.746 313.13 465.942 306.912 465.942 306.912L492.011 305.258L491.901 308.17Z" fill="#263238"/>
<path d="M421.159 406.731L420.235 411.704H404.096L402.396 406.731H421.159Z" fill="#D83B01"/>
<path d="M497.777 231.782C497.777 231.782 497.777 225.773 485.667 226.464C472.817 227.204 475.232 232.954 475.232 232.954L497.777 231.782Z" fill="#D83B01"/>
<path opacity="0.3" d="M497.777 231.782C497.777 231.782 497.777 225.773 485.667 226.464C472.817 227.204 475.232 232.954 475.232 232.954L497.777 231.782Z" fill="black"/>
<path d="M509.013 258.68C508.2 270.537 508.483 306.208 508.483 306.208C508.483 306.208 482.648 307.911 462.308 307.244L459.955 238.629C459.955 236.186 461.47 233.965 463.823 233.04C469.564 230.807 483.043 228.277 504.122 231.041C511.391 232.003 509.974 244.663 509.013 258.68Z" fill="#D83B01"/>
<path d="M464.107 258.223C464.107 258.223 454.066 283.147 444.235 285.85C434.403 288.552 419.582 286.355 419.582 286.355L414.999 287.614L410.502 286.948C410.453 286.935 410.404 286.935 410.342 286.935L405.266 286.824C404.404 286.8 403.924 285.961 404.404 285.294L406.227 282.777C406.375 282.58 406.585 282.432 406.831 282.345L411.66 280.791C411.845 280.729 412.055 280.717 412.252 280.741L419.631 281.914C419.631 281.914 440.144 278.545 442.239 276.645C444.321 274.745 450.505 254.818 450.505 254.818L464.107 258.223Z" fill="#EEC1BB"/>
<path opacity="0.1" d="M463.848 246.625C463.848 246.625 462.296 248.476 460.386 251.178L461.064 271.043C468.616 267.712 471.61 248.229 471.61 248.229L466.706 244.75L463.848 246.625Z" fill="black"/>
<path d="M470.168 233.533C462.875 231.14 452.612 236.63 448.682 259.63L463.823 264.059C463.823 264.059 480.591 236.964 470.168 233.533Z" fill="#D83B01"/>
<path d="M479.815 348.961H468.419V382.411H479.815V348.961Z" fill="#263238"/>
<path opacity="0.6" d="M479.815 348.961H468.419V382.411H479.815V348.961Z" fill="#040404"/>
<path d="M481.576 412.715V370.208H466.645V412.715L432.654 417.441V422.167L474.111 418.625L515.567 422.167V417.441L481.576 412.715Z" fill="#263238"/>
<path d="M432.161 433.753C434.644 433.753 436.658 431.737 436.658 429.249C436.658 426.762 434.644 424.746 432.161 424.746C429.677 424.746 427.664 426.762 427.664 429.249C427.664 431.737 429.677 433.753 432.161 433.753Z" fill="#D83B01"/>
<path d="M515.567 433.753C518.051 433.753 520.064 431.737 520.064 429.249C520.064 426.762 518.051 424.746 515.567 424.746C513.084 424.746 511.071 426.762 511.071 429.249C511.071 431.737 513.084 433.753 515.567 433.753Z" fill="#D83B01"/>
<path d="M474.111 433.753C476.594 433.753 478.607 431.737 478.607 429.249C478.607 426.762 476.594 424.746 474.111 424.746C471.627 424.746 469.614 426.762 469.614 429.249C469.614 431.737 471.627 433.753 474.111 433.753Z" fill="#D83B01"/>
<path opacity="0.3" d="M479.815 348.961H468.419V357.228H479.815V348.961Z" fill="black"/>
<path d="M519.165 273.141H482.032C475.983 273.141 470.932 277.755 470.365 283.777L467.236 317.387C466.521 325.037 460.3 331.009 452.637 331.404L416.798 333.218C412.437 333.44 409.024 337.043 409.024 341.41V342.163C409.024 345.914 412.067 348.962 415.812 348.962H464.292H474.111H524.955L530.832 285.973C531.473 279.088 526.064 273.141 519.165 273.141Z" fill="#D83B01"/>
<path opacity="0.3" d="M519.165 273.141H482.032C475.983 273.141 470.932 277.755 470.365 283.777L467.236 317.387C466.521 325.037 460.3 331.009 452.637 331.404L416.798 333.218C412.437 333.44 409.024 337.043 409.024 341.41V342.163C409.024 345.914 412.067 348.962 415.812 348.962H464.292H474.111H524.955L530.832 285.973C531.473 279.088 526.064 273.141 519.165 273.141Z" fill="#040404"/>
<path d="M436.572 340.3H436.387C435.032 340.3 433.923 339.202 433.923 337.832V311.045H439.036V337.832C439.036 339.202 437.939 340.3 436.572 340.3Z" fill="#263238"/>
<path opacity="0.2" d="M436.572 340.3H436.387C435.032 340.3 433.923 339.202 433.923 337.832V311.045H439.036V337.832C439.036 339.202 437.939 340.3 436.572 340.3Z" fill="#040404"/>
<path d="M458.587 303.309H447.191V312.76H458.587C461.187 312.76 463.306 310.65 463.306 308.034C463.306 305.418 461.199 303.309 458.587 303.309Z" fill="#D83B01"/>
<path opacity="0.5" d="M458.587 303.309H447.191V312.76H458.587C461.187 312.76 463.306 310.65 463.306 308.034C463.306 305.418 461.199 303.309 458.587 303.309Z" fill="#040404"/>
<path d="M454.041 312.748H414.198C411.685 312.748 409.652 310.712 409.652 308.195V307.849C409.652 305.332 411.685 303.296 414.198 303.296H454.041C456.555 303.296 458.587 305.332 458.587 307.849V308.195C458.587 310.712 456.555 312.748 454.041 312.748Z" fill="#D83B01"/>
<path opacity="0.3" d="M454.041 312.748H414.198C411.685 312.748 409.652 310.712 409.652 308.195V307.849C409.652 305.332 411.685 303.296 414.198 303.296H454.041C456.555 303.296 458.587 305.332 458.587 307.849V308.195C458.587 310.712 456.555 312.748 454.041 312.748Z" fill="#040404"/>
<path d="M527.518 348.961H472.928L479.014 283.789C479.581 277.755 484.632 273.153 490.681 273.153H527.813C534.713 273.153 540.121 279.1 539.481 285.973L534.171 342.903C533.838 346.333 530.967 348.961 527.518 348.961Z" fill="#D83B01"/>
<path opacity="0.5" d="M527.518 348.961H472.928L479.014 283.789C479.581 277.755 484.632 273.153 490.681 273.153H527.813C534.713 273.153 540.121 279.1 539.481 285.973L534.171 342.903C533.838 346.333 530.967 348.961 527.518 348.961Z" fill="#040404"/>
<path d="M399.993 433.247H346.894C342.434 433.247 338.825 429.632 338.825 425.165V302.926C338.825 298.459 342.434 294.844 346.894 294.844H399.993C401.188 294.844 402.149 295.807 402.149 297.004C402.149 298.2 401.188 299.163 399.993 299.163H346.894C344.824 299.163 343.137 300.841 343.137 302.926V425.165C343.137 427.238 344.812 428.928 346.894 428.928H399.993C401.188 428.928 402.149 429.891 402.149 431.088C402.149 432.284 401.188 433.247 399.993 433.247Z" fill="#263238"/>
<g opacity="0.5">
<path d="M399.993 433.247H346.894C342.434 433.247 338.825 429.632 338.825 425.165V302.926C338.825 298.459 342.434 294.844 346.894 294.844H399.993C401.188 294.844 402.149 295.807 402.149 297.004C402.149 298.2 401.188 299.163 399.993 299.163H346.894C344.824 299.163 343.137 300.841 343.137 302.926V425.165C343.137 427.238 344.812 428.928 346.894 428.928H399.993C401.188 428.928 402.149 429.891 402.149 431.088C402.149 432.284 401.188 433.247 399.993 433.247Z" fill="#040404"/>
</g>
<path d="M364.906 230.523L361.173 228.043C360.779 227.771 360.779 227.191 361.173 226.92L364.906 224.44C365.189 224.255 365.559 224.329 365.744 224.613C365.929 224.896 365.855 225.267 365.571 225.452L362.516 227.488L365.571 229.523C365.855 229.709 365.929 230.091 365.744 230.362C365.571 230.634 365.189 230.708 364.906 230.523Z" fill="#040404"/>
<path d="M373.087 230.362C372.902 230.079 372.976 229.709 373.259 229.523L376.314 227.488L373.259 225.452C372.976 225.267 372.902 224.884 373.087 224.613C373.271 224.329 373.653 224.255 373.924 224.44L377.657 226.92C378.064 227.191 378.064 227.771 377.657 228.043L373.924 230.523C373.641 230.708 373.271 230.634 373.087 230.362Z" fill="#040404"/>
<path d="M368.023 231.979C367.703 231.88 367.53 231.535 367.629 231.214L370.179 223.144C370.278 222.823 370.623 222.651 370.943 222.749C371.263 222.848 371.436 223.194 371.337 223.514L368.787 231.584C368.688 231.892 368.343 232.077 368.023 231.979Z" fill="#040404"/>
<path d="M388.942 238.198H361.506C361.148 238.198 360.865 237.914 360.865 237.556C360.865 237.198 361.148 236.915 361.506 236.915H388.942C389.3 236.915 389.583 237.198 389.583 237.556C389.583 237.914 389.3 238.198 388.942 238.198Z" fill="#040404"/>
<path d="M420.457 238.198H393.02C392.663 238.198 392.38 237.914 392.38 237.556C392.38 237.198 392.663 236.915 393.02 236.915H420.457C420.814 236.915 421.098 237.198 421.098 237.556C421.098 237.914 420.814 238.198 420.457 238.198Z" fill="#040404"/>
<path d="M377.189 243.849H361.518C361.161 243.849 360.877 243.565 360.877 243.207C360.877 242.849 361.161 242.565 361.518 242.565H377.189C377.546 242.565 377.83 242.849 377.83 243.207C377.83 243.565 377.534 243.849 377.189 243.849Z" fill="#040404"/>
<path d="M406.954 243.849H381.279C380.922 243.849 380.639 243.565 380.639 243.207C380.639 242.849 380.922 242.565 381.279 242.565H406.954C407.312 242.565 407.595 242.849 407.595 243.207C407.583 243.565 407.299 243.849 406.954 243.849Z" fill="#040404"/>
<path d="M403.295 249.5H361.506C361.148 249.5 360.865 249.216 360.865 248.858C360.865 248.501 361.148 248.217 361.506 248.217H403.295C403.652 248.217 403.936 248.501 403.936 248.858C403.936 249.216 403.652 249.5 403.295 249.5Z" fill="#040404"/>
<path d="M416.108 249.5H407.385C407.028 249.5 406.745 249.216 406.745 248.858C406.745 248.501 407.028 248.217 407.385 248.217H416.108C416.465 248.217 416.749 248.501 416.749 248.858C416.749 249.216 416.465 249.5 416.108 249.5Z" fill="#040404"/>
<path d="M381.021 255.164H361.506C361.148 255.164 360.865 254.88 360.865 254.522C360.865 254.164 361.148 253.88 361.506 253.88H381.021C381.378 253.88 381.661 254.164 381.661 254.522C381.661 254.88 381.378 255.164 381.021 255.164Z" fill="#040404"/>
<path d="M409.394 255.164H385.099C384.741 255.164 384.458 254.88 384.458 254.522C384.458 254.164 384.741 253.88 385.099 253.88H409.394C409.751 253.88 410.034 254.164 410.034 254.522C410.034 254.88 409.751 255.164 409.394 255.164Z" fill="#040404"/>
<path d="M388.942 260.814H361.506C361.148 260.814 360.865 260.531 360.865 260.173C360.865 259.815 361.148 259.531 361.506 259.531H388.942C389.3 259.531 389.583 259.815 389.583 260.173C389.583 260.531 389.3 260.814 388.942 260.814Z" fill="#040404"/>
<path d="M412.387 260.814H393.033C392.675 260.814 392.392 260.531 392.392 260.173C392.392 259.815 392.675 259.531 393.033 259.531H412.387C412.745 259.531 413.028 259.815 413.028 260.173C413.016 260.531 412.732 260.814 412.387 260.814Z" fill="#040404"/>
<path d="M174.291 150.371C174.784 156.183 173.54 166.707 169.154 170.076C176.299 172.655 183.851 177.097 188.693 182.957C193.486 175.974 188.028 171.988 188.028 171.988C181.856 169.792 182.533 165.116 184.11 160.81L174.291 150.371Z" fill="#B97964"/>
<path d="M197.613 145.362C197.539 146.09 197.884 146.719 198.364 146.768C198.845 146.818 199.288 146.25 199.35 145.522C199.424 144.794 199.079 144.152 198.598 144.115C198.13 144.066 197.699 144.621 197.613 145.362Z" fill="#263238"/>
<path d="M198.414 144.128L200.212 143.782C200.2 143.782 199.177 145.115 198.414 144.128Z" fill="#263238"/>
<path d="M197.859 146.139C198.364 147.867 199.091 149.52 200.04 151.062C199.239 151.531 198.266 151.63 197.391 151.309L197.859 146.139Z" fill="#A24E3F"/>
<path d="M199.683 141.512C199.793 141.5 199.904 141.45 199.978 141.364C200.126 141.179 200.114 140.907 199.929 140.747C198.906 139.809 197.49 139.427 196.122 139.735C195.913 139.859 195.851 140.13 195.974 140.327C196.048 140.463 196.196 140.537 196.344 140.537C197.428 140.327 198.537 140.636 199.35 141.389C199.448 141.475 199.559 141.524 199.683 141.512Z" fill="#263238"/>
<path d="M173.675 140.723C173.392 149.754 173.084 153.592 177.1 158.614C183.149 166.177 194.102 164.524 197.021 155.739C199.658 147.83 199.683 134.368 191.404 129.988C183.112 125.62 173.971 131.678 173.675 140.723Z" fill="#B97964"/>
<path d="M174.106 157.762C165.248 156.244 167.786 150.655 167.786 150.655C159.064 148.891 165.803 144.621 165.803 144.621C158.546 141.487 165.803 138.687 165.803 138.687C158.805 132.875 168.833 130.901 168.833 130.901C166.357 121.832 174.956 125.558 174.956 125.558C179.65 117.773 183.679 125.213 183.679 125.213C191.884 114.046 193.892 123.473 193.892 123.473C202.27 121.264 199.054 130.099 199.054 130.099C205.953 131.95 200.545 135.454 200.545 135.454C203.206 138.822 193.584 139.402 193.584 139.402C193.584 139.402 198.167 146.756 193.547 148.841L181.892 157.787C181.88 157.762 176.521 155.529 174.106 157.762Z" fill="#263238"/>
<path d="M182.816 150.482C182.816 150.482 188.915 135.713 184.159 123.041L188.225 121.647C188.225 121.635 193.535 140.019 182.816 150.482Z" fill="#D83B01"/>
<path d="M188.964 148.853C189.987 150.976 190.369 151.889 191.822 152.604C193.104 153.32 194.718 152.863 195.432 151.593C195.765 151.013 195.851 150.322 195.703 149.668C195.321 147.545 193.683 144.424 191.44 144.35C189.174 144.288 187.905 146.756 188.964 148.853Z" fill="#B97964"/>
<path d="M182.595 179.676C182.595 179.676 190.935 185.808 194.323 188.276L218.458 176.875C218.397 174.136 220.011 171.631 222.536 170.558L224.249 169.83L227.883 168.213C229.263 167.596 230.864 167.769 232.084 168.657C233.526 169.706 234.154 171.557 233.649 173.272C232.614 176.801 229.805 179.528 226.257 180.453L222.746 181.379C222.746 181.379 202.048 197.11 194.681 197.517C187.313 197.925 176.459 190.62 176.459 190.62L182.595 179.676Z" fill="#B97964"/>
<path d="M162.538 169.275C168.907 169.25 176.028 173.248 187.239 180.527C187.239 180.527 185.12 188.51 178.603 194.199C178.603 194.199 172.455 192.545 164.275 184.821C154.357 175.493 158.632 169.287 162.538 169.275Z" fill="#263238"/>
<path d="M283.52 187.757H223.164C220.971 187.757 219.358 185.98 219.542 183.784L224.088 131.727C224.286 129.531 226.207 127.754 228.4 127.754H288.756C290.949 127.754 292.563 129.531 292.378 131.727L287.832 183.784C287.647 185.98 285.713 187.757 283.52 187.757Z" fill="#D83B01"/>
<path opacity="0.4" d="M283.52 187.757H223.164C220.971 187.757 219.358 185.98 219.542 183.784L224.088 131.727C224.286 129.531 226.207 127.754 228.4 127.754H288.756C290.949 127.754 292.563 129.531 292.378 131.727L287.832 183.784C287.647 185.98 285.713 187.757 283.52 187.757Z" fill="#040404"/>
<path opacity="0.7" d="M283.742 185.29C284.567 185.29 285.307 184.611 285.38 183.784L289.927 131.727C290 130.901 289.384 130.222 288.559 130.222H228.203C227.378 130.222 226.639 130.901 226.565 131.727L222.019 183.784C221.945 184.611 222.561 185.29 223.386 185.29H283.742Z" fill="#040404"/>
<path d="M241.792 154.677L222.056 183.266L222.006 183.784C221.932 184.611 222.548 185.289 223.374 185.289H257.574L241.792 154.677Z" fill="#D83B01"/>
<path opacity="0.3" d="M241.792 154.677L222.056 183.266L222.006 183.784C221.932 184.611 222.548 185.289 223.374 185.289H257.574L241.792 154.677Z" fill="#040404"/>
<path d="M285.541 181.785L269.019 150.359L244.552 185.29H283.742C284.567 185.29 285.307 184.611 285.38 183.784L285.541 181.785Z" fill="#D83B01"/>
<path d="M262.638 144.806C262.367 147.879 259.669 150.359 256.601 150.359C253.533 150.359 251.266 147.866 251.537 144.806C251.808 141.734 254.507 139.254 257.574 139.254C260.642 139.254 262.909 141.746 262.638 144.806Z" fill="#D83B01"/>
<path opacity="0.4" d="M262.638 144.806C262.367 147.879 259.669 150.359 256.601 150.359C253.533 150.359 251.266 147.866 251.537 144.806C251.808 141.734 254.507 139.254 257.574 139.254C260.642 139.254 262.909 141.746 262.638 144.806Z" fill="#040404"/>
<path d="M111.989 397.823L105.853 416.035L115.254 419.872L122.609 403.067L111.989 397.823Z" fill="#B97964"/>
<path d="M118.629 419.415C118.531 419.366 118.481 419.255 118.481 419.144C118.494 419.033 118.58 418.934 118.691 418.909C118.888 418.86 123.323 417.873 124.974 418.934C125.282 419.131 125.504 419.427 125.59 419.785C125.726 420.192 125.602 420.637 125.27 420.908C124.641 421.352 123.175 421.167 121.832 420.748C120.736 420.402 119.664 419.958 118.629 419.415ZM119.566 419.329C121.5 420.205 124.235 421.031 124.949 420.476C125.048 420.414 125.159 420.279 125.073 419.896C125.023 419.674 124.888 419.489 124.678 419.378C124.531 419.279 124.37 419.205 124.21 419.168C122.67 418.934 121.093 418.983 119.566 419.329Z" fill="#D83B01"/>
<path d="M118.494 419.366C118.432 419.292 118.42 419.193 118.444 419.095C118.506 418.959 119.689 416.133 121.414 415.418C121.919 415.208 122.473 415.208 122.978 415.418C123.668 415.701 123.767 416.133 123.705 416.429C123.557 417.725 120.231 419.267 118.765 419.44C118.728 419.452 118.691 419.44 118.654 419.415C118.605 419.428 118.543 419.403 118.494 419.366ZM122.67 415.862C122.35 415.763 121.993 415.775 121.685 415.911C120.588 416.59 119.726 417.602 119.221 418.786C120.81 418.404 123.077 417.096 123.237 416.343C123.237 416.269 123.262 416.072 122.818 415.899L122.67 415.862Z" fill="#D83B01"/>
<path d="M117.989 417.564L106.186 413.912C105.743 413.776 105.262 413.962 105.028 414.369L99.9275 423.327C99.4717 424.116 99.7427 425.128 100.531 425.585C100.63 425.646 100.741 425.696 100.852 425.733C105.127 426.979 108.983 427.917 114.28 429.558C120.539 431.495 118.716 431.754 126.034 434.135C130.444 435.567 132.81 430.767 131.011 429.94C122.744 426.202 122.658 423.327 120.292 419.218C119.75 418.404 118.937 417.811 117.989 417.564Z" fill="#263238"/>
<path opacity="0.2" d="M109.044 406.559L118.9 411.543L122.609 403.067L111.989 397.823L109.044 406.559Z" fill="#263238"/>
<path d="M153.655 229.375C153.655 229.375 140.411 239.506 143.245 271.241C143.503 274.177 144.452 277.249 144.464 280.606C144.477 282.839 143.848 284.406 143.121 289.415C142.062 296.732 140.115 323.964 138.058 327.505C136.025 331.009 135.163 330.429 129.385 340.189C123.163 350.701 115.217 369.135 109.032 400.389C109.032 400.389 114.416 404.597 122.867 406.188C122.867 406.188 156.71 352.737 163.905 332.835C170.349 315.03 178.012 258.211 178.012 258.211L178.628 233.571L153.655 229.375Z" fill="#D83B01"/>
<path opacity="0.1" d="M168.143 271.241H158.546C158.546 271.241 155.392 301.446 165.815 326.641C166.899 322.594 168.008 317.745 169.08 312.501L173.219 285.899C172.628 281.408 172.172 277.978 172.098 277.756C171.901 277.052 168.143 271.241 168.143 271.241Z" fill="black"/>
<path d="M166.566 405.152L166.628 424.511L177.531 423.771L179.207 405.152H166.566Z" fill="#B97964"/>
<path d="M178.788 423.45C178.677 423.425 178.591 423.351 178.566 423.24C178.541 423.129 178.591 423.018 178.689 422.957C178.862 422.846 182.73 420.452 184.628 420.908C184.985 420.982 185.293 421.205 185.49 421.501C185.761 421.834 185.786 422.303 185.552 422.673C185.108 423.29 183.667 423.611 182.262 423.66C181.104 423.685 179.934 423.623 178.788 423.45ZM179.65 423.055C181.769 423.24 184.615 423.117 185.12 422.364C185.194 422.266 185.256 422.105 185.046 421.784C184.936 421.587 184.726 421.464 184.504 421.427C184.332 421.39 184.159 421.365 183.987 421.377C182.447 421.661 180.969 422.229 179.65 423.055Z" fill="#D83B01"/>
<path d="M178.652 423.438C178.566 423.388 178.517 423.302 178.529 423.203C178.541 423.055 178.726 419.995 180.131 418.761C180.537 418.391 181.067 418.206 181.609 418.255C182.348 418.305 182.595 418.663 182.632 418.971C182.915 420.242 180.291 422.796 178.96 423.438C178.923 423.45 178.886 423.462 178.849 423.45C178.776 423.462 178.702 423.462 178.652 423.438ZM181.437 418.761C181.092 418.774 180.771 418.897 180.525 419.131C179.712 420.143 179.231 421.365 179.145 422.66C180.513 421.784 182.237 419.798 182.139 419.033C182.114 418.959 182.077 418.774 181.597 418.749L181.437 418.761Z" fill="#D83B01"/>
<path d="M177.58 421.908L165.236 422.352C164.768 422.364 164.373 422.71 164.287 423.166L162.415 433.308C162.242 434.209 162.833 435.073 163.72 435.246C163.831 435.27 163.955 435.283 164.065 435.27C168.513 435.036 172.468 434.653 178.012 434.456C184.554 434.222 182.915 435.073 190.615 434.9C195.247 434.801 195.913 429.496 193.941 429.298C184.911 428.484 183.876 425.807 180.291 422.697C179.515 422.117 178.554 421.834 177.58 421.908Z" fill="#263238"/>
<path opacity="0.2" d="M166.603 415.159L178.332 414.912L179.207 405.152H166.566L166.603 415.159Z" fill="#263238"/>
<path d="M161.035 225.822C161.035 225.822 147.815 243.355 157.61 277.682L168.661 327.752C168.661 327.752 158.14 350.529 163.696 410.618C163.696 410.618 172.049 411.963 180.02 410.248C180.02 410.248 192.328 346.79 194.2 325.346C196.258 301.742 195.026 230.548 195.026 230.548L161.035 225.822Z" fill="#D83B01"/>
<path d="M169.018 169.027C169.018 169.027 166.973 160.267 180.094 164.092C193.227 167.929 192.13 175.419 192.13 175.419L169.018 169.027Z" fill="#263238"/>
<path opacity="0.4" d="M169.018 169.027C169.018 169.027 166.973 160.267 180.094 164.092C193.227 167.929 192.13 175.419 192.13 175.419L169.018 169.027Z" fill="black"/>
<path d="M201.592 190.941C201.592 194.013 200.299 198.455 199.14 203.428C198.574 205.784 198.056 208.24 197.711 210.732C195.851 224.317 195.247 238.605 195.247 238.605C195.247 238.605 173.786 244.639 152.94 230.203C152.94 230.203 158.103 225.822 157.043 195.482C156.563 181.81 151.635 165.56 174.192 168.114C193.239 170.274 199.646 176.196 201.186 185.463C201.198 185.574 201.223 185.697 201.247 185.82C201.284 186.104 201.321 186.388 201.358 186.684C201.518 188.029 201.592 189.46 201.592 190.941Z" fill="#263238"/>
<path opacity="0.4" d="M201.592 190.941C201.592 194.013 200.299 198.455 199.14 203.427C193.991 197.221 188.829 185.598 188.829 185.598L193.079 179.33L200.57 182.822C200.828 183.673 201.025 184.549 201.186 185.462C201.198 185.573 201.223 185.697 201.247 185.82C201.284 186.104 201.321 186.388 201.358 186.684C201.518 188.029 201.592 189.46 201.592 190.941Z" fill="black"/>
<path d="M209.378 185.573C209.378 185.573 216.709 192.878 219.69 195.827L245.242 188.152C245.587 185.425 247.558 183.192 250.207 182.513L252.018 182.057L255.862 180.996C257.316 180.588 258.88 180.996 259.952 182.057C261.221 183.315 261.566 185.228 260.814 186.856C259.262 190.188 256.084 192.471 252.437 192.865L248.815 193.26C248.815 193.26 225.998 205.735 218.655 205.044C211.313 204.353 201.666 195.506 201.666 195.506L209.378 185.573Z" fill="#B97964"/>
<path d="M191.083 172.297C197.391 173.222 203.834 178.244 213.838 187.103C213.838 187.103 210.561 194.679 203.268 199.343C203.268 199.343 197.428 196.789 190.492 187.942C182.077 177.22 187.215 171.729 191.083 172.297Z" fill="#263238"/>
</g>
<defs>
<clipPath id="clip0_5699_1314">
<rect width="616" height="455" fill="white"/>
</clipPath>
</defs>
</svg>
