<svg xmlns="http://www.w3.org/2000/svg" width="126.367" height="126.434" viewBox="0 0 126.367 126.434">
  <g id="circle" transform="translate(-21.291 -20.787)">
    <path id="Path_71891" data-name="Path 71891" d="M79.294,24.064a2.946,2.946,0,0,0-3.3-2.708A63.106,63.106,0,0,0,24.57,63.645a62.6,62.6,0,0,0,15.389,64.57,2.953,2.953,0,0,0,4.267-.17,3.2,3.2,0,0,0-.169-4.4A56.706,56.706,0,0,1,76.518,27.456,3.189,3.189,0,0,0,79.294,24.064Z" fill="#d83b01"/>
    <path id="Path_71892" data-name="Path 71892" d="M93.613,24.534a2.946,2.946,0,0,1,3.472-2.483,63.121,63.121,0,0,1,45.177,36.163,62.533,62.533,0,0,1-3.5,57.559,2.957,2.957,0,0,1-4.181.9,3.2,3.2,0,0,1-.934-4.311A56.541,56.541,0,0,0,119.153,38.59,57.181,57.181,0,0,0,96.159,28.1,3.19,3.19,0,0,1,93.613,24.534Z" fill="#d83b01"/>
    <path id="Path_71893" data-name="Path 71893" d="M124.359,128.866a2.947,2.947,0,0,1-.294,4.269,63.356,63.356,0,0,1-69.822,6.532,2.955,2.955,0,0,1-1.069-4.162,3.2,3.2,0,0,1,4.248-1.1,57.191,57.191,0,0,0,62.571-5.847A3.189,3.189,0,0,1,124.359,128.866Z" fill="#d83b01"/>
    <circle id="Ellipse_256" data-name="Ellipse 256" cx="2.777" cy="2.777" r="2.777" transform="translate(83.781 20.787)" fill="#d83b01"/>
    <circle id="Ellipse_257" data-name="Ellipse 257" cx="2.777" cy="2.777" r="2.777" transform="translate(127.524 120.77)" fill="#d83b01"/>
    <circle id="Ellipse_258" data-name="Ellipse 258" cx="2.777" cy="2.777" r="2.777" transform="translate(44.898 129.101)" fill="#d83b01"/>
  </g>
</svg>
