<svg width="23" height="25" viewBox="0 0 23 25" fill="none" xmlns="http://www.w3.org/2000/svg">
<path d="M17.5 0.894287H7.5C6.52823 0.895565 5.5779 1.17999 4.76521 1.71279C3.95252 2.24558 3.31271 3.00365 2.924 3.89429H1.5C1.23478 3.89429 0.98043 3.99964 0.792893 4.18718C0.605357 4.37472 0.5 4.62907 0.5 4.89429C0.5 5.1595 0.605357 5.41386 0.792893 5.60139C0.98043 5.78893 1.23478 5.89429 1.5 5.89429H2.5V7.89429H1.5C1.23478 7.89429 0.98043 7.99964 0.792893 8.18718C0.605357 8.37472 0.5 8.62907 0.5 8.89429C0.5 9.1595 0.605357 9.41386 0.792893 9.60139C0.98043 9.78893 1.23478 9.89429 1.5 9.89429H2.5V11.8943H1.5C1.23478 11.8943 0.98043 11.9996 0.792893 12.1872C0.605357 12.3747 0.5 12.6291 0.5 12.8943C0.5 13.1595 0.605357 13.4139 0.792893 13.6014C0.98043 13.7889 1.23478 13.8943 1.5 13.8943H2.5V15.8943H1.5C1.23478 15.8943 0.98043 15.9996 0.792893 16.1872C0.605357 16.3747 0.5 16.6291 0.5 16.8943C0.5 17.1595 0.605357 17.4139 0.792893 17.6014C0.98043 17.7889 1.23478 17.8943 1.5 17.8943H2.5V19.8943H1.5C1.23478 19.8943 0.98043 19.9996 0.792893 20.1872C0.605357 20.3747 0.5 20.6291 0.5 20.8943C0.5 21.1595 0.605357 21.4139 0.792893 21.6014C0.98043 21.7889 1.23478 21.8943 1.5 21.8943H2.924C3.31271 22.7849 3.95252 23.543 4.76521 24.0758C5.5779 24.6086 6.52823 24.893 7.5 24.8943H17.5C18.8256 24.8927 20.0964 24.3654 21.0338 23.4281C21.9711 22.4907 22.4984 21.2199 22.5 19.8943V5.89429C22.4984 4.56869 21.9711 3.29784 21.0338 2.36051C20.0964 1.42317 18.8256 0.895875 17.5 0.894287V0.894287ZM20.5 19.8943C20.5 20.6899 20.1839 21.453 19.6213 22.0156C19.0587 22.5782 18.2956 22.8943 17.5 22.8943H7.5C6.70435 22.8943 5.94129 22.5782 5.37868 22.0156C4.81607 21.453 4.5 20.6899 4.5 19.8943V5.89429C4.5 5.09864 4.81607 4.33558 5.37868 3.77297C5.94129 3.21036 6.70435 2.89429 7.5 2.89429H17.5C18.2956 2.89429 19.0587 3.21036 19.6213 3.77297C20.1839 4.33558 20.5 5.09864 20.5 5.89429V19.8943ZM12.5 12.8943C13.2956 12.8943 14.0587 12.5782 14.6213 12.0156C15.1839 11.453 15.5 10.6899 15.5 9.89429C15.5 9.09864 15.1839 8.33558 14.6213 7.77297C14.0587 7.21036 13.2956 6.89429 12.5 6.89429C11.7044 6.89429 10.9413 7.21036 10.3787 7.77297C9.81607 8.33558 9.5 9.09864 9.5 9.89429C9.5 10.6899 9.81607 11.453 10.3787 12.0156C10.9413 12.5782 11.7044 12.8943 12.5 12.8943V12.8943ZM17.5 18.8943C17.5 19.1595 17.3946 19.4139 17.2071 19.6014C17.0196 19.7889 16.7652 19.8943 16.5 19.8943C16.2348 19.8943 15.9804 19.7889 15.7929 19.6014C15.6054 19.4139 15.5 19.1595 15.5 18.8943C15.5 18.0986 15.1839 17.3356 14.6213 16.773C14.0587 16.2104 13.2956 15.8943 12.5 15.8943C11.7044 15.8943 10.9413 16.2104 10.3787 16.773C9.81607 17.3356 9.5 18.0986 9.5 18.8943C9.5 19.1595 9.39464 19.4139 9.20711 19.6014C9.01957 19.7889 8.76522 19.8943 8.5 19.8943C8.23478 19.8943 7.98043 19.7889 7.79289 19.6014C7.60536 19.4139 7.5 19.1595 7.5 18.8943C7.711 12.2863 17.291 12.2883 17.5 18.8943Z" fill="white"/>
</svg>
