<svg width="21" height="22" viewBox="0 0 21 22" fill="none" xmlns="http://www.w3.org/2000/svg">
<path d="M18.16 10C18.3296 11.1596 18.2548 12.3435 17.9408 13.4703C17.6268 14.597 17.0811 15.6398 16.3412 16.5269C15.6013 17.4139 14.6849 18.1241 13.6549 18.6086C12.6249 19.0931 11.5059 19.3404 10.375 19.3333C5.9875 19.3333 2.5 15.7167 2.5 11.1667C2.5 6.61667 5.9875 3.00001 10.375 3.00001C11.1625 3.00001 11.9163 3.11667 12.625 3.33834V0.935005C11.905 0.760005 11.1512 0.666672 10.375 0.666672C4.75 0.666672 0.25 5.33334 0.25 11.1667C0.25 17 4.75 21.6667 10.375 21.6667C11.8011 21.6728 13.2123 21.3651 14.5154 20.764C15.8184 20.1629 16.9836 19.2819 17.9341 18.1793C18.8847 17.0767 19.5988 15.7775 20.0295 14.3676C20.4602 12.9577 20.5975 11.469 20.4325 10H18.16Z" fill="white"/>
</svg>
