<svg width="24" height="24" viewBox="0 0 24 24" fill="none" xmlns="http://www.w3.org/2000/svg">
<path d="M11.9887 0.750046C5.77875 0.750046 0.75 5.79005 0.75 12C0.75 18.21 5.77875 23.25 11.9887 23.25C18.21 23.25 23.25 18.21 23.25 12C23.25 5.79005 18.21 0.750046 11.9887 0.750046ZM12 21C7.0275 21 3 16.9725 3 12C3 7.02755 7.0275 3.00005 12 3.00005C16.9725 3.00005 21 7.02755 21 12C21 16.9725 16.9725 21 12 21ZM12.5625 6.37505H10.875V13.125L16.7812 16.6688L17.625 15.285L12.5625 12.2813V6.37505Z" fill="white"/>
</svg>
