<svg width="467" height="432" viewBox="0 0 467 432" fill="none" xmlns="http://www.w3.org/2000/svg">
<path d="M312.343 1.05513L213.353 50.7546C206.011 53.8312 201.275 61.1678 201.275 69.2144V115.364C201.275 156.543 212.879 197.486 236.561 233.696C254.322 260.912 278.004 295.465 317.317 315.345H335.078C378.89 302.092 411.334 266.592 431.464 236.063C455.146 199.853 466.75 159.147 466.75 117.731V68.9777C466.75 60.9312 462.014 53.5946 454.672 50.5179L341.709 2.71178C336.736 0.581801 317.317 -1.07485 312.343 1.05513Z" fill="#FF725E"/>
<path d="M312.343 1.05513L213.353 50.7546C206.011 53.8312 201.275 61.1678 201.275 69.2144V115.364C201.275 156.543 212.879 197.486 236.561 233.696C254.322 260.912 278.004 295.465 317.317 315.345H335.078C378.89 302.092 411.334 266.592 431.464 236.063C455.146 199.853 466.75 159.147 466.75 117.731V68.9777C466.75 60.9312 462.014 53.5946 454.672 50.5179L341.709 2.71178C336.736 0.581801 317.317 -1.07485 312.343 1.05513Z" fill="#D83B01"/>
<path d="M308.513 3.17171L308.514 3.17136C313.362 1.09522 318.903 1.09522 323.751 3.17136L323.753 3.1722L436.716 50.9784L436.717 50.979C443.866 53.9749 448.488 61.1251 448.488 68.9777V117.494C448.488 158.815 436.912 199.425 413.284 235.552C393.207 266.001 360.904 301.333 317.343 314.578C269.944 294.739 239.042 263.375 219.217 233.185C195.59 197.059 184.013 156.212 184.013 115.127V68.9777C184.013 61.1319 188.629 54.2142 195.784 51.2157L195.787 51.2145L308.513 3.17171Z" fill="url(#paint0_linear_4905_578)" stroke="white"/>
<path d="M360.655 167.193H348.577V101.874C348.577 86.4907 336.025 73.9475 320.632 73.9475C305.239 73.9475 292.687 86.4907 292.687 101.874V167.193H280.609V101.874C280.609 79.8641 298.608 62.1143 320.395 62.1143C342.419 62.1143 360.181 80.1007 360.181 101.874V167.193H360.655Z" fill="white"/>
<path d="M360.891 206.953H280.846C273.268 206.953 267.111 200.799 267.111 193.226V136.427C267.111 128.853 273.268 122.7 280.846 122.7H360.891C368.47 122.7 374.627 128.853 374.627 136.427V193.226C374.627 200.799 368.47 206.953 360.891 206.953Z" fill="white"/>
<path d="M360.891 206.953C360.891 206.953 362.076 206.953 364.444 206.243C366.575 205.533 370.127 203.876 372.496 200.089C373.68 198.196 374.39 195.829 374.39 192.989C374.39 190.15 374.39 187.31 374.39 183.996C374.39 177.606 374.39 170.27 374.39 161.986C374.39 153.94 374.39 144.947 374.153 135.48C373.917 130.983 370.838 126.25 366.338 124.357C363.97 123.41 361.602 123.174 358.997 123.174C356.392 123.174 353.787 123.174 350.945 123.174C329.394 123.174 305.712 123.174 280.846 123.174C277.768 123.174 274.926 124.12 272.558 126.014C270.189 127.907 268.532 130.51 268.058 133.35C267.821 134.77 267.584 136.19 267.584 137.61C267.584 139.03 267.584 140.687 267.584 142.107C267.584 145.183 267.584 148.023 267.584 150.863C267.584 162.46 267.584 173.82 267.584 184.706C267.821 190.15 266.637 195.593 269.479 199.853C272.084 204.113 276.82 206.479 281.557 206.243C291.03 206.243 300.029 206.243 308.081 206.243C324.421 206.243 337.446 206.479 346.682 206.479C351.182 206.479 354.734 206.479 357.102 206.479C358.286 206.479 359.234 206.479 359.944 206.479C360.418 206.953 360.891 206.953 360.891 206.953C360.891 206.953 360.655 206.953 359.944 206.953C359.234 206.953 358.286 206.953 357.102 206.953C354.734 206.953 351.182 206.953 346.682 206.953C337.446 206.953 324.421 206.953 308.081 207.189C300.029 207.189 291.03 207.189 281.557 207.189C276.583 207.426 271.373 204.823 268.532 200.326C267.111 198.196 266.4 195.356 266.4 192.753C266.4 190.15 266.4 187.546 266.4 184.706C266.4 174.056 266.4 162.696 266.4 150.863C266.4 148.023 266.4 144.947 266.4 142.107C266.4 140.687 266.4 139.03 266.4 137.61C266.4 136.19 266.4 134.533 266.874 132.877C267.584 129.8 269.479 126.96 271.847 125.067C274.452 122.937 277.531 121.99 280.846 121.99C305.712 121.99 329.394 121.99 350.945 121.99C353.55 121.99 356.392 121.99 358.997 121.99C361.602 121.99 364.444 122.227 366.812 123.174C371.785 125.304 374.864 130.273 375.101 135.243C375.101 144.947 375.101 153.703 375.101 161.986C375.101 170.033 375.101 177.37 375.101 183.996C375.101 187.31 375.101 190.15 375.101 192.989C375.101 195.829 374.153 198.433 372.969 200.326C370.601 204.349 366.812 206.006 364.681 206.479C362.076 207.189 360.891 206.953 360.891 206.953Z" fill="#D83B01"/>
<path d="M329.158 167.194C331.289 165.064 332.473 162.224 332.473 158.91C332.473 152.284 327.263 147.077 320.632 147.077C314.001 147.077 308.791 152.284 308.791 158.91C308.791 164.354 312.343 168.85 317.317 170.27L314.712 181.393H326.079L323.711 170.27C325.842 169.56 327.737 168.614 329.158 167.194Z" fill="#FF725E"/>
<g clip-path="url(#clip0_4905_578)">
<path d="M112.073 158.651L26.057 201.796C19.6128 204.597 15.41 210.761 15.41 217.765V257.829C15.41 293.689 25.4966 329.27 45.9499 360.649C61.3599 384.182 82.0934 414.44 115.995 431.53H131.686C169.79 420.043 198.089 388.945 215.46 362.61C236.194 331.512 246 295.931 246 260.07V217.765C246 210.761 241.797 204.597 235.353 201.796L137.569 160.051C133.087 158.09 116.276 156.689 112.073 158.651Z" fill="#FF725E"/>
<path d="M112.073 158.651L26.057 201.796C19.6128 204.597 15.41 210.761 15.41 217.765V257.829C15.41 293.689 25.4966 329.27 45.9499 360.649C61.3599 384.182 82.0934 414.44 115.995 431.53H131.686C169.79 420.043 198.089 388.945 215.46 362.61C236.194 331.512 246 295.931 246 260.07V217.765C246 210.761 241.797 204.597 235.353 201.796L137.569 160.051C133.087 158.09 116.276 156.689 112.073 158.651Z" fill="#D83B01"/>
<path d="M108.627 160.512L108.631 160.51C112.986 158.605 117.604 158.605 121.959 160.51L121.963 160.512L219.744 202.255C219.744 202.255 219.745 202.255 219.746 202.256C226.014 204.982 230.09 210.97 230.09 217.766V260.07C230.09 295.837 220.03 331.32 199.354 362.333L199.353 362.335C182.033 388.592 153.876 419.522 116.022 431C75.0382 413.951 48.2619 386.608 30.9574 360.374C10.5592 329.079 0.5 293.595 0.5 257.829V217.766C0.5 210.97 4.57605 204.982 10.8445 202.256C10.8451 202.255 10.8457 202.255 10.8463 202.255L108.627 160.512Z" fill="url(#paint1_linear_4905_578)" stroke="white"/>
<path opacity="0.3" d="M138.584 342.257C171.621 329.444 188.015 292.278 175.201 259.243C162.388 226.209 125.219 209.816 92.1825 222.629C59.146 235.441 42.752 272.608 55.5654 305.642C68.3789 338.676 105.548 355.069 138.584 342.257Z" fill="url(#paint2_radial_4905_578)"/>
<path d="M115.435 286.125C130.135 286.125 142.052 274.208 142.052 259.509C142.052 244.81 130.135 232.894 115.435 232.894C100.735 232.894 88.8178 244.81 88.8178 259.509C88.8178 274.208 100.735 286.125 115.435 286.125Z" fill="white"/>
<path d="M66.6834 324.507C66.6834 324.507 79.0114 294.81 114.314 294.81C149.617 294.81 163.907 324.507 163.907 324.507C163.907 324.507 148.216 347.76 113.474 346.92C81.8132 346.08 66.6834 324.507 66.6834 324.507Z" fill="white"/>
<path d="M179.597 282.483C179.597 282.483 179.597 282.203 179.597 281.362C179.597 280.522 179.597 279.681 179.317 278.28C179.317 277.72 179.317 276.879 179.036 276.039C179.036 275.198 178.756 274.358 178.476 273.237C178.196 271.276 177.916 269.035 177.075 266.513C175.954 261.47 173.713 255.867 170.071 249.423C166.428 243.26 161.105 236.816 153.82 231.493C146.535 226.17 137.569 221.407 126.923 219.726C116.556 218.045 104.788 218.325 93.5809 222.528C90.779 223.368 87.9772 224.769 85.1754 226.17C82.6538 227.851 79.8519 229.252 77.3303 231.213C74.8087 232.894 72.5672 235.135 70.0456 237.376C67.8041 239.618 65.5626 242.139 63.8815 244.661C60.2392 249.984 56.877 255.867 54.9157 262.031C52.9544 268.475 51.8337 275.198 51.5535 281.922C51.5535 288.926 52.6743 295.65 54.9157 301.814C56.877 308.258 60.2392 314.141 63.8815 319.184C65.8428 321.986 68.0843 324.227 70.0456 326.468C72.287 328.71 74.5285 330.951 77.3303 332.632C79.8519 334.593 82.3736 335.994 85.1754 337.675C87.9772 339.076 90.4989 340.477 93.5809 341.317C104.788 345.52 116.556 345.8 126.923 344.119C137.289 342.158 146.535 337.675 153.82 332.352C161.105 327.029 166.428 320.585 170.071 314.421C173.713 308.258 175.954 302.374 177.075 297.331C177.916 294.81 178.196 292.569 178.476 290.607C178.756 289.767 178.756 288.646 179.036 287.806C179.036 286.965 179.036 286.125 179.317 285.565C179.317 284.164 179.597 283.323 179.597 282.483C179.597 282.483 179.597 282.763 179.597 283.603C179.597 284.444 179.597 285.284 179.597 286.685C179.597 287.245 179.597 288.086 179.597 288.926C179.597 289.767 179.317 290.607 179.317 291.728C179.036 293.689 178.756 295.931 178.196 298.452C177.075 303.495 174.834 309.378 171.191 315.822C167.549 321.986 162.226 328.71 154.941 334.313C147.656 339.916 138.41 344.679 127.763 346.64C117.116 348.601 105.068 348.321 93.5809 343.839C90.779 342.998 87.9772 341.597 85.1754 340.196C82.3736 338.515 79.5718 337.115 77.3303 335.153C74.8087 333.472 72.287 330.951 70.0456 328.99C67.8041 326.468 65.5626 324.227 63.6014 321.425C59.6788 316.102 56.3166 310.219 54.3553 303.495C52.1139 297.051 50.9932 290.047 50.9932 283.043C50.9932 276.039 52.1139 269.035 54.3553 262.591C56.3166 256.147 59.6788 249.984 63.6014 244.661C65.5626 241.859 67.8041 239.618 70.0456 237.096C72.5672 234.855 74.8087 232.614 77.3303 230.933C79.8519 228.971 82.6538 227.571 85.1754 225.89C87.9772 224.489 90.779 223.088 93.5809 222.248C105.068 218.045 117.116 217.765 127.763 219.446C138.41 221.407 147.656 226.17 154.941 231.773C162.226 237.376 167.549 243.82 171.191 250.264C174.834 256.427 177.075 262.591 178.196 267.634C179.036 270.156 179.036 272.397 179.317 274.358C179.317 275.198 179.597 276.319 179.597 277.16C179.597 278 179.597 278.841 179.597 279.401C179.597 280.802 179.597 281.642 179.597 282.483Z" fill="white"/>
</g>
<defs>
<linearGradient id="paint0_linear_4905_578" x1="141.572" y1="310.131" x2="279.851" y2="61.5566" gradientUnits="userSpaceOnUse">
<stop stop-color="#662D91"/>
<stop offset="0.00115764" stop-color="#D83B01"/>
<stop offset="0.0828803" stop-color="#74256D"/>
<stop offset="0.0829803" stop-color="#7F1E4F"/>
<stop offset="0.1303" stop-color="#881937"/>
<stop offset="0.1834" stop-color="#8F1424"/>
<stop offset="0.2455" stop-color="#941117"/>
<stop offset="0.3252" stop-color="#97100F"/>
<stop offset="0.4832" stop-color="#980F0D"/>
<stop offset="1" stop-color="#D83B01"/>
</linearGradient>
<linearGradient id="paint1_linear_4905_578" x1="-36.4296" y1="427.204" x2="83.8242" y2="211.203" gradientUnits="userSpaceOnUse">
<stop stop-color="#662D91"/>
<stop offset="0.00115764" stop-color="#D83B01"/>
<stop offset="0.0828803" stop-color="#74256D"/>
<stop offset="0.0829803" stop-color="#7F1E4F"/>
<stop offset="0.1303" stop-color="#881937"/>
<stop offset="0.1834" stop-color="#8F1424"/>
<stop offset="0.2455" stop-color="#941117"/>
<stop offset="0.3252" stop-color="#97100F"/>
<stop offset="0.4832" stop-color="#980F0D"/>
<stop offset="1" stop-color="#D83B01"/>
</linearGradient>
<radialGradient id="paint2_radial_4905_578" cx="0" cy="0" r="1" gradientUnits="userSpaceOnUse" gradientTransform="translate(115.383 282.443) rotate(68.7995) scale(64.156 64.1592)">
<stop stop-color="#494948" stop-opacity="0.44"/>
<stop offset="1" stop-color="#494948" stop-opacity="0.13"/>
</radialGradient>
<clipPath id="clip0_4905_578">
<rect width="246" height="274" fill="white" transform="translate(0 157.811)"/>
</clipPath>
</defs>
</svg>
