<svg width="72" height="73" viewBox="0 0 72 73" fill="none" xmlns="http://www.w3.org/2000/svg">
<g clip-path="url(#clip0_706_598)">
<path d="M37.8744 9.73193C45.9423 9.73193 54.0102 9.73193 62.0985 9.73193C65.1545 9.73193 67.5586 11.6824 68.2309 14.669C68.3328 15.1566 68.3328 15.6646 68.3328 16.1522C68.3328 28.9318 68.3328 41.7113 68.3531 54.4909C68.3531 55.9131 68.0068 57.1931 67.1715 58.3715C66.9474 58.6966 66.7436 58.8794 66.4177 58.4731C66.3362 58.3715 66.2139 58.2902 66.0917 58.1887C65.7453 57.8839 65.2971 57.6604 65.1138 57.2744C64.8896 56.8477 65.5009 56.543 65.6027 56.1163C65.725 55.6287 65.8676 55.1614 65.8676 54.6535C65.8676 41.752 65.8676 28.8708 65.8676 15.9693C65.8676 13.8767 64.4414 12.3935 62.3633 12.231C62.1596 12.2106 61.9355 12.2106 61.7114 12.2106C45.7793 12.2106 29.8472 12.2106 13.9151 12.2106C11.7759 12.2106 10.4109 13.1452 9.90152 14.9332C9.79966 15.3395 9.79966 15.7255 9.79966 16.1319C9.79966 28.9115 9.82003 41.691 9.77928 54.4706C9.77928 56.543 11.2869 58.4325 13.7725 58.4121C18.7029 58.3512 23.6333 58.4121 28.5637 58.3715C29.1545 58.3715 29.3582 58.5137 29.2971 59.1029C29.236 59.6718 29.4601 60.4032 29.1749 60.7486C28.8693 61.1143 28.0951 60.8705 27.545 60.8705C22.8795 60.8705 18.2139 60.8909 13.5484 60.8705C10.5942 60.8502 8.2309 59.0014 7.51782 56.1772C7.37521 55.6084 7.31409 55.0192 7.31409 54.4096C7.31409 41.6504 7.31409 28.9114 7.31409 16.1522C7.31409 12.3529 9.96264 9.73193 13.7929 9.73193C21.82 9.73193 29.8472 9.73193 37.8744 9.73193Z" fill="url(#paint0_linear_706_598)"/>
<path d="M30.5399 0.0406586C38.5467 0.0406586 46.5535 0.121928 54.5399 2.404e-05C57.7182 -0.0406105 61.3243 2.33651 61.0187 6.92822C60.9983 7.21266 60.9576 7.35488 60.6316 7.35488C60.0408 7.33456 59.3684 7.51742 58.8591 7.31425C58.2071 7.05012 58.635 6.29838 58.5535 5.77013C58.2071 3.75872 56.781 2.49905 54.7029 2.49905C50.7708 2.47873 46.8387 2.49905 42.9066 2.49905C30.764 2.49905 18.6214 2.49905 6.47878 2.49905C4.54329 2.49905 3.17827 3.43365 2.64856 5.09966C2.50594 5.54664 2.48557 5.99362 2.48557 6.4406C2.48557 19.2202 2.48557 31.9997 2.48557 44.7793C2.48557 46.5266 3.19864 47.7863 4.8489 48.4771C5.17487 48.6193 5.21562 48.7818 5.13413 49.0663C4.99151 49.5742 4.82852 50.0618 4.74703 50.5697C4.68591 50.9964 4.50255 50.9558 4.17657 50.8542C1.81324 50.1025 0.0611205 47.766 0.040747 45.206C0.0203735 43.4587 0.040747 41.6911 0.040747 39.9438C0 28.688 0 17.4932 0 6.29838C0 3.12889 1.9966 0.711129 5.09338 0.10161C5.50085 0.0203413 5.94907 0.0203413 6.37691 0.0203413C14.4448 0.0406586 22.4924 0.0406586 30.5399 0.0406586Z" fill="url(#paint1_linear_706_598)"/>
<path d="M19.5382 40.1675C19.5382 37.9326 19.5586 35.6977 19.5179 33.4628C19.5179 32.9752 19.6197 32.772 20.1291 32.833C20.7199 32.8939 21.4737 32.5892 21.8608 32.9549C22.2479 33.3206 21.9831 34.0723 21.9831 34.6615C22.0034 38.725 21.9831 42.7885 22.0034 46.8316C22.0034 47.3395 21.9016 47.563 21.3515 47.5021C20.7607 47.4208 19.9865 47.7459 19.6401 47.3802C19.3549 47.0551 19.5382 46.3034 19.5382 45.7345C19.5382 43.8653 19.5382 42.0164 19.5382 40.1675Z" fill="url(#paint2_linear_706_598)"/>
<path d="M26.8523 42.0162C26.8523 43.6619 26.832 45.2873 26.8523 46.933C26.8523 47.3393 26.7912 47.5425 26.3226 47.5019C25.7114 47.4409 24.9168 47.6847 24.5297 47.38C24.1427 47.0549 24.4075 46.2219 24.4075 45.6124C24.3871 42.7883 24.4075 39.9642 24.3871 37.1401C24.3871 36.6524 24.489 36.4696 24.9983 36.5102C25.5892 36.5712 26.3634 36.3274 26.7097 36.6321C27.0968 36.9369 26.8116 37.7496 26.832 38.3185C26.8727 39.5578 26.8523 40.7769 26.8523 42.0162Z" fill="url(#paint3_linear_706_598)"/>
<path d="M17.1341 43.804C17.1341 44.8605 17.1138 45.9373 17.1341 46.9938C17.1341 47.3595 17.0526 47.5221 16.6655 47.4814C16.0136 47.4205 15.1579 47.7455 14.7504 47.3392C14.4448 47.0141 14.6486 46.1811 14.6486 45.5513C14.6486 43.9462 14.6689 42.3411 14.6282 40.7158C14.6282 40.2688 14.7301 40.1062 15.219 40.1062C17.1138 40.0859 17.1138 40.0656 17.1138 41.9551C17.1341 42.585 17.1341 43.1945 17.1341 43.804Z" fill="url(#paint4_linear_706_598)"/>
<path d="M14.6893 15.9085C14.6893 17.1073 14.6893 17.1073 13.5076 17.1073C12.1834 17.1073 12.1833 17.1073 12.1833 15.7663C12.1833 14.6082 12.1834 14.6082 13.3243 14.6082C13.3446 14.6082 13.365 14.6082 13.3854 14.6082C14.6893 14.5879 14.6893 14.5879 14.6893 15.9085Z" fill="url(#paint5_linear_706_598)"/>
<path d="M11.0017 7.33437C9.75891 7.33437 9.75891 7.33437 9.75891 6.11533C9.75891 4.87598 9.75891 4.87598 11.0424 4.87598C12.2852 4.87598 12.2852 4.87598 12.2852 6.0747C12.2649 7.33437 12.2649 7.33437 11.0017 7.33437Z" fill="url(#paint6_linear_706_598)"/>
<path d="M19.5586 15.8477C19.5586 17.1074 19.5586 17.1074 18.2954 17.1074C17.0934 17.1074 17.0934 17.1074 17.0934 15.9289C17.0934 14.6083 17.0934 14.6083 18.438 14.6083C19.5586 14.588 19.5586 14.588 19.5586 15.8477Z" fill="url(#paint7_linear_706_598)"/>
<path d="M24.4279 15.8679C24.4279 17.0869 24.4279 17.0869 23.2054 17.0869C21.983 17.0869 21.983 17.0869 21.983 15.8679C21.983 14.5879 21.983 14.5879 23.2869 14.5879C24.4279 14.5879 24.4279 14.5879 24.4279 15.8679Z" fill="url(#paint8_linear_706_598)"/>
<path d="M15.8302 7.33437C14.6486 7.33437 14.6486 7.33437 14.6486 6.15597C14.6486 4.87598 14.6486 4.87598 15.9525 4.87598C17.1341 4.87598 17.1341 4.87598 17.1341 6.05438C17.1341 7.33437 17.1341 7.33437 15.8302 7.33437Z" fill="url(#paint9_linear_706_598)"/>
<path d="M71.2462 66.8844C67.6809 63.3289 64.1155 59.7531 60.5298 56.2179C60.2038 55.8928 60.0815 55.649 60.3464 55.202C60.7946 54.4503 61.1206 53.6376 61.3651 52.7842C61.4669 52.4592 61.5892 52.3373 61.9355 52.3373C62.4245 52.3373 63.0968 52.5811 63.3617 52.2357C63.6061 51.9106 63.4228 51.2808 63.4432 50.7931C63.4432 50.7728 63.4432 50.7525 63.4432 50.7119C63.545 50.082 63.3413 49.7773 62.669 49.9195C62.1596 50.0211 62.0578 49.8382 62.1189 49.31C62.4245 46.6484 62.1189 44.0681 61.1613 41.5691C61.0391 41.2643 61.0187 40.9799 61.0187 40.6751C61.0187 37.4853 61.0187 34.3158 61.0187 31.126C61.0187 30.5165 61.2836 29.6835 60.8965 29.3584C60.5297 29.0536 59.7148 29.2975 59.1036 29.2365C58.6554 29.1959 58.5535 29.3584 58.5535 29.7851C58.5739 31.9387 58.5739 34.1127 58.5535 36.2663C58.5535 36.4288 58.6758 36.632 58.4313 36.7945C57.7793 36.0428 57.1274 35.2707 56.3328 34.6612C56.0883 34.458 56.1494 34.1939 56.1291 33.9501C56.1291 31.3901 56.1291 28.8302 56.1291 26.2499C56.1291 25.6403 56.4143 24.8073 56.0068 24.4823C55.6401 24.1775 54.8252 24.4213 54.214 24.3604C53.7657 24.3197 53.6639 24.4823 53.6639 24.9292C53.6842 27.2251 53.6639 29.5413 53.6639 31.8371C53.6639 32.1012 53.6639 32.3857 53.6639 32.7108C53.0119 32.406 52.4822 32.0809 51.9118 31.8778C51.4228 31.6949 51.2394 31.4511 51.2394 30.9025C51.2598 27.6518 51.2598 24.401 51.2598 21.1502C51.2598 19.4842 51.2598 19.5248 49.6095 19.4639C48.9168 19.4436 48.7335 19.6264 48.7539 20.3172C48.7946 23.568 48.7539 26.8187 48.7742 30.0695C48.7742 30.6181 48.7539 30.9432 48.0815 30.6994C47.7352 30.5774 47.3277 30.5368 46.961 30.5571C46.472 30.5774 46.3905 30.354 46.3905 29.9273C46.4109 27.8752 46.3905 25.8435 46.3905 23.7915C46.3905 21.841 46.3905 21.8613 44.455 21.8816C43.9865 21.8816 43.8642 22.0239 43.8642 22.4912C43.8846 24.787 43.8846 27.1032 43.8846 29.399C43.8846 30.4149 43.8846 30.4149 42.9067 30.5571C42.5807 30.5978 42.2343 30.6384 41.9287 30.7197C41.6028 30.8213 41.5009 30.7197 41.5213 30.4149C41.5416 29.8257 41.5213 29.2365 41.5213 28.627C41.5213 26.7172 41.5213 26.7172 39.5654 26.7578C39.1172 26.7578 38.9949 26.8797 39.0153 27.3267C39.0357 28.566 39.0357 29.8054 39.0153 31.0244C39.0153 31.2479 39.1172 31.512 38.8116 31.6543C38.0985 31.9793 37.3651 32.3044 36.6112 32.6498C36.6112 30.8619 36.6112 29.1552 36.6112 27.4486C36.6112 26.8391 36.8761 26.0467 36.489 25.6607C36.1019 25.295 35.3073 25.5997 34.6961 25.5388C34.1868 25.4778 34.1257 25.7013 34.1257 26.1483C34.146 28.7286 34.146 31.3292 34.1257 33.9095C34.1257 34.133 34.2072 34.3768 33.9831 34.58C33.1885 35.2301 32.5162 36.0225 31.7216 36.8758C31.7216 34.3971 31.7216 32.0809 31.7216 29.7648C31.7216 29.1959 31.905 28.4441 31.6197 28.1191C31.2734 27.733 30.4992 28.0581 29.9287 27.9768C29.3786 27.8956 29.2564 28.0987 29.2768 28.627C29.2971 32.6092 29.2971 36.6117 29.2971 40.5939C29.2971 40.9189 29.2768 41.244 29.1545 41.5691C28.197 44.0478 27.871 46.6078 28.197 49.249C28.2785 49.8992 28.0544 49.8992 27.545 49.8992C23.0221 49.8789 18.4992 49.8789 13.9763 49.8992C13.4058 49.8992 12.6724 49.6554 12.326 50.0008C11.9593 50.3462 12.2649 51.0776 12.2038 51.6465C12.1426 52.2154 12.326 52.3576 12.8965 52.3576C17.9898 52.3373 23.0832 52.3576 28.1766 52.3373C28.6248 52.3373 28.8286 52.4388 28.9712 52.8858C32.5569 63.4711 44.9236 67.7987 54.3973 61.7645C54.8252 61.48 55.0289 61.5207 55.3752 61.8661C59.0832 65.6044 62.832 69.3022 66.5603 73.0203C66.8863 73.0203 67.2326 73.0203 67.5586 73.0203C68.781 71.8215 69.9831 70.6431 71.2055 69.4444C72.2649 68.3879 72.2649 67.9003 71.2462 66.8844ZM44.8829 62.0286C36.9372 61.9677 30.4992 55.3442 30.5399 47.2986C30.6011 39.2936 37.1613 32.8327 45.1885 32.8936C53.3583 32.9546 59.7963 39.4764 59.7352 47.6033C59.6741 55.7099 53.1138 62.0896 44.8829 62.0286ZM68.6995 68.4489C68.1494 68.9365 67.6401 69.4647 67.1104 69.9727C66.6011 69.485 66.0713 69.0178 65.5824 68.5098C62.8116 65.767 60.0815 63.0038 57.2904 60.261C56.9033 59.8953 56.9033 59.6921 57.2904 59.3467C57.6978 59.0013 58.0238 58.534 58.3905 58.148C58.472 58.0464 58.5331 57.9042 58.8591 57.8636C58.8795 57.9042 58.9406 58.0464 59.0425 58.148C62.2615 61.3581 65.4601 64.5683 68.6792 67.7581C68.9236 68.0222 69.0051 68.1847 68.6995 68.4489Z" fill="url(#paint10_linear_706_598)"/>
<path d="M45.2089 35.271C38.5264 35.2101 33.0255 40.6348 32.944 47.3801C32.8625 54.0645 38.3023 59.5502 45.0459 59.6111C51.8099 59.6721 57.2904 54.2677 57.3515 47.502C57.4126 40.838 51.9321 35.3117 45.2089 35.271ZM45.7182 57.1527C42.214 57.4372 38.343 55.3445 36.815 52.3375C42.3973 52.3375 47.9185 52.3375 53.562 52.3375C51.6876 55.3039 49.1002 56.8886 45.7182 57.1527ZM53.9491 49.9198C48.0612 49.8995 42.1936 49.8995 36.3056 49.9198C35.8778 49.9198 35.6741 49.7979 35.5926 49.3915C34.8388 46.0595 36.1834 42.2398 38.8931 40.0659C39.1172 40.1878 39.0153 40.391 39.0153 40.5738C39.0153 42.6868 39.0357 44.7998 39.0153 46.9128C39.0153 47.3598 39.0968 47.563 39.6062 47.5223C40.2174 47.4614 41.0119 47.7052 41.399 47.4004C41.8065 47.0754 41.5213 46.2423 41.5213 45.6328C41.5416 43.4386 41.5416 41.2646 41.5213 39.0703C41.5213 38.6031 41.6639 38.3999 42.0917 38.2577C43.905 37.6685 43.905 37.6685 43.905 39.5173C43.905 41.9554 43.9253 44.4138 43.8846 46.8519C43.8846 47.4004 44.0476 47.563 44.5569 47.502C45.1478 47.4411 45.9016 47.7458 46.2683 47.3801C46.6554 47.0144 46.3702 46.2627 46.3905 45.6735C46.4109 43.276 46.4109 40.8786 46.3905 38.4811C46.3905 37.9529 46.5535 37.8716 47.0221 37.9529C48.7539 38.2373 48.7742 38.2577 48.7742 39.9643C48.7742 42.2602 48.7946 44.5763 48.7539 46.8722C48.7539 47.3395 48.8354 47.563 49.3651 47.5223C49.8133 47.4817 50.2819 47.4817 50.7301 47.5223C51.1987 47.563 51.2802 47.3801 51.2802 46.9535C51.2598 44.6779 51.2802 42.4024 51.2802 39.944C53.1953 41.5694 54.2955 43.4589 54.7233 45.7547C54.9474 46.9331 54.9067 48.1115 54.7029 49.2899C54.6418 49.6963 54.4992 49.9198 53.9491 49.9198Z" fill="url(#paint11_linear_706_598)"/>
</g>
<defs>
<linearGradient id="paint0_linear_706_598" x1="-2.32913" y1="60.1383" x2="15.8012" y2="14.1989" gradientUnits="userSpaceOnUse">
<stop stop-color="#662D91"/>
<stop offset="0.00115764" stop-color="#662D90"/>
<stop offset="0.0404591" stop-color="#74256D"/>
<stop offset="0.0829803" stop-color="#7F1E4F"/>
<stop offset="0.1303" stop-color="#881937"/>
<stop offset="0.1834" stop-color="#8F1424"/>
<stop offset="0.2455" stop-color="#941117"/>
<stop offset="0.3252" stop-color="#97100F"/>
<stop offset="0.4832" stop-color="#980F0D"/>
<stop offset="1" stop-color="#D83B01"/>
</linearGradient>
<linearGradient id="paint1_linear_706_598" x1="-9.64286" y1="50.1142" x2="8.30659" y2="4.36988" gradientUnits="userSpaceOnUse">
<stop stop-color="#662D91"/>
<stop offset="0.00115764" stop-color="#662D90"/>
<stop offset="0.0404591" stop-color="#74256D"/>
<stop offset="0.0829803" stop-color="#7F1E4F"/>
<stop offset="0.1303" stop-color="#881937"/>
<stop offset="0.1834" stop-color="#8F1424"/>
<stop offset="0.2455" stop-color="#941117"/>
<stop offset="0.3252" stop-color="#97100F"/>
<stop offset="0.4832" stop-color="#980F0D"/>
<stop offset="1" stop-color="#D83B01"/>
</linearGradient>
<linearGradient id="paint2_linear_706_598" x1="19.0708" y1="47.3237" x2="24.0859" y2="45.4551" gradientUnits="userSpaceOnUse">
<stop stop-color="#662D91"/>
<stop offset="0.00115764" stop-color="#662D90"/>
<stop offset="0.0404591" stop-color="#74256D"/>
<stop offset="0.0829803" stop-color="#7F1E4F"/>
<stop offset="0.1303" stop-color="#881937"/>
<stop offset="0.1834" stop-color="#8F1424"/>
<stop offset="0.2455" stop-color="#941117"/>
<stop offset="0.3252" stop-color="#97100F"/>
<stop offset="0.4832" stop-color="#980F0D"/>
<stop offset="1" stop-color="#D83B01"/>
</linearGradient>
<linearGradient id="paint3_linear_706_598" x1="23.9091" y1="47.3617" x2="28.4893" y2="45.0771" gradientUnits="userSpaceOnUse">
<stop stop-color="#662D91"/>
<stop offset="0.00115764" stop-color="#662D90"/>
<stop offset="0.0404591" stop-color="#74256D"/>
<stop offset="0.0829803" stop-color="#7F1E4F"/>
<stop offset="0.1303" stop-color="#881937"/>
<stop offset="0.1834" stop-color="#8F1424"/>
<stop offset="0.2455" stop-color="#941117"/>
<stop offset="0.3252" stop-color="#97100F"/>
<stop offset="0.4832" stop-color="#980F0D"/>
<stop offset="1" stop-color="#D83B01"/>
</linearGradient>
<linearGradient id="paint4_linear_706_598" x1="14.1788" y1="47.4292" x2="17.8525" y2="44.7518" gradientUnits="userSpaceOnUse">
<stop stop-color="#662D91"/>
<stop offset="0.00115764" stop-color="#662D90"/>
<stop offset="0.0404591" stop-color="#74256D"/>
<stop offset="0.0829803" stop-color="#7F1E4F"/>
<stop offset="0.1303" stop-color="#881937"/>
<stop offset="0.1834" stop-color="#8F1424"/>
<stop offset="0.2455" stop-color="#941117"/>
<stop offset="0.3252" stop-color="#97100F"/>
<stop offset="0.4832" stop-color="#980F0D"/>
<stop offset="1" stop-color="#D83B01"/>
</linearGradient>
<linearGradient id="paint5_linear_706_598" x1="11.7875" y1="17.0676" x2="12.7862" y2="14.9418" gradientUnits="userSpaceOnUse">
<stop stop-color="#662D91"/>
<stop offset="0.00115764" stop-color="#662D90"/>
<stop offset="0.0404591" stop-color="#74256D"/>
<stop offset="0.0829803" stop-color="#7F1E4F"/>
<stop offset="0.1303" stop-color="#881937"/>
<stop offset="0.1834" stop-color="#8F1424"/>
<stop offset="0.2455" stop-color="#941117"/>
<stop offset="0.3252" stop-color="#97100F"/>
<stop offset="0.4832" stop-color="#980F0D"/>
<stop offset="1" stop-color="#D83B01"/>
</linearGradient>
<linearGradient id="paint6_linear_706_598" x1="9.35979" y1="7.2954" x2="10.3242" y2="5.18832" gradientUnits="userSpaceOnUse">
<stop stop-color="#662D91"/>
<stop offset="0.00115764" stop-color="#662D90"/>
<stop offset="0.0404591" stop-color="#74256D"/>
<stop offset="0.0829803" stop-color="#7F1E4F"/>
<stop offset="0.1303" stop-color="#881937"/>
<stop offset="0.1834" stop-color="#8F1424"/>
<stop offset="0.2455" stop-color="#941117"/>
<stop offset="0.3252" stop-color="#97100F"/>
<stop offset="0.4832" stop-color="#980F0D"/>
<stop offset="1" stop-color="#D83B01"/>
</linearGradient>
<linearGradient id="paint7_linear_706_598" x1="16.7039" y1="17.0677" x2="17.7131" y2="14.9546" gradientUnits="userSpaceOnUse">
<stop stop-color="#662D91"/>
<stop offset="0.00115764" stop-color="#662D90"/>
<stop offset="0.0404591" stop-color="#74256D"/>
<stop offset="0.0829803" stop-color="#7F1E4F"/>
<stop offset="0.1303" stop-color="#881937"/>
<stop offset="0.1834" stop-color="#8F1424"/>
<stop offset="0.2455" stop-color="#941117"/>
<stop offset="0.3252" stop-color="#97100F"/>
<stop offset="0.4832" stop-color="#980F0D"/>
<stop offset="1" stop-color="#D83B01"/>
</linearGradient>
<linearGradient id="paint8_linear_706_598" x1="21.5968" y1="17.0473" x2="22.6084" y2="14.9431" gradientUnits="userSpaceOnUse">
<stop stop-color="#662D91"/>
<stop offset="0.00115764" stop-color="#662D90"/>
<stop offset="0.0404591" stop-color="#74256D"/>
<stop offset="0.0829803" stop-color="#7F1E4F"/>
<stop offset="0.1303" stop-color="#881937"/>
<stop offset="0.1834" stop-color="#8F1424"/>
<stop offset="0.2455" stop-color="#941117"/>
<stop offset="0.3252" stop-color="#97100F"/>
<stop offset="0.4832" stop-color="#980F0D"/>
<stop offset="1" stop-color="#D83B01"/>
</linearGradient>
<linearGradient id="paint9_linear_706_598" x1="14.2559" y1="7.2954" x2="15.2305" y2="5.20032" gradientUnits="userSpaceOnUse">
<stop stop-color="#662D91"/>
<stop offset="0.00115764" stop-color="#662D90"/>
<stop offset="0.0404591" stop-color="#74256D"/>
<stop offset="0.0829803" stop-color="#7F1E4F"/>
<stop offset="0.1303" stop-color="#881937"/>
<stop offset="0.1834" stop-color="#8F1424"/>
<stop offset="0.2455" stop-color="#941117"/>
<stop offset="0.3252" stop-color="#97100F"/>
<stop offset="0.4832" stop-color="#980F0D"/>
<stop offset="1" stop-color="#D83B01"/>
</linearGradient>
<linearGradient id="paint10_linear_706_598" x1="2.68466" y1="72.1713" x2="22.5326" y2="25.0031" gradientUnits="userSpaceOnUse">
<stop stop-color="#662D91"/>
<stop offset="0.00115764" stop-color="#662D90"/>
<stop offset="0.0404591" stop-color="#74256D"/>
<stop offset="0.0829803" stop-color="#7F1E4F"/>
<stop offset="0.1303" stop-color="#881937"/>
<stop offset="0.1834" stop-color="#8F1424"/>
<stop offset="0.2455" stop-color="#941117"/>
<stop offset="0.3252" stop-color="#97100F"/>
<stop offset="0.4832" stop-color="#980F0D"/>
<stop offset="1" stop-color="#D83B01"/>
</linearGradient>
<linearGradient id="paint11_linear_706_598" x1="29.0869" y1="59.2258" x2="38.7877" y2="38.5428" gradientUnits="userSpaceOnUse">
<stop stop-color="#662D91"/>
<stop offset="0.00115764" stop-color="#662D90"/>
<stop offset="0.0404591" stop-color="#74256D"/>
<stop offset="0.0829803" stop-color="#7F1E4F"/>
<stop offset="0.1303" stop-color="#881937"/>
<stop offset="0.1834" stop-color="#8F1424"/>
<stop offset="0.2455" stop-color="#941117"/>
<stop offset="0.3252" stop-color="#97100F"/>
<stop offset="0.4832" stop-color="#980F0D"/>
<stop offset="1" stop-color="#D83B01"/>
</linearGradient>
<clipPath id="clip0_706_598">
<rect width="72" height="73" fill="white"/>
</clipPath>
</defs>
</svg>
