<svg width="54" height="54" viewBox="0 0 54 54" fill="none" xmlns="http://www.w3.org/2000/svg">
<g clip-path="url(#clip0_706_629)">
<path d="M47.8328 33.4806C47.8328 29.1405 47.8328 25.1252 47.8328 21.0804C47.8328 19.9585 47.8624 18.8365 47.8328 17.7146C47.8033 16.8289 48.0689 16.1203 49.1017 16.1498C50.0755 16.1793 50.1935 16.9174 50.1935 17.7146C50.1935 22.468 50.1935 27.1919 50.1935 31.9453C50.1935 32.3587 50.1935 32.772 50.1935 33.5101C50.9017 32.7425 51.3443 32.2111 51.846 31.7091C52.4066 31.1482 53.0558 31.0301 53.646 31.6206C54.1771 32.152 54.1181 32.772 53.646 33.333C52.4656 34.6911 51.2558 36.0492 50.046 37.3778C49.3968 38.0864 48.6886 38.1159 48.0394 37.3778C46.8296 36.0492 45.6197 34.6911 44.4394 33.333C43.9673 32.772 43.8787 32.1815 44.4099 31.6206C45.0001 31.0596 45.6492 31.1186 46.2099 31.7091C46.682 32.1815 47.1246 32.713 47.8328 33.4806Z" fill="url(#paint0_linear_706_629)"/>
<path d="M36.059 20.4604C35.3213 21.287 34.8492 21.848 34.3475 22.3499C33.8164 22.8518 33.1967 22.9404 32.6656 22.4385C32.1344 21.9366 32.1049 21.287 32.6065 20.7556C33.8164 19.368 35.0557 17.9803 36.3246 16.6222C36.9443 15.9727 37.6229 15.9727 38.2131 16.6517C39.4524 18.0098 40.6918 19.3975 41.9311 20.8146C42.4328 21.3756 42.4033 21.9956 41.8426 22.4975C41.282 22.9994 40.6623 22.9404 40.1606 22.409C39.659 21.9071 39.1869 21.3461 38.4787 20.5785C38.4787 22.7337 38.4787 24.6233 38.4787 26.4833C38.4787 29.6719 38.4787 32.8311 38.4787 36.0197C38.4787 36.9349 38.5082 37.9388 37.2688 37.9092C35.9705 37.8797 36.118 36.8464 36.118 35.9606C36.059 30.8529 36.059 25.8338 36.059 20.4604Z" fill="url(#paint1_linear_706_629)"/>
<path d="M3.86557 11.1006C18.4426 11.1301 32.9902 11.1301 47.5672 11.1301C48.3639 11.1301 48.9836 11.2482 49.6033 11.8977C50.6066 12.9606 52.259 12.8425 53.2623 11.8092C54.2656 10.7758 54.2361 9.12245 53.2623 8.11863C52.259 7.08527 50.5771 6.96718 49.6033 8.05958C48.9836 8.73864 48.3639 8.82721 47.5672 8.82721C32.9902 8.82721 18.4426 8.82721 3.86557 8.82721C3.62951 8.82721 3.36393 8.79769 3.12787 8.82721C2.56721 8.88626 2.30164 8.70911 2.36066 8.11863C2.39016 7.64624 2.41967 7.14432 2.36066 6.64241C2.21311 5.57953 2.56721 5.28429 3.68852 5.28429C18.3541 5.31381 33.0197 5.31381 47.6852 5.31381C48.4525 5.31381 49.0131 5.43191 49.5738 6.05192C50.577 7.14432 52.2295 7.05575 53.2328 6.0224C54.2361 5.01857 54.2656 3.36521 53.2918 2.33186C52.2885 1.26898 50.6361 1.12136 49.6328 2.18424C48.9836 2.89282 48.3049 2.98139 47.4492 2.98139C33.0197 2.98139 18.6197 2.95187 4.19016 2.98139C2.8918 2.98139 2.03607 2.92234 2.33115 1.26898C2.44918 0.501349 1.97705 0.0289597 1.20984 -0.000564634C0.442623 -0.030089 0.0295082 0.412776 0 1.18041C0 1.47565 0 1.7709 0 2.06614C0 18.6883 0 35.3401 0 51.9623C0 53.9109 0.0885245 53.9994 2.12459 53.9994C18.7082 53.9994 35.2623 53.9994 51.8459 53.9994C52.2295 53.9994 52.6426 54.029 53.0262 53.9699C53.6164 53.8813 53.9705 53.4975 54 52.8775C54.0295 52.1985 53.6754 51.7556 52.9967 51.667C52.6131 51.608 52.2295 51.6375 51.8164 51.6375C45.1771 51.6375 38.5082 51.608 31.8689 51.667C30.7771 51.667 30.5115 51.4308 30.5115 50.3089C30.5705 41.5402 30.541 32.801 30.541 24.0322C30.541 23.3237 30.541 22.5855 29.7443 22.3198C28.859 22.0246 28.4164 22.6446 28.0033 23.2941C26.2033 26.0399 24.3738 28.7561 22.6623 31.5019C22.1311 32.3581 21.5115 32.7124 20.5672 32.7419C19.2393 32.7714 17.941 32.86 16.6131 32.9191C15.6984 32.9486 15.1082 33.3619 14.7836 34.2772C14.1639 36.0782 13.4852 37.8496 12.8066 39.6211C12.0984 41.4811 12.0984 41.4811 10.2098 40.9202C8.52787 40.4182 8.17377 40.5954 7.70164 42.2783C7.14098 44.2564 6.58033 46.205 6.01967 48.1831C5.90164 48.6555 5.78361 49.0689 5.25246 49.3346C4.3377 49.7479 3.45246 50.2498 2.39016 50.8108C2.36066 37.9087 2.36066 25.2427 2.30164 12.5768C2.30164 11.2777 2.68525 11.1006 3.86557 11.1006ZM8.32131 48.8622C8.70492 47.2974 9.26557 45.7917 9.61967 44.2269C9.79672 43.4888 10.0033 43.4297 10.7115 43.6364C13.5738 44.4631 13.5738 44.4336 14.6066 41.6583C15.2262 39.9754 15.9049 38.2925 16.4656 36.5801C16.7607 35.6353 17.2918 35.222 18.2656 35.281C18.4721 35.281 18.6492 35.2515 18.8557 35.2515C24.3148 34.9858 22.5738 35.7534 25.7016 31.2362C26.4689 30.1143 27.2066 28.9628 28.1803 27.4571C28.1803 35.5172 28.1803 43.1345 28.1803 50.7518C28.1803 51.4308 28.0033 51.667 27.2951 51.667C20.3607 51.6375 13.4557 51.6375 6.43279 51.5489C7.70164 51.047 8.02623 49.9841 8.32131 48.8622Z" fill="url(#paint2_linear_706_629)"/>
</g>
<defs>
<linearGradient id="paint0_linear_706_629" x1="42.4712" y1="37.5753" x2="53.7518" y2="26.5858" gradientUnits="userSpaceOnUse">
<stop stop-color="#662D91"/>
<stop offset="0.00115764" stop-color="#662D90"/>
<stop offset="0.0404591" stop-color="#74256D"/>
<stop offset="0.0829803" stop-color="#7F1E4F"/>
<stop offset="0.1303" stop-color="#881937"/>
<stop offset="0.1834" stop-color="#8F1424"/>
<stop offset="0.2455" stop-color="#941117"/>
<stop offset="0.3252" stop-color="#97100F"/>
<stop offset="0.4832" stop-color="#980F0D"/>
<stop offset="1" stop-color="#D83B01"/>
</linearGradient>
<linearGradient id="paint1_linear_706_629" x1="30.6621" y1="37.5648" x2="41.9443" y2="26.5043" gradientUnits="userSpaceOnUse">
<stop stop-color="#662D91"/>
<stop offset="0.00115764" stop-color="#662D90"/>
<stop offset="0.0404591" stop-color="#74256D"/>
<stop offset="0.0829803" stop-color="#7F1E4F"/>
<stop offset="0.1303" stop-color="#881937"/>
<stop offset="0.1834" stop-color="#8F1424"/>
<stop offset="0.2455" stop-color="#941117"/>
<stop offset="0.3252" stop-color="#97100F"/>
<stop offset="0.4832" stop-color="#980F0D"/>
<stop offset="1" stop-color="#D83B01"/>
</linearGradient>
<linearGradient id="paint2_linear_706_629" x1="-8.53179" y1="53.1507" x2="13.0321" y2="7.30629" gradientUnits="userSpaceOnUse">
<stop stop-color="#662D91"/>
<stop offset="0.00115764" stop-color="#662D90"/>
<stop offset="0.0404591" stop-color="#74256D"/>
<stop offset="0.0829803" stop-color="#7F1E4F"/>
<stop offset="0.1303" stop-color="#881937"/>
<stop offset="0.1834" stop-color="#8F1424"/>
<stop offset="0.2455" stop-color="#941117"/>
<stop offset="0.3252" stop-color="#97100F"/>
<stop offset="0.4832" stop-color="#980F0D"/>
<stop offset="1" stop-color="#D83B01"/>
</linearGradient>
<clipPath id="clip0_706_629">
<rect width="54" height="54" fill="white"/>
</clipPath>
</defs>
</svg>
