<svg width="1440" height="719" viewBox="0 0 1440 719" fill="none" xmlns="http://www.w3.org/2000/svg">
<path d="M408.982 72.5206V26.7363L369.403 3.84424L329.753 26.7363V72.5206L369.403 95.4126L408.982 72.5206Z" stroke="#D83B01" stroke-opacity="0.03" stroke-width="5" stroke-miterlimit="10"/>
<path d="M488.282 72.5206V26.7363L448.632 3.84424L408.982 26.7363V72.5206L448.632 95.4126L488.282 72.5206Z" stroke="#D83B01" stroke-opacity="0.03" stroke-width="5" stroke-miterlimit="10"/>
<path d="M567.511 72.5206V26.7363L527.932 3.84424L488.282 26.7363V72.5206L527.932 95.4126L567.511 72.5206Z" stroke="#D83B01" stroke-opacity="0.03" stroke-width="5" stroke-miterlimit="10"/>
<path d="M646.812 72.5206V26.7363L607.161 3.84424L567.511 26.7363V72.5206L607.161 95.4126L646.812 72.5206Z" stroke="#D83B01" stroke-opacity="0.03" stroke-width="5" stroke-miterlimit="10"/>
<path d="M726.041 72.5206V26.7363L686.462 3.84424L646.812 26.7363V72.5206L686.462 95.4126L726.041 72.5206Z" stroke="#D83B01" stroke-opacity="0.03" stroke-width="5" stroke-miterlimit="10"/>
<path d="M805.341 72.5206V26.7363L765.691 3.84424L726.041 26.7363V72.5206L765.691 95.4126L805.341 72.5206Z" stroke="#D83B01" stroke-opacity="0.03" stroke-width="5" stroke-miterlimit="10"/>
<path d="M884.57 72.5206V26.7363L844.991 3.84424L805.341 26.7363V72.5206L844.991 95.4126L884.57 72.5206Z" stroke="#D83B01" stroke-opacity="0.03" stroke-width="5" stroke-miterlimit="10"/>
<path d="M963.87 72.5206V26.7363L924.22 3.84424L884.57 26.7363V72.5206L924.22 95.4126L963.87 72.5206Z" stroke="#D83B01" stroke-opacity="0.03" stroke-width="5" stroke-miterlimit="10"/>
<path d="M1043.1 72.5206V26.7363L1003.52 3.84424L963.87 26.7363V72.5206L1003.52 95.4126L1043.1 72.5206Z" stroke="#D83B01" stroke-opacity="0.03" stroke-width="5" stroke-miterlimit="10"/>
<path d="M1122.4 72.5206V26.7363L1082.75 3.84424L1043.1 26.7363V72.5206L1082.75 95.4126L1122.4 72.5206Z" stroke="#D83B01" stroke-opacity="0.03" stroke-width="5" stroke-miterlimit="10"/>
<path d="M1201.63 72.5206V26.7363L1162.05 3.84424L1122.4 26.7363V72.5206L1162.05 95.4126L1201.63 72.5206Z" stroke="#D83B01" stroke-opacity="0.03" stroke-width="5" stroke-miterlimit="10"/>
<path d="M1280.93 72.5206V26.7363L1241.28 3.84424L1201.63 26.7363V72.5206L1241.28 95.4126L1280.93 72.5206Z" stroke="#D83B01" stroke-opacity="0.03" stroke-width="5" stroke-miterlimit="10"/>
<path d="M1360.16 72.5206V26.7363L1320.51 3.84424L1280.93 26.7363V72.5206L1320.51 95.4126L1360.16 72.5206Z" stroke="#D83B01" stroke-opacity="0.03" stroke-width="5" stroke-miterlimit="10"/>
<path d="M1439.46 72.5206V26.7363L1399.81 3.84424L1360.16 26.7363V72.5206L1399.81 95.4126L1439.46 72.5206Z" stroke="#D83B01" stroke-opacity="0.03" stroke-width="5" stroke-miterlimit="10"/>
<path d="M1518.69 72.5206V26.7363L1479.04 3.84424L1439.46 26.7363V72.5206L1479.04 95.4126L1518.69 72.5206Z" stroke="#D83B01" stroke-opacity="0.03" stroke-width="5" stroke-miterlimit="10"/>
<path d="M369.403 141.411V95.6266L329.753 72.7346L290.103 95.6266V141.411L329.753 164.303L369.403 141.411Z" stroke="#D83B01" stroke-opacity="0.03" stroke-width="5" stroke-miterlimit="10"/>
<path d="M448.632 141.411V95.6266L408.982 72.7346L369.403 95.6266V141.411L408.982 164.303L448.632 141.411Z" stroke="#D83B01" stroke-opacity="0.03" stroke-width="5" stroke-miterlimit="10"/>
<path d="M527.932 141.411V95.6266L488.282 72.7346L448.632 95.6266V141.411L488.282 164.303L527.932 141.411Z" stroke="#D83B01" stroke-opacity="0.03" stroke-width="5" stroke-miterlimit="10"/>
<path d="M607.161 141.411V95.6266L567.511 72.7346L527.932 95.6266V141.411L567.511 164.303L607.161 141.411Z" stroke="#D83B01" stroke-opacity="0.03" stroke-width="5" stroke-miterlimit="10"/>
<path d="M686.462 141.411V95.6266L646.812 72.7346L607.161 95.6266V141.411L646.812 164.303L686.462 141.411Z" stroke="#D83B01" stroke-opacity="0.03" stroke-width="5" stroke-miterlimit="10"/>
<path d="M765.691 141.411V95.6266L726.041 72.7346L686.462 95.6266V141.411L726.041 164.303L765.691 141.411Z" stroke="#D83B01" stroke-opacity="0.03" stroke-width="5" stroke-miterlimit="10"/>
<path d="M844.991 141.411V95.6266L805.341 72.7346L765.691 95.6266V141.411L805.341 164.303L844.991 141.411Z" stroke="#D83B01" stroke-opacity="0.03" stroke-width="5" stroke-miterlimit="10"/>
<path d="M924.22 141.411V95.6266L884.57 72.7346L844.991 95.6266V141.411L884.57 164.303L924.22 141.411Z" stroke="#D83B01" stroke-opacity="0.03" stroke-width="5" stroke-miterlimit="10"/>
<path d="M1003.52 141.411V95.6266L963.87 72.7346L924.22 95.6266V141.411L963.87 164.303L1003.52 141.411Z" stroke="#D83B01" stroke-opacity="0.03" stroke-width="5" stroke-miterlimit="10"/>
<path d="M1082.75 141.411V95.6266L1043.1 72.7346L1003.52 95.6266V141.411L1043.1 164.303L1082.75 141.411Z" stroke="#D83B01" stroke-opacity="0.03" stroke-width="5" stroke-miterlimit="10"/>
<path d="M1162.05 141.411V95.6266L1122.4 72.7346L1082.75 95.6266V141.411L1122.4 164.303L1162.05 141.411Z" stroke="#D83B01" stroke-opacity="0.03" stroke-width="5" stroke-miterlimit="10"/>
<path d="M1241.28 141.411V95.6266L1201.63 72.7346L1162.05 95.6266V141.411L1201.63 164.303L1241.28 141.411Z" stroke="#D83B01" stroke-opacity="0.03" stroke-width="5" stroke-miterlimit="10"/>
<path d="M1320.51 141.411V95.6266L1280.93 72.7346L1241.28 95.6266V141.411L1280.93 164.303L1320.51 141.411Z" stroke="#D83B01" stroke-opacity="0.03" stroke-width="5" stroke-miterlimit="10"/>
<path d="M1399.81 141.411V95.6266L1360.16 72.7346L1320.51 95.6266V141.411L1360.16 164.303L1399.81 141.411Z" stroke="#D83B01" stroke-opacity="0.03" stroke-width="5" stroke-miterlimit="10"/>
<path d="M1479.04 141.411V95.6266L1439.46 72.7346L1399.81 95.6266V141.411L1439.46 164.303L1479.04 141.411Z" stroke="#D83B01" stroke-opacity="0.03" stroke-width="5" stroke-miterlimit="10"/>
<path d="M329.753 210.301V164.517L290.103 141.625L250.452 164.517V210.301L290.103 233.122L329.753 210.301Z" stroke="#D83B01" stroke-opacity="0.03" stroke-width="5" stroke-miterlimit="10"/>
<path d="M408.982 210.301V164.517L369.403 141.625L329.753 164.517V210.301L369.403 233.122L408.982 210.301Z" stroke="#D83B01" stroke-opacity="0.03" stroke-width="5" stroke-miterlimit="10"/>
<path d="M488.282 210.301V164.517L448.632 141.625L408.982 164.517V210.301L448.632 233.122L488.282 210.301Z" stroke="#D83B01" stroke-opacity="0.03" stroke-width="5" stroke-miterlimit="10"/>
<path d="M567.511 210.301V164.517L527.932 141.625L488.282 164.517V210.301L527.932 233.122L567.511 210.301Z" stroke="#D83B01" stroke-opacity="0.03" stroke-width="5" stroke-miterlimit="10"/>
<path d="M646.812 210.301V164.517L607.161 141.625L567.511 164.517V210.301L607.161 233.122L646.812 210.301Z" stroke="#D83B01" stroke-opacity="0.03" stroke-width="5" stroke-miterlimit="10"/>
<path d="M726.041 210.301V164.517L686.462 141.625L646.812 164.517V210.301L686.462 233.122L726.041 210.301Z" stroke="#D83B01" stroke-opacity="0.03" stroke-width="5" stroke-miterlimit="10"/>
<path d="M805.341 210.301V164.517L765.691 141.625L726.041 164.517V210.301L765.691 233.122L805.341 210.301Z" stroke="#D83B01" stroke-opacity="0.03" stroke-width="5" stroke-miterlimit="10"/>
<path d="M884.57 210.301V164.517L844.991 141.625L805.341 164.517V210.301L844.991 233.122L884.57 210.301Z" stroke="#D83B01" stroke-opacity="0.03" stroke-width="5" stroke-miterlimit="10"/>
<path d="M963.87 210.301V164.517L924.22 141.625L884.57 164.517V210.301L924.22 233.122L963.87 210.301Z" stroke="#D83B01" stroke-opacity="0.03" stroke-width="5" stroke-miterlimit="10"/>
<path d="M1043.1 210.301V164.517L1003.52 141.625L963.87 164.517V210.301L1003.52 233.122L1043.1 210.301Z" stroke="#D83B01" stroke-opacity="0.03" stroke-width="5" stroke-miterlimit="10"/>
<path d="M1122.4 210.301V164.517L1082.75 141.625L1043.1 164.517V210.301L1082.75 233.122L1122.4 210.301Z" stroke="#D83B01" stroke-opacity="0.03" stroke-width="5" stroke-miterlimit="10"/>
<path d="M1201.63 210.301V164.517L1162.05 141.625L1122.4 164.517V210.301L1162.05 233.122L1201.63 210.301Z" stroke="#D83B01" stroke-opacity="0.03" stroke-width="5" stroke-miterlimit="10"/>
<path d="M1280.93 210.301V164.517L1241.28 141.625L1201.63 164.517V210.301L1241.28 233.122L1280.93 210.301Z" stroke="#D83B01" stroke-opacity="0.03" stroke-width="5" stroke-miterlimit="10"/>
<path d="M1360.16 210.301V164.517L1320.51 141.625L1280.93 164.517V210.301L1320.51 233.122L1360.16 210.301Z" stroke="#D83B01" stroke-opacity="0.03" stroke-width="5" stroke-miterlimit="10"/>
<path d="M1439.46 210.301V164.517L1399.81 141.625L1360.16 164.517V210.301L1399.81 233.122L1439.46 210.301Z" stroke="#D83B01" stroke-opacity="0.03" stroke-width="5" stroke-miterlimit="10"/>
<path d="M1518.69 210.301V164.517L1479.04 141.625L1439.46 164.517V210.301L1479.04 233.122L1518.69 210.301Z" stroke="#D83B01" stroke-opacity="0.03" stroke-width="5" stroke-miterlimit="10"/>
<path d="M290.103 279.12V233.407L250.452 210.515L210.874 233.407V279.12L250.452 302.012L290.103 279.12Z" stroke="#D83B01" stroke-opacity="0.03" stroke-width="5" stroke-miterlimit="10"/>
<path d="M369.403 279.12V233.407L329.753 210.515L290.103 233.407V279.12L329.753 302.012L369.403 279.12Z" stroke="#D83B01" stroke-opacity="0.03" stroke-width="5" stroke-miterlimit="10"/>
<path d="M448.632 279.12V233.407L408.982 210.515L369.403 233.407V279.12L408.982 302.012L448.632 279.12Z" stroke="#D83B01" stroke-opacity="0.03" stroke-width="5" stroke-miterlimit="10"/>
<path d="M527.932 279.12V233.407L488.282 210.515L448.632 233.407V279.12L488.282 302.012L527.932 279.12Z" stroke="#D83B01" stroke-opacity="0.03" stroke-width="5" stroke-miterlimit="10"/>
<path d="M607.161 279.12V233.407L567.511 210.515L527.932 233.407V279.12L567.511 302.012L607.161 279.12Z" stroke="#D83B01" stroke-opacity="0.03" stroke-width="5" stroke-miterlimit="10"/>
<path d="M686.462 279.12V233.407L646.812 210.515L607.161 233.407V279.12L646.812 302.012L686.462 279.12Z" stroke="#D83B01" stroke-opacity="0.03" stroke-width="5" stroke-miterlimit="10"/>
<path d="M765.691 279.12V233.407L726.041 210.515L686.462 233.407V279.12L726.041 302.012L765.691 279.12Z" stroke="#D83B01" stroke-opacity="0.03" stroke-width="5" stroke-miterlimit="10"/>
<path d="M844.991 279.12V233.407L805.341 210.515L765.691 233.407V279.12L805.341 302.012L844.991 279.12Z" stroke="#D83B01" stroke-opacity="0.03" stroke-width="5" stroke-miterlimit="10"/>
<path d="M924.22 279.12V233.407L884.57 210.515L844.991 233.407V279.12L884.57 302.012L924.22 279.12Z" stroke="#D83B01" stroke-opacity="0.03" stroke-width="5" stroke-miterlimit="10"/>
<path d="M1003.52 279.12V233.407L963.87 210.515L924.22 233.407V279.12L963.87 302.012L1003.52 279.12Z" stroke="#D83B01" stroke-opacity="0.03" stroke-width="5" stroke-miterlimit="10"/>
<path d="M1082.75 279.12V233.407L1043.1 210.515L1003.52 233.407V279.12L1043.1 302.012L1082.75 279.12Z" stroke="#D83B01" stroke-opacity="0.03" stroke-width="5" stroke-miterlimit="10"/>
<path d="M1162.05 279.12V233.407L1122.4 210.515L1082.75 233.407V279.12L1122.4 302.012L1162.05 279.12Z" stroke="#D83B01" stroke-opacity="0.03" stroke-width="5" stroke-miterlimit="10"/>
<path d="M1241.28 279.12V233.407L1201.63 210.515L1162.05 233.407V279.12L1201.63 302.012L1241.28 279.12Z" stroke="#D83B01" stroke-opacity="0.03" stroke-width="5" stroke-miterlimit="10"/>
<path d="M1320.51 279.12V233.407L1280.93 210.515L1241.28 233.407V279.12L1280.93 302.012L1320.51 279.12Z" stroke="#D83B01" stroke-opacity="0.03" stroke-width="5" stroke-miterlimit="10"/>
<path d="M1399.81 279.12V233.407L1360.16 210.515L1320.51 233.407V279.12L1360.16 302.012L1399.81 279.12Z" stroke="#D83B01" stroke-opacity="0.03" stroke-width="5" stroke-miterlimit="10"/>
<path d="M1479.04 279.12V233.407L1439.46 210.515L1399.81 233.407V279.12L1439.46 302.012L1479.04 279.12Z" stroke="#D83B01" stroke-opacity="0.03" stroke-width="5" stroke-miterlimit="10"/>
<path d="M250.452 348.01V302.297L210.873 279.405L171.223 302.297V348.01L210.873 370.902L250.452 348.01Z" stroke="#D83B01" stroke-opacity="0.03" stroke-width="5" stroke-miterlimit="10"/>
<path d="M329.753 348.01V302.297L290.103 279.405L250.452 302.297V348.01L290.103 370.902L329.753 348.01Z" stroke="#D83B01" stroke-opacity="0.03" stroke-width="5" stroke-miterlimit="10"/>
<path d="M408.982 348.01V302.297L369.403 279.405L329.753 302.297V348.01L369.403 370.902L408.982 348.01Z" stroke="#D83B01" stroke-opacity="0.03" stroke-width="5" stroke-miterlimit="10"/>
<path d="M488.282 348.01V302.297L448.632 279.405L408.982 302.297V348.01L448.632 370.902L488.282 348.01Z" stroke="#D83B01" stroke-opacity="0.03" stroke-width="5" stroke-miterlimit="10"/>
<path d="M567.511 348.01V302.297L527.932 279.405L488.282 302.297V348.01L527.932 370.902L567.511 348.01Z" stroke="#D83B01" stroke-opacity="0.03" stroke-width="5" stroke-miterlimit="10"/>
<path d="M646.812 348.01V302.297L607.161 279.405L567.511 302.297V348.01L607.161 370.902L646.812 348.01Z" stroke="#D83B01" stroke-opacity="0.03" stroke-width="5" stroke-miterlimit="10"/>
<path d="M726.041 348.01V302.297L686.462 279.405L646.812 302.297V348.01L686.462 370.902L726.041 348.01Z" stroke="#D83B01" stroke-opacity="0.03" stroke-width="5" stroke-miterlimit="10"/>
<path d="M805.341 348.01V302.297L765.691 279.405L726.041 302.297V348.01L765.691 370.902L805.341 348.01Z" stroke="#D83B01" stroke-opacity="0.03" stroke-width="5" stroke-miterlimit="10"/>
<path d="M884.57 348.01V302.297L844.991 279.405L805.341 302.297V348.01L844.991 370.902L884.57 348.01Z" stroke="#D83B01" stroke-opacity="0.03" stroke-width="5" stroke-miterlimit="10"/>
<path d="M963.87 348.01V302.297L924.22 279.405L884.57 302.297V348.01L924.22 370.902L963.87 348.01Z" stroke="#D83B01" stroke-opacity="0.03" stroke-width="5" stroke-miterlimit="10"/>
<path d="M1043.1 348.01V302.297L1003.52 279.405L963.87 302.297V348.01L1003.52 370.902L1043.1 348.01Z" stroke="#D83B01" stroke-opacity="0.03" stroke-width="5" stroke-miterlimit="10"/>
<path d="M1122.4 348.01V302.297L1082.75 279.405L1043.1 302.297V348.01L1082.75 370.902L1122.4 348.01Z" stroke="#D83B01" stroke-opacity="0.03" stroke-width="5" stroke-miterlimit="10"/>
<path d="M1201.63 348.01V302.297L1162.05 279.405L1122.4 302.297V348.01L1162.05 370.902L1201.63 348.01Z" stroke="#D83B01" stroke-opacity="0.03" stroke-width="5" stroke-miterlimit="10"/>
<path d="M1280.93 348.01V302.297L1241.28 279.405L1201.63 302.297V348.01L1241.28 370.902L1280.93 348.01Z" stroke="#D83B01" stroke-opacity="0.03" stroke-width="5" stroke-miterlimit="10"/>
<path d="M1360.16 348.01V302.297L1320.51 279.405L1280.93 302.297V348.01L1320.51 370.902L1360.16 348.01Z" stroke="#D83B01" stroke-opacity="0.03" stroke-width="5" stroke-miterlimit="10"/>
<path d="M1439.46 348.01V302.297L1399.81 279.405L1360.16 302.297V348.01L1399.81 370.902L1439.46 348.01Z" stroke="#D83B01" stroke-opacity="0.03" stroke-width="5" stroke-miterlimit="10"/>
<path d="M1518.69 348.01V302.297L1479.04 279.405L1439.46 302.297V348.01L1479.04 370.902L1518.69 348.01Z" stroke="#D83B01" stroke-opacity="0.03" stroke-width="5" stroke-miterlimit="10"/>
<path d="M210.873 416.901V371.116L171.223 348.224L131.573 371.116V416.901L171.223 439.793L210.873 416.901Z" stroke="#D83B01" stroke-opacity="0.03" stroke-width="5" stroke-miterlimit="10"/>
<path d="M290.103 416.901V371.116L250.452 348.224L210.874 371.116V416.901L250.452 439.793L290.103 416.901Z" stroke="#D83B01" stroke-opacity="0.03" stroke-width="5" stroke-miterlimit="10"/>
<path d="M369.403 416.901V371.116L329.753 348.224L290.103 371.116V416.901L329.753 439.793L369.403 416.901Z" stroke="#D83B01" stroke-opacity="0.03" stroke-width="5" stroke-miterlimit="10"/>
<path d="M448.632 416.901V371.116L408.982 348.224L369.403 371.116V416.901L408.982 439.793L448.632 416.901Z" stroke="#D83B01" stroke-opacity="0.03" stroke-width="5" stroke-miterlimit="10"/>
<path d="M527.932 416.901V371.116L488.282 348.224L448.632 371.116V416.901L488.282 439.793L527.932 416.901Z" stroke="#D83B01" stroke-opacity="0.03" stroke-width="5" stroke-miterlimit="10"/>
<path d="M607.161 416.901V371.116L567.511 348.224L527.932 371.116V416.901L567.511 439.793L607.161 416.901Z" stroke="#D83B01" stroke-opacity="0.03" stroke-width="5" stroke-miterlimit="10"/>
<path d="M686.462 416.901V371.116L646.812 348.224L607.161 371.116V416.901L646.812 439.793L686.462 416.901Z" stroke="#D83B01" stroke-opacity="0.03" stroke-width="5" stroke-miterlimit="10"/>
<path d="M765.691 416.901V371.116L726.041 348.224L686.462 371.116V416.901L726.041 439.793L765.691 416.901Z" stroke="#D83B01" stroke-opacity="0.03" stroke-width="5" stroke-miterlimit="10"/>
<path d="M844.991 416.901V371.116L805.341 348.224L765.691 371.116V416.901L805.341 439.793L844.991 416.901Z" stroke="#D83B01" stroke-opacity="0.03" stroke-width="5" stroke-miterlimit="10"/>
<path d="M924.22 416.901V371.116L884.57 348.224L844.991 371.116V416.901L884.57 439.793L924.22 416.901Z" stroke="#D83B01" stroke-opacity="0.03" stroke-width="5" stroke-miterlimit="10"/>
<path d="M1003.52 416.901V371.116L963.87 348.224L924.22 371.116V416.901L963.87 439.793L1003.52 416.901Z" stroke="#D83B01" stroke-opacity="0.03" stroke-width="5" stroke-miterlimit="10"/>
<path d="M1082.75 416.901V371.116L1043.1 348.224L1003.52 371.116V416.901L1043.1 439.793L1082.75 416.901Z" stroke="#D83B01" stroke-opacity="0.03" stroke-width="5" stroke-miterlimit="10"/>
<path d="M1162.05 416.901V371.116L1122.4 348.224L1082.75 371.116V416.901L1122.4 439.793L1162.05 416.901Z" stroke="#D83B01" stroke-opacity="0.03" stroke-width="5" stroke-miterlimit="10"/>
<path d="M1241.28 416.901V371.116L1201.63 348.224L1162.05 371.116V416.901L1201.63 439.793L1241.28 416.901Z" stroke="#D83B01" stroke-opacity="0.03" stroke-width="5" stroke-miterlimit="10"/>
<path d="M1320.51 416.901V371.116L1280.93 348.224L1241.28 371.116V416.901L1280.93 439.793L1320.51 416.901Z" stroke="#D83B01" stroke-opacity="0.03" stroke-width="5" stroke-miterlimit="10"/>
<path d="M1399.81 416.901V371.116L1360.16 348.224L1320.51 371.116V416.901L1360.16 439.793L1399.81 416.901Z" stroke="#D83B01" stroke-opacity="0.03" stroke-width="5" stroke-miterlimit="10"/>
<path d="M1479.04 416.901V371.116L1439.46 348.224L1399.81 371.116V416.901L1439.46 439.793L1479.04 416.901Z" stroke="#D83B01" stroke-opacity="0.03" stroke-width="5" stroke-miterlimit="10"/>
<path d="M171.223 485.791V440.007L131.573 417.115L91.923 440.007V485.791L131.573 508.683L171.223 485.791Z" stroke="#D83B01" stroke-opacity="0.03" stroke-width="5" stroke-miterlimit="10"/>
<path d="M250.452 485.791V440.007L210.873 417.115L171.223 440.007V485.791L210.873 508.683L250.452 485.791Z" stroke="#D83B01" stroke-opacity="0.03" stroke-width="5" stroke-miterlimit="10"/>
<path d="M329.753 485.791V440.007L290.103 417.115L250.452 440.007V485.791L290.103 508.683L329.753 485.791Z" stroke="#D83B01" stroke-opacity="0.03" stroke-width="5" stroke-miterlimit="10"/>
<path d="M408.982 485.791V440.007L369.403 417.115L329.753 440.007V485.791L369.403 508.683L408.982 485.791Z" stroke="#D83B01" stroke-opacity="0.03" stroke-width="5" stroke-miterlimit="10"/>
<path d="M488.282 485.791V440.007L448.632 417.115L408.982 440.007V485.791L448.632 508.683L488.282 485.791Z" stroke="#D83B01" stroke-opacity="0.03" stroke-width="5" stroke-miterlimit="10"/>
<path d="M567.511 485.791V440.007L527.932 417.115L488.282 440.007V485.791L527.932 508.683L567.511 485.791Z" stroke="#D83B01" stroke-opacity="0.03" stroke-width="5" stroke-miterlimit="10"/>
<path d="M646.812 485.791V440.007L607.161 417.115L567.511 440.007V485.791L607.161 508.683L646.812 485.791Z" stroke="#D83B01" stroke-opacity="0.03" stroke-width="5" stroke-miterlimit="10"/>
<path d="M726.041 485.791V440.007L686.462 417.115L646.812 440.007V485.791L686.462 508.683L726.041 485.791Z" stroke="#D83B01" stroke-opacity="0.03" stroke-width="5" stroke-miterlimit="10"/>
<path d="M805.341 485.791V440.007L765.691 417.115L726.041 440.007V485.791L765.691 508.683L805.341 485.791Z" stroke="#D83B01" stroke-opacity="0.03" stroke-width="5" stroke-miterlimit="10"/>
<path d="M884.57 485.791V440.007L844.991 417.115L805.341 440.007V485.791L844.991 508.683L884.57 485.791Z" stroke="#D83B01" stroke-opacity="0.03" stroke-width="5" stroke-miterlimit="10"/>
<path d="M963.87 485.791V440.007L924.22 417.115L884.57 440.007V485.791L924.22 508.683L963.87 485.791Z" stroke="#D83B01" stroke-opacity="0.03" stroke-width="5" stroke-miterlimit="10"/>
<path d="M1043.1 485.791V440.007L1003.52 417.115L963.87 440.007V485.791L1003.52 508.683L1043.1 485.791Z" stroke="#D83B01" stroke-opacity="0.03" stroke-width="5" stroke-miterlimit="10"/>
<path d="M1122.4 485.791V440.007L1082.75 417.115L1043.1 440.007V485.791L1082.75 508.683L1122.4 485.791Z" stroke="#D83B01" stroke-opacity="0.03" stroke-width="5" stroke-miterlimit="10"/>
<path d="M1201.63 485.791V440.007L1162.05 417.115L1122.4 440.007V485.791L1162.05 508.683L1201.63 485.791Z" stroke="#D83B01" stroke-opacity="0.03" stroke-width="5" stroke-miterlimit="10"/>
<path d="M1280.93 485.791V440.007L1241.28 417.115L1201.63 440.007V485.791L1241.28 508.683L1280.93 485.791Z" stroke="#D83B01" stroke-opacity="0.03" stroke-width="5" stroke-miterlimit="10"/>
<path d="M1360.16 485.791V440.007L1320.51 417.115L1280.93 440.007V485.791L1320.51 508.683L1360.16 485.791Z" stroke="#D83B01" stroke-opacity="0.03" stroke-width="5" stroke-miterlimit="10"/>
<path d="M1439.46 485.791V440.007L1399.81 417.115L1360.16 440.007V485.791L1399.81 508.683L1439.46 485.791Z" stroke="#D83B01" stroke-opacity="0.03" stroke-width="5" stroke-miterlimit="10"/>
<path d="M131.573 554.681V508.897L91.923 486.005L52.3441 508.897V554.681L91.923 577.502L131.573 554.681Z" stroke="#D83B01" stroke-opacity="0.03" stroke-width="5" stroke-miterlimit="10"/>
<path d="M210.873 554.681V508.897L171.223 486.005L131.573 508.897V554.681L171.223 577.502L210.873 554.681Z" stroke="#D83B01" stroke-opacity="0.03" stroke-width="5" stroke-miterlimit="10"/>
<path d="M290.103 554.681V508.897L250.452 486.005L210.874 508.897V554.681L250.452 577.502L290.103 554.681Z" stroke="#D83B01" stroke-opacity="0.03" stroke-width="5" stroke-miterlimit="10"/>
<path d="M369.403 554.681V508.897L329.753 486.005L290.103 508.897V554.681L329.753 577.502L369.403 554.681Z" stroke="#D83B01" stroke-opacity="0.03" stroke-width="5" stroke-miterlimit="10"/>
<path d="M448.632 554.681V508.897L408.982 486.005L369.403 508.897V554.681L408.982 577.502L448.632 554.681Z" stroke="#D83B01" stroke-opacity="0.03" stroke-width="5" stroke-miterlimit="10"/>
<path d="M527.932 554.681V508.897L488.282 486.005L448.632 508.897V554.681L488.282 577.502L527.932 554.681Z" stroke="#D83B01" stroke-opacity="0.03" stroke-width="5" stroke-miterlimit="10"/>
<path d="M607.161 554.681V508.897L567.511 486.005L527.932 508.897V554.681L567.511 577.502L607.161 554.681Z" stroke="#D83B01" stroke-opacity="0.03" stroke-width="5" stroke-miterlimit="10"/>
<path d="M686.462 554.681V508.897L646.812 486.005L607.161 508.897V554.681L646.812 577.502L686.462 554.681Z" stroke="#D83B01" stroke-opacity="0.03" stroke-width="5" stroke-miterlimit="10"/>
<path d="M765.691 554.681V508.897L726.041 486.005L686.462 508.897V554.681L726.041 577.502L765.691 554.681Z" stroke="#D83B01" stroke-opacity="0.03" stroke-width="5" stroke-miterlimit="10"/>
<path d="M844.991 554.681V508.897L805.341 486.005L765.691 508.897V554.681L805.341 577.502L844.991 554.681Z" stroke="#D83B01" stroke-opacity="0.03" stroke-width="5" stroke-miterlimit="10"/>
<path d="M924.22 554.681V508.897L884.57 486.005L844.991 508.897V554.681L884.57 577.502L924.22 554.681Z" stroke="#D83B01" stroke-opacity="0.03" stroke-width="5" stroke-miterlimit="10"/>
<path d="M1003.52 554.681V508.897L963.87 486.005L924.22 508.897V554.681L963.87 577.502L1003.52 554.681Z" stroke="#D83B01" stroke-opacity="0.03" stroke-width="5" stroke-miterlimit="10"/>
<path d="M1082.75 554.681V508.897L1043.1 486.005L1003.52 508.897V554.681L1043.1 577.502L1082.75 554.681Z" stroke="#D83B01" stroke-opacity="0.03" stroke-width="5" stroke-miterlimit="10"/>
<path d="M1162.05 554.681V508.897L1122.4 486.005L1082.75 508.897V554.681L1122.4 577.502L1162.05 554.681Z" stroke="#D83B01" stroke-opacity="0.03" stroke-width="5" stroke-miterlimit="10"/>
<path d="M1241.28 554.681V508.897L1201.63 486.005L1162.05 508.897V554.681L1201.63 577.502L1241.28 554.681Z" stroke="#D83B01" stroke-opacity="0.03" stroke-width="5" stroke-miterlimit="10"/>
<path d="M1320.51 554.681V508.897L1280.93 486.005L1241.28 508.897V554.681L1280.93 577.502L1320.51 554.681Z" stroke="#D83B01" stroke-opacity="0.03" stroke-width="5" stroke-miterlimit="10"/>
<path d="M1399.81 554.681V508.897L1360.16 486.005L1320.51 508.897V554.681L1360.16 577.502L1399.81 554.681Z" stroke="#D83B01" stroke-opacity="0.03" stroke-width="5" stroke-miterlimit="10"/>
<path d="M91.923 623.5V577.787L52.3441 554.895L12.6939 577.787V623.5L52.3441 646.392L91.923 623.5Z" stroke="#D83B01" stroke-opacity="0.03" stroke-width="5" stroke-miterlimit="10"/>
<path d="M171.223 623.5V577.787L131.573 554.895L91.923 577.787V623.5L131.573 646.392L171.223 623.5Z" stroke="#D83B01" stroke-opacity="0.03" stroke-width="5" stroke-miterlimit="10"/>
<path d="M250.452 623.5V577.787L210.873 554.895L171.223 577.787V623.5L210.873 646.392L250.452 623.5Z" stroke="#D83B01" stroke-opacity="0.03" stroke-width="5" stroke-miterlimit="10"/>
<path d="M329.753 623.5V577.787L290.103 554.895L250.452 577.787V623.5L290.103 646.392L329.753 623.5Z" stroke="#D83B01" stroke-opacity="0.03" stroke-width="5" stroke-miterlimit="10"/>
<path d="M408.982 623.5V577.787L369.403 554.895L329.753 577.787V623.5L369.403 646.392L408.982 623.5Z" stroke="#D83B01" stroke-opacity="0.03" stroke-width="5" stroke-miterlimit="10"/>
<path d="M488.282 623.5V577.787L448.632 554.895L408.982 577.787V623.5L448.632 646.392L488.282 623.5Z" stroke="#D83B01" stroke-opacity="0.03" stroke-width="5" stroke-miterlimit="10"/>
<path d="M567.511 623.5V577.787L527.932 554.895L488.282 577.787V623.5L527.932 646.392L567.511 623.5Z" stroke="#D83B01" stroke-opacity="0.03" stroke-width="5" stroke-miterlimit="10"/>
<path d="M646.812 623.5V577.787L607.161 554.895L567.511 577.787V623.5L607.161 646.392L646.812 623.5Z" stroke="#D83B01" stroke-opacity="0.03" stroke-width="5" stroke-miterlimit="10"/>
<path d="M726.041 623.5V577.787L686.462 554.895L646.812 577.787V623.5L686.462 646.392L726.041 623.5Z" stroke="#D83B01" stroke-opacity="0.03" stroke-width="5" stroke-miterlimit="10"/>
<path d="M805.341 623.5V577.787L765.691 554.895L726.041 577.787V623.5L765.691 646.392L805.341 623.5Z" stroke="#D83B01" stroke-opacity="0.03" stroke-width="5" stroke-miterlimit="10"/>
<path d="M884.57 623.5V577.787L844.991 554.895L805.341 577.787V623.5L844.991 646.392L884.57 623.5Z" stroke="#D83B01" stroke-opacity="0.03" stroke-width="5" stroke-miterlimit="10"/>
<path d="M963.87 623.5V577.787L924.22 554.895L884.57 577.787V623.5L924.22 646.392L963.87 623.5Z" stroke="#D83B01" stroke-opacity="0.03" stroke-width="5" stroke-miterlimit="10"/>
<path d="M1043.1 623.5V577.787L1003.52 554.895L963.87 577.787V623.5L1003.52 646.392L1043.1 623.5Z" stroke="#D83B01" stroke-opacity="0.03" stroke-width="5" stroke-miterlimit="10"/>
<path d="M1122.4 623.5V577.787L1082.75 554.895L1043.1 577.787V623.5L1082.75 646.392L1122.4 623.5Z" stroke="#D83B01" stroke-opacity="0.03" stroke-width="5" stroke-miterlimit="10"/>
<path d="M1201.63 623.5V577.787L1162.05 554.895L1122.4 577.787V623.5L1162.05 646.392L1201.63 623.5Z" stroke="#D83B01" stroke-opacity="0.03" stroke-width="5" stroke-miterlimit="10"/>
<path d="M1280.93 623.5V577.787L1241.28 554.895L1201.63 577.787V623.5L1241.28 646.392L1280.93 623.5Z" stroke="#D83B01" stroke-opacity="0.03" stroke-width="5" stroke-miterlimit="10"/>
<path d="M1360.16 623.5V577.787L1320.51 554.895L1280.93 577.787V623.5L1320.51 646.392L1360.16 623.5Z" stroke="#D83B01" stroke-opacity="0.03" stroke-width="5" stroke-miterlimit="10"/>
<path d="M52.3441 692.39V646.606L12.6939 623.785L-26.9563 646.606V692.39L12.6939 715.282L52.3441 692.39Z" stroke="#D83B01" stroke-opacity="0.03" stroke-width="5" stroke-miterlimit="10"/>
<path d="M131.573 692.39V646.606L91.923 623.785L52.3441 646.606V692.39L91.923 715.282L131.573 692.39Z" stroke="#D83B01" stroke-opacity="0.03" stroke-width="5" stroke-miterlimit="10"/>
<path d="M210.874 692.39V646.606L171.223 623.785L131.573 646.606V692.39L171.223 715.282L210.874 692.39Z" stroke="#D83B01" stroke-opacity="0.03" stroke-width="5" stroke-miterlimit="10"/>
<path d="M290.103 692.39V646.606L250.452 623.785L210.874 646.606V692.39L250.452 715.282L290.103 692.39Z" stroke="#D83B01" stroke-opacity="0.03" stroke-width="5" stroke-miterlimit="10"/>
<path d="M369.403 692.39V646.606L329.753 623.785L290.103 646.606V692.39L329.753 715.282L369.403 692.39Z" stroke="#D83B01" stroke-opacity="0.03" stroke-width="5" stroke-miterlimit="10"/>
<path d="M448.632 692.39V646.606L408.982 623.785L369.403 646.606V692.39L408.982 715.282L448.632 692.39Z" stroke="#D83B01" stroke-opacity="0.03" stroke-width="5" stroke-miterlimit="10"/>
<path d="M527.932 692.39V646.606L488.282 623.785L448.632 646.606V692.39L488.282 715.282L527.932 692.39Z" stroke="#D83B01" stroke-opacity="0.03" stroke-width="5" stroke-miterlimit="10"/>
<path d="M607.161 692.39V646.606L567.511 623.785L527.932 646.606V692.39L567.511 715.282L607.161 692.39Z" stroke="#D83B01" stroke-opacity="0.03" stroke-width="5" stroke-miterlimit="10"/>
<path d="M686.462 692.39V646.606L646.812 623.785L607.161 646.606V692.39L646.812 715.282L686.462 692.39Z" stroke="#D83B01" stroke-opacity="0.03" stroke-width="5" stroke-miterlimit="10"/>
<path d="M765.691 692.39V646.606L726.041 623.785L686.462 646.606V692.39L726.041 715.282L765.691 692.39Z" stroke="#D83B01" stroke-opacity="0.03" stroke-width="5" stroke-miterlimit="10"/>
<path d="M844.991 692.39V646.606L805.341 623.785L765.691 646.606V692.39L805.341 715.282L844.991 692.39Z" stroke="#D83B01" stroke-opacity="0.03" stroke-width="5" stroke-miterlimit="10"/>
<path d="M924.22 692.39V646.606L884.57 623.785L844.991 646.606V692.39L884.57 715.282L924.22 692.39Z" stroke="#D83B01" stroke-opacity="0.03" stroke-width="5" stroke-miterlimit="10"/>
<path d="M1003.52 692.39V646.606L963.87 623.785L924.22 646.606V692.39L963.87 715.282L1003.52 692.39Z" stroke="#D83B01" stroke-opacity="0.03" stroke-width="5" stroke-miterlimit="10"/>
<path d="M1082.75 692.39V646.606L1043.1 623.785L1003.52 646.606V692.39L1043.1 715.282L1082.75 692.39Z" stroke="#D83B01" stroke-opacity="0.03" stroke-width="5" stroke-miterlimit="10"/>
<path d="M1162.05 692.39V646.606L1122.4 623.785L1082.75 646.606V692.39L1122.4 715.282L1162.05 692.39Z" stroke="#D83B01" stroke-opacity="0.03" stroke-width="5" stroke-miterlimit="10"/>
<path d="M1241.28 692.39V646.606L1201.63 623.785L1162.05 646.606V692.39L1201.63 715.282L1241.28 692.39Z" stroke="#D83B01" stroke-opacity="0.03" stroke-width="5" stroke-miterlimit="10"/>
<path d="M1320.58 692.39V646.606L1280.93 623.785L1241.28 646.606V692.39L1280.93 715.282L1320.58 692.39Z" stroke="#D83B01" stroke-opacity="0.03" stroke-width="5" stroke-miterlimit="10"/>
<path opacity="0.77" d="M250.524 72.5919V26.8077L210.945 3.91556L171.295 26.8077V72.5919L210.945 95.484L250.524 72.5919Z" stroke="#D83B01" stroke-opacity="0.03" stroke-width="5" stroke-miterlimit="10"/>
<path opacity="0.77" d="M290.174 95.484L329.824 72.5919V26.8077L290.174 3.91556L250.524 26.8077V72.5919L290.174 95.484Z" stroke="#D83B01" stroke-opacity="0.03" stroke-width="5" stroke-miterlimit="10"/>
<path opacity="0.77" d="M369.403 95.484L409.053 72.5919V26.8077L369.403 3.91556L329.824 26.8077V72.5919L369.403 95.484Z" stroke="#D83B01" stroke-opacity="0.03" stroke-width="5" stroke-miterlimit="10"/>
<path opacity="0.77" d="M448.703 95.484L488.354 72.5919V26.8077L448.703 3.91556L409.053 26.8077V72.5919L448.703 95.484Z" stroke="#D83B01" stroke-opacity="0.03" stroke-width="5" stroke-miterlimit="10"/>
<path opacity="0.77" d="M527.932 95.484L567.583 72.5919V26.8077L527.932 3.91556L488.354 26.8077V72.5919L527.932 95.484Z" stroke="#D83B01" stroke-opacity="0.03" stroke-width="5" stroke-miterlimit="10"/>
<path opacity="0.77" d="M607.233 95.484L646.883 72.5919V26.8077L607.233 3.91556L567.583 26.8077V72.5919L607.233 95.484Z" stroke="#D83B01" stroke-opacity="0.03" stroke-width="5" stroke-miterlimit="10"/>
<path opacity="0.77" d="M686.462 95.484L726.112 72.5919V26.8077L686.462 3.91556L646.883 26.8077V72.5919L686.462 95.484Z" stroke="#D83B01" stroke-opacity="0.03" stroke-width="5" stroke-miterlimit="10"/>
<path opacity="0.77" d="M765.762 95.484L805.412 72.5919V26.8077L765.762 3.91556L726.112 26.8077V72.5919L765.762 95.484Z" stroke="#D83B01" stroke-opacity="0.03" stroke-width="5" stroke-miterlimit="10"/>
<path opacity="0.77" d="M171.295 72.8058L131.644 95.6979V141.482L171.295 164.303L210.945 141.482V95.6979L171.295 72.8058Z" stroke="#D83B01" stroke-opacity="0.03" stroke-width="5" stroke-miterlimit="10"/>
<path opacity="0.77" d="M250.524 72.8058L210.945 95.6979V141.482L250.524 164.303L290.174 141.482V95.6979L250.524 72.8058Z" stroke="#D83B01" stroke-opacity="0.03" stroke-width="5" stroke-miterlimit="10"/>
<path opacity="0.77" d="M329.824 72.8058L290.174 95.6979V141.482L329.824 164.303L369.403 141.482V95.6979L329.824 72.8058Z" stroke="#D83B01" stroke-opacity="0.03" stroke-width="5" stroke-miterlimit="10"/>
<path opacity="0.77" d="M409.053 72.8058L369.403 95.6979V141.482L409.053 164.303L448.703 141.482V95.6979L409.053 72.8058Z" stroke="#D83B01" stroke-opacity="0.03" stroke-width="5" stroke-miterlimit="10"/>
<path opacity="0.77" d="M488.354 72.8058L448.703 95.6979V141.482L488.354 164.303L527.932 141.482V95.6979L488.354 72.8058Z" stroke="#D83B01" stroke-opacity="0.03" stroke-width="5" stroke-miterlimit="10"/>
<path opacity="0.77" d="M567.583 72.8058L527.932 95.6979V141.482L567.583 164.303L607.233 141.482V95.6979L567.583 72.8058Z" stroke="#D83B01" stroke-opacity="0.03" stroke-width="5" stroke-miterlimit="10"/>
<path opacity="0.77" d="M646.883 72.8058L607.233 95.6979V141.482L646.883 164.303L686.462 141.482V95.6979L646.883 72.8058Z" stroke="#D83B01" stroke-opacity="0.03" stroke-width="5" stroke-miterlimit="10"/>
<path opacity="0.77" d="M726.112 72.8058L686.462 95.6979V141.482L726.112 164.303L765.762 141.482V95.6979L726.112 72.8058Z" stroke="#D83B01" stroke-opacity="0.03" stroke-width="5" stroke-miterlimit="10"/>
<path opacity="0.77" d="M131.644 141.696L91.9943 164.588V210.301L131.644 233.193L171.295 210.301V164.588L131.644 141.696Z" stroke="#D83B01" stroke-opacity="0.03" stroke-width="5" stroke-miterlimit="10"/>
<path opacity="0.77" d="M210.945 141.696L171.295 164.588V210.301L210.945 233.193L250.524 210.301V164.588L210.945 141.696Z" stroke="#D83B01" stroke-opacity="0.03" stroke-width="5" stroke-miterlimit="10"/>
<path opacity="0.77" d="M290.174 141.696L250.524 164.588V210.301L290.174 233.193L329.824 210.301V164.588L290.174 141.696Z" stroke="#D83B01" stroke-opacity="0.03" stroke-width="5" stroke-miterlimit="10"/>
<path opacity="0.77" d="M369.403 141.696L329.824 164.588V210.301L369.403 233.193L409.053 210.301V164.588L369.403 141.696Z" stroke="#D83B01" stroke-opacity="0.03" stroke-width="5" stroke-miterlimit="10"/>
<path opacity="0.77" d="M448.703 141.696L409.053 164.588V210.301L448.703 233.193L488.354 210.301V164.588L448.703 141.696Z" stroke="#D83B01" stroke-opacity="0.03" stroke-width="5" stroke-miterlimit="10"/>
<path opacity="0.77" d="M527.932 141.696L488.354 164.588V210.301L527.932 233.193L567.583 210.301V164.588L527.932 141.696Z" stroke="#D83B01" stroke-opacity="0.03" stroke-width="5" stroke-miterlimit="10"/>
<path opacity="0.77" d="M607.233 141.696L567.583 164.588V210.301L607.233 233.193L646.883 210.301V164.588L607.233 141.696Z" stroke="#D83B01" stroke-opacity="0.03" stroke-width="5" stroke-miterlimit="10"/>
<path opacity="0.77" d="M726.112 164.588L686.462 141.696L646.883 164.588V210.301L686.462 233.193" stroke="#D83B01" stroke-opacity="0.03" stroke-width="5" stroke-miterlimit="10"/>
<path opacity="0.77" d="M805.412 164.588L765.762 141.696L726.112 164.588" stroke="#D83B01" stroke-opacity="0.03" stroke-width="5" stroke-miterlimit="10"/>
<path opacity="0.77" d="M91.9943 210.586L52.4154 233.407V279.191L91.9943 302.084L131.644 279.191V233.407L91.9943 210.586Z" stroke="#D83B01" stroke-opacity="0.03" stroke-width="5" stroke-miterlimit="10"/>
<path opacity="0.77" d="M171.295 210.586L131.644 233.407V279.191L171.295 302.084L210.945 279.191V233.407L171.295 210.586Z" stroke="#D83B01" stroke-opacity="0.03" stroke-width="5" stroke-miterlimit="10"/>
<path opacity="0.77" d="M250.524 210.586L210.945 233.407V279.191L250.524 302.084L290.174 279.191V233.407L250.524 210.586Z" stroke="#D83B01" stroke-opacity="0.03" stroke-width="5" stroke-miterlimit="10"/>
<path opacity="0.77" d="M329.824 210.586L290.174 233.407V279.191L329.824 302.084L369.403 279.191V233.407L329.824 210.586Z" stroke="#D83B01" stroke-opacity="0.03" stroke-width="5" stroke-miterlimit="10"/>
<path opacity="0.77" d="M409.053 210.586L369.403 233.407V279.191L409.053 302.084L448.703 279.191V233.407L409.053 210.586Z" stroke="#D83B01" stroke-opacity="0.03" stroke-width="5" stroke-miterlimit="10"/>
<path opacity="0.77" d="M488.354 210.586L448.703 233.407V279.191L488.354 302.084L527.932 279.191V233.407L488.354 210.586Z" stroke="#D83B01" stroke-opacity="0.03" stroke-width="5" stroke-miterlimit="10"/>
<path opacity="0.77" d="M607.233 233.407L567.583 210.586L527.932 233.407V279.191L567.583 302.084" stroke="#D83B01" stroke-opacity="0.03" stroke-width="5" stroke-miterlimit="10"/>
<path opacity="0.77" d="M52.4154 279.405L12.7652 302.297V348.082L52.4154 370.974L91.9943 348.082V302.297L52.4154 279.405Z" stroke="#D83B01" stroke-opacity="0.03" stroke-width="5" stroke-miterlimit="10"/>
<path opacity="0.77" d="M131.644 279.405L91.9943 302.297V348.082L131.644 370.974L171.295 348.082V302.297L131.644 279.405Z" stroke="#D83B01" stroke-opacity="0.03" stroke-width="5" stroke-miterlimit="10"/>
<path opacity="0.77" d="M210.945 279.405L171.295 302.297V348.082L210.945 370.974L250.524 348.082V302.297L210.945 279.405Z" stroke="#D83B01" stroke-opacity="0.03" stroke-width="5" stroke-miterlimit="10"/>
<path opacity="0.77" d="M290.174 279.405L250.524 302.297V348.082L290.174 370.974L329.824 348.082V302.297L290.174 279.405Z" stroke="#D83B01" stroke-opacity="0.03" stroke-width="5" stroke-miterlimit="10"/>
<path opacity="0.77" d="M369.403 279.405L329.824 302.297V348.082L369.403 370.974L409.053 348.082V302.297L369.403 279.405Z" stroke="#D83B01" stroke-opacity="0.03" stroke-width="5" stroke-miterlimit="10"/>
<path opacity="0.77" d="M448.703 279.405L409.053 302.297V348.082L448.703 370.974L488.354 348.082V302.297L448.703 279.405Z" stroke="#D83B01" stroke-opacity="0.03" stroke-width="5" stroke-miterlimit="10"/>
<path opacity="0.77" d="M488.354 302.297V348.082L527.932 370.974L567.583 348.082" stroke="#D83B01" stroke-opacity="0.03" stroke-width="5" stroke-miterlimit="10"/>
<path opacity="0.77" d="M12.7652 348.296L-26.8849 371.188V416.972L12.7652 439.864L52.4154 416.972V371.188L12.7652 348.296Z" stroke="#D83B01" stroke-opacity="0.03" stroke-width="5" stroke-miterlimit="10"/>
<path opacity="0.77" d="M91.9943 348.296L52.4154 371.188V416.972L91.9943 439.864L131.644 416.972V371.188L91.9943 348.296Z" stroke="#D83B01" stroke-opacity="0.03" stroke-width="5" stroke-miterlimit="10"/>
<path opacity="0.77" d="M171.295 348.296L131.644 371.188V416.972L171.295 439.864L210.945 416.972V371.188L171.295 348.296Z" stroke="#D83B01" stroke-opacity="0.03" stroke-width="5" stroke-miterlimit="10"/>
<path opacity="0.77" d="M250.524 348.296L210.945 371.188V416.972L250.524 439.864L290.174 416.972V371.188L250.524 348.296Z" stroke="#D83B01" stroke-opacity="0.03" stroke-width="5" stroke-miterlimit="10"/>
<path opacity="0.77" d="M369.403 416.972V371.188L329.824 348.296L290.174 371.188V416.972" stroke="#D83B01" stroke-opacity="0.03" stroke-width="5" stroke-miterlimit="10"/>
<path opacity="0.77" d="M448.703 416.972V371.188L409.053 348.296L369.403 371.188" stroke="#D83B01" stroke-opacity="0.03" stroke-width="5" stroke-miterlimit="10"/>
<path opacity="0.77" d="M527.932 416.972V371.188L488.354 348.296L448.703 371.188" stroke="#D83B01" stroke-opacity="0.03" stroke-width="5" stroke-miterlimit="10"/>
<path opacity="0.77" d="M607.233 371.188L567.583 348.296L527.932 371.188V416.972" stroke="#D83B01" stroke-opacity="0.03" stroke-width="5" stroke-miterlimit="10"/>
<path d="M-26.885 417.186L-66.5351 440.078V485.791L-26.885 508.683L12.7652 485.791V440.078L-26.885 417.186Z" stroke="#D83B01" stroke-opacity="0.03" stroke-width="5" stroke-miterlimit="10"/>
<path opacity="0.77" d="M52.4154 417.186L12.7652 440.078V485.791L52.4154 508.683L91.9943 485.791V440.078L52.4154 417.186Z" stroke="#D83B01" stroke-opacity="0.03" stroke-width="5" stroke-miterlimit="10"/>
<path opacity="0.77" d="M131.644 417.186L91.9943 440.078V485.791L131.644 508.683L171.295 485.791V440.078L131.644 417.186Z" stroke="#D83B01" stroke-opacity="0.03" stroke-width="5" stroke-miterlimit="10"/>
<path opacity="0.77" d="M210.945 417.186L171.295 440.078V485.791L210.945 508.683L250.524 485.791V440.078L210.945 417.186Z" stroke="#D83B01" stroke-opacity="0.03" stroke-width="5" stroke-miterlimit="10"/>
<path opacity="0.77" d="M12.7652 486.076L-26.8849 508.968V554.681L12.7652 577.573L52.4154 554.681V508.968L12.7652 486.076Z" stroke="#D83B01" stroke-opacity="0.03" stroke-width="5" stroke-miterlimit="10"/>
<path opacity="0.77" d="M91.9943 486.076L52.4154 508.968V554.681L91.9943 577.573L131.644 554.681V508.968L91.9943 486.076Z" stroke="#D83B01" stroke-opacity="0.03" stroke-width="5" stroke-miterlimit="10"/>
<path opacity="0.77" d="M171.295 486.076L131.644 508.968V554.681L171.295 577.573L210.945 554.681V508.968L171.295 486.076Z" stroke="#D83B01" stroke-opacity="0.03" stroke-width="5" stroke-miterlimit="10"/>
<path d="M12.7652 577.787L-26.885 554.966L-66.5351 577.787V623.571L-26.885 646.464L12.7652 623.571V577.787Z" stroke="#D83B01" stroke-opacity="0.03" stroke-width="5" stroke-miterlimit="10"/>
<path opacity="0.77" d="M52.4154 646.464L91.9943 623.571V577.787L52.4154 554.966L12.7652 577.787V623.571L52.4154 646.464Z" stroke="#D83B01" stroke-opacity="0.03" stroke-width="5" stroke-miterlimit="10"/>
<path opacity="0.77" d="M131.644 646.464L171.295 623.571V577.787L131.644 554.966L91.9943 577.787V623.571L131.644 646.464Z" stroke="#D83B01" stroke-opacity="0.03" stroke-width="5" stroke-miterlimit="10"/>
<path opacity="0.77" d="M210.945 646.464L250.524 623.571V577.787L210.945 554.966L171.295 577.787V623.571L210.945 646.464Z" stroke="#D83B01" stroke-opacity="0.03" stroke-width="5" stroke-miterlimit="10"/>
<path opacity="0.77" d="M12.7652 623.785L-26.8849 646.677V692.462L12.7652 715.354L52.4154 692.462V646.677L12.7652 623.785Z" stroke="#D83B01" stroke-opacity="0.03" stroke-width="5" stroke-miterlimit="10"/>
<path opacity="0.77" d="M91.9943 623.785L52.4154 646.677V692.462L91.9943 715.354L131.644 692.462V646.677L91.9943 623.785Z" stroke="#D83B01" stroke-opacity="0.03" stroke-width="5" stroke-miterlimit="10"/>
<path opacity="0.77" d="M171.295 623.785L131.644 646.677V692.462L171.295 715.354L210.945 692.462V646.677L171.295 623.785Z" stroke="#D83B01" stroke-opacity="0.03" stroke-width="5" stroke-miterlimit="10"/>
<path opacity="0.77" d="M210.945 646.677V692.462L250.524 715.354L290.174 692.462V646.677L250.524 623.785L210.945 646.677Z" stroke="#D83B01" stroke-opacity="0.03" stroke-width="5" stroke-miterlimit="10"/>
<path opacity="0.77" d="M290.174 646.677V692.462L329.824 715.354L369.403 692.462V646.677L329.824 623.785L290.174 646.677Z" stroke="#D83B01" stroke-opacity="0.03" stroke-width="5" stroke-miterlimit="10"/>
<path d="M1479.11 3.91556L1439.53 26.8077V72.5919L1479.11 95.484L1491.8 88.1386V11.1897L1479.11 3.91556Z" stroke="#D83B01" stroke-opacity="0.03" stroke-width="5" stroke-miterlimit="10"/>
</svg>
