<svg width="34" height="34" viewBox="0 0 34 34" fill="none" xmlns="http://www.w3.org/2000/svg">
<path d="M33 17C33 25.8365 25.8366 32.9999 17 32.9999C8.16344 32.9999 1 25.8365 1 17C1 8.16343 8.16344 1 17 1C25.8366 1 33 8.16343 33 17Z" stroke="black" stroke-width="2"/>
<g clip-path="url(#clip0_706_537)">
<path d="M21.1667 7.74707H18.6667C17.5616 7.74707 16.5018 8.20715 15.7204 9.02609C14.939 9.84504 14.5 10.9558 14.5 12.1139V14.734H12V18.2275H14.5V25.2145H17.8333V18.2275H20.3333L21.1667 14.734H17.8333V12.1139C17.8333 11.8823 17.9211 11.6601 18.0774 11.4964C18.2337 11.3326 18.4457 11.2406 18.6667 11.2406H21.1667V7.74707Z" stroke="black" stroke-width="1.5" stroke-linecap="round" stroke-linejoin="round"/>
</g>
<defs>
<clipPath id="clip0_706_537">
<rect width="20" height="20" fill="white" transform="translate(7 7)"/>
</clipPath>
</defs>
</svg>
