<svg xmlns="http://www.w3.org/2000/svg" width="35" height="35" fill="none"><path stroke="#494948" stroke-width="1.5" d="M34.25 17.5c0 9.2507-7.4992 16.7499-16.75 16.7499S.75 26.7507.75 17.5C.75 8.2492 8.2492.75 17.5.75S34.25 8.2492 34.25 17.5Z"/><g clip-path="url(#a)"><path stroke="#494948" stroke-linecap="round" stroke-linejoin="round" d="M21 7.9531h-2.3981c-1.06 0-2.0766.4414-2.8261 1.2269-.7496.7856-1.1707 1.851-1.1707 2.962v2.5133H12.207v3.351h2.3981v6.7021h3.1975v-6.7021h2.398L21 14.6553h-3.1974V12.142c0-.2222.0842-.4353.2341-.5924.1499-.1571.3532-.2454.5652-.2454H21v-3.351Z"/></g><defs><clipPath id="a"><path fill="#fff" d="M7.207 7.206h20.5882v20.5883H7.207z"/></clipPath></defs></svg>