<svg width="34" height="34" viewBox="0 0 34 34" fill="none" xmlns="http://www.w3.org/2000/svg">
<path d="M33 17C33 25.8365 25.8366 32.9999 17 32.9999C8.16344 32.9999 1 25.8365 1 17C1 8.16343 8.16344 1 17 1C25.8366 1 33 8.16343 33 17Z" stroke="black" stroke-width="2"/>
<path d="M12.2785 10.8965C13.086 10.8965 13.7406 10.2448 13.7406 9.44091C13.7406 8.63703 13.086 7.98535 12.2785 7.98535C11.471 7.98535 10.8164 8.63703 10.8164 9.44091C10.8164 10.2448 11.471 10.8965 12.2785 10.8965Z" stroke="black" stroke-width="1.2"/>
<path d="M10.8164 13.0801H13.7406V22.1787H10.8164V13.0801Z" stroke="black" stroke-width="1.2" stroke-linejoin="round"/>
<path d="M16.665 16.5376V22.1787H19.2237V17.0835C19.2237 16.1736 19.772 15.4457 20.6859 15.4457C21.5997 15.4457 22.148 16.3556 22.148 17.0835V22.1787H24.7067V16.5376C24.7067 15.4457 23.4273 13.0801 20.6859 13.0801C17.9444 13.0801 16.665 15.4457 16.665 16.5376Z" stroke="black" stroke-width="1.2" stroke-linejoin="round"/>
</svg>
