<svg xmlns="http://www.w3.org/2000/svg" width="36" height="35" fill="none"><path stroke="#494948" stroke-width="1.5" d="M34.5312 17.5c0 9.2507-7.4992 16.7499-16.75 16.7499-9.2507 0-16.75-7.4992-16.75-16.7499 0-9.2508 7.4993-16.75 16.75-16.75 9.2508 0 16.75 7.4992 16.75 16.75Z"/><path stroke="#494948" d="M12.9231 11.2165c.8312 0 1.5051-.6709 1.5051-1.4984 0-.8275-.6739-1.4984-1.5051-1.4984-.8313 0-1.5051.6709-1.5051 1.4984 0 .8275.6738 1.4984 1.5051 1.4984Z"/><path stroke="#494948" stroke-linejoin="round" d="M11.418 13.4639h3.0102v9.3662H11.418v-9.3662Zm6.0175 3.5591v5.8071h2.634V17.585c0-.9366.5644-1.6859 1.5051-1.6859.9407 0 1.5051.9366 1.5051 1.6859v5.2451h2.634V17.023c0-1.1239-1.317-3.5591-4.1391-3.5591s-4.1391 2.4352-4.1391 3.5591Z"/></svg>