<svg width="34" height="34" viewBox="0 0 34 34" fill="none" xmlns="http://www.w3.org/2000/svg">
<path d="M33 17C33 25.8365 25.8366 32.9999 17 32.9999C8.16344 32.9999 1 25.8365 1 17C1 8.16343 8.16344 1 17 1C25.8366 1 33 8.16343 33 17Z" stroke="black" stroke-width="2"/>
<mask id="path-2-inside-1_706_554" fill="white">
<path d="M14.2275 23.7855C15.459 23.8255 16.6862 23.6254 17.8366 23.1969C18.987 22.7685 20.0374 22.1205 20.9255 21.2911C21.8137 20.4617 22.5216 19.4679 23.0075 18.3682C23.4934 17.2686 23.7475 16.0856 23.7546 14.889C24.3189 14.2108 24.7379 13.4298 24.9871 12.5921C25.0057 12.5259 25.0042 12.4559 24.9828 12.3905C24.9613 12.3251 24.9209 12.2672 24.8664 12.2236C24.8118 12.18 24.7454 12.1526 24.6752 12.1448C24.6051 12.137 24.534 12.1491 24.4708 12.1796C24.1755 12.3176 23.8431 12.3622 23.5204 12.3071C23.1977 12.2519 22.9009 12.0999 22.6719 11.8723C22.3796 11.5614 22.026 11.3106 21.632 11.1348C21.238 10.9591 20.8118 10.8619 20.3784 10.8491C19.9451 10.8363 19.5135 10.9081 19.1092 11.0602C18.705 11.2123 18.3363 11.4417 18.025 11.7348C17.5988 12.1357 17.2866 12.6368 17.1188 13.1895C16.951 13.7422 16.9332 14.3277 17.0673 14.889C14.2775 15.0507 12.3621 13.7648 10.8298 12.0017C10.7837 11.951 10.7235 11.9145 10.6565 11.8966C10.5894 11.8786 10.5184 11.8801 10.4522 11.9006C10.386 11.9212 10.3273 11.9601 10.2835 12.0125C10.2396 12.0649 10.2124 12.1286 10.2052 12.1958C9.91326 13.7684 10.1238 15.3901 10.8086 16.843C11.4934 18.296 12.6196 19.5107 14.036 20.3239C13.0863 21.3817 11.7527 22.0423 10.3134 22.1679C10.2363 22.1804 10.1652 22.2159 10.1099 22.2695C10.0546 22.3232 10.0179 22.3923 10.0051 22.4672C9.99225 22.542 10.0038 22.6189 10.0382 22.6871C10.0726 22.7553 10.1281 22.8113 10.1969 22.8473C11.449 23.455 12.8278 23.7759 14.2275 23.7855"/>
</mask>
<path d="M23.7546 14.889L22.6015 13.9296L22.2578 14.3427L22.2546 14.8801L23.7546 14.889ZM24.9871 12.5921L26.4248 13.0196L26.4281 13.0088L26.4312 12.9978L24.9871 12.5921ZM24.4708 12.1796L25.106 13.5384L25.1139 13.5348L25.1217 13.531L24.4708 12.1796ZM22.6719 11.8723L21.5792 12.8998L21.5966 12.9183L21.6146 12.9362L22.6719 11.8723ZM18.025 11.7348L19.0527 12.8274L19.0532 12.827L18.025 11.7348ZM17.0673 14.889L17.1541 16.3865L18.9424 16.2828L18.5263 14.5405L17.0673 14.889ZM10.8298 12.0017L11.9619 11.0177L11.9509 11.005L11.9396 10.9926L10.8298 12.0017ZM10.2052 12.1958L11.68 12.4695L11.6905 12.4131L11.6966 12.356L10.2052 12.1958ZM14.036 20.3239L15.1521 21.3261L16.3908 19.9464L14.7829 19.0231L14.036 20.3239ZM10.3134 22.1679L10.183 20.6736L10.1287 20.6784L10.0749 20.687L10.3134 22.1679ZM10.1969 22.8473L9.50084 24.1761L9.52122 24.1867L9.54192 24.1968L10.1969 22.8473ZM14.1788 25.2847C15.6045 25.331 17.0261 25.0994 18.3601 24.6026L17.3131 21.7913C16.3462 22.1514 15.3134 22.32 14.2762 22.2863L14.1788 25.2847ZM18.3601 24.6026C19.6941 24.1058 20.9149 23.3533 21.9493 22.3874L19.9017 20.1948C19.1598 20.8876 18.2799 21.4312 17.3131 21.7913L18.3601 24.6026ZM21.9493 22.3874C22.9837 21.4214 23.8109 20.2614 24.3795 18.9745L21.6355 17.762C21.2323 18.6743 20.6436 19.502 19.9017 20.1948L21.9493 22.3874ZM24.3795 18.9745C24.9482 17.6876 25.2462 16.3013 25.2545 14.8979L22.2546 14.8801C22.2487 15.8699 22.0386 16.8497 21.6355 17.762L24.3795 18.9745ZM24.9076 15.8484C25.6006 15.0155 26.1172 14.054 26.4248 13.0196L23.5493 12.1645C23.3586 12.8056 23.0372 13.406 22.6015 13.9296L24.9076 15.8484ZM26.4312 12.9978C26.5303 12.6451 26.5222 12.2713 26.4082 11.9235L23.5573 12.8575C23.4862 12.6404 23.4811 12.4067 23.543 12.1863L26.4312 12.9978ZM26.4082 11.9235C26.2944 11.5761 26.0817 11.2746 25.8026 11.0516L23.9301 13.3955C23.7601 13.2597 23.6283 13.0741 23.5573 12.8575L26.4082 11.9235ZM25.8026 11.0516C25.5238 10.8289 25.1896 10.6928 24.8409 10.654L24.5095 13.6357C24.3013 13.6125 24.0997 13.531 23.9301 13.3955L25.8026 11.0516ZM24.8409 10.654C24.4924 10.6153 24.1382 10.6748 23.8198 10.8282L25.1217 13.531C24.9299 13.6234 24.7177 13.6588 24.5095 13.6357L24.8409 10.654ZM23.8355 10.8208C23.8185 10.8287 23.796 10.8324 23.773 10.8285L23.2678 13.7856C23.8903 13.892 24.5326 13.8065 25.106 13.5384L23.8355 10.8208ZM23.773 10.8285C23.7503 10.8246 23.7359 10.8149 23.7293 10.8083L21.6146 12.9362C22.066 13.3848 22.6451 13.6793 23.2678 13.7856L23.773 10.8285ZM23.7647 10.8447C23.3346 10.3873 22.8167 10.0209 22.2431 9.76498L21.0209 12.5047C21.2352 12.6003 21.4246 12.7354 21.5792 12.8998L23.7647 10.8447ZM22.2431 9.76498C21.6696 9.50912 21.0507 9.36835 20.4228 9.34977L20.3341 12.3485C20.5728 12.3555 20.8065 12.4091 21.0209 12.5047L22.2431 9.76498ZM20.4228 9.34977C19.7949 9.33119 19.1687 9.43512 18.5809 9.65633L19.6376 12.4641C19.8583 12.381 20.0953 12.3414 20.3341 12.3485L20.4228 9.34977ZM18.5809 9.65633C17.9931 9.87756 17.454 10.2122 16.9968 10.6426L19.0532 12.827C19.2186 12.6713 19.4169 12.5471 19.6376 12.4641L18.5809 9.65633ZM16.9973 10.6421C16.3828 11.2201 15.9285 11.9468 15.6835 12.7537L18.5541 13.6253C18.6447 13.3268 18.8148 13.0512 19.0527 12.8274L16.9973 10.6421ZM15.6835 12.7537C15.4384 13.5609 15.4124 14.417 15.6083 15.2375L18.5263 14.5405C18.4541 14.2383 18.4635 13.9235 18.5541 13.6253L15.6835 12.7537ZM16.9805 13.3915C14.8074 13.5175 13.3063 12.5646 11.9619 11.0177L9.69759 12.9856C11.4179 14.965 13.7475 16.584 17.1541 16.3865L16.9805 13.3915ZM11.9396 10.9926C11.6971 10.7259 11.3849 10.5387 11.0442 10.4476L10.2687 13.3456C10.0621 13.2903 9.87036 13.1762 9.71994 13.0108L11.9396 10.9926ZM11.0442 10.4476C10.7037 10.3565 10.344 10.3635 10.007 10.4682L10.8974 13.3331C10.6929 13.3966 10.4751 13.4008 10.2687 13.3456L11.0442 10.4476ZM10.007 10.4682C9.66987 10.573 9.36498 10.7728 9.1332 11.0498L11.4337 12.9753C11.2897 13.1474 11.1021 13.2694 10.8974 13.3331L10.007 10.4682ZM9.1332 11.0498C8.90101 11.3272 8.7531 11.6694 8.71376 12.0356L11.6966 12.356C11.6717 12.5878 11.5782 12.8027 11.4337 12.9753L9.1332 11.0498ZM8.73037 11.922C8.38079 13.8053 8.63351 15.7463 9.45177 17.4825L12.1655 16.2036C11.6142 15.0338 11.4457 13.7315 11.68 12.4695L8.73037 11.922ZM9.45177 17.4825C10.2698 19.2181 11.6113 20.6614 13.2891 21.6248L14.7829 19.0231C13.6279 18.36 12.7171 17.3739 12.1655 16.2036L9.45177 17.4825ZM12.9198 19.3218C12.229 20.0913 11.25 20.5805 10.183 20.6736L10.4439 23.6623C12.2553 23.5041 13.9436 22.672 15.1521 21.3261L12.9198 19.3218ZM10.0749 20.687C9.69847 20.7477 9.34463 20.922 9.06527 21.1931L11.1545 23.346C10.9857 23.5098 10.7742 23.6131 10.552 23.6489L10.0749 20.687ZM9.06527 21.1931C8.78533 21.4647 8.59414 21.8206 8.52671 22.2134L11.4835 22.7209C11.4418 22.964 11.3238 23.1817 11.1545 23.346L9.06527 21.1931ZM8.52671 22.2134C8.45923 22.6067 8.52064 23.0092 8.69894 23.3626L11.3775 22.0116C11.487 22.2287 11.5253 22.4774 11.4835 22.7209L8.52671 22.2134ZM8.69894 23.3626C8.87689 23.7154 9.15982 23.9974 9.50084 24.1761L10.8929 21.5186C11.0963 21.6251 11.2683 21.7951 11.3775 22.0116L8.69894 23.3626ZM9.54192 24.1968C10.9962 24.9026 12.5955 25.2744 14.2173 25.2855L14.2378 22.2855C13.0601 22.2775 11.9017 22.0074 10.8518 21.4979L9.54192 24.1968Z" fill="black" mask="url(#path-2-inside-1_706_554)"/>
</svg>
