<svg xmlns="http://www.w3.org/2000/svg" width="36" height="35" fill="none"><path stroke="#494948" stroke-width="1.5" d="M35.0996 17.5c0 9.2507-7.4992 16.7499-16.75 16.7499S1.5996 26.7507 1.5996 17.5c0-9.2508 7.4992-16.75 16.75-16.75s16.75 7.4992 16.75 16.75Z"/><path stroke="#494948" stroke-linejoin="round" d="M22.4181 23.8877H14.745c-.814 0-1.5947-.322-2.1703-.895a3.0491 3.0491 0 0 1-.8989-2.1608v-7.6396c0-.8105.3233-1.5878.8989-2.1608a3.0761 3.0761 0 0 1 2.1703-.8951h7.6731a3.076 3.076 0 0 1 2.1703.8951c.5756.573.899 1.3503.899 2.1608v7.6396a3.0492 3.0492 0 0 1-.899 2.1608 3.0763 3.0763 0 0 1-2.1703.895Z"/><path stroke="#494948" stroke-linejoin="round" d="M18.579 13.9577c.814 0 1.5947.322 2.1703.895a3.0492 3.0492 0 0 1 .899 2.1608 3.049 3.049 0 0 1-.899 2.1608 3.076 3.076 0 0 1-2.1703.895 3.076 3.076 0 0 1-2.1703-.895 3.049 3.049 0 0 1-.8989-2.1608c0-.8104.3233-1.5877.8989-2.1608a3.0765 3.0765 0 0 1 2.1703-.895Z"/><path fill="#222120" stroke="#494948" d="M22.9904 21.0286a.269.269 0 0 0-.1899-.0781.2689.2689 0 0 0-.1898.0781.2623.2623 0 0 0-.0775.1859c0 .0693.0276.1362.0775.1859a.2689.2689 0 0 0 .1898.0781.269.269 0 0 0 .1899-.0781.2623.2623 0 0 0 .0775-.1859.2623.2623 0 0 0-.0775-.1859Z"/></svg>