<svg width="34" height="34" viewBox="0 0 34 34" fill="none" xmlns="http://www.w3.org/2000/svg">
<path d="M33 17C33 25.8365 25.8366 32.9999 17 32.9999C8.16344 32.9999 1 25.8365 1 17C1 8.16343 8.16344 1 17 1C25.8366 1 33 8.16343 33 17Z" stroke="black" stroke-width="2"/>
<path d="M20.9555 23.2061H13.5016C12.7108 23.2061 11.9524 22.8933 11.3933 22.3366C10.8341 21.7799 10.52 21.0248 10.52 20.2375V12.8162C10.52 12.0289 10.8341 11.2739 11.3933 10.7171C11.9524 10.1604 12.7108 9.84768 13.5016 9.84768H20.9555C21.7462 9.84768 22.5046 10.1604 23.0637 10.7171C23.6229 11.2739 23.937 12.0289 23.937 12.8162V20.2375C23.937 21.0248 23.6229 21.7799 23.0637 22.3366C22.5046 22.8933 21.7462 23.2061 20.9555 23.2061Z" stroke="black" stroke-width="1.5" stroke-linejoin="round"/>
<path d="M17.2286 13.5586C18.0194 13.5586 18.7778 13.8714 19.3369 14.4281C19.8961 14.9848 20.2102 15.7398 20.2102 16.5271C20.2102 17.3144 19.8961 18.0695 19.3369 18.6262C18.7778 19.1829 18.0194 19.4956 17.2286 19.4956C16.4379 19.4956 15.6795 19.1829 15.1204 18.6262C14.5612 18.0695 14.2471 17.3144 14.2471 16.5271C14.2471 15.7398 14.5612 14.9848 15.1204 14.4281C15.6795 13.8714 16.4379 13.5586 17.2286 13.5586V13.5586Z" stroke="black" stroke-width="1.5" stroke-linejoin="round"/>
<path d="M21.3284 19.8662C21.5261 19.8662 21.7157 19.9444 21.8555 20.0836C21.9953 20.2228 22.0739 20.4116 22.0739 20.6084C22.0739 20.8052 21.9953 20.994 21.8555 21.1332C21.7157 21.2724 21.5261 21.3506 21.3284 21.3506C21.1307 21.3506 20.9411 21.2724 20.8013 21.1332C20.6615 20.994 20.583 20.8052 20.583 20.6084C20.583 20.4116 20.6615 20.2228 20.8013 20.0836C20.9411 19.9444 21.1307 19.8662 21.3284 19.8662Z" fill="black"/>
</svg>
