<svg xmlns="http://www.w3.org/2000/svg" width="36" height="35" fill="none"><path stroke="#494948" stroke-width="1.5" d="M34.8184 17.5c0 9.2507-7.4993 16.7499-16.75 16.7499-9.2508 0-16.75-7.4992-16.75-16.7499 0-9.2508 7.4992-16.75 16.75-16.75 9.2507 0 16.75 7.4992 16.75 16.75Z"/><mask id="a" fill="#fff"><path d="M15.2171 24.4854a9.7464 9.7464 0 0 0 3.7152-.6059c1.1843-.441 2.2655-1.1082 3.1798-1.9619.9143-.8538 1.643-1.8769 2.1432-3.0088a8.9894 8.9894 0 0 0 .769-3.5816 6.67 6.67 0 0 0 1.2688-2.3645.3562.3562 0 0 0-.0044-.2075.3659.3659 0 0 0-.1199-.1718.3833.3833 0 0 0-.1967-.0811.387.387 0 0 0-.2105.0358 1.6542 1.6542 0 0 1-.9783.1312 1.6268 1.6268 0 0 1-.8734-.4476 3.3343 3.3343 0 0 0-1.0706-.7591 3.4166 3.4166 0 0 0-1.2904-.2941 3.4236 3.4236 0 0 0-1.3065.2173 3.3473 3.3473 0 0 0-1.1161.6944c-.4388.4127-.7602.9285-.9329 1.4975a3.3427 3.3427 0 0 0-.053 1.7495c-2.8719.1665-4.8436-1.1573-6.421-2.9723a.37.37 0 0 0-.1784-.1081.3798.3798 0 0 0-.2103.0041.3696.3696 0 0 0-.1737.1152.3537.3537 0 0 0-.0806.1887c-.3005 1.6188-.0837 3.2882.6212 4.7839.705 1.4957 1.8643 2.7461 3.3223 3.5833-.9776 1.0888-2.3505 1.7689-3.832 1.8982a.3905.3905 0 0 0-.2096.1046.371.371 0 0 0-.1078.2034.3655.3655 0 0 0 .0341.2265.3802.3802 0 0 0 .1633.1649c1.2889.6255 2.7083.9559 4.1492.9658Z"/></mask><path fill="#494948" d="m25.0243 15.3272-.7687-.6396-.2291.2754-.0021.3583.9999.0059Zm1.2688-2.3645.9585.2851.0022-.0073.002-.0073-.9627-.2705Zm-.5315-.4246.4235.906.0105-.0051-.434-.9009Zm-1.8517-.3164-.7285.6851.0116.0123.012.0119.7049-.7093Zm-4.7836-.1415.6851.7284.0003-.0003-.6854-.7281Zm-.9859 3.247.0579.9983 1.1922-.0691-.2775-1.1615-.9726.2323Zm-6.421-2.9723.7548-.6559-.0074-.0085-.0075-.0083-.7399.6727Zm-.643.1999.9833.1825.0069-.0377.0041-.038-.9943-.1068Zm3.9435 8.3672.7441.6681.8258-.9198-1.0719-.6155-.498.8672Zm-3.832 1.8982-.087-.9962-.0362.0032-.0358.0058.159.9872Zm-.12.6994-.464.8858.0136.0071.0138.0067.4366-.8996Zm4.1167 1.9652a10.7436 10.7436 0 0 0 4.0967-.6682l-.698-1.8742a8.7446 8.7446 0 0 1-3.3337.5435l-.065 1.9989Zm4.0967-.6682c1.3067-.4866 2.5015-1.2233 3.5133-2.1681l-1.365-1.4618c-.8168.7627-1.7844 1.3602-2.8463 1.7557l.698 1.8742Zm3.5133-2.1681c1.0118-.9449 1.8201-2.0788 2.3754-3.3355l-1.8293-.8084c-.4451 1.0071-1.0944 1.9194-1.9111 2.6821l1.365 1.4618ZM25.17 19.313a9.989 9.989 0 0 0 .8543-3.9799l-1.9999-.0118a7.9898 7.9898 0 0 1-.6837 3.1833l1.8293.8084Zm.623-3.3462c.6668-.8013 1.1632-1.7256 1.4586-2.719l-1.917-.5701c-.2175.7313-.5838 1.4148-1.079 2.0099l1.5374 1.2792Zm1.4628-2.7336a1.3566 1.3566 0 0 0-.0168-.7893l-1.9006.6226a.6434.6434 0 0 1-.008-.3743l1.9254.541Zm-.0168-.7893a1.3666 1.3666 0 0 0-.446-.6418l-1.2483 1.5626a.6339.6339 0 0 1-.2063-.2982l1.9006-.6226Zm-.446-.6418a1.3823 1.3823 0 0 0-.7104-.2936l-.221 1.9877a.6173.6173 0 0 1-.3169-.1315l1.2483-1.5626Zm-.7104-.2936a1.3869 1.3869 0 0 0-.755.1287l.868 1.8018a.6129.6129 0 0 1-.334.0572l.221-1.9877Zm-.7445.1237a.6547.6547 0 0 1-.3864.0514l-.3368 1.9714a2.6546 2.6546 0 0 0 1.5702-.211l-.847-1.8118Zm-.3864.0514a.6273.6273 0 0 1-.3369-.1712L23.205 12.931c.384.3817.8777.6331 1.4099.724l.3368-1.9714Zm-.3133-.1469a4.3317 4.3317 0 0 0-1.3916-.9873l-.8149 1.8265a2.332 2.332 0 0 1 .7495.5309l1.457-1.3701Zm-1.3916-.9873a4.4187 4.4187 0 0 0-1.6683-.3805l-.0592 1.9992c.3164.0093.6268.0803.9126.2078l.8149-1.8265Zm-1.6683-.3805a4.4235 4.4235 0 0 0-1.6883.281l.7044 1.8718a2.424 2.424 0 0 1 .9247-.1536l.0592-1.9992Zm-1.6883.281a4.3486 4.3486 0 0 0-1.4494.9022l1.3709 1.4562a2.3496 2.3496 0 0 1 .7829-.4866l-.7044-1.8718Zm-1.449.9019c-.5644.5307-.9805 1.197-1.2047 1.9354l1.9138.581c.1213-.3995.3479-.765.6611-1.0596l-1.3702-1.4568Zm-1.2047 1.9354a4.3432 4.3432 0 0 0-.0687 2.2723l1.9452-.4646a2.3432 2.3432 0 0 1 .0373-1.2267l-1.9138-.581Zm.846 1.0417c-2.4607.1426-4.1562-.9591-5.6083-2.6299l-1.5096 1.3119c1.7027 1.9592 3.9506 3.505 7.2337 3.3146l-.1158-1.9966Zm-5.6232-2.6467a1.3708 1.3708 0 0 0-.6598-.4014l-.517 1.932a.6305.6305 0 0 1-.303-.1851l1.4798-1.3455Zm-.6598-.4014a1.3782 1.3782 0 0 0-.7655.0152l.5935 1.9099a.621.621 0 0 1-.345.0069l.517-1.932Zm-.7655.0152a1.3685 1.3685 0 0 0-.6438.4283l1.5337 1.2836a.6305.6305 0 0 1-.2964.198l-.5935-1.9099Zm-.6438.4283a1.3522 1.3522 0 0 0-.308.7236l1.9885.2137a.647.647 0 0 1-.1468.3463l-1.5337-1.2836Zm-.297.648c-.3389 1.8259-.094 3.7082.6999 5.3927l1.8091-.8526c-.6159-1.3069-.8046-2.7634-.5425-4.1751l-1.9665-.365Zm.6999 5.3927c.7937 1.6842 2.0966 3.087 3.7289 4.0242l.9959-1.7344c-1.2838-.7371-2.2995-1.8351-2.9157-3.1424l-1.8091.8526Zm3.4827 2.4889c-.805.8967-1.9415 1.4625-3.1749 1.5701l.174 1.9924c1.7297-.1509 3.339-.9453 4.4891-2.2263l-1.4882-1.3362Zm-3.2469 1.5791a1.3895 1.3895 0 0 0-.747.3742l1.3928 1.4353a.6096.6096 0 0 1-.3278.165l-.318-1.9745Zm-.747.3742a1.3711 1.3711 0 0 0-.397.7519l1.9712.3383a.6292.6292 0 0 1-.1814.3451l-1.3928-1.4353Zm-.397.7519a1.3652 1.3652 0 0 0 .1268.8459l1.7857-.9007a.6345.6345 0 0 1 .0587.3931l-1.9712-.3383Zm.1268.8459c.1311.2599.3399.4683.5922.6004l.928-1.7716a.6194.6194 0 0 1 .2655.2705l-1.7857.9007Zm.6196.6142c1.4237.691 2.99 1.0553 4.579 1.0661l.0136-1.9999c-1.2928-.0088-2.5653-.3053-3.7194-.8655l-.8732 1.7993Z" mask="url(#a)"/></svg>