<svg width="28" height="31" viewBox="0 0 28 31" fill="none" xmlns="http://www.w3.org/2000/svg">
<path d="M12.5 20.255L9.245 17L12.5 13.745L10.385 11.615L5 17L10.385 22.385L12.5 20.255ZM17.615 22.385L23 17L17.615 11.615L15.5 13.745L18.755 17L15.5 20.255L17.615 22.385Z" fill="url(#paint0_linear_968_60)"/>
<path d="M24.5 3.5H18.23C17.6 1.76 15.95 0.5 14 0.5C12.05 0.5 10.4 1.76 9.77 3.5H3.5C3.29 3.5 3.095 3.515 2.9 3.56C2.42227 3.66023 1.97606 3.87507 1.59979 4.18602C1.22351 4.49697 0.928448 4.89471 0.74 5.345C0.59 5.69 0.5 6.08 0.5 6.5V27.5C0.5 27.905 0.59 28.31 0.74 28.67C0.89 29.03 1.115 29.345 1.385 29.63C1.79 30.035 2.315 30.335 2.9 30.455C3.095 30.485 3.29 30.5 3.5 30.5H24.5C26.15 30.5 27.5 29.15 27.5 27.5V6.5C27.5 4.85 26.15 3.5 24.5 3.5ZM14 3.125C14.615 3.125 15.125 3.635 15.125 4.25C15.125 4.865 14.615 5.375 14 5.375C13.385 5.375 12.875 4.865 12.875 4.25C12.875 3.635 13.385 3.125 14 3.125ZM24.5 21.5V27.5H3.5V6.5H24.5V21.5Z" fill="url(#paint1_linear_968_60)"/>
<defs>
<linearGradient id="paint0_linear_968_60" x1="2.15628" y1="22.2143" x2="5.06759" y2="11.869" gradientUnits="userSpaceOnUse">
<stop stop-color="#662D91"/>
<stop offset="0.00115764" stop-color="#662D90"/>
<stop offset="0.0404591" stop-color="#74256D"/>
<stop offset="0.0829803" stop-color="#7F1E4F"/>
<stop offset="0.1303" stop-color="#881937"/>
<stop offset="0.1834" stop-color="#8F1424"/>
<stop offset="0.2455" stop-color="#941117"/>
<stop offset="0.3252" stop-color="#97100F"/>
<stop offset="0.4832" stop-color="#980F0D"/>
<stop offset="1" stop-color="#D83B01"/>
</linearGradient>
<linearGradient id="paint1_linear_968_60" x1="-3.76558" y1="30.0245" x2="9.00016" y2="5.5966" gradientUnits="userSpaceOnUse">
<stop stop-color="#662D91"/>
<stop offset="0.00115764" stop-color="#662D90"/>
<stop offset="0.0404591" stop-color="#74256D"/>
<stop offset="0.0829803" stop-color="#7F1E4F"/>
<stop offset="0.1303" stop-color="#881937"/>
<stop offset="0.1834" stop-color="#8F1424"/>
<stop offset="0.2455" stop-color="#941117"/>
<stop offset="0.3252" stop-color="#97100F"/>
<stop offset="0.4832" stop-color="#980F0D"/>
<stop offset="1" stop-color="#D83B01"/>
</linearGradient>
</defs>
</svg>
