<svg width="36" height="38" viewBox="0 0 36 38" fill="none" xmlns="http://www.w3.org/2000/svg">
<path d="M26.412 1.78125C26.412 1.30883 26.6014 0.855765 26.9385 0.521716C27.2757 0.187667 27.7329 0 28.2097 0H34.2022C34.679 0 35.1363 0.187667 35.4734 0.521716C35.8106 0.855765 36 1.30883 36 1.78125V7.71875C36 8.19117 35.8106 8.64424 35.4734 8.97828C35.1363 9.31233 34.679 9.5 34.2022 9.5C33.7254 9.5 33.2682 9.31233 32.931 8.97828C32.5939 8.64424 32.4045 8.19117 32.4045 7.71875V6.08L21.6898 16.6962C21.3528 17.0298 20.8958 17.2172 20.4194 17.2172C19.943 17.2172 19.4861 17.0298 19.149 16.6962L13.2284 10.83L3.11302 20.8525C2.94843 21.0275 2.74996 21.1679 2.52944 21.2652C2.30891 21.3626 2.07086 21.4149 1.82947 21.4192C1.58809 21.4234 1.34832 21.3794 1.12446 21.2898C0.900611 21.2002 0.697263 21.0669 0.526551 20.8977C0.355839 20.7286 0.22126 20.5271 0.130842 20.3053C0.0404246 20.0835 -0.00397919 19.8459 0.000279782 19.6068C0.00453875 19.3676 0.0573737 19.1317 0.155632 18.9132C0.25389 18.6947 0.395558 18.4981 0.572186 18.335L11.958 7.05375C12.2951 6.72018 12.752 6.53282 13.2284 6.53282C13.7048 6.53282 14.1617 6.72018 14.4988 7.05375L20.4194 12.92L29.8637 3.5625H28.2097C27.7329 3.5625 27.2757 3.37483 26.9385 3.04078C26.6014 2.70674 26.412 2.25367 26.412 1.78125V1.78125ZM1.8426 28.5C2.3194 28.5 2.77666 28.6877 3.11381 29.0217C3.45095 29.3558 3.64036 29.8088 3.64036 30.2812V36.2188C3.64036 36.6912 3.45095 37.1442 3.11381 37.4783C2.77666 37.8123 2.3194 38 1.8426 38C1.36581 38 0.90854 37.8123 0.571395 37.4783C0.23425 37.1442 0.0448441 36.6912 0.0448441 36.2188V30.2812C0.0448441 29.8088 0.23425 29.3558 0.571395 29.0217C0.90854 28.6877 1.36581 28.5 1.8426 28.5V28.5ZM13.2284 23.1562C13.2284 22.6838 13.039 22.2308 12.7018 21.8967C12.3647 21.5627 11.9074 21.375 11.4306 21.375C10.9538 21.375 10.4966 21.5627 10.1594 21.8967C9.82229 22.2308 9.63289 22.6838 9.63289 23.1562V36.2188C9.63289 36.6912 9.82229 37.1442 10.1594 37.4783C10.4966 37.8123 10.9538 38 11.4306 38C11.9074 38 12.3647 37.8123 12.7018 37.4783C13.039 37.1442 13.2284 36.6912 13.2284 36.2188V23.1562ZM21.0187 26.125C21.4955 26.125 21.9527 26.3127 22.2899 26.6467C22.627 26.9808 22.8164 27.4338 22.8164 27.9062V36.2188C22.8164 36.6912 22.627 37.1442 22.2899 37.4783C21.9527 37.8123 21.4955 38 21.0187 38C20.5419 38 20.0846 37.8123 19.7475 37.4783C19.4103 37.1442 19.2209 36.6912 19.2209 36.2188V27.9062C19.2209 27.4338 19.4103 26.9808 19.7475 26.6467C20.0846 26.3127 20.5419 26.125 21.0187 26.125ZM32.4045 18.4062C32.4045 17.9338 32.2151 17.4808 31.8779 17.1467C31.5408 16.8127 31.0835 16.625 30.6067 16.625C30.1299 16.625 29.6727 16.8127 29.3355 17.1467C28.9984 17.4808 28.809 17.9338 28.809 18.4062V36.2188C28.809 36.6912 28.9984 37.1442 29.3355 37.4783C29.6727 37.8123 30.1299 38 30.6067 38C31.0835 38 31.5408 37.8123 31.8779 37.4783C32.2151 37.1442 32.4045 36.6912 32.4045 36.2188V18.4062Z" fill="url(#paint0_linear_1040_65)"/>
<defs>
<linearGradient id="paint0_linear_1040_65" x1="-5.68743" y1="37.3977" x2="10.0021" y2="5.79471" gradientUnits="userSpaceOnUse">
<stop stop-color="#662D91"/>
<stop offset="0.00115764" stop-color="#662D90"/>
<stop offset="0.0404591" stop-color="#74256D"/>
<stop offset="0.0829803" stop-color="#7F1E4F"/>
<stop offset="0.1303" stop-color="#881937"/>
<stop offset="0.1834" stop-color="#8F1424"/>
<stop offset="0.2455" stop-color="#941117"/>
<stop offset="0.3252" stop-color="#97100F"/>
<stop offset="0.4832" stop-color="#980F0D"/>
<stop offset="1" stop-color="#D83B01"/>
</linearGradient>
</defs>
</svg>
