<svg width="38" height="43" viewBox="0 0 38 43" fill="none" xmlns="http://www.w3.org/2000/svg">
<path d="M34 21.8162V8.875C34 4.17875 26.3925 0.375 17 0.375C7.6075 0.375 0 4.17875 0 8.875V30.125C0 34.8213 7.62875 38.625 17 38.625C17.9775 38.625 18.9125 38.625 19.8263 38.4975C19.3649 37.1719 19.1279 35.7786 19.125 34.375V34.2688C18.445 34.375 17.7437 34.375 17 34.375C8.77625 34.375 4.25 31.1875 4.25 30.125V25.3863C7.67125 27.0438 12.155 28 17 28C18.3813 28 19.6987 27.915 20.995 27.7663C22.127 25.8931 23.7231 24.3437 25.6291 23.2678C27.5351 22.192 29.6864 21.6262 31.875 21.625C32.5975 21.625 33.2988 21.71 34 21.8162ZM29.75 20.4562C26.9875 22.475 22.1425 23.75 17 23.75C11.8575 23.75 7.0125 22.475 4.25 20.4562V14.485C7.37375 16.2488 11.9212 17.375 17 17.375C22.0788 17.375 26.6262 16.2488 29.75 14.485V20.4562ZM17 13.125C8.77625 13.125 4.25 9.9375 4.25 8.875C4.25 7.8125 8.77625 4.625 17 4.625C25.2237 4.625 29.75 7.8125 29.75 8.875C29.75 9.9375 25.2237 13.125 17 13.125ZM38.25 36.5L31.875 42.875L25.5 36.5H29.75V28H34V36.5H38.25Z" fill="url(#paint0_linear_706_37354)"/>
<defs>
<linearGradient id="paint0_linear_706_37354" x1="-6.0429" y1="42.2013" x2="12.0419" y2="7.59519" gradientUnits="userSpaceOnUse">
<stop stop-color="#662D91"/>
<stop offset="0.00115764" stop-color="#662D90"/>
<stop offset="0.0404591" stop-color="#74256D"/>
<stop offset="0.0829803" stop-color="#7F1E4F"/>
<stop offset="0.1303" stop-color="#881937"/>
<stop offset="0.1834" stop-color="#8F1424"/>
<stop offset="0.2455" stop-color="#941117"/>
<stop offset="0.3252" stop-color="#97100F"/>
<stop offset="0.4832" stop-color="#980F0D"/>
<stop offset="1" stop-color="#D83B01"/>
</linearGradient>
</defs>
</svg>
