<svg width="36" height="36" viewBox="0 0 36 36" fill="none" xmlns="http://www.w3.org/2000/svg">
<path d="M20 10V2C20 1.43333 20.192 0.958 20.576 0.574C20.9587 0.191333 21.4333 0 22 0H34C34.5667 0 35.0413 0.191333 35.424 0.574C35.808 0.958 36 1.43333 36 2V10C36 10.5667 35.808 11.0413 35.424 11.424C35.0413 11.808 34.5667 12 34 12H22C21.4333 12 20.9587 11.808 20.576 11.424C20.192 11.0413 20 10.5667 20 10ZM0 18V2C0 1.43333 0.192 0.958 0.576 0.574C0.958667 0.191333 1.43333 0 2 0H14C14.5667 0 15.042 0.191333 15.426 0.574C15.8087 0.958 16 1.43333 16 2V18C16 18.5667 15.8087 19.0413 15.426 19.424C15.042 19.808 14.5667 20 14 20H2C1.43333 20 0.958667 19.808 0.576 19.424C0.192 19.0413 0 18.5667 0 18ZM20 34V18C20 17.4333 20.192 16.958 20.576 16.574C20.9587 16.1913 21.4333 16 22 16H34C34.5667 16 35.0413 16.1913 35.424 16.574C35.808 16.958 36 17.4333 36 18V34C36 34.5667 35.808 35.0413 35.424 35.424C35.0413 35.808 34.5667 36 34 36H22C21.4333 36 20.9587 35.808 20.576 35.424C20.192 35.0413 20 34.5667 20 34ZM0 34V26C0 25.4333 0.192 24.958 0.576 24.574C0.958667 24.1913 1.43333 24 2 24H14C14.5667 24 15.042 24.1913 15.426 24.574C15.8087 24.958 16 25.4333 16 26V34C16 34.5667 15.8087 35.0413 15.426 35.424C15.042 35.808 14.5667 36 14 36H2C1.43333 36 0.958667 35.808 0.576 35.424C0.192 35.0413 0 34.5667 0 34ZM4 16H12V4H4V16ZM24 32H32V20H24V32ZM24 8H32V4H24V8ZM4 32H12V28H4V32Z" fill="url(#paint0_linear_1040_62)"/>
<defs>
<linearGradient id="paint0_linear_1040_62" x1="-5.68743" y1="35.4294" x2="8.68536" y2="4.8704" gradientUnits="userSpaceOnUse">
<stop stop-color="#662D91"/>
<stop offset="0.00115764" stop-color="#662D90"/>
<stop offset="0.0404591" stop-color="#74256D"/>
<stop offset="0.0829803" stop-color="#7F1E4F"/>
<stop offset="0.1303" stop-color="#881937"/>
<stop offset="0.1834" stop-color="#8F1424"/>
<stop offset="0.2455" stop-color="#941117"/>
<stop offset="0.3252" stop-color="#97100F"/>
<stop offset="0.4832" stop-color="#980F0D"/>
<stop offset="1" stop-color="#D83B01"/>
</linearGradient>
</defs>
</svg>
