<svg width="36" height="36" viewBox="0 0 36 36" fill="none" xmlns="http://www.w3.org/2000/svg">
<path d="M15.0292 19.8687L17.5208 22.3604C17.8722 22.7118 18.3194 22.8875 18.8625 22.8875C19.4056 22.8875 19.8528 22.7118 20.2042 22.3604L25.6667 16.8979V18.0479C25.6667 18.591 25.8507 19.0382 26.2187 19.3896C26.5854 19.741 27.0403 19.9167 27.5833 19.9167C28.1264 19.9167 28.5813 19.7327 28.948 19.3647C29.316 18.9979 29.5 18.5431 29.5 18V12.25C29.5 11.7069 29.316 11.2514 28.948 10.8834C28.5813 10.5167 28.1264 10.3333 27.5833 10.3333H21.7854C21.2424 10.3333 20.7951 10.5167 20.4437 10.8834C20.0924 11.2514 19.9167 11.7069 19.9167 12.25C19.9167 12.7931 20.1007 13.2479 20.4687 13.6147C20.8354 13.9827 21.2903 14.1667 21.8333 14.1667H22.9354L18.8625 18.2875L16.3708 15.7958C16.0194 15.4125 15.5722 15.2208 15.0292 15.2208C14.4861 15.2208 14.0389 15.4125 13.6875 15.7958L7.84167 21.6417C7.45833 21.9931 7.26667 22.4403 7.26667 22.9833C7.26667 23.5264 7.45833 23.9736 7.84167 24.325C8.19306 24.7083 8.64028 24.9 9.18333 24.9C9.72639 24.9 10.1736 24.7083 10.525 24.325L15.0292 19.8687ZM4.58333 35.25C3.52917 35.25 2.62642 34.875 1.87508 34.1249C1.12503 33.3736 0.75 32.4708 0.75 31.4167V4.58333C0.75 3.52917 1.12503 2.62642 1.87508 1.87508C2.62642 1.12503 3.52917 0.75 4.58333 0.75H31.4167C32.4708 0.75 33.3736 1.12503 34.1249 1.87508C34.875 2.62642 35.25 3.52917 35.25 4.58333V31.4167C35.25 32.4708 34.875 33.3736 34.1249 34.1249C33.3736 34.875 32.4708 35.25 31.4167 35.25H4.58333ZM4.58333 31.4167H31.4167V4.58333H4.58333V31.4167ZM4.58333 4.58333V31.4167V4.58333Z" fill="url(#paint0_linear_706_37349)"/>
<defs>
<linearGradient id="paint0_linear_706_37349" x1="-4.70046" y1="34.7031" x2="9.07347" y2="5.41747" gradientUnits="userSpaceOnUse">
<stop stop-color="#662D91"/>
<stop offset="0.00115764" stop-color="#662D90"/>
<stop offset="0.0404591" stop-color="#74256D"/>
<stop offset="0.0829803" stop-color="#7F1E4F"/>
<stop offset="0.1303" stop-color="#881937"/>
<stop offset="0.1834" stop-color="#8F1424"/>
<stop offset="0.2455" stop-color="#941117"/>
<stop offset="0.3252" stop-color="#97100F"/>
<stop offset="0.4832" stop-color="#980F0D"/>
<stop offset="1" stop-color="#D83B01"/>
</linearGradient>
</defs>
</svg>
