<svg width="42" height="35" viewBox="0 0 42 35" fill="none" xmlns="http://www.w3.org/2000/svg">
<path d="M33.8914 11.2877C33.3179 8.28889 31.7168 5.58381 29.3638 3.63818C27.0109 1.69255 24.0532 0.628113 21 0.628113C17.9468 0.628113 14.9891 1.69255 12.6362 3.63818C10.2832 5.58381 8.68213 8.28889 8.10862 11.2877C5.68622 11.7189 3.51331 13.0421 2.01838 14.9964C0.523459 16.9506 -0.184955 19.3941 0.0328433 21.8449C0.250642 24.2957 1.37884 26.576 3.19496 28.236C5.01108 29.896 7.38328 30.8152 9.84375 30.8125H10.5V28.1875H9.84375C7.97023 28.1924 6.16831 27.4681 4.8193 26.168C3.47029 24.8679 2.68002 23.094 2.61573 21.2215C2.55144 19.3491 3.21817 17.5251 4.47483 16.1356C5.7315 14.746 7.47949 13.8999 9.34893 13.7762L10.4462 13.7014L10.5643 12.6081C10.8444 10.036 12.0645 7.65792 13.9905 5.93026C15.9165 4.20261 18.4127 3.24709 21 3.24709C23.5873 3.24709 26.0835 4.20261 28.0095 5.93026C29.9355 7.65792 31.1556 10.036 31.4357 12.6081L31.5538 13.7014L32.6511 13.7775C34.5167 13.9061 36.2596 14.7542 37.512 16.1429C38.7645 17.5317 39.4286 19.3525 39.3645 21.2215C39.3003 23.0905 38.5128 24.8616 37.168 26.1611C35.8232 27.4607 34.0263 28.1872 32.1562 28.1875H31.5V30.8125H32.1562C34.6167 30.8152 36.9889 29.896 38.805 28.236C40.6211 26.576 41.7494 24.2957 41.9672 21.8449C42.1849 19.3941 41.4765 16.9506 39.9816 14.9964C38.4867 13.0421 36.3138 11.7189 33.8914 11.2877Z" fill="url(#paint0_linear_968_59)"/>
<path d="M30.1875 26.875V24.25H27.4299C27.2607 23.4284 26.9345 22.6472 26.4692 21.9492L28.4248 19.9936L26.5689 18.1377L24.6133 20.0933C23.9153 19.628 23.1341 19.3018 22.3125 19.1326V16.375H19.6875V19.1326C18.8659 19.3018 18.0847 19.628 17.3867 20.0933L15.4311 18.1377L13.5752 19.9936L15.5308 21.9492C15.0655 22.6472 14.7393 23.4284 14.5701 24.25H11.8125V26.875H14.5701C14.7393 27.6966 15.0655 28.4778 15.5308 29.1758L13.5752 31.1314L15.4311 32.9873L17.3867 31.0317C18.0847 31.497 18.8659 31.8232 19.6875 31.9924V34.75H22.3125V31.9924C23.1341 31.8232 23.9153 31.497 24.6133 31.0317L26.5689 32.9873L28.4248 31.1314L26.4692 29.1758C26.9345 28.4778 27.2607 27.6966 27.4299 26.875H30.1875ZM21 29.5C20.2212 29.5 19.46 29.2691 18.8124 28.8364C18.1649 28.4038 17.6602 27.7888 17.3622 27.0693C17.0642 26.3498 16.9862 25.5581 17.1382 24.7943C17.2901 24.0305 17.6651 23.3289 18.2158 22.7783C18.7664 22.2276 19.468 21.8526 20.2318 21.7007C20.9956 21.5487 21.7873 21.6267 22.5068 21.9247C23.2263 22.2227 23.8413 22.7274 24.2739 23.3749C24.7066 24.0225 24.9375 24.7837 24.9375 25.5625C24.9365 26.6065 24.5213 27.6074 23.7831 28.3456C23.0449 29.0838 22.044 29.499 21 29.5Z" fill="url(#paint1_linear_968_59)"/>
<defs>
<linearGradient id="paint0_linear_968_59" x1="-6.64297" y1="30.334" x2="2.847" y2="2.25067" gradientUnits="userSpaceOnUse">
<stop stop-color="#662D91"/>
<stop offset="0.00115764" stop-color="#662D90"/>
<stop offset="0.0404591" stop-color="#74256D"/>
<stop offset="0.0829803" stop-color="#7F1E4F"/>
<stop offset="0.1303" stop-color="#881937"/>
<stop offset="0.1834" stop-color="#8F1424"/>
<stop offset="0.2455" stop-color="#941117"/>
<stop offset="0.3252" stop-color="#97100F"/>
<stop offset="0.4832" stop-color="#980F0D"/>
<stop offset="1" stop-color="#D83B01"/>
</linearGradient>
<linearGradient id="paint1_linear_968_59" x1="8.90954" y1="34.4587" x2="16.2457" y2="18.8609" gradientUnits="userSpaceOnUse">
<stop stop-color="#662D91"/>
<stop offset="0.00115764" stop-color="#662D90"/>
<stop offset="0.0404591" stop-color="#74256D"/>
<stop offset="0.0829803" stop-color="#7F1E4F"/>
<stop offset="0.1303" stop-color="#881937"/>
<stop offset="0.1834" stop-color="#8F1424"/>
<stop offset="0.2455" stop-color="#941117"/>
<stop offset="0.3252" stop-color="#97100F"/>
<stop offset="0.4832" stop-color="#980F0D"/>
<stop offset="1" stop-color="#D83B01"/>
</linearGradient>
</defs>
</svg>
