<svg width="41" height="36" viewBox="0 0 41 36" fill="none" xmlns="http://www.w3.org/2000/svg">
<path d="M38.3576 26.3591C36.3408 25.2239 33.8827 25.5285 32.2265 26.9498L29.7114 25.5331V18.5326C29.7114 17.8081 29.3128 17.1344 28.6674 16.7744L22.2136 13.1611V10.0646C24.3111 9.37244 25.8202 7.4435 25.8202 5.16846C25.8202 2.31196 23.4427 0 20.5053 0C17.5679 0 15.1904 2.31196 15.1904 5.16846C15.1904 7.4435 16.6995 9.37244 18.7969 10.0646V13.1611L12.3432 16.7744C11.6978 17.1344 11.2992 17.8081 11.2992 18.5326V25.5285L8.78408 26.9452C7.12793 25.5239 4.66505 25.2193 2.65299 26.3545C0.114187 27.7851 -0.74948 30.9415 0.707366 33.4104C2.16896 35.8792 5.40059 36.7283 7.92991 35.3024C9.94671 34.1672 10.9053 31.9337 10.4735 29.8201L12.7845 28.5142L19.4566 32.2521C19.7792 32.4321 20.1399 32.5244 20.5005 32.5244C20.8612 32.5244 21.2219 32.4321 21.5445 32.2521L28.2119 28.5188L30.5229 29.8248C30.0911 31.9337 31.0544 34.1718 33.0664 35.307C35.5958 36.733 38.8321 35.8885 40.289 33.415C41.7506 30.9415 40.8869 27.7851 38.3576 26.3591ZM6.42086 32.7459C6.16311 32.891 5.87838 32.9852 5.58306 33.0229C5.28774 33.0607 4.98765 33.0412 4.70009 32.9658C4.41252 32.8903 4.14314 32.7602 3.90746 32.5831C3.67179 32.406 3.47446 32.1853 3.32684 31.9337C2.70045 30.8769 3.07059 29.5202 4.15729 28.9111C4.41504 28.7659 4.69977 28.6717 4.9951 28.634C5.29042 28.5962 5.5905 28.6157 5.87807 28.6912C6.16563 28.7666 6.43501 28.8967 6.67069 29.0738C6.90637 29.2509 7.10369 29.4717 7.25131 29.7232C7.87771 30.78 7.50756 32.1367 6.42086 32.7459ZM18.2227 5.16846C18.2349 4.58882 18.4802 4.03691 18.9061 3.63116C19.3319 3.22541 19.9044 2.99816 20.5005 2.99816C21.0967 2.99816 21.6692 3.22541 22.095 3.63116C22.5209 4.03691 22.7662 4.58882 22.7784 5.16846C22.7662 5.7481 22.5209 6.3 22.095 6.70575C21.6692 7.1115 21.0967 7.33875 20.5005 7.33875C19.9044 7.33875 19.3319 7.1115 18.9061 6.70575C18.4802 6.3 18.2349 5.7481 18.2227 5.16846ZM26.29 25.7592L20.5005 29.0033L14.7111 25.7592V19.2802L20.5005 16.0361L26.29 19.2802V25.7592ZM37.6743 31.9383C37.0479 32.9951 35.6622 33.3596 34.5802 32.7505C33.4983 32.1413 33.1234 30.7846 33.7498 29.7279C34.3762 28.6711 35.7618 28.3065 36.8438 28.9157C37.9305 29.5248 38.3006 30.8769 37.6743 31.9383Z" fill="white"/>
</svg>
