<svg width="100" height="47" viewBox="0 0 100 47" fill="none" xmlns="http://www.w3.org/2000/svg">
<g clip-path="url(#clip0_415_1236)">
<path d="M10.2735 37.0527C10.1371 37.7434 10.0008 38.4199 9.86798 39.0965C9.36918 41.6195 8.87038 44.1461 8.36441 46.6691C8.35005 46.7466 8.22446 46.8558 8.15269 46.8558C5.50439 46.8629 2.85969 46.8594 0.211395 46.8558C0.204218 46.8558 0.193452 46.8488 0.150391 46.8241C0.243691 46.3449 0.336991 45.8551 0.43388 45.3653C0.979328 42.6097 1.52478 39.8576 2.07022 37.102C2.63361 34.2548 3.19342 31.4112 3.75681 28.564C4.3202 25.7097 4.88718 22.8555 5.45415 20.0012C5.9996 17.2491 6.54505 14.4936 7.0905 11.7415C7.19098 11.227 7.3094 10.7161 7.39193 10.1981C7.42423 9.98314 7.50676 9.92676 7.71848 9.92676C9.83927 9.93381 11.9601 9.93028 14.0844 9.93028C17.0844 9.93028 20.0844 9.92323 23.0879 9.93381C25.2446 9.94085 27.3761 10.1347 29.418 10.8817C32.8665 12.1432 35.0232 14.5041 35.7122 18.0843C35.9669 19.4022 35.9526 20.7306 35.8055 22.0626C35.5937 23.9654 35.1954 25.8225 34.345 27.5491C32.1129 32.0877 28.6644 35.245 23.5759 36.4642C22.1836 36.799 20.759 36.9752 19.3272 36.9963C16.4313 37.0421 13.539 37.0421 10.6431 37.0598C10.5247 37.0562 10.4098 37.0527 10.2735 37.0527ZM14.4828 15.7727C13.46 20.9315 12.4481 26.0586 11.429 31.2033C11.5294 31.2138 11.6048 31.2244 11.6802 31.2244C13.2196 31.2244 14.7555 31.2279 16.2949 31.2244C17.8057 31.2209 19.3057 31.1187 20.7805 30.7557C22.8331 30.2483 24.5125 29.2229 25.564 27.38C26.9096 25.0261 27.4946 22.4819 27.2828 19.7933C27.1537 18.123 26.253 16.9567 24.6094 16.3823C23.3606 15.9454 22.0688 15.7938 20.759 15.7762C18.8105 15.7551 16.8619 15.7692 14.9134 15.7656C14.7806 15.7727 14.6478 15.7727 14.4828 15.7727Z" fill="black" stroke="black" stroke-width="0.75" stroke-miterlimit="10"/>
<path d="M71.4064 9.94095C71.4853 9.93742 71.532 9.93038 71.5786 9.93038C76.8644 9.93038 82.1503 9.91981 87.4325 9.94095C89.4528 9.948 91.4516 10.1806 93.3642 10.8783C96.6405 12.0728 98.79 14.2752 99.5831 17.6615C99.8953 18.997 99.9132 20.3537 99.7948 21.7139C99.6441 23.4581 99.2745 25.153 98.6357 26.7881C97.6955 29.1878 96.2063 31.2104 94.2865 32.9441C92.5891 34.4769 90.6585 35.6081 88.4337 36.2353C87.0449 36.6264 85.6239 36.8942 84.1849 36.9295C80.984 37.007 77.7867 37.0176 74.5858 37.0528C74.4745 37.0528 74.3597 37.0528 74.2377 37.0528C73.9578 38.4623 73.6851 39.8472 73.4123 41.232C73.0535 43.0397 72.6911 44.8474 72.3358 46.6586C72.3071 46.8031 72.2712 46.87 72.1061 46.87C69.4865 46.8665 66.8705 46.8665 64.251 46.8665C64.2151 46.8665 64.1792 46.8524 64.1074 46.8418C66.5368 34.5404 68.9698 22.2495 71.4064 9.94095ZM75.3932 31.2104C75.5152 31.2174 75.5798 31.2245 75.6444 31.2245C77.1838 31.2245 78.7233 31.228 80.2591 31.2245C81.7699 31.221 83.2735 31.1223 84.7447 30.7523C86.5713 30.2942 88.1538 29.4556 89.198 27.8663C90.8416 25.3645 91.4803 22.5913 91.2183 19.6419C91.0748 18.035 90.149 16.9427 88.5844 16.3859C87.4397 15.9807 86.2519 15.808 85.0462 15.7869C82.9146 15.7481 80.7831 15.7728 78.6515 15.7657C78.4793 15.7657 78.4218 15.8256 78.3895 15.9807C78.0702 17.6263 77.74 19.2684 77.4171 20.9104C76.8501 23.7753 76.2831 26.6401 75.7161 29.5014C75.6121 30.0652 75.508 30.6219 75.3932 31.2104Z" fill="white" stroke="white" stroke-width="0.75" stroke-miterlimit="10"/>
<path d="M42.3293 0.133789C45.0565 0.133789 47.7407 0.133789 50.4571 0.133789C49.8112 3.39327 49.1689 6.63866 48.5194 9.92986C48.645 9.92986 48.7526 9.92986 48.8603 9.92986C51.383 9.93339 53.9057 9.91577 56.4284 9.94748C58.3769 9.97215 60.3147 10.1413 62.1951 10.7086C63.2142 11.0187 64.1759 11.4416 65.0012 12.1181C66.1244 13.0413 66.7022 14.2535 66.9318 15.6525C67.1866 17.2064 66.9749 18.7322 66.6735 20.258C66.1244 23.0101 65.5826 25.7657 65.0371 28.5213C64.5132 31.1747 63.9857 33.8281 63.4618 36.4814C63.4259 36.6647 63.39 36.8479 63.3469 37.0452C60.6018 37.0452 57.8638 37.0452 55.0935 37.0452C55.2119 36.4568 55.3231 35.8789 55.438 35.3045C55.9619 32.6617 56.4858 30.0189 57.0061 27.3725C57.4547 25.0962 57.9068 22.8198 58.3518 20.5434C58.5205 19.6731 58.603 18.7957 58.42 17.9182C58.2298 16.9985 57.6018 16.4594 56.719 16.2515C55.9834 16.0753 55.2191 15.9379 54.4655 15.9203C52.1437 15.8745 49.822 15.8991 47.5002 15.8991C47.4536 15.8991 47.4069 15.9062 47.3388 15.9132C47.1414 16.9175 46.9404 17.9147 46.7431 18.9155C46.1976 21.6675 45.6522 24.4231 45.1067 27.1752C44.5613 29.9308 44.0194 32.6828 43.474 35.4384C43.3807 35.9071 43.273 36.3722 43.1977 36.8444C43.169 37.0241 43.1008 37.0734 42.9214 37.0699C41.9561 37.0629 40.9908 37.0664 40.0255 37.0664C38.4788 37.0664 36.9286 37.0664 35.382 37.0664C35.2779 37.0664 35.1738 37.0664 35.0195 37.0664C37.4597 24.7332 39.8927 12.4388 42.3293 0.133789Z" fill="white" stroke="white" stroke-width="0.75" stroke-miterlimit="10"/>
</g>
<defs>
<clipPath id="clip0_415_1236">
<rect width="100" height="47" fill="black"/>
</clipPath>
</defs>
</svg>