<svg width="113" height="114" viewBox="0 0 113 114" fill="none" xmlns="http://www.w3.org/2000/svg">
<path d="M27.8241 49.0477H15.8995V17.209C5.39447 29.2561 0 42.4505 0 56.7923C0 77.7313 11.0729 95.8019 27.8241 105.841V86.91C15.8995 75.1498 15.8995 64.8237 15.8995 64.8237H27.8241V49.0477Z" fill="white"/>
<path d="M112.146 49.0489H51.9547V0C45.9924 0.573671 42.0175 1.72101 36.623 4.0157V110.432C42.0175 112.726 45.9924 113.3 51.9547 113.874V64.8248H97.0979C97.0979 64.8248 93.9748 91.7874 63.5954 98.3846V113.587C91.4195 110.145 112.997 86.0507 112.997 57.0803C112.997 53.6382 112.714 50.4831 112.146 49.0489Z" fill="white"/>
</svg>
