<svg xmlns="http://www.w3.org/2000/svg" width="36" height="36" fill="none"><path fill="url(#a)" d="M8.8185 15.5454H5.0392V5.4545C1.7097 9.2727 0 13.4545 0 18c0 6.6363 3.5094 12.3636 8.8185 15.5454v-6c-3.7793-3.7272-3.7793-7-3.7793-7h3.7793v-5Z"/><path fill="url(#b)" d="M35.5434 15.5455H16.4666V0c-1.8897.1818-3.1495.5455-4.8592 1.2727V35c1.7097.7273 2.9695.9091 4.8592 1.0909V20.5455h14.3076s-.9898 8.5454-10.6182 10.6363V36c8.8185-1.0909 15.6574-8.7273 15.6574-17.9091 0-1.0909-.09-2.0909-.27-2.5454Z"/><defs><linearGradient id="a" x1="-.4544" x2="17.2875" y1="30.0945" y2="4.8714" gradientUnits="userSpaceOnUse"><stop stop-color="#662F8D"/><stop offset=".0487" stop-color="#732A70"/><stop offset=".111" stop-color="#7F2453"/><stop offset=".1773" stop-color="#89203C"/><stop offset=".2484" stop-color="#901D2C"/><stop offset=".3278" stop-color="#951C22"/><stop offset=".4322" stop-color="#961B1F"/><stop offset="1" stop-color="#D43F26"/></linearGradient><linearGradient id="b" x1="7.6468" x2="25.3887" y1="35.7934" y2="10.5702" gradientUnits="userSpaceOnUse"><stop offset=".36" stop-color="#961B1F"/><stop offset="1" stop-color="#D43F26"/></linearGradient></defs></svg>