<svg id="logo_for_web-06" data-name="logo for web-06" xmlns="http://www.w3.org/2000/svg" xmlns:xlink="http://www.w3.org/1999/xlink" width="264.8" height="39.7" viewBox="0 0 264.8 39.7">
  <defs>
    <linearGradient id="linear-gradient" x1="-0.052" y1="0.877" x2="1.933" y2="-0.027" gradientUnits="objectBoundingBox">
      <stop offset="0" stop-color="#662f8d"/>
      <stop offset="0.049" stop-color="#732a70"/>
      <stop offset="0.111" stop-color="#7f2453"/>
      <stop offset="0.177" stop-color="#89203c"/>
      <stop offset="0.248" stop-color="#901d2c"/>
      <stop offset="0.328" stop-color="#951c22"/>
      <stop offset="0.432" stop-color="#961b1f"/>
      <stop offset="1" stop-color="#d43f26"/>
    </linearGradient>
    <linearGradient id="linear-gradient-2" x1="-0.164" y1="0.992" x2="0.559" y2="0.288" gradientUnits="objectBoundingBox">
      <stop offset="0.36" stop-color="#961b1f"/>
      <stop offset="1" stop-color="#d43f26"/>
    </linearGradient>
  </defs>
  <g id="Group_12438" data-name="Group 12438">
    <path id="Path_71879" data-name="Path 71879" d="M9.8,17.1H5.6V6A20.5,20.5,0,0,0,0,19.8,19.786,19.786,0,0,0,9.8,36.9V30.3c-4.2-4.1-4.2-7.7-4.2-7.7H9.8Z" fill="url(#linear-gradient)"/>
    <path id="Path_71880" data-name="Path 71880" d="M39.5,17.1H18.3V0a16.558,16.558,0,0,0-5.4,1.4V38.5a16.33,16.33,0,0,0,5.4,1.2V22.6H34.2S33.1,32,22.4,34.3v5.3A19.879,19.879,0,0,0,39.8,19.9,9.41,9.41,0,0,0,39.5,17.1Z" fill="url(#linear-gradient-2)"/>
  </g>
  <g id="Group_12441" data-name="Group 12441">
    <g id="Group_12440" data-name="Group 12440">
      <g id="Group_12439" data-name="Group 12439">
        <path id="Path_71881" data-name="Path 71881" d="M64.8,4.3V9.9H56.5V34.3H50.6V9.9h-8V4.3Z" fill="#fff"/>
        <path id="Path_71882" data-name="Path 71882" d="M73.4,4.3l1.1,2.1,7.3,14.3V34.3H76v-13l-8.8-17h6.2Zm17.2,0L84.3,16.6l-3.1-5.9,3.3-6.4h6.1Z" fill="#fff"/>
        <path id="Path_71883" data-name="Path 71883" d="M99.7,4.3V28.8h11.1v5.5H94.1V4.3h5.6Z" fill="#fff"/>
        <path id="Path_71884" data-name="Path 71884" d="M132,4.3V9.9H119.6v6.7H132V22H119.6v6.7H132v5.6H114V4.3h18Z" fill="#fff"/>
        <path id="Path_71885" data-name="Path 71885" d="M163,34.3h-6.4l-6.9-10.5-7,10.5h-6.4l10.1-15.4L136.9,4.3h6.4L153,18.9q2.85,4.35,4.5,6.9t2.4,3.6Zm-7.7-19.1L152,10.3l4.1-6h6.5Z" fill="#fff"/>
        <path id="Path_71886" data-name="Path 71886" d="M187.4,4.3V9.9h-8.2V34.3h-5.9V9.9h-8V4.3Z" fill="#fff"/>
        <path id="Path_71887" data-name="Path 71887" d="M207.9,4.3V9.9H195.5v6.7h12.4V22H195.5v6.7h12.4v5.6h-18V4.3h18Z" fill="#fff"/>
        <path id="Path_71888" data-name="Path 71888" d="M227.2,29.2a8.524,8.524,0,0,0,2.3-.3,7.607,7.607,0,0,0,2.1-.8c.7-.4,1.3-.8,1.9-1.2a7.518,7.518,0,0,0,1.5-1.6l3.9,3.4a26.077,26.077,0,0,1-2.3,2.4,16.654,16.654,0,0,1-2.8,1.8,17.549,17.549,0,0,1-3.2,1.2,13.425,13.425,0,0,1-3.5.4,17.524,17.524,0,0,1-4-.5,19.426,19.426,0,0,1-3.6-1.5,17.038,17.038,0,0,1-3-2.3,13.308,13.308,0,0,1-2.3-3,11.447,11.447,0,0,1-1.5-3.6,13.309,13.309,0,0,1-.5-4,17.524,17.524,0,0,1,.5-4,19.425,19.425,0,0,1,1.5-3.6,17.038,17.038,0,0,1,2.3-3,13.307,13.307,0,0,1,3-2.3,11.447,11.447,0,0,1,3.6-1.5,15.9,15.9,0,0,1,7.5-.1,17.549,17.549,0,0,1,3.2,1.2,15.4,15.4,0,0,1,5.1,4.1L235,13.8a11.369,11.369,0,0,0-1.5-1.6,7.607,7.607,0,0,0-1.9-1.2,18.027,18.027,0,0,0-2.1-.8,8.524,8.524,0,0,0-2.3-.3,9.572,9.572,0,0,0-3.8.8,9.914,9.914,0,0,0-5.2,5.2,9.954,9.954,0,0,0-.8,3.8,9.954,9.954,0,0,0,.8,3.8,9.914,9.914,0,0,0,5.2,5.2A23.206,23.206,0,0,0,227.2,29.2Z" fill="#fff"/>
        <path id="Path_71889" data-name="Path 71889" d="M264.8,4.3v30h-5.7V22h-11V34.3h-5.9V4.3h5.9V16.6h11V4.3Z" fill="#fff"/>
      </g>
    </g>
  </g>
</svg>
