<svg width="240" height="36" viewBox="0 0 240 36" fill="none" xmlns="http://www.w3.org/2000/svg">
<g clip-path="url(#clip0_6869_1818)">
<path d="M9.58415 15.5455H5.80478V5.45459C2.47534 9.27277 0.765625 13.4546 0.765625 18C0.765625 24.6364 4.27504 30.3637 9.58415 33.5455V27.5455C5.80478 23.8182 5.80478 20.5455 5.80478 20.5455H9.58415V15.5455Z" fill="white"/>
<path d="M36.309 15.5455H17.2322V0C15.3425 0.181818 14.0828 0.545455 12.373 1.27273V35C14.0828 35.7273 15.3425 35.9091 17.2322 36.0909V20.5455H31.5398C31.5398 20.5455 30.55 29.0909 20.9216 31.1818V36C29.7401 34.9091 36.579 27.2727 36.579 18.0909C36.579 17 36.489 16 36.309 15.5455Z" fill="white"/>
<path d="M59.0763 3.90918V9.00009H56.5567H51.6075V31.1819H46.2984V9.00009H41.5292H39.0996V3.90918H59.0763Z" fill="white"/>
<path d="M66.8154 3.90918L67.8052 5.81827L74.3741 18.8183V31.1819H69.155V19.3637L61.2363 3.90918H66.8154ZM82.2928 3.90918L76.6238 15.091L73.8342 9.72736L76.8037 3.90918H82.2928Z" fill="white"/>
<path d="M90.4806 3.90918V26.1819H100.469V31.1819H85.4414V3.90918H90.4806Z" fill="white"/>
<path d="M119.547 3.90918V9.00009H108.389V15.091H119.547V20.0001H108.389V26.091H119.547V31.1819H103.35V3.90918H119.547Z" fill="white"/>
<path d="M147.442 31.1819H141.683L135.474 21.6365L129.175 31.1819H123.416L132.504 17.1819L123.956 3.90918H129.715L138.443 17.1819C140.153 19.8183 141.503 21.9092 142.493 23.4546C143.483 25.0001 144.203 26.091 144.652 26.7274L147.442 31.1819ZM140.513 13.8183L137.544 9.36373L141.233 3.90918H147.082L140.513 13.8183Z" fill="white"/>
<path d="M169.398 3.90918V9.00009H166.969H162.02V31.1819H156.711V9.00009H151.941H149.512V3.90918H169.398Z" fill="white"/>
<path d="M187.844 3.90918V9.00009H176.686V15.091H187.844V20.0001H176.686V26.091H187.844V31.1819H171.646V3.90918H187.844Z" fill="white"/>
<path d="M205.213 26.5457C205.932 26.5457 206.652 26.4548 207.282 26.273C207.912 26.0911 208.632 25.9093 209.172 25.5457C209.802 25.182 210.342 24.8184 210.882 24.4548C211.422 24.0002 211.871 23.5457 212.231 23.0002L215.741 26.0911C215.111 26.9093 214.391 27.5457 213.671 28.273C212.861 28.9093 212.051 29.4548 211.152 29.9093C210.252 30.3639 209.262 30.7275 208.272 31.0002C207.282 31.2729 206.202 31.3639 205.123 31.3639C203.863 31.3639 202.693 31.182 201.523 30.9093C200.353 30.5457 199.274 30.0911 198.284 29.5457C197.294 28.9093 196.394 28.2729 195.584 27.4548C194.774 26.6366 194.054 25.7275 193.515 24.7275C192.885 23.7275 192.435 22.6366 192.165 21.4548C191.805 20.273 191.715 19.0911 191.715 17.8184C191.715 16.5457 191.895 15.3639 192.165 14.182C192.525 13.0002 192.975 11.9093 193.515 10.9093C194.144 9.90931 194.774 9.00022 195.584 8.18204C196.394 7.36386 197.294 6.63659 198.284 6.09113C199.274 5.45477 200.353 5.00022 201.523 4.72749C202.693 4.36386 203.863 4.27295 205.123 4.27295C206.202 4.27295 207.282 4.36386 208.272 4.63659C209.262 4.90931 210.252 5.27295 211.152 5.7275C212.051 6.18204 212.861 6.7275 213.671 7.36386C214.481 8.00022 215.111 8.72749 215.741 9.45477L212.231 12.5457C211.871 12.0002 211.332 11.5457 210.882 11.0911C210.342 10.6366 209.802 10.2729 209.172 10.0002C208.542 9.7275 207.912 9.45477 207.282 9.27295C206.652 9.09113 205.932 9.00022 205.213 9.00022C203.953 9.00022 202.873 9.27295 201.793 9.72749C200.713 10.182 199.813 10.8184 199.004 11.6366C198.194 12.4548 197.564 13.3639 197.114 14.4548C196.664 15.5457 196.394 16.7275 196.394 17.9093C196.394 19.0911 196.664 20.2729 197.114 21.3639C197.564 22.4548 198.194 23.3639 199.004 24.182C199.813 25.0002 200.713 25.6366 201.793 26.0911C202.873 26.2729 204.043 26.5457 205.213 26.5457Z" fill="white"/>
<path d="M239.046 3.90918V31.1819H233.916V20.0001H224.018V31.1819H218.709V3.90918H224.018V15.091H233.916V3.90918H239.046Z" fill="white"/>
</g>
<defs>
<clipPath id="clip0_6869_1818">
<rect width="239" height="36" fill="white" transform="translate(0.765625)"/>
</clipPath>
</defs>
</svg>
