<svg xmlns="http://www.w3.org/2000/svg" width="264.8" height="39.7" data-name="logo for web-06"><defs><linearGradient id="a" x1="-.052" x2="1.933" y1=".877" y2="-.027" gradientUnits="objectBoundingBox"><stop offset="0" stop-color="#662f8d"/><stop offset=".049" stop-color="#732a70"/><stop offset=".111" stop-color="#7f2453"/><stop offset=".177" stop-color="#89203c"/><stop offset=".248" stop-color="#901d2c"/><stop offset=".328" stop-color="#951c22"/><stop offset=".432" stop-color="#961b1f"/><stop offset="1" stop-color="#d43f26"/></linearGradient><linearGradient id="b" x1="-.164" x2=".559" y1=".992" y2=".288" gradientUnits="objectBoundingBox"><stop offset=".36" stop-color="#961b1f"/><stop offset="1" stop-color="#d43f26"/></linearGradient></defs><g data-name="Group 12438"><path fill="url(#a)" d="M9.8 17.1H5.6V6A20.5 20.5 0 0 0 0 19.8a19.786 19.786 0 0 0 9.8 17.1v-6.6c-4.2-4.1-4.2-7.7-4.2-7.7h4.2Z" data-name="Path 71879"/><path fill="url(#b)" d="M39.5 17.1H18.3V0a16.558 16.558 0 0 0-5.4 1.4v37.1a16.33 16.33 0 0 0 5.4 1.2V22.6h15.9S33.1 32 22.4 34.3v5.3a19.879 19.879 0 0 0 17.4-19.7 9.41 9.41 0 0 0-.3-2.8Z" data-name="Path 71880"/></g><g data-name="Group 12441"><g data-name="Group 12440"><g fill="#141414" data-name="Group 12439"><path d="M64.8 4.3v5.6h-8.3v24.4h-5.9V9.9h-8V4.3Z" data-name="Path 71881"/><path d="m73.4 4.3 1.1 2.1 7.3 14.3v13.6H76v-13l-8.8-17h6.2Zm17.2 0-6.3 12.3-3.1-5.9 3.3-6.4h6.1Z" data-name="Path 71882"/><path d="M99.7 4.3v24.5h11.1v5.5H94.1v-30h5.6Z" data-name="Path 71883"/><path d="M132 4.3v5.6h-12.4v6.7H132V22h-12.4v6.7H132v5.6h-18v-30h18Z" data-name="Path 71884"/><path d="M163 34.3h-6.4l-6.9-10.5-7 10.5h-6.4l10.1-15.4-9.5-14.6h6.4l9.7 14.6q2.85 4.35 4.5 6.9t2.4 3.6Zm-7.7-19.1-3.3-4.9 4.1-6h6.5Z" data-name="Path 71885"/><path d="M187.4 4.3v5.6h-8.2v24.4h-5.9V9.9h-8V4.3Z" data-name="Path 71886"/><path d="M207.9 4.3v5.6h-12.4v6.7h12.4V22h-12.4v6.7h12.4v5.6h-18v-30h18Z" data-name="Path 71887"/><path d="M227.2 29.2a8.524 8.524 0 0 0 2.3-.3 7.607 7.607 0 0 0 2.1-.8c.7-.4 1.3-.8 1.9-1.2a7.518 7.518 0 0 0 1.5-1.6l3.9 3.4a26.077 26.077 0 0 1-2.3 2.4 16.654 16.654 0 0 1-2.8 1.8 17.549 17.549 0 0 1-3.2 1.2 13.425 13.425 0 0 1-3.5.4 17.524 17.524 0 0 1-4-.5 19.426 19.426 0 0 1-3.6-1.5 17.038 17.038 0 0 1-3-2.3 13.308 13.308 0 0 1-2.3-3 11.447 11.447 0 0 1-1.5-3.6 13.309 13.309 0 0 1-.5-4 17.524 17.524 0 0 1 .5-4 19.425 19.425 0 0 1 1.5-3.6 17.038 17.038 0 0 1 2.3-3 13.307 13.307 0 0 1 3-2.3 11.447 11.447 0 0 1 3.6-1.5 15.9 15.9 0 0 1 7.5-.1 17.549 17.549 0 0 1 3.2 1.2 15.4 15.4 0 0 1 5.1 4.1l-3.9 3.4a11.369 11.369 0 0 0-1.5-1.6 7.607 7.607 0 0 0-1.9-1.2 18.027 18.027 0 0 0-2.1-.8 8.524 8.524 0 0 0-2.3-.3 9.572 9.572 0 0 0-3.8.8 9.914 9.914 0 0 0-5.2 5.2 9.954 9.954 0 0 0-.8 3.8 9.954 9.954 0 0 0 .8 3.8 9.914 9.914 0 0 0 5.2 5.2 23.206 23.206 0 0 0 3.8.5Z" data-name="Path 71888"/><path d="M264.8 4.3v30h-5.7V22h-11v12.3h-5.9v-30h5.9v12.3h11V4.3Z" data-name="Path 71889"/></g></g></g></svg>