<svg width="64" height="63" viewBox="0 0 64 63" fill="none" xmlns="http://www.w3.org/2000/svg">
<path d="M18.2568 26.8545H8.99263L9.29733 9.43146C2.69827 16.6343 0.337891 23.8304 0.337891 31.7259C0.337891 42.0353 6.51682 53.8814 18.2568 59.3475V49.6471C10.1246 43.9689 8.99263 35.3573 8.99263 35.3573H18.2568V26.8545Z" fill="url(#paint0_linear_833_1051)"/>
<path d="M63.5584 26.8553H29.5743V0C26.1759 0.303672 24.0133 0.739521 20.9238 1.95421V60.4521C24.0133 61.6668 26.1759 61.9705 29.5743 62.2741V35.3582H54.9079C54.9079 35.3582 53.0542 50.2381 36.0622 53.8822V62.0813C51.8185 60.2593 63.8674 46.8977 63.8674 31.1067C63.8674 29.2847 63.6925 27.4393 63.5584 26.8553Z" fill="url(#paint1_linear_833_1051)"/>
<defs>
<linearGradient id="paint0_linear_833_1051" x1="-2.49301" y1="58.5562" x2="38.572" y2="26.4385" gradientUnits="userSpaceOnUse">
<stop offset="0.0520833" stop-color="#662D91"/>
<stop offset="0.161458" stop-color="#662D90"/>
<stop offset="0.234375" stop-color="#74256D"/>
<stop offset="0.3125" stop-color="#7F1E4F"/>
<stop offset="0.395833" stop-color="#881937"/>
<stop offset="0.484375" stop-color="#8F1424"/>
<stop offset="0.5625" stop-color="#941117"/>
<stop offset="0.677083" stop-color="#97100F"/>
<stop offset="0.802083" stop-color="#980F0D"/>
<stop offset="1" stop-color="#D83B01"/>
</linearGradient>
<linearGradient id="paint1_linear_833_1051" x1="14.1394" y1="61.287" x2="44.1901" y2="17.2273" gradientUnits="userSpaceOnUse">
<stop stop-color="#662D91"/>
<stop offset="0.0260417" stop-color="#662D90"/>
<stop offset="0.161458" stop-color="#74256D"/>
<stop offset="0.296875" stop-color="#7F1E4F"/>
<stop offset="0.375" stop-color="#881937"/>
<stop offset="0.411458" stop-color="#8F1424"/>
<stop offset="0.520833" stop-color="#941117"/>
<stop offset="0.671875" stop-color="#97100F"/>
<stop offset="0.807292" stop-color="#980F0D"/>
<stop offset="1" stop-color="#D83B01"/>
</linearGradient>
</defs>
</svg>
