<svg width="15" height="14" viewBox="0 0 15 14" fill="none" xmlns="http://www.w3.org/2000/svg">
<mask id="path-1-inside-1_415_1365" fill="white">
<path d="M4.22752 13.7855C5.45895 13.8255 6.68615 13.6254 7.83659 13.1969C8.98702 12.7685 10.0374 12.1205 10.9255 11.2911C11.8137 10.4617 12.5216 9.46785 13.0075 8.36824C13.4934 7.26862 13.7475 6.08557 13.7546 4.88899C14.3189 4.21076 14.7379 3.42983 14.9871 2.59207C15.0057 2.52589 15.0042 2.45589 14.9828 2.39051C14.9613 2.32513 14.9209 2.26715 14.8664 2.22357C14.8118 2.17998 14.7454 2.15265 14.6752 2.14484C14.6051 2.13704 14.534 2.14911 14.4708 2.1796C14.1755 2.31762 13.8431 2.3622 13.5204 2.30707C13.1977 2.25193 12.9009 2.09986 12.6719 1.87227C12.3796 1.56136 12.026 1.3106 11.632 1.13485C11.238 0.959101 10.8118 0.861937 10.3784 0.849115C9.94508 0.836294 9.5135 0.908076 9.10925 1.06021C8.705 1.21234 8.3363 1.44173 8.02501 1.73478C7.59879 2.13565 7.2866 2.63679 7.11879 3.1895C6.95097 3.7422 6.93324 4.32766 7.06731 4.88899C4.27749 5.05075 2.36209 3.7648 0.829768 2.00167C0.783734 1.95104 0.723516 1.91453 0.656468 1.89659C0.58942 1.87864 0.518443 1.88005 0.452205 1.90064C0.385967 1.92122 0.327334 1.96009 0.283467 2.01251C0.2396 2.06492 0.212397 2.1286 0.20518 2.19578C-0.0867354 3.76837 0.123842 5.39006 0.80863 6.84304C1.49342 8.29602 2.61962 9.5107 4.03598 10.3239C3.08631 11.3817 1.75266 12.0423 0.313442 12.1679C0.236337 12.1804 0.165158 12.2159 0.10987 12.2695C0.0545808 12.3232 0.0179485 12.3923 0.00509926 12.4672C-0.00774995 12.542 0.0038272 12.6189 0.0382104 12.6871C0.0725936 12.7553 0.128062 12.8113 0.196853 12.8473C1.44896 13.455 2.82781 13.7759 4.22752 13.7855Z"/>
</mask>
<path d="M13.7546 4.88899L12.6015 3.92957L12.2578 4.34268L12.2546 4.88009L13.7546 4.88899ZM14.9871 2.59207L16.4248 3.01965L16.4281 3.00875L16.4312 2.99782L14.9871 2.59207ZM14.4708 2.1796L15.106 3.53845L15.1139 3.53476L15.1217 3.53098L14.4708 2.1796ZM12.6719 1.87227L11.5792 2.8998L11.5966 2.91831L11.6146 2.93622L12.6719 1.87227ZM8.02501 1.73478L9.05269 2.82743L9.05318 2.82696L8.02501 1.73478ZM7.06731 4.88899L7.15414 6.38648L8.94241 6.28279L8.52627 4.54052L7.06731 4.88899ZM0.829768 2.00167L1.96194 1.01771L1.95091 1.00501L1.93959 0.992566L0.829768 2.00167ZM0.20518 2.19578L1.67999 2.46954L1.69047 2.41309L1.6966 2.356L0.20518 2.19578ZM4.03598 10.3239L5.15212 11.3261L6.39085 9.94638L4.78288 9.02312L4.03598 10.3239ZM0.313442 12.1679L0.182999 10.6736L0.128722 10.6784L0.0749322 10.687L0.313442 12.1679ZM0.196853 12.8473L-0.49916 14.1761L-0.478781 14.1867L-0.458084 14.1968L0.196853 12.8473ZM4.17881 15.2847C5.60451 15.331 7.02612 15.0994 8.36008 14.6026L7.31309 11.7913C6.34618 12.1514 5.31339 12.32 4.27624 12.2863L4.17881 15.2847ZM8.36008 14.6026C9.6941 14.1058 10.9149 13.3533 11.9493 12.3874L9.90175 10.1948C9.15981 10.8876 8.27994 11.4312 7.31309 11.7913L8.36008 14.6026ZM11.9493 12.3874C12.9837 11.4214 13.8109 10.2614 14.3795 8.97452L11.6355 7.76195C11.2323 8.67435 10.6436 9.50203 9.90175 10.1948L11.9493 12.3874ZM14.3795 8.97452C14.9482 7.68758 15.2462 6.30126 15.2545 4.89789L12.2546 4.88009C12.2487 5.86988 12.0386 6.84967 11.6355 7.76195L14.3795 8.97452ZM14.9076 5.84841C15.6006 5.01554 16.1172 4.05403 16.4248 3.01965L13.5493 2.1645C13.3586 2.80563 13.0372 3.40599 12.6015 3.92957L14.9076 5.84841ZM16.4312 2.99782C16.5303 2.6451 16.5222 2.27134 16.4082 1.92353L13.5573 2.85749C13.4862 2.64044 13.4811 2.40667 13.543 2.18633L16.4312 2.99782ZM16.4082 1.92353C16.2944 1.57613 16.0817 1.27463 15.8026 1.05162L13.9301 3.39552C13.7601 3.25968 13.6283 3.07412 13.5573 2.85749L16.4082 1.92353ZM15.8026 1.05162C15.5238 0.82894 15.1896 0.692773 14.8409 0.654025L14.5095 3.63566C14.3013 3.61252 14.0997 3.53103 13.9301 3.39552L15.8026 1.05162ZM14.8409 0.654025C14.4924 0.615287 14.1382 0.674823 13.8198 0.828226L15.1217 3.53098C14.9299 3.6234 14.7177 3.6588 14.5095 3.63566L14.8409 0.654025ZM13.8355 0.820754C13.8185 0.828724 13.796 0.832411 13.773 0.828493L13.2678 3.78564C13.8903 3.892 14.5326 3.80652 15.106 3.53845L13.8355 0.820754ZM13.773 0.828493C13.7503 0.82461 13.7359 0.814877 13.7293 0.808316L11.6146 2.93622C12.066 3.38484 12.6451 3.67925 13.2678 3.78564L13.773 0.828493ZM13.7647 0.844731C13.3346 0.387297 12.8167 0.0208699 12.2431 -0.235022L11.0209 2.50472C11.2352 2.60033 11.4246 2.73542 11.5792 2.8998L13.7647 0.844731ZM12.2431 -0.235022C11.6696 -0.49088 11.0507 -0.631651 10.4228 -0.650229L10.3341 2.34846C10.5728 2.35552 10.8065 2.40908 11.0209 2.50472L12.2431 -0.235022ZM10.4228 -0.650229C9.79489 -0.668806 9.16873 -0.564878 8.58092 -0.343671L9.63757 2.46409C9.85827 2.38103 10.0953 2.34139 10.3341 2.34846L10.4228 -0.650229ZM8.58092 -0.343671C7.99306 -0.122437 7.45403 0.2122 6.99684 0.642594L9.05318 2.82696C9.21858 2.67125 9.41694 2.54712 9.63757 2.46409L8.58092 -0.343671ZM6.99734 0.642124C6.38279 1.22013 5.92848 1.94679 5.68349 2.7537L8.55409 3.62529C8.64472 3.32679 8.81479 3.05117 9.05269 2.82743L6.99734 0.642124ZM5.68349 2.7537C5.43841 3.56086 5.41238 4.41701 5.60835 5.23746L8.52627 4.54052C8.45409 4.23832 8.46353 3.92353 8.55409 3.62529L5.68349 2.7537ZM6.98049 3.39151C4.80743 3.5175 3.30629 2.56455 1.96194 1.01771L-0.302405 2.98563C1.41788 4.96504 3.74755 6.58399 7.15414 6.38648L6.98049 3.39151ZM1.93959 0.992566C1.69711 0.725883 1.38494 0.538744 1.04422 0.447569L0.26872 3.3456C0.0620936 3.29031 -0.129642 3.1762 -0.280056 3.01078L1.93959 0.992566ZM1.04422 0.447569C0.703716 0.356453 0.343963 0.36351 0.00704497 0.468215L0.897364 3.33306C0.692923 3.39659 0.475123 3.40084 0.26872 3.3456L1.04422 0.447569ZM0.00704497 0.468215C-0.330135 0.573002 -0.635015 0.772825 -0.866801 1.04976L1.43374 2.97525C1.28968 3.14736 1.10207 3.26944 0.897364 3.33306L0.00704497 0.468215ZM-0.866801 1.04976C-1.09899 1.32718 -1.2469 1.66936 -1.28624 2.03555L1.6966 2.356C1.67169 2.58784 1.57819 2.80266 1.43374 2.97525L-0.866801 1.04976ZM-1.26963 1.92201C-1.61921 3.80528 -1.36649 5.74633 -0.548226 7.48253L2.16549 6.20356C1.61418 5.0338 1.44574 3.73147 1.67999 2.46954L-1.26963 1.92201ZM-0.548226 7.48253C0.269753 9.21811 1.6113 10.6614 3.28908 11.6248L4.78288 9.02312C3.62794 8.35998 2.71708 7.37393 2.16549 6.20356L-0.548226 7.48253ZM2.91984 9.32183C2.22897 10.0913 1.24999 10.5805 0.182999 10.6736L0.443885 13.6623C2.25534 13.5041 3.94364 12.672 5.15212 11.3261L2.91984 9.32183ZM0.0749322 10.687C-0.301528 10.7477 -0.655369 10.922 -0.934731 11.1931L1.15447 13.346C0.985685 13.5098 0.774202 13.6131 0.551952 13.6489L0.0749322 10.687ZM-0.934731 11.1931C-1.21467 11.4647 -1.40586 11.8206 -1.47329 12.2134L1.48349 12.7209C1.44176 12.964 1.32383 13.1817 1.15447 13.346L-0.934731 11.1931ZM-1.47329 12.2134C-1.54077 12.6067 -1.47936 13.0092 -1.30106 13.3626L1.37748 12.0116C1.48701 12.2287 1.52527 12.4774 1.48349 12.7209L-1.47329 12.2134ZM-1.30106 13.3626C-1.12311 13.7154 -0.840183 13.9974 -0.49916 14.1761L0.892865 11.5186C1.09631 11.6251 1.2683 11.7951 1.37748 12.0116L-1.30106 13.3626ZM-0.458084 14.1968C0.996221 14.9026 2.59547 15.2744 4.21729 15.2855L4.23776 12.2855C3.06014 12.2775 1.9017 12.0074 0.85179 11.4979L-0.458084 14.1968Z" fill="white" mask="url(#path-1-inside-1_415_1365)"/>
</svg>
