<svg width="305" height="97" viewBox="0 0 305 97" fill="none" xmlns="http://www.w3.org/2000/svg">
<path d="M31.7151 35.0688C29.8649 35.0688 28.1921 34.752 26.6967 34.1184C25.2267 33.4848 24.0609 32.5724 23.1991 31.3811C22.3374 30.1899 21.8939 28.7833 21.8685 27.1612H27.5711C27.6472 28.251 28.0274 29.1128 28.7117 29.7464C29.4213 30.38 30.3844 30.6968 31.601 30.6968C32.8429 30.6968 33.8187 30.4054 34.5284 29.8224C35.238 29.2141 35.5929 28.4284 35.5929 27.4653C35.5929 26.6796 35.3521 26.0333 34.8705 25.5264C34.389 25.0195 33.7807 24.6267 33.0457 24.3479C32.336 24.0438 31.3476 23.7143 30.0803 23.3594C28.3568 22.8525 26.9502 22.3583 25.8604 21.8767C24.7959 21.3698 23.8708 20.6222 23.0851 19.6337C22.3247 18.6199 21.9445 17.2766 21.9445 15.6039C21.9445 14.0325 22.3374 12.6638 23.1231 11.498C23.9088 10.3321 25.0113 9.445 26.4306 8.83672C27.8499 8.2031 29.472 7.88628 31.2969 7.88628C34.0341 7.88628 36.2518 8.55793 37.9499 9.90122C39.6734 11.2192 40.6238 13.0693 40.8013 15.4518H34.9466C34.8959 14.5394 34.503 13.7917 33.768 13.2087C33.0583 12.6005 32.1079 12.2963 30.9167 12.2963C29.8775 12.2963 29.0412 12.5624 28.4075 13.0947C27.7993 13.6269 27.4951 14.4 27.4951 15.4138C27.4951 16.1234 27.7232 16.719 28.1794 17.2006C28.661 17.6568 29.2439 18.037 29.9282 18.3411C30.6379 18.6199 31.6264 18.9494 32.8936 19.3296C34.6171 19.8365 36.0237 20.3434 37.1136 20.8503C38.2034 21.3572 39.1412 22.1175 39.9269 23.1313C40.7126 24.1451 41.1054 25.4757 41.1054 27.1232C41.1054 28.5425 40.7379 29.8604 40.0029 31.077C39.2679 32.2936 38.1907 33.2693 36.7714 34.0044C35.3521 34.714 33.6666 35.0688 31.7151 35.0688Z" fill="#D83B01"/>
<path d="M48.419 11.2318C47.4813 11.2318 46.6956 10.9404 46.0619 10.3574C45.4537 9.74914 45.1495 9.00147 45.1495 8.11439C45.1495 7.22731 45.4537 6.49231 46.0619 5.90937C46.6956 5.30109 47.4813 4.99695 48.419 4.99695C49.3568 4.99695 50.1298 5.30109 50.7381 5.90937C51.3717 6.49231 51.6885 7.22731 51.6885 8.11439C51.6885 9.00147 51.3717 9.74914 50.7381 10.3574C50.1298 10.9404 49.3568 11.2318 48.419 11.2318ZM51.0422 13.741V34.8027H45.7198V13.741H51.0422Z" fill="#D83B01"/>
<path d="M64.5507 13.3988C66.122 13.3988 67.5034 13.7156 68.6946 14.3493C69.8858 14.9576 70.8236 15.7559 71.5079 16.7444V13.741H76.8683V34.9548C76.8683 36.9064 76.4755 38.6425 75.6898 40.1632C74.9041 41.7092 73.7256 42.9258 72.1542 43.8129C70.5828 44.7253 68.6819 45.1815 66.4515 45.1815C63.4608 45.1815 61.0024 44.4845 59.0761 43.0906C57.1753 41.6966 56.0981 39.7957 55.8446 37.3879H61.1291C61.4079 38.351 62.0035 39.1114 62.9159 39.669C63.8537 40.2519 64.9815 40.5434 66.2995 40.5434C67.8455 40.5434 69.1001 40.0745 70.0632 39.1367C71.0263 38.2243 71.5079 36.8303 71.5079 34.9548V31.6853C70.8236 32.6737 69.8731 33.4974 68.6566 34.1564C67.4653 34.8154 66.0967 35.1449 64.5507 35.1449C62.7765 35.1449 61.1544 34.6887 59.6844 33.7762C58.2144 32.8638 57.0485 31.5839 56.1868 29.9365C55.3504 28.2637 54.9322 26.3501 54.9322 24.1958C54.9322 22.0668 55.3504 20.1786 56.1868 18.5312C57.0485 16.8838 58.2017 15.6165 59.6464 14.7294C61.1164 13.8424 62.7512 13.3988 64.5507 13.3988ZM71.5079 24.2719C71.5079 22.9793 71.2544 21.8767 70.7475 20.9643C70.2406 20.0266 69.5563 19.3169 68.6946 18.8353C67.8328 18.3284 66.9077 18.075 65.9193 18.075C64.9308 18.075 64.0184 18.3158 63.182 18.7973C62.3456 19.2789 61.6613 19.9885 61.1291 20.9263C60.6222 21.8387 60.3687 22.9286 60.3687 24.1958C60.3687 25.4631 60.6222 26.5783 61.1291 27.5414C61.6613 28.4791 62.3456 29.2015 63.182 29.7084C64.0438 30.2153 64.9562 30.4687 65.9193 30.4687C66.9077 30.4687 67.8328 30.2279 68.6946 29.7464C69.5563 29.2395 70.2406 28.5298 70.7475 27.6174C71.2544 26.6796 71.5079 25.5645 71.5079 24.2719Z" fill="#D83B01"/>
<path d="M103.293 8.26646V24.69C103.293 26.4895 103.762 27.8709 104.7 28.834C105.638 29.7717 106.956 30.2406 108.654 30.2406C110.377 30.2406 111.708 29.7717 112.646 28.834C113.583 27.8709 114.052 26.4895 114.052 24.69V8.26646H119.413V24.652C119.413 26.9077 118.919 28.8213 117.93 30.3927C116.967 31.9387 115.662 33.1046 114.014 33.8903C112.392 34.676 110.58 35.0688 108.578 35.0688C106.601 35.0688 104.801 34.676 103.179 33.8903C101.582 33.1046 100.315 31.9387 99.3775 30.3927C98.4397 28.8213 97.9708 26.9077 97.9708 24.652V8.26646H103.293Z" fill="#D83B01"/>
<path d="M127.709 16.7824C128.394 15.8193 129.331 15.0209 130.523 14.3873C131.739 13.7283 133.121 13.3988 134.667 13.3988C136.466 13.3988 138.088 13.8424 139.533 14.7294C141.003 15.6165 142.156 16.8838 142.992 18.5312C143.854 20.1533 144.285 22.0415 144.285 24.1958C144.285 26.3501 143.854 28.2637 142.992 29.9365C142.156 31.5839 141.003 32.8638 139.533 33.7762C138.088 34.6887 136.466 35.1449 134.667 35.1449C133.121 35.1449 131.752 34.8281 130.561 34.1944C129.395 33.5608 128.444 32.7624 127.709 31.7993V44.8394H122.387V13.741H127.709V16.7824ZM138.849 24.1958C138.849 22.9286 138.582 21.8387 138.05 20.9263C137.543 19.9885 136.859 19.2789 135.997 18.7973C135.161 18.3158 134.248 18.075 133.26 18.075C132.297 18.075 131.384 18.3284 130.523 18.8353C129.686 19.3169 129.002 20.0266 128.47 20.9643C127.963 21.9021 127.709 23.0046 127.709 24.2719C127.709 25.5391 127.963 26.6416 128.47 27.5794C129.002 28.5172 129.686 29.2395 130.523 29.7464C131.384 30.2279 132.297 30.4687 133.26 30.4687C134.248 30.4687 135.161 30.2153 135.997 29.7084C136.859 29.2015 137.543 28.4791 138.05 27.5414C138.582 26.6036 138.849 25.4884 138.849 24.1958Z" fill="#D83B01"/>
<path d="M166.868 18.113H163.18V34.8027H157.782V18.113H155.387V13.741H157.782V12.6765C157.782 10.0913 158.517 8.19042 159.987 6.97386C161.457 5.7573 163.675 5.18704 166.64 5.26307V9.74914C165.347 9.7238 164.448 9.93923 163.941 10.3954C163.434 10.8517 163.18 11.6754 163.18 12.8666V13.741H166.868V18.113Z" fill="#D83B01"/>
<path d="M179.67 35.1449C177.642 35.1449 175.817 34.7013 174.195 33.8143C172.573 32.9018 171.293 31.6219 170.355 29.9745C169.443 28.3271 168.987 26.4262 168.987 24.2719C168.987 22.1175 169.456 20.2166 170.393 18.5692C171.356 16.9218 172.662 15.6545 174.309 14.7675C175.957 13.855 177.794 13.3988 179.822 13.3988C181.849 13.3988 183.687 13.855 185.334 14.7675C186.982 15.6545 188.274 16.9218 189.212 18.5692C190.175 20.2166 190.657 22.1175 190.657 24.2719C190.657 26.4262 190.162 28.3271 189.174 29.9745C188.211 31.6219 186.893 32.9018 185.22 33.8143C183.573 34.7013 181.723 35.1449 179.67 35.1449ZM179.67 30.5067C180.633 30.5067 181.533 30.2786 182.369 29.8224C183.231 29.3409 183.915 28.6312 184.422 27.6934C184.929 26.7557 185.182 25.6151 185.182 24.2719C185.182 22.2696 184.65 20.7362 183.585 19.6717C182.546 18.5819 181.266 18.037 179.746 18.037C178.225 18.037 176.945 18.5819 175.906 19.6717C174.892 20.7362 174.385 22.2696 174.385 24.2719C174.385 26.2741 174.879 27.8202 175.868 28.91C176.882 29.9745 178.149 30.5067 179.67 30.5067Z" fill="#D83B01"/>
<path d="M199.883 17.0105C200.568 15.8953 201.455 15.0209 202.545 14.3873C203.66 13.7537 204.927 13.4368 206.346 13.4368V19.0254H204.94C203.267 19.0254 202 19.4183 201.138 20.204C200.302 20.9897 199.883 22.3583 199.883 24.3099V34.8027H194.561V13.741H199.883V17.0105Z" fill="#D83B01"/>
<path d="M228.342 35.1449C226.315 35.1449 224.49 34.7013 222.868 33.8143C221.246 32.9018 219.966 31.6219 219.028 29.9745C218.116 28.3271 217.66 26.4262 217.66 24.2719C217.66 22.1175 218.128 20.2166 219.066 18.5692C220.029 16.9218 221.335 15.6545 222.982 14.7675C224.629 13.855 226.467 13.3988 228.495 13.3988C230.522 13.3988 232.36 13.855 234.007 14.7675C235.655 15.6545 236.947 16.9218 237.885 18.5692C238.848 20.2166 239.33 22.1175 239.33 24.2719C239.33 26.4262 238.835 28.3271 237.847 29.9745C236.884 31.6219 235.566 32.9018 233.893 33.8143C232.246 34.7013 230.395 35.1449 228.342 35.1449ZM228.342 30.5067C229.306 30.5067 230.205 30.2786 231.042 29.8224C231.903 29.3409 232.588 28.6312 233.095 27.6934C233.602 26.7557 233.855 25.6151 233.855 24.2719C233.855 22.2696 233.323 20.7362 232.258 19.6717C231.219 18.5819 229.939 18.037 228.419 18.037C226.898 18.037 225.618 18.5819 224.579 19.6717C223.565 20.7362 223.058 22.2696 223.058 24.2719C223.058 26.2741 223.552 27.8202 224.541 28.91C225.555 29.9745 226.822 30.5067 228.342 30.5067Z" fill="#D83B01"/>
<path d="M263.117 13.741V34.8027H257.757V32.1415C257.072 33.0539 256.172 33.7762 255.057 34.3085C253.967 34.8154 252.776 35.0688 251.484 35.0688C249.836 35.0688 248.379 34.7267 247.112 34.0424C245.844 33.3327 244.843 32.3062 244.108 30.9629C243.399 29.5943 243.044 27.9722 243.044 26.0967V13.741H248.366V25.3363C248.366 27.0091 248.784 28.3017 249.621 29.2141C250.457 30.1012 251.598 30.5448 253.042 30.5448C254.512 30.5448 255.666 30.1012 256.502 29.2141C257.338 28.3017 257.757 27.0091 257.757 25.3363V13.741H263.117Z" fill="#D83B01"/>
<path d="M273.691 17.0105C274.375 15.8953 275.262 15.0209 276.352 14.3873C277.467 13.7537 278.735 13.4368 280.154 13.4368V19.0254H278.747C277.074 19.0254 275.807 19.4183 274.946 20.204C274.109 20.9897 273.691 22.3583 273.691 24.3099V34.8027H268.368V13.741H273.691V17.0105Z" fill="#D83B01"/>
<path d="M34.492 95.7978H26.5083L8.43096 68.4822V95.7978H0.447266V55.9364H8.43096L26.5083 83.309V55.9364H34.492V95.7978Z" fill="white"/>
<path d="M71.7503 79.3172C71.7503 80.4577 71.6742 81.4842 71.5222 82.3966H48.4265C48.6166 84.6777 49.4149 86.4645 50.8216 87.7571C52.2282 89.0497 53.958 89.696 56.011 89.696C58.9764 89.696 61.0863 88.4224 62.3409 85.8752H70.9519C70.0395 88.9166 68.2907 91.4258 65.7055 93.4027C63.1203 95.3416 59.9458 96.311 56.1821 96.311C53.1407 96.311 50.4034 95.6457 47.9703 94.3151C45.5752 92.9465 43.6933 91.0266 42.3247 88.5555C40.994 86.0843 40.3287 83.233 40.3287 80.0015C40.3287 76.732 40.994 73.8617 42.3247 71.3905C43.6553 68.9194 45.5181 67.0185 47.9132 65.6879C50.3083 64.3573 53.0646 63.692 56.1821 63.692C59.1855 63.692 61.8657 64.3383 64.2228 65.6309C66.6179 66.9235 68.4617 68.7673 69.7543 71.1624C71.085 73.5195 71.7503 76.2378 71.7503 79.3172ZM63.4814 77.0361C63.4434 74.9832 62.7021 73.3484 61.2574 72.1319C59.8127 70.8773 58.0449 70.25 55.954 70.25C53.9771 70.25 52.3043 70.8583 50.9356 72.0748C49.605 73.2534 48.7876 74.9072 48.4835 77.0361H63.4814Z" fill="white"/>
<path d="M121.374 64.2052L112.136 95.7978H103.525L97.765 73.7286L92.0053 95.7978H83.3373L74.042 64.2052H82.1397L87.7283 88.2703L93.7731 64.2052H102.213L108.144 88.2133L113.732 64.2052H121.374Z" fill="white"/>
<path d="M137.783 96.311C135.198 96.311 132.879 95.8548 130.826 94.9424C128.773 93.992 127.138 92.7184 125.922 91.1217C124.743 89.5249 124.097 87.7571 123.983 85.8182H132.024C132.176 87.0348 132.765 88.0422 133.791 88.8406C134.856 89.6389 136.167 90.0381 137.726 90.0381C139.247 90.0381 140.425 89.734 141.262 89.1257C142.136 88.5174 142.573 87.7381 142.573 86.7876C142.573 85.7612 142.041 85.0008 140.977 84.5066C139.95 83.9743 138.296 83.4041 136.015 82.7958C133.658 82.2255 131.719 81.6363 130.199 81.028C128.716 80.4197 127.423 79.4883 126.321 78.2337C125.256 76.9791 124.724 75.2873 124.724 73.1583C124.724 71.4095 125.218 69.8128 126.207 68.3681C127.233 66.9234 128.678 65.7829 130.541 64.9465C132.442 64.1101 134.666 63.692 137.213 63.692C140.977 63.692 143.98 64.6424 146.223 66.5433C148.466 68.4061 149.702 70.9343 149.93 74.1278H142.288C142.174 72.8732 141.642 71.8848 140.692 71.1624C139.779 70.4021 138.544 70.0219 136.985 70.0219C135.54 70.0219 134.419 70.288 133.62 70.8203C132.86 71.3525 132.48 72.0938 132.48 73.0443C132.48 74.1088 133.012 74.9261 134.076 75.4964C135.141 76.0287 136.795 76.5799 139.038 77.1502C141.319 77.7204 143.201 78.3097 144.683 78.918C146.166 79.5263 147.44 80.4767 148.504 81.7693C149.607 83.0239 150.177 84.6967 150.215 86.7876C150.215 88.6125 149.702 90.2472 148.675 91.6919C147.687 93.1366 146.242 94.2771 144.341 95.1135C142.478 95.9119 140.292 96.311 137.783 96.311Z" fill="white"/>
<path d="M164.752 53.5983V95.7978H156.769V53.5983H164.752Z" fill="white"/>
<path d="M202.009 79.3172C202.009 80.4577 201.933 81.4842 201.781 82.3966H178.685C178.875 84.6777 179.673 86.4645 181.08 87.7571C182.487 89.0497 184.216 89.696 186.269 89.696C189.235 89.696 191.345 88.4224 192.599 85.8752H201.21C200.298 88.9166 198.549 91.4258 195.964 93.4027C193.379 95.3416 190.204 96.311 186.441 96.311C183.399 96.311 180.662 95.6457 178.229 94.3151C175.834 92.9465 173.952 91.0266 172.583 88.5555C171.252 86.0843 170.587 83.233 170.587 80.0015C170.587 76.732 171.252 73.8617 172.583 71.3905C173.914 68.9194 175.777 67.0185 178.172 65.6879C180.567 64.3573 183.323 63.692 186.441 63.692C189.444 63.692 192.124 64.3383 194.481 65.6309C196.876 66.9235 198.72 68.7673 200.013 71.1624C201.343 73.5195 202.009 76.2378 202.009 79.3172ZM193.74 77.0361C193.702 74.9832 192.96 73.3484 191.516 72.1319C190.071 70.8773 188.303 70.25 186.212 70.25C184.236 70.25 182.563 70.8583 181.194 72.0748C179.863 73.2534 179.046 74.9072 178.742 77.0361H193.74Z" fill="white"/>
<path d="M217.131 70.7632V86.0463C217.131 87.1108 217.378 87.8902 217.873 88.3844C218.405 88.8406 219.279 89.0687 220.496 89.0687H224.203V95.7978H219.184C212.455 95.7978 209.091 92.5283 209.091 85.9893V70.7632H205.327V64.2052H209.091V56.3926H217.131V64.2052H224.203V70.7632H217.131Z" fill="white"/>
<path d="M239.24 70.7632V86.0463C239.24 87.1108 239.487 87.8902 239.982 88.3844C240.514 88.8406 241.388 89.0687 242.605 89.0687H246.311V95.7978H241.293C234.564 95.7978 231.2 92.5283 231.2 85.9893V70.7632H227.436V64.2052H231.2V56.3926H239.24V64.2052H246.311V70.7632H239.24Z" fill="white"/>
<path d="M281.422 79.3172C281.422 80.4577 281.346 81.4842 281.194 82.3966H258.099C258.289 84.6777 259.087 86.4645 260.494 87.7571C261.9 89.0497 263.63 89.696 265.683 89.696C268.648 89.696 270.758 88.4224 272.013 85.8752H280.624C279.712 88.9166 277.963 91.4258 275.378 93.4027C272.792 95.3416 269.618 96.311 265.854 96.311C262.813 96.311 260.076 95.6457 257.642 94.3151C255.247 92.9465 253.365 91.0266 251.997 88.5555C250.666 86.0843 250.001 83.233 250.001 80.0015C250.001 76.732 250.666 73.8617 251.997 71.3905C253.327 68.9194 255.19 67.0185 257.585 65.6879C259.98 64.3573 262.737 63.692 265.854 63.692C268.858 63.692 271.538 64.3383 273.895 65.6309C276.29 66.9235 278.134 68.7673 279.426 71.1624C280.757 73.5195 281.422 76.2378 281.422 79.3172ZM273.154 77.0361C273.116 74.9832 272.374 73.3484 270.93 72.1319C269.485 70.8773 267.717 70.25 265.626 70.25C263.649 70.25 261.976 70.8583 260.608 72.0748C259.277 73.2534 258.46 74.9072 258.156 77.0361H273.154Z" fill="white"/>
<path d="M295.233 69.1095C296.26 67.4367 297.591 66.1251 299.225 65.1746C300.898 64.2242 302.799 63.749 304.928 63.749V72.1319H302.818C300.309 72.1319 298.408 72.7211 297.115 73.8997C295.861 75.0782 295.233 77.1312 295.233 80.0585V95.7978H287.25V64.2052H295.233V69.1095Z" fill="white"/>
<path d="M87.4123 27.246V10.8224C87.4123 9.02288 87.8812 7.64158 88.8189 6.67847C89.7567 5.7407 91.0747 5.27181 92.7728 5.27181C94.4962 5.27181 95.8269 5.7407 96.7646 6.67847C97.7024 7.64158 98.1713 9.02288 98.1713 10.8224V27.246H103.532V10.8604C103.532 8.60469 103.038 6.69114 102.049 5.11974C101.086 3.5737 99.7807 2.40782 98.1333 1.62213C96.5112 0.836432 94.699 0.443583 92.6967 0.443583C90.7198 0.443583 88.9203 0.836432 87.2983 1.62213C85.7015 2.40782 84.4343 3.5737 83.4965 5.11974C82.5587 6.69114 82.0898 8.60469 82.0898 10.8604V27.246H87.4123Z" fill="#D83B01"/>
</svg>
