<svg xmlns="http://www.w3.org/2000/svg" width="306" height="97" fill="none"><path fill="#D83B01" d="M32.133 35.0283c-1.8502 0-3.5229-.3168-5.0183-.9504-1.47-.6336-2.6359-1.5461-3.4976-2.7373-.8617-1.1912-1.3053-2.5979-1.3306-4.2199h5.7026c.076 1.0898.4562 1.9515 1.1405 2.5852.7097.6336 1.6728.9504 2.8894.9504 1.2419 0 2.2177-.2915 2.9273-.8744.7097-.6083 1.0645-1.394 1.0645-2.3571 0-.7857-.2408-1.432-.7223-1.9389-.4816-.5069-1.0898-.8997-1.8249-1.1785-.7096-.3042-1.6981-.6337-2.9653-.9885-1.7235-.5069-3.1301-1.0011-4.22-1.4827-1.0645-.5069-1.9896-1.2546-2.7753-2.243-.7603-1.0138-1.1405-2.3571-1.1405-4.0299 0-1.5714.3929-2.94 1.1786-4.1059.7857-1.1658 1.8882-2.053 3.3075-2.6612 1.4193-.6336 3.0414-.9504 4.8662-.9504 2.7373 0 4.955.6716 6.6531 2.0149 1.7235 1.3179 2.6739 3.1681 2.8513 5.5506h-5.8547c-.0507-.9125-.4435-1.6601-1.1785-2.2431-.7097-.6083-1.6601-.9124-2.8513-.9124-1.0392 0-1.8756.2661-2.5092.7984-.6083.5322-.9124 1.3052-.9124 2.319 0 .7097.2281 1.3053.6843 1.7869.4816.4562 1.0645.8363 1.7488 1.1405.7097.2788 1.6981.6083 2.9654.9884 1.7234.5069 3.1301 1.0138 4.2199 1.5207 1.0899.5069 2.0276 1.2673 2.8133 2.2811.7857 1.0138 1.1786 2.3444 1.1786 3.9918 0 1.4194-.3675 2.7373-1.1025 3.9539-.735 1.2165-1.8122 2.1923-3.2315 2.9273-1.4194.7097-3.1048 1.0645-5.0564 1.0645Zm16.704-23.837c-.9378 0-1.7235-.2915-2.3571-.8744-.6083-.6083-.9124-1.356-.9124-2.243 0-.8871.3041-1.6221.9124-2.205.6336-.6083 1.4193-.9125 2.3571-.9125s1.7108.3042 2.3191.9124c.6336.583.9504 1.318.9504 2.205 0 .8871-.3168 1.6348-.9504 2.2431-.6083.5829-1.3813.8744-2.3191.8744Zm2.6232 2.5092v21.0617h-5.3224V13.7005h5.3224Zm13.5084-.3422c1.5714 0 2.9527.3168 4.1439.9504 1.1913.6083 2.129 1.4067 2.8133 2.3951v-3.0033h5.3605v21.2138c0 1.9515-.3928 3.6877-1.1785 5.2084-.7857 1.546-1.9643 2.7626-3.5357 3.6497-1.5713.9124-3.4722 1.3686-5.7026 1.3686-2.9907 0-5.4492-.697-7.3754-2.091-1.9009-1.394-2.978-3.2948-3.2315-5.7026h5.2844c.2788.9631.8745 1.7235 1.7869 2.281.9377.583 2.0656.8744 3.3835.8744 1.5461 0 2.8007-.4688 3.7638-1.4066.9631-.9124 1.4446-2.3064 1.4446-4.1819v-3.2695c-.6843.9884-1.6347 1.8121-2.8513 2.4711-1.1912.659-2.5598.9884-4.1059.9884-1.7741 0-3.3962-.4562-4.8662-1.3686-1.47-.9124-2.6359-2.1923-3.4976-3.8398-.8364-1.6727-1.2546-3.5863-1.2546-5.7406 0-2.129.4182-4.0172 1.2546-5.6646.8617-1.6475 2.0149-2.9147 3.4596-3.8018 1.47-.8871 3.1047-1.3306 4.9042-1.3306Zm6.9572 10.873c0-1.2926-.2534-2.3951-.7603-3.3075-.5069-.9378-1.1912-1.6474-2.053-2.129-.8617-.5069-1.7868-.7603-2.7752-.7603-.9885 0-1.9009.2407-2.7373.7223-.8364.4816-1.5207 1.1912-2.053 2.129-.5069.9124-.7603 2.0022-.7603 3.2695 0 1.2672.2534 2.3824.7603 3.3455.5323.9378 1.2166 1.6601 2.053 2.167.8617.5069 1.7741.7604 2.7373.7604.9884 0 1.9135-.2408 2.7752-.7223.8618-.5069 1.5461-1.2166 2.053-2.129.5069-.9378.7603-2.053.7603-3.3456ZM103.711 8.226v16.4235c0 1.7995.469 3.1808 1.407 4.1439.938.9378 2.256 1.4067 3.954 1.4067 1.723 0 3.054-.4689 3.992-1.4067.937-.9631 1.406-2.3444 1.406-4.1439V8.2259h5.361v16.3856c0 2.2557-.495 4.1693-1.483 5.7407-.963 1.546-2.268 2.7119-3.916 3.4976-1.622.7857-3.434 1.1785-5.436 1.1785-1.977 0-3.777-.3928-5.399-1.1785-1.597-.7857-2.864-1.9516-3.8016-3.4976-.9377-1.5714-1.4066-3.485-1.4066-5.7407V8.2259h5.3222Zm24.416 8.5159c.685-.9631 1.622-1.7615 2.814-2.3951 1.216-.659 2.598-.9885 4.144-.9885 1.799 0 3.421.4435 4.866 1.3306 1.47.8871 2.623 2.1543 3.459 3.8018.862 1.6221 1.293 3.5103 1.293 5.6646s-.431 4.0679-1.293 5.7406c-.836 1.6475-1.989 2.9274-3.459 3.8398-1.445.9124-3.067 1.3686-4.866 1.3686-1.546 0-2.915-.3168-4.106-.9504-1.166-.6336-2.117-1.432-2.852-2.3951v13.04h-5.322V13.7005h5.322v3.0414Zm11.14 7.4134c0-1.2673-.267-2.3571-.799-3.2695-.507-.9378-1.191-1.6474-2.053-2.129-.836-.4816-1.749-.7223-2.737-.7223-.963 0-1.876.2534-2.737.7603-.837.4816-1.521 1.1912-2.053 2.129-.507.9378-.761 2.0403-.761 3.3075 0 1.2673.254 2.3698.761 3.3076.532.9377 1.216 1.6601 2.053 2.167.861.4815 1.774.7223 2.737.7223.988 0 1.901-.2535 2.737-.7604.862-.5069 1.546-1.2292 2.053-2.167.532-.9377.799-2.0529.799-3.3455Zm28.019-6.0828h-3.688v16.6897H158.2V18.0725h-2.395v-4.372h2.395V12.636c0-2.5852.735-4.4861 2.205-5.7027 1.47-1.2165 3.688-1.7868 6.653-1.7108v4.4861c-1.293-.0253-2.192.1901-2.699.6463-.507.4562-.761 1.2799-.761 2.4712v.8744h3.688v4.372Zm12.802 17.0318c-2.028 0-3.853-.4435-5.475-1.3306-1.622-.9124-2.902-2.1923-3.84-3.8397-.912-1.6475-1.368-3.5483-1.368-5.7027 0-2.1543.469-4.0552 1.406-5.7026.963-1.6474 2.269-2.9147 3.916-3.8018 1.648-.9124 3.485-1.3686 5.513-1.3686 2.027 0 3.865.4562 5.512 1.3686 1.648.8871 2.94 2.1544 3.878 3.8018.963 1.6474 1.445 3.5483 1.445 5.7026 0 2.1544-.495 4.0552-1.483 5.7027-.963 1.6474-2.281 2.9273-3.954 3.8397-1.647.8871-3.497 1.3306-5.55 1.3306Zm0-4.6381c.963 0 1.862-.2281 2.699-.6843.862-.4816 1.546-1.1912 2.053-2.129.507-.9378.76-2.0783.76-3.4216 0-2.0022-.532-3.5356-1.597-4.6001-1.039-1.0898-2.319-1.6348-3.839-1.6348-1.521 0-2.801.545-3.84 1.6348-1.014 1.0645-1.521 2.5979-1.521 4.6001 0 2.0023.494 3.5483 1.483 4.6382 1.014 1.0645 2.281 1.5967 3.802 1.5967ZM200.301 16.97c.685-1.1152 1.572-1.9896 2.662-2.6232 1.115-.6337 2.382-.9505 3.801-.9505v5.5886h-1.406c-1.673 0-2.94.3929-3.802 1.1785-.836.7857-1.255 2.1544-1.255 4.1059v10.4929h-5.322V13.7005h5.322V16.97Zm28.459 18.1343c-2.027 0-3.852-.4435-5.474-1.3306-1.622-.9124-2.902-2.1923-3.84-3.8397-.912-1.6475-1.368-3.5483-1.368-5.7027 0-2.1543.468-4.0552 1.406-5.7026.963-1.6474 2.269-2.9147 3.916-3.8018 1.647-.9124 3.485-1.3686 5.513-1.3686 2.027 0 3.865.4562 5.512 1.3686 1.648.8871 2.94 2.1544 3.878 3.8018.963 1.6474 1.445 3.5483 1.445 5.7026 0 2.1544-.495 4.0552-1.483 5.7027-.963 1.6474-2.281 2.9273-3.954 3.8397-1.647.8871-3.498 1.3306-5.551 1.3306Zm0-4.6381c.964 0 1.863-.2281 2.7-.6843.861-.4816 1.546-1.1912 2.053-2.129.507-.9378.76-2.0783.76-3.4216 0-2.0022-.532-3.5356-1.597-4.6001-1.039-1.0898-2.319-1.6348-3.839-1.6348-1.521 0-2.801.545-3.84 1.6348-1.014 1.0645-1.521 2.5979-1.521 4.6001 0 2.0023.494 3.5483 1.483 4.6382 1.014 1.0645 2.281 1.5967 3.801 1.5967Zm34.775-16.7657v21.0617h-5.361V32.101c-.684.9124-1.584 1.6347-2.699 2.167-1.09.5069-2.281.7603-3.573.7603-1.648 0-3.105-.3421-4.372-1.0265-1.268-.7096-2.269-1.7361-3.004-3.0794-.709-1.3686-1.064-2.9907-1.064-4.8662V13.7005h5.322v11.5953c0 1.6728.418 2.9654 1.255 3.8778.836.8871 1.977 1.3306 3.421 1.3306 1.47 0 2.624-.4435 3.46-1.3306.836-.9124 1.254-2.205 1.254-3.8778V13.7005h5.361Zm10.574 3.2695c.684-1.1152 1.571-1.9896 2.661-2.6232 1.115-.6337 2.383-.9505 3.802-.9505v5.5886h-1.407c-1.673 0-2.94.3929-3.802 1.1785-.836.7857-1.254 2.1544-1.254 4.1059v10.4929h-5.323V13.7005h5.323V16.97Z"/><path fill="#222120" d="M34.91 95.7573h-7.9837L8.8489 68.4416v27.3157H.8652V55.8958H8.849l18.0774 27.3727V55.8958H34.91v39.8615Zm37.2582-16.4807c0 1.1406-.076 2.1671-.2281 3.0795H48.8445c.19 2.281.9884 4.0679 2.3951 5.3605 1.4066 1.2926 3.1364 1.9388 5.1894 1.9388 2.9653 0 5.0753-1.2735 6.3299-3.8207h8.611c-.9125 3.0414-2.6613 5.5506-5.2465 7.5275-2.5852 1.9389-5.7596 2.9083-9.5234 2.9083-3.0414 0-5.7786-.6653-8.2118-1.9959-2.3951-1.3687-4.2769-3.2885-5.6456-5.7597-1.3306-2.4711-1.9959-5.3224-1.9959-8.5539 0-3.2695.6653-6.1399 1.9959-8.611 1.3306-2.4711 3.1935-4.372 5.5886-5.7026 2.3951-1.3307 5.1514-1.996 8.2688-1.996 3.0034 0 5.6837.6463 8.0407 1.9389 2.3952 1.2926 4.239 3.1365 5.5316 5.5316 1.3306 2.3571 1.9959 5.0753 1.9959 8.1547Zm-8.2688-2.281c-.038-2.0529-.7794-3.6877-2.224-4.9043-1.4447-1.2545-3.2125-1.8818-5.3035-1.8818-1.9769 0-3.6497.6082-5.0183 1.8248-1.3306 1.1786-2.148 2.8323-2.4521 4.9613h14.9979Zm57.8926-12.8309-9.238 31.5926h-8.611l-5.7601-22.0692-5.7596 22.0692h-8.668L74.46 64.1647h8.0977l5.5886 24.0651 6.0448-24.0651h8.4399l5.931 24.0081 5.588-24.0081h7.642Zm16.409 32.1058c-2.585 0-4.904-.4562-6.957-1.3686-2.053-.9505-3.688-2.224-4.904-3.8208-1.179-1.5967-1.825-3.3645-1.939-5.3034h8.041c.152 1.2165.741 2.224 1.767 3.0223 1.065.7984 2.376 1.1976 3.935 1.1976 1.521 0 2.699-.3041 3.536-.9124.874-.6083 1.311-1.3877 1.311-2.3381 0-1.0265-.532-1.7868-1.596-2.2811-1.027-.5322-2.681-1.1025-4.962-1.7107-2.357-.5703-4.296-1.1596-5.816-1.7679-1.483-.6082-2.776-1.5397-3.878-2.7943-1.065-1.2545-1.597-2.9463-1.597-5.0753 0-1.7488.494-3.3455 1.483-4.7902 1.026-1.4447 2.471-2.5852 4.334-3.4216 1.901-.8364 4.125-1.2546 6.672-1.2546 3.764 0 6.767.9505 9.01 2.8513 2.243 1.8629 3.479 4.3911 3.707 7.5846h-7.642c-.114-1.2546-.646-2.2431-1.596-2.9654-.913-.7604-2.148-1.1405-3.707-1.1405-1.445 0-2.566.2661-3.365.7983-.76.5323-1.14 1.2736-1.14 2.2241 0 1.0644.532 1.8818 1.596 2.4521 1.065.5322 2.719 1.0835 4.962 1.6537 2.281.5703 4.163 1.1596 5.645 1.7679 1.483.6083 2.757 1.5587 3.821 2.8513 1.103 1.2546 1.673 2.9273 1.711 5.0183 0 1.8248-.513 3.4596-1.54 4.9043-.988 1.4446-2.433 2.5852-4.334 3.4216-1.863.7983-4.049 1.1975-6.558 1.1975Zm26.969-42.7127v42.1995h-7.984V53.5578h7.984Zm37.257 25.7188c0 1.1406-.076 2.1671-.228 3.0795h-23.096c.19 2.281.988 4.0679 2.395 5.3605 1.407 1.2926 3.136 1.9388 5.189 1.9388 2.966 0 5.076-1.2735 6.33-3.8207h8.611c-.912 3.0414-2.661 5.5506-5.246 7.5275-2.585 1.9389-5.76 2.9083-9.524 2.9083-3.041 0-5.778-.6653-8.211-1.9959-2.395-1.3687-4.277-3.2885-5.646-5.7597-1.331-2.4711-1.996-5.3224-1.996-8.5539 0-3.2695.665-6.1399 1.996-8.611 1.331-2.4711 3.194-4.372 5.589-5.7026 2.395-1.3307 5.151-1.996 8.268-1.996 3.004 0 5.684.6463 8.041 1.9389 2.395 1.2926 4.239 3.1365 5.532 5.5316 1.33 2.3571 1.996 5.0753 1.996 8.1547Zm-8.269-2.281c-.038-2.0529-.78-3.6877-2.224-4.9043-1.445-1.2545-3.213-1.8818-5.304-1.8818-1.977 0-3.649.6082-5.018 1.8248-1.331 1.1786-2.148 2.8323-2.452 4.9613h14.998Zm23.391-6.2729v15.2831c0 1.0645.247 1.8438.742 2.338.532.4563 1.406.6844 2.623.6844h3.707v6.7291h-5.019c-6.729 0-10.093-3.2695-10.093-9.8086v-15.226h-3.764v-6.558h3.764v-7.8126h8.04v7.8126h7.072v6.558h-7.072Zm22.109 0v15.2831c0 1.0645.247 1.8438.742 2.338.532.4563 1.406.6844 2.623.6844h3.706v6.7291h-5.018c-6.729 0-10.094-3.2695-10.094-9.8086v-15.226h-3.763v-6.558h3.763v-7.8126h8.041v7.8126h7.071v6.558h-7.071Zm42.182 8.5539c0 1.1406-.076 2.1671-.228 3.0795h-23.095c.19 2.281.988 4.0679 2.395 5.3605 1.406 1.2926 3.136 1.9388 5.189 1.9388 2.965 0 5.075-1.2735 6.33-3.8207h8.611c-.912 3.0414-2.661 5.5506-5.246 7.5275-2.586 1.9389-5.76 2.9083-9.524 2.9083-3.041 0-5.779-.6653-8.212-1.9959-2.395-1.3687-4.277-3.2885-5.645-5.7597-1.331-2.4711-1.996-5.3224-1.996-8.5539 0-3.2695.665-6.1399 1.996-8.611 1.33-2.4711 3.193-4.372 5.588-5.7026 2.395-1.3307 5.152-1.996 8.269-1.996 3.003 0 5.684.6463 8.041 1.9389 2.395 1.2926 4.239 3.1365 5.531 5.5316 1.331 2.3571 1.996 5.0753 1.996 8.1547Zm-8.268-2.281c-.039-2.0529-.78-3.6877-2.225-4.9043-1.444-1.2545-3.212-1.8818-5.303-1.8818-1.977 0-3.65.6082-5.018 1.8248-1.331 1.1786-2.148 2.8323-2.452 4.9613h14.998Zm22.079-7.9267c1.027-1.6727 2.357-2.9843 3.992-3.9348 1.673-.9504 3.574-1.4256 5.703-1.4256v8.3828h-2.11c-2.509 0-4.41.5893-5.703 1.7679-1.254 1.1785-1.882 3.2314-1.882 6.1588v15.7393h-7.983V64.1647h7.983v4.9042Z"/><path fill="#D83B01" d="M87.8303 27.2054V10.7819c0-1.7995.4688-3.1809 1.4066-4.144.9378-.9377 2.2557-1.4066 3.9538-1.4066 1.7235 0 3.0541.4689 3.9919 1.4066.9378.9631 1.4066 2.3445 1.4066 4.144v16.4235h5.3608V10.8199c0-2.2557-.495-4.1693-1.483-5.7407-.963-1.546-2.268-2.7119-3.9158-3.4976C96.9291.7959 95.117.4031 93.1147.4031c-1.9769 0-3.7764.3928-5.3985 1.1785-1.5967.7857-2.864 1.9516-3.8017 3.4976-.9378 1.5714-1.4067 3.485-1.4067 5.7407v16.3855h5.3225Z"/></svg>