<svg width="17" height="16" viewBox="0 0 17 16" fill="none" xmlns="http://www.w3.org/2000/svg">
<path d="M12.7594 0.666504H3.42611C2.54238 0.667562 1.69515 1.01909 1.07025 1.64398C0.445361 2.26888 0.093832 3.11611 0.0927734 3.99984L0.0927734 11.9998C0.093832 12.8836 0.445361 13.7308 1.07025 14.3557C1.69515 14.9806 2.54238 15.3321 3.42611 15.3332H12.7594C13.6432 15.3321 14.4904 14.9806 15.1153 14.3557C15.7402 13.7308 16.0917 12.8836 16.0928 11.9998V3.99984C16.0917 3.11611 15.7402 2.26888 15.1153 1.64398C14.4904 1.01909 13.6432 0.667562 12.7594 0.666504ZM3.42611 1.99984H12.7594C13.1586 2.00062 13.5485 2.12085 13.8787 2.34504C14.209 2.56923 14.4647 2.88714 14.6128 3.25784L9.50744 8.36384C9.13173 8.73805 8.62305 8.94815 8.09277 8.94815C7.5625 8.94815 7.05382 8.73805 6.67811 8.36384L1.57277 3.25784C1.72087 2.88714 1.97652 2.56923 2.30681 2.34504C2.63709 2.12085 3.02692 2.00062 3.42611 1.99984ZM12.7594 13.9998H3.42611C2.89567 13.9998 2.38697 13.7891 2.01189 13.4141C1.63682 13.039 1.42611 12.5303 1.42611 11.9998V4.99984L5.73544 9.3065C6.36119 9.93067 7.20894 10.2812 8.09277 10.2812C8.9766 10.2812 9.82436 9.93067 10.4501 9.3065L14.7594 4.99984V11.9998C14.7594 12.5303 14.5487 13.039 14.1737 13.4141C13.7986 13.7891 13.2899 13.9998 12.7594 13.9998Z" fill="#F5F5F5"/>
</svg>
