<svg width="18" height="18" viewBox="0 0 18 18" fill="none" xmlns="http://www.w3.org/2000/svg">
<path d="M9.41508 8.61816C9.97546 8.61817 10.5233 8.45199 10.9892 8.14066C11.4551 7.82933 11.8183 7.38683 12.0327 6.8691C12.2472 6.35138 12.3033 5.78169 12.194 5.23208C12.0846 4.68246 11.8148 4.17761 11.4185 3.78136C11.0223 3.38511 10.5174 3.11526 9.96783 3.00594C9.41822 2.89661 8.84853 2.95272 8.33081 3.16717C7.81308 3.38162 7.37058 3.74478 7.05925 4.21072C6.74792 4.67665 6.58175 5.22445 6.58175 5.78483C6.58175 6.53628 6.88026 7.25695 7.41161 7.7883C7.94296 8.31965 8.66363 8.61816 9.41508 8.61816ZM9.41508 4.36816C9.69527 4.36816 9.96917 4.45125 10.2021 4.60692C10.4351 4.76258 10.6167 4.98383 10.7239 5.2427C10.8311 5.50156 10.8592 5.7864 10.8045 6.06121C10.7499 6.33602 10.6149 6.58844 10.4168 6.78657C10.2187 6.98469 9.96626 7.11961 9.69146 7.17428C9.41665 7.22894 9.13181 7.20088 8.87294 7.09366C8.61408 6.98644 8.39283 6.80486 8.23716 6.57189C8.0815 6.33892 7.99841 6.06502 7.99841 5.78483C7.99841 5.40911 8.14767 5.04877 8.41334 4.7831C8.67902 4.51742 9.03936 4.36816 9.41508 4.36816ZM15.5492 6.60437L15.04 6.43508C15.1316 5.64169 15.0545 4.83789 14.8137 4.07639C14.5729 3.31489 14.1739 2.61289 13.6428 2.01642C13.1116 1.41995 12.4604 0.942494 11.7318 0.615353C11.0033 0.288212 10.2137 0.118779 9.41508 0.118164C8.60599 0.118476 7.80637 0.292197 7.07008 0.627622C6.3338 0.963047 5.67796 1.45238 5.14675 2.06266C4.61554 2.67294 4.2213 3.38999 3.9906 4.16549C3.75989 4.94099 3.69808 5.75693 3.80933 6.55833C3.13148 6.68472 2.50467 7.00452 2.0045 7.47916C1.65824 7.80836 1.38298 8.2049 1.19563 8.6444C1.00829 9.0839 0.912811 9.55707 0.915079 10.0348V12.9213C0.916567 13.6872 1.16568 14.4322 1.62525 15.0449C2.08481 15.6577 2.73019 16.1054 3.46508 16.3213L5.498 16.9588C5.83946 17.0651 6.19509 17.1188 6.5527 17.1182C6.87711 17.1177 7.19997 17.0734 7.5125 16.9864L11.6067 15.7752C11.9714 15.6756 12.3561 15.6756 12.7209 15.7752L14.4117 16.3418C14.8284 16.4433 15.2627 16.4488 15.6818 16.3579C16.101 16.2671 16.494 16.0823 16.8314 15.8175C17.1687 15.5526 17.4415 15.2147 17.6292 14.8291C17.817 14.4434 17.9147 14.0203 17.9151 13.5914V9.94416C17.9135 9.21133 17.6852 8.49693 17.2617 7.89888C16.8381 7.30084 16.24 6.84843 15.5492 6.60366V6.60437ZM6.41033 2.78291C6.80434 2.3873 7.2726 2.07339 7.78824 1.8592C8.30387 1.64501 8.85673 1.53475 9.41508 1.53475C9.97343 1.53475 10.5263 1.64501 11.0419 1.8592C11.5576 2.07339 12.0258 2.3873 12.4198 2.78291C13.2147 3.58272 13.6615 4.66412 13.6629 5.79173C13.6644 6.91934 13.2204 8.00188 12.4276 8.80375L9.91091 11.251C9.77956 11.3798 9.60293 11.452 9.41897 11.452C9.23501 11.452 9.05839 11.3798 8.92704 11.251L6.41033 8.81437C5.61379 8.01282 5.16671 6.92868 5.16671 5.79864C5.16671 4.66861 5.61379 3.58447 6.41033 2.78291ZM16.4984 13.5914C16.4988 13.8059 16.4503 14.0177 16.3565 14.2107C16.2628 14.4036 16.1262 14.5727 15.9572 14.7049C15.7976 14.8332 15.6116 14.9248 15.4126 14.9732C15.2135 15.0216 15.0062 15.0255 14.8055 14.9847L13.1445 14.4265C12.5162 14.246 11.8503 14.2421 11.2199 14.4152L7.12291 15.625C6.72927 15.7336 6.31269 15.7264 5.923 15.6045L3.87308 14.967C3.42942 14.8387 3.03934 14.5699 2.76142 14.201C2.4835 13.8322 2.33273 13.3831 2.33175 12.9213V10.0348C2.33015 9.74851 2.38714 9.46489 2.49921 9.20141C2.61128 8.93793 2.77606 8.70015 2.98341 8.50271C3.30801 8.19335 3.72151 7.99366 4.16562 7.93179C4.45115 8.63954 4.87635 9.28251 5.41583 9.82233L7.94245 12.2682C8.33736 12.6549 8.86805 12.8714 9.42075 12.8714C9.97344 12.8714 10.5041 12.6549 10.899 12.2682L13.4228 9.81525C13.9879 9.2479 14.4257 8.56672 14.707 7.81704L15.0874 7.94312C15.4999 8.09094 15.8568 8.36242 16.1093 8.72054C16.3618 9.07866 16.4977 9.50597 16.4984 9.94416V13.5914Z" fill="#222120"/>
</svg>
