<svg width="17" height="17" viewBox="0 0 17 17" fill="none" xmlns="http://www.w3.org/2000/svg">
<g clip-path="url(#clip0_1027_116)">
<path d="M8.50004 8.5C9.06042 8.5 9.60822 8.33383 10.0742 8.0225C10.5401 7.71117 10.9033 7.26866 11.1177 6.75094C11.3321 6.23321 11.3883 5.66352 11.2789 5.11391C11.1696 4.5643 10.8998 4.05945 10.5035 3.6632C10.1073 3.26695 9.60241 2.9971 9.0528 2.88778C8.50318 2.77845 7.93349 2.83456 7.41577 3.04901C6.89805 3.26346 6.45554 3.62661 6.14421 4.09255C5.83288 4.55849 5.66671 5.10629 5.66671 5.66667C5.66671 6.41811 5.96522 7.13878 6.49657 7.67014C7.02792 8.20149 7.74859 8.5 8.50004 8.5ZM8.50004 4.25C8.78023 4.25 9.05413 4.33309 9.2871 4.48875C9.52007 4.64442 9.70165 4.86567 9.80887 5.12453C9.91609 5.38339 9.94415 5.66824 9.88949 5.94304C9.83482 6.21785 9.6999 6.47028 9.50177 6.6684C9.30365 6.86653 9.05122 7.00145 8.77642 7.05611C8.50161 7.11078 8.21677 7.08272 7.9579 6.9755C7.69904 6.86827 7.47779 6.68669 7.32212 6.45372C7.16646 6.22076 7.08337 5.94686 7.08337 5.66667C7.08337 5.29094 7.23263 4.93061 7.49831 4.66493C7.76398 4.39926 8.12432 4.25 8.50004 4.25ZM14.6342 6.48621L14.1249 6.31692C14.2166 5.52353 14.1395 4.71973 13.8987 3.95823C13.6579 3.19673 13.2588 2.49472 12.7277 1.89826C12.1966 1.30179 11.5454 0.82433 10.8168 0.497189C10.0882 0.170048 9.2987 0.000614466 8.50004 0C7.69095 0.000312353 6.89133 0.174033 6.15504 0.509458C5.41876 0.844883 4.76292 1.33422 4.23171 1.9445C3.7005 2.55478 3.30626 3.27182 3.07556 4.04732C2.84486 4.82282 2.78304 5.63876 2.89429 6.44017C2.21644 6.56656 1.58963 6.88636 1.08946 7.361C0.743204 7.6902 0.467943 8.08673 0.280595 8.52623C0.0932471 8.96573 -0.00222797 9.43891 3.94592e-05 9.91667V12.8031C0.00152809 13.5691 0.250642 14.314 0.710208 14.9267C1.16977 15.5395 1.81515 15.9872 2.55004 16.2031L4.58296 16.8406C4.92442 16.9469 5.28005 17.0006 5.63766 17C5.96207 16.9996 6.28493 16.9553 6.59746 16.8683L10.6916 15.657C11.0564 15.5575 11.4411 15.5575 11.8058 15.657L13.4966 16.2237C13.9133 16.3251 14.3476 16.3306 14.7668 16.2398C15.1859 16.1489 15.579 15.9641 15.9163 15.6993C16.2537 15.4345 16.5265 15.0965 16.7142 14.7109C16.9019 14.3253 16.9997 13.9021 17 13.4732V9.826C16.9984 9.09316 16.7702 8.37876 16.3467 7.78072C15.9231 7.18268 15.325 6.73026 14.6342 6.4855V6.48621ZM5.49529 2.66475C5.8893 2.26914 6.35757 1.95523 6.8732 1.74104C7.38883 1.52684 7.94169 1.41658 8.50004 1.41658C9.05839 1.41658 9.61125 1.52684 10.1269 1.74104C10.6425 1.95523 11.1108 2.26914 11.5048 2.66475C12.2997 3.46456 12.7464 4.54595 12.7479 5.67356C12.7494 6.80117 12.3054 7.88372 11.5126 8.68558L8.99587 11.1329C8.86452 11.2617 8.68789 11.3338 8.50394 11.3338C8.31998 11.3338 8.14335 11.2617 8.012 11.1329L5.49529 8.69621C4.69875 7.89465 4.25167 6.81051 4.25167 5.68048C4.25167 4.55045 4.69875 3.46631 5.49529 2.66475V2.66475ZM15.5834 13.4732C15.5838 13.6877 15.5353 13.8996 15.4415 14.0925C15.3477 14.2855 15.2112 14.4545 15.0422 14.5867C14.8826 14.7151 14.6966 14.8067 14.4975 14.855C14.2985 14.9034 14.0912 14.9073 13.8905 14.8665L12.2294 14.3083C11.6011 14.1278 10.9352 14.1239 10.3049 14.297L6.20787 15.5068C5.81423 15.6154 5.39765 15.6083 5.00796 15.4863L2.95804 14.8488C2.51438 14.7205 2.1243 14.4517 1.84638 14.0829C1.56846 13.714 1.41769 13.265 1.41671 12.8031V9.91667C1.41511 9.63035 1.4721 9.34673 1.58417 9.08325C1.69624 8.81976 1.86102 8.58199 2.06837 8.38454C2.39297 8.07519 2.80647 7.8755 3.25058 7.81363C3.53611 8.52138 3.96131 9.16435 4.50079 9.70417L7.02741 12.15C7.42232 12.5367 7.95301 12.7533 8.50571 12.7533C9.0584 12.7533 9.5891 12.5367 9.984 12.15L12.5078 9.69708C13.0729 9.12973 13.5106 8.44856 13.792 7.69888L14.1724 7.82496C14.5849 7.97277 14.9417 8.24426 15.1943 8.60238C15.4468 8.9605 15.5827 9.3878 15.5834 9.826V13.4732Z" fill="#F5F5F5"/>
</g>
<defs>
<clipPath id="clip0_1027_116">
<rect width="17" height="17" fill="white"/>
</clipPath>
</defs>
</svg>
