<svg width="17" height="17" viewBox="0 0 17 17" fill="none" xmlns="http://www.w3.org/2000/svg">
<path d="M16.3579 11.8773C16.7691 12.2896 17 12.8482 17 13.4305C17 14.0128 16.7691 14.5713 16.3579 14.9836L15.7109 15.7286C9.89946 21.2898 -4.2399 7.15406 1.23733 1.32535L2.05253 0.615827C2.46552 0.216205 3.0191 -0.00496003 3.59374 8.44352e-05C4.16839 0.0051289 4.71799 0.235978 5.1239 0.642789C5.14519 0.664784 6.45987 2.37331 6.45987 2.37331C6.84985 2.78302 7.067 3.32723 7.06621 3.89289C7.06542 4.45854 6.84674 5.00215 6.45561 5.41076L5.63331 6.44454C6.08799 7.54934 6.75648 8.5534 7.60037 9.39904C8.44427 10.2447 9.44694 10.9152 10.5508 11.3722L11.5902 10.5456C11.9987 10.1546 12.5422 9.93606 13.1076 9.93527C13.6731 9.93448 14.2171 10.1515 14.6268 10.5413C14.6268 10.5413 16.3359 11.856 16.3579 11.8773ZM15.3824 12.909C15.3824 12.909 13.6846 11.602 13.6626 11.5808C13.5164 11.4358 13.3189 11.3545 13.1131 11.3545C12.9072 11.3545 12.7097 11.4358 12.5636 11.5808C12.5444 11.5992 11.1134 12.7401 11.1134 12.7401C11.017 12.8169 10.9022 12.8672 10.7804 12.8861C10.6586 12.905 10.534 12.8919 10.4188 12.848C8.98792 12.3158 7.68826 11.4821 6.60804 10.4033C5.52783 9.32447 4.69234 8.02589 4.15829 6.59566C4.11157 6.47939 4.09648 6.35281 4.11455 6.22881C4.13262 6.1048 4.18321 5.9878 4.26117 5.88969C4.26117 5.88969 5.40131 4.45859 5.42047 4.43943C5.56539 4.29326 5.64671 4.09575 5.64671 3.88991C5.64671 3.68406 5.56539 3.48656 5.42047 3.34038C5.39918 3.3191 4.09231 1.62051 4.09231 1.62051C3.94404 1.48738 3.75048 1.41602 3.55129 1.42103C3.3521 1.42604 3.16237 1.50706 3.02098 1.64747L2.20578 2.35699C-1.79856 7.16896 10.4564 18.7455 14.6729 14.7608L15.3199 14.0158C15.4725 13.8758 15.5644 13.6818 15.576 13.4751C15.5877 13.2684 15.5182 13.0652 15.3824 12.909Z" fill="#F5F5F5"/>
</svg>
