<svg width="18" height="18" viewBox="0 0 18 18" fill="none" xmlns="http://www.w3.org/2000/svg">
<path d="M17.2739 11.9955C17.6851 12.4078 17.916 12.9663 17.916 13.5486C17.916 14.1309 17.6851 14.6895 17.2739 15.1018L16.6269 15.8468C10.8155 21.408 -3.32389 7.27222 2.15335 1.44351L2.96855 0.733991C3.38154 0.334369 3.93511 0.113204 4.50976 0.118248C5.0844 0.123293 5.63401 0.354142 6.03992 0.760953C6.0612 0.782948 7.37588 2.49147 7.37588 2.49147C7.76586 2.90118 7.98302 3.4454 7.98223 4.01105C7.98143 4.57671 7.76275 5.12031 7.37162 5.52893L6.54933 6.5627C7.004 7.6675 7.67249 8.67157 8.51639 9.51721C9.36028 10.3628 10.363 11.0334 11.4668 11.4903L12.5062 10.6637C12.9147 10.2728 13.4582 10.0542 14.0236 10.0534C14.5891 10.0526 15.1331 10.2697 15.5428 10.6595C15.5428 10.6595 17.2519 11.9742 17.2739 11.9955ZM16.2984 13.0271C16.2984 13.0271 14.6006 11.7202 14.5786 11.6989C14.4324 11.554 14.2349 11.4727 14.0291 11.4727C13.8233 11.4727 13.6258 11.554 13.4796 11.6989C13.4604 11.7174 12.0294 12.8583 12.0294 12.8583C11.933 12.935 11.8182 12.9854 11.6964 13.0043C11.5746 13.0232 11.45 13.01 11.3348 12.9661C9.90393 12.434 8.60427 11.6002 7.52406 10.5214C6.44384 9.44264 5.60835 8.14405 5.07431 6.71383C5.02759 6.59755 5.01249 6.47097 5.03056 6.34697C5.04863 6.22297 5.09922 6.10596 5.17718 6.00785C5.17718 6.00785 6.31733 4.57675 6.33648 4.5576C6.48141 4.41142 6.56272 4.21392 6.56272 4.00807C6.56272 3.80223 6.48141 3.60472 6.33648 3.45855C6.3152 3.43726 5.00832 1.73867 5.00832 1.73867C4.86006 1.60555 4.66649 1.53418 4.4673 1.53919C4.26811 1.54421 4.07838 1.62522 3.937 1.76563L3.1218 2.47515C-0.882543 7.28712 11.3724 18.8637 15.5889 14.879L16.236 14.134C16.3885 13.994 16.4804 13.8 16.492 13.5933C16.5037 13.3865 16.4342 13.1834 16.2984 13.0271Z" fill="#222120"/>
</svg>
